M48
;GenerationSoftware,Autodesk,EAGLE,9.3.2*%
;CreationDate,2019-04-16T05:43:00Z*%
FMAT,2
ICI,OFF
METRIC,TZ,000.000
T5C0.350
T4C0.610
T3C3.000
T2C3.100
T1C5.000
%
G90
M71
T1
X23750Y-41136
X12294Y45881
X23750Y41136
X33588Y33588
X-41136Y23750
X41136Y23750
X-47500Y0
X-33588Y-33588
X33588Y-33588
X41136Y-23750
X45881Y-12294
X47500Y0
X-45881Y-12294
X-41136Y-23750
X-23750Y-41136
X-12294Y-45881
X0Y-47500
X-12294Y45881
X-23750Y41136
X-33588Y33588
X-45881Y12294
X45881Y12294
X12294Y-45881
X0Y47500
T2
X43884Y18177
X37684Y28916
X28916Y37684
X18177Y43884
X6200Y47094
X6200Y-47094
X47094Y6200
X18177Y-43884
X28916Y-37684
X37684Y-28916
X43884Y-18177
X47094Y-6200
X-47094Y-6200
X-43884Y-18177
X-37684Y-28916
X-28916Y-37684
X-18177Y-43884
X-6200Y-47094
X-18177Y43884
X-37684Y28916
X-43884Y18177
X-47094Y6200
X-28916Y37684
X-6200Y47094
T3
X9375Y-82000
X-9375Y-82000
X18177Y-35384
X-86511Y-49947
X86511Y-49947
X75702Y32881
X66327Y49119
X-66327Y49119
X-75702Y32881
X-18177Y-35384
T4
X-38176Y-33719
X-36690Y-42405
X-24232Y-48463
X-31432Y-51206
X-72123Y-21946
X-73952Y-20117
X-60236Y-5715
X-54635Y6629
X-51435Y-17145
X-57950Y13830
X52235Y-27889
X52235Y-25832
X48920Y-33604
X-64808Y-4000
X-68580Y-229
X-26518Y-21260
X-29375Y-18402
X-21488Y-13487
X-50749Y25146
X-52807Y24574
X-62179Y-38176
X-60808Y-36805
X-53035Y-36690
X-45263Y-31547
X-60922Y-14745
X-39776Y-39434
X-52692Y14059
X-56464Y-5715
X-23203Y-24232
X-26518Y-19431
X60808Y-35547
X62865Y-33490
X55893Y-26403
X55778Y-17945
X4229Y-59779
X2400Y-57950
X49263Y-35662
T5
X-30175Y-49378
X-36119Y-15773
X-39548Y-3658
X-49835Y27089
X-58636Y-41720
X67551Y-33604
X53378Y-55664
X66866Y-37833
X32690Y-67666
X-22631Y-21946
X6172Y-21946
X17831Y-10173
X-25375Y-23317
X21488Y-7658
X-27089Y-25717
X35776Y-11201
X-65494Y-39891
X-39434Y-65951
X-26175Y22974
X-26175Y-8230
X-25717Y-11887
X-26975Y-16231
X-19774Y31318
X-28689Y-20345
X-8915Y39091
X-9487Y34747
X-28689Y-11773
X1029Y40119
X-1486Y37376
X-27889Y-12459
X10973Y40119
X8458Y34976
X-27089Y-11887
X20803Y35662
X17945Y31204
X-26403Y-12573
X29146Y27661
X25489Y25489
X-24689Y-11773
X31432Y17717
X-26289Y-17031
X54292Y13602
X51435Y10859
X57036Y-26175
X58293Y-1486
X62522Y-28118
X49378Y-16574
X49378Y-32347
X39891Y-41948
X54064Y-29604
X16002Y-54178
X57150Y-32118
X1257Y-56236
X58522Y-33604
X-59436Y-33376
X-30975Y-16916
X17374Y-12802
X-37605Y-55321
X-44120Y-34290
X-46520Y-31890
X-54407Y-35776
X72581Y10401
X64237Y-33376
X-69609Y-4915
X-62636Y-27318
X72238Y7772
X60122Y-38519
X-71323Y-2400
X-60122Y-34061
X-70980Y-8915
X-49606Y-37605
X-54407Y-16116
X-58522Y-37605
X-42291Y-41034
X-45148Y-41034
X-32461Y-49606
M30