M48
;GenerationSoftware,Autodesk,EAGLE,9.3.2*%
;CreationDate,2019-05-24T04:17:38Z*%
FMAT,2
ICI,OFF
METRIC,TZ,000.000
T12C0.350
T11C0.610
T10C0.813
T9C0.965
T8C1.016
T7C1.397
T6C1.500
T5C2.100
T4C2.350
T3C3.000
T2C3.302
T1C4.500
%
G90
M71
T1
X33980Y13970
X26980Y13970
T2
X48200Y45720
X48200Y22860
T3
X0Y-92500
X-87685Y-50625
X-87685Y50625
X-70859Y59458
X70859Y59458
X87685Y50625
X7500Y0
X-7500Y0
X-51818Y-29916
X-70859Y-59458
X70859Y-59458
X87685Y-50625
X51818Y-29916
T4
X49800Y-13650
X49800Y13650
X-49800Y13650
X-49800Y-13650
T5
X46780Y-37460
X46780Y-42160
T6
X10610Y26670
X35110Y26670
T7
X-45500Y-18500
X-5000Y10000
X-37500Y12000
T8
X-36271Y-37109
X-29769Y-34011
X-29769Y-29489
X-36271Y-34011
X-36271Y-29489
X46930Y38100
X46930Y35560
X46930Y33020
X46930Y30480
X-24130Y-6350
X-26670Y-6350
X-34290Y-6350
X-31750Y-6350
X-29210Y-6350
X53340Y0
X53340Y2540
X-53340Y2540
X-53340Y0
X-53340Y-2540
X53340Y-2540
X-25400Y2540
X-27940Y2540
X-30480Y2540
X-33020Y2540
X17780Y15240
X15240Y15240
X12700Y15240
X10160Y15240
X-16129Y-34926
X-16129Y-32386
X-16129Y-29846
X-16129Y-27306
X-16129Y-24766
X-16129Y-22226
X-16129Y-19686
X-16129Y-17146
X16129Y-34926
X16129Y-32386
X16129Y-29846
X16129Y-27306
X16129Y-24766
X16129Y-22226
X16129Y-19686
X16129Y-17146
X-36271Y-41631
X-29769Y-37109
X-29769Y-41631
X-36271Y-44729
X-36271Y-49251
X-29769Y-44729
X-29769Y-49251
X-36271Y-52349
X-36271Y-56871
X-29769Y-52349
X-29769Y-56871
X-30480Y-17780
X-27940Y-17780
X-10160Y15240
X-12700Y15240
X-15240Y15240
X-17780Y15240
X-1270Y15240
X1270Y15240
X-47701Y49251
X-47701Y44729
X-41199Y49251
X-41199Y44729
T9
X-34290Y39370
X-36830Y39370
X-39370Y39370
X-41910Y39370
X-44450Y39370
X-46990Y39370
X-49530Y39370
X-52070Y39370
X-54610Y39370
X-57150Y39370
X-54610Y36830
X-49530Y36830
X-46990Y36830
X-44450Y36830
X-40640Y27305
X-21590Y24130
X-45720Y27305
X-50800Y27305
X-43180Y27305
X-48260Y27305
X-11430Y26670
X-11430Y39370
X-13970Y39370
X-16510Y39370
X-19050Y39370
X-21590Y39370
X-11430Y29210
X-11430Y31750
X-11430Y34290
X-8890Y24130
X-6350Y24130
X-3810Y24130
X-1270Y24130
X1270Y24130
X1270Y39370
X-8890Y39370
X-6350Y39370
X-3810Y39370
X-1270Y39370
X-57150Y24130
X-54610Y24130
X-52070Y24130
X-49530Y24130
X-46990Y24130
X-44450Y24130
X-41910Y24130
X-39370Y24130
X-36830Y24130
X-34290Y24130
X-31750Y24130
X-29210Y24130
X-26670Y24130
X-24130Y24130
X-19050Y24130
X-16510Y24130
X-13970Y24130
X-11430Y24130
X-11430Y36830
X-24130Y39370
X-26670Y39370
X-29210Y39370
X-31750Y39370
T10
X-45720Y-36322
X2540Y45720
X-7620Y45720
X-62484Y-6350
X-64516Y-6350
X-62484Y6350
X-64516Y6350
X62484Y6350
X64516Y6350
X62484Y-6350
X64516Y-6350
X35560Y43180
X46990Y-30480
X46990Y-20320
X-50800Y-22860
X-40640Y-22860
X-41910Y-27178
X-41910Y-36322
X-45720Y-27178
X27940Y43180
X-41910Y-39878
X-41910Y-49022
X-24638Y17780
X-33782Y17780
X-24638Y12700
X-33782Y12700
X-45720Y-39878
X-45720Y-49022
X-25908Y45720
X-35052Y45720
X35560Y36830
X27940Y36830
T11
X-29500Y-22500
X43500Y-27000
X17500Y-6000
X7000Y18500
T12
X-4000Y16500
X-38000Y19000
M30