M48
;GenerationSoftware,Autodesk,EAGLE,9.3.2*%
;CreationDate,2019-04-16T05:47:22Z*%
FMAT,2
ICI,OFF
METRIC,TZ,000.000
T7C0.350
T6C0.610
T5C0.813
T4C1.016
T3C1.397
T2C2.900
T1C3.000
%
G90
M71
T1
X-13081Y-13081
X92501Y0
X-62126Y70710
X-56586Y62798
X56585Y62798
X62126Y70710
X-17500Y45551
X17502Y45551
X-9500Y37496
X9500Y37496
X-9500Y24996
X9500Y24996
X-13081Y13081
X13081Y13081
X-15001Y2
X15001Y2
X86511Y-49947
X13081Y-13081
X-15001Y-24507
X15001Y-24507
X-18177Y-35384
X-12497Y-35933
X12497Y-35933
X18177Y-35384
X-22497Y-55183
X22497Y-55183
X-86511Y-49947
X-92489Y0
T2
X9376Y-81990
X-75702Y32881
X-66319Y49115
X66327Y49119
X75696Y32878
X-9375Y-82000
T3
X35509Y-55321
X-58420Y-3810
X-47854Y-53264
T4
X-58293Y68830
X58293Y66290
X-25400Y41910
X-27940Y41910
X25400Y41910
X27940Y41910
X-38100Y-25400
X-40640Y-25400
X49530Y1270
X49530Y-1270
X-71584Y-28118
X-69882Y-23063
X-68180Y-28118
X-66478Y-23063
X-64776Y-28118
X-61373Y-28118
X-57969Y-28118
X-54565Y-28118
X-63074Y-23063
X-59671Y-23063
X-56267Y-23063
X54527Y-28118
X56229Y-23063
X57931Y-28118
X59633Y-23063
X58293Y68830
X61335Y-28118
X64738Y-28118
X68142Y-28118
X71546Y-28118
X63036Y-23063
X66440Y-23063
X69844Y-23063
X-37637Y-58242
X-39338Y-63297
X-41040Y-58242
X-42742Y-63297
X-44444Y-58242
X-47847Y-58242
X-51251Y-58242
X-54654Y-58242
X-46145Y-63297
X-49549Y-63297
X-74930Y-8890
X-69850Y-8890
X-52953Y-63297
X53422Y-58242
X51721Y-63297
X50019Y-58242
X48317Y-63297
X46615Y-58242
X74930Y-8890
X69850Y-8890
X43212Y-58242
X39808Y-58242
X36405Y-58242
X44913Y-63297
X41510Y-63297
X38106Y-63297
X-52070Y52070
X-49530Y52070
X-46990Y52070
X-44450Y52070
X35560Y-39370
X38100Y-39370
X35560Y-41910
X38100Y-41910
X-74930Y8890
X-69850Y8890
X35560Y-44450
X38100Y-44450
X74930Y8890
X69850Y8890
X-49530Y-1270
X-49530Y1270
X52070Y52070
X49530Y52070
X46990Y52070
X44450Y52070
X-58293Y66290
T5
X-57404Y-12700
X-51816Y-45720
X-44196Y-45720
X52705Y-45720
X45085Y-45720
X-48260Y-22860
X-48260Y-27940
X22860Y-38100
X-61341Y-39497
X-71501Y-39497
X-22860Y-30480
X-22860Y-40640
X30480Y-72644
X60325Y-39370
X70485Y-39370
X-61214Y-45720
X-71374Y-45720
X60325Y-45720
X70485Y-45720
X26670Y-48260
X26670Y-38100
X36830Y48260
X-77089Y-22860
X-77089Y-27940
X20320Y-17780
X27940Y-17780
X-22860Y-25273
X-22860Y-20447
X-51689Y-39370
X-44069Y-39370
X52705Y-39370
X-59436Y-12700
X45085Y-39370
X22860Y-48260
X-33020Y-25400
X-27940Y-25400
X57404Y-12700
X59436Y-12700
X48260Y-22860
X48260Y-27940
X77089Y-22860
X77089Y-27940
X-30480Y-72644
X-30480Y-74676
X-31750Y-63500
X-31750Y-58420
X-60960Y-63500
X-60960Y-58420
X36830Y38100
X30480Y-74676
X59563Y-63500
X59563Y-58420
X-33020Y-20320
X-27940Y-20320
X29591Y-63500
X29591Y-58420
X22860Y-31750
X22860Y-26670
X29210Y-31750
X29210Y-26670
X2540Y-35560
X-2540Y-35560
T6
X20345Y-29032
X31242Y-29337
X-46406Y4953
X-29261Y-29718
X991Y-31090
X-44577Y16764
X-1372Y-31090
T7
X-838Y-25451
X-18288Y-31775
X-2743Y-28270
X-42367Y-38710
X36728Y-37871
X10820Y-22555
X41758Y-41529
X44044Y-49759
X27889Y-20193
X42977Y-35281
X45872Y-38176
X19812Y-25603
X42367Y-43053
X36652Y-19279
X45872Y-11963
X45872Y27127
X43586Y49530
X45263Y-762
X19126Y-30404
X10058Y-25756
X18974Y-22174
X43586Y29413
X18974Y-32004
X152Y-24003
X-1219Y-22860
X16535Y-31394
X42367Y-36652
X-5486Y-27280
M30