M48
;GenerationSoftware,Autodesk,EAGLE,9.3.2*%
;CreationDate,2019-04-16T05:49:27Z*%
FMAT,2
ICI,OFF
METRIC,TZ,000.000
T6C0.350
T5C0.610
T4C0.813
T3C1.016
T2C1.050
T1C3.000
%
G90
M71
T1
X51818Y-29916
X70859Y59458
X92489Y0
X70859Y-59458
X22497Y-55183
X-22497Y-55183
X0Y-92500
X-70859Y-59458
X-92489Y0
X-70859Y59458
X17500Y45551
X-17500Y45551
X-51818Y-29916
T2
X87015Y47305
X70011Y-70011
X95636Y25626
X96294Y23172
X99010Y2540
X99010Y0
X99010Y-2540
X96294Y-23172
X95636Y-25626
X94979Y-28079
X87015Y-47305
X85745Y-49505
X84475Y-51705
X71807Y-68215
X68215Y-71807
X51705Y-84475
X47305Y-87015
X-23172Y-96294
X-25626Y-95636
X-28079Y-94979
X-47305Y-87015
X-49505Y-85745
X-51705Y-84475
X-68215Y-71807
X-70011Y-70011
X-71807Y-68215
X-84475Y-51705
X-85745Y-49505
X-87015Y-47305
X-94979Y-28079
X49505Y-85745
X-95636Y-25626
X-96294Y-23172
X28079Y-94979
X25626Y-95636
X23172Y-96294
X-99010Y-2540
X-99010Y0
X-99010Y2540
X-96294Y23172
X-95636Y25626
X-94979Y28079
X-87015Y47305
X-85745Y49505
X-84475Y51705
X-71807Y68215
X-70011Y70011
X-68215Y71807
X-51705Y60345
X-49505Y61615
X-47305Y62885
X-28079Y51799
X-25626Y52456
X-23172Y53114
X-2540Y49480
X0Y49480
X2540Y49480
X23172Y53114
X25626Y52456
X28079Y51799
X47305Y62885
X49505Y61615
X51705Y60345
X68215Y71807
X70011Y70011
X71807Y68215
X2540Y-99010
X0Y-99010
X-2540Y-99010
X94979Y28079
X84475Y51705
X85745Y49505
T3
X-50800Y0
X50800Y0
X53340Y0
X55880Y0
X58420Y0
X12700Y-78740
X15240Y-78740
X12700Y-81280
X15240Y-81280
X12700Y-83820
X15240Y-83820
X-11430Y27940
X-53340Y0
X-8890Y27940
X-11430Y25400
X-58420Y0
X-55880Y0
X-8890Y25400
X-11430Y22860
X-8890Y22860
X-12700Y-83820
X-15240Y-83820
X-12700Y-81280
X-15240Y-81280
X-12700Y-78740
X-15240Y-78740
T4
X9906Y49530
X7874Y49530
X-25654Y41910
X-27686Y41910
X-40894Y52070
X-42926Y52070
X-58674Y62230
X-60706Y62230
X-80264Y57150
X-82296Y57150
X-91694Y34290
X-93726Y34290
X-94996Y-6350
X-92964Y-6350
X35306Y-92710
X33274Y-92710
X-96774Y-17780
X-98806Y-17780
X-89154Y-41910
X-91186Y-41910
X-76454Y-63500
X-78486Y-63500
X-56134Y-81280
X-58166Y-81280
X-35306Y-92710
X-33274Y-92710
X6350Y-27940
X11430Y-27940
X6350Y-33020
X11430Y-33020
X7620Y-16510
X2540Y-16510
X-7620Y-16510
X-2540Y-16510
X-6350Y-33020
X-11430Y-33020
X58166Y-81280
X56134Y-81280
X-6350Y-27940
X-11430Y-27940
X26670Y-16510
X26670Y-21590
X15240Y36830
X10160Y36830
X-41910Y-25400
X-41910Y-30480
X20320Y-16510
X20320Y-21590
X13970Y-16510
X13970Y-21590
X15240Y31750
X10160Y31750
X76454Y-63500
X78486Y-63500
X15240Y26670
X10160Y26670
X-20320Y-21590
X-20320Y-16510
X-13970Y-21590
X-13970Y-16510
X89154Y-41910
X91186Y-41910
X96774Y-17780
X98806Y-17780
X94996Y-6350
X92964Y-6350
X91694Y34290
X93726Y34290
X80264Y57150
X82296Y57150
X39370Y-40640
X46990Y-40640
X12700Y21590
X12700Y13970
X-39370Y-35560
X-46990Y-35560
X13970Y-94230
X3810Y-94230
X70767Y63583
X63583Y70767
X51899Y55602
X43101Y60682
X29495Y47268
X19681Y49898
X5080Y45470
X-5080Y45470
X-19681Y49898
X-29495Y47268
X-43101Y60682
X-51899Y55602
X-63583Y70767
X-70767Y63583
X-79732Y51899
X-84812Y43101
X-90448Y29495
X-93078Y19681
X-99060Y6600
X-88900Y6600
X19681Y-93078
X29495Y-90448
X-93078Y-19681
X-90448Y-29495
X-84812Y-43101
X-79732Y-51899
X-70767Y-63583
X-63583Y-70767
X-51899Y-79732
X-43101Y-84812
X-29495Y-90448
X-19681Y-93078
X35810Y-48260
X25650Y-48260
X7620Y24130
X-2540Y24130
X-35560Y-48260
X-25400Y-48260
X41910Y-21590
X31750Y-21590
X-12700Y46990
X-12700Y36830
X43101Y-84812
X51899Y-79732
X-41910Y-21590
X-31750Y-21590
X63583Y-70767
X70767Y-63583
X79732Y-51899
X84812Y-43101
X90448Y-29495
X93078Y-19681
X99060Y6100
X88900Y6100
X93078Y19681
X90448Y29495
X84812Y43101
X79732Y51899
X17780Y-28067
X17780Y-32893
X2413Y-24130
X-2413Y-24130
X-17780Y-32893
X-17780Y-28067
X-6604Y-93980
X-8636Y-93980
X60706Y62230
X58674Y62230
X42926Y52070
X40894Y52070
X27686Y41910
X25654Y41910
T5
X-152Y34442
X38329Y-34900
X22936Y-27280
X-29337Y-32156
X-31471Y-34442
X33223Y-39395
X32995Y-30556
X-30709Y-29032
T6
X24689Y-40538
X26289Y-28118
X-305Y32385
X35662Y-19279
X-50368Y13030
X-14021Y33071
X-37643Y-29185
X-30328Y-30556
X5029Y34900
X-16307Y35128
X-36119Y-36576
X-34747Y-36957
X37414Y-20498
X37414Y-27280
X33299Y-32233
X15164Y-36576
X27584Y-39472
X31242Y-39091
X32385Y-37186
X-31928Y-26289
X-13640Y15697
X-4724Y29794
X-3658Y-14021
X-3353Y29794
X-17374Y-73381
X-20498Y-61417
X-23851Y-51968
X-23851Y-34823
X-28804Y-56236
X-17069Y-76048
X-20650Y-77724
X-19660Y-76733
X-19355Y-38100
X-32309Y-31318
X-36728Y-34900
X-35966Y-30480
X-43053Y-34595
X-33376Y-29794
X-17678Y-77572
X-36424Y-28575
X-49911Y-10897
X20955Y-81839
X18136Y-74447
X22708Y-51664
X-35662Y-82601
X-70485Y-47777
X-43205Y-32918
X-29870Y-26213
X39929Y-22250
X36347Y-26289
X1372Y31394
X3658Y35509
X5410Y40843
X5410Y37109
X49835Y-35738
X51892Y-2362
X47777Y-39167
X37414Y-39167
X-24765Y-27508
X70790Y-48387
X63017Y-36805
X52654Y-35128
X-24460Y-31013
X-18593Y-73076
X32842Y-34595
X-20345Y-39243
X13640Y-35966
X82372Y-49606
X58293Y-30251
X39243Y-22860
X34823Y-26899
X27737Y-37490
X27737Y-33604
X17374Y-72390
X-21107Y-62103
X-20955Y-33604
X37490Y-37109
X34442Y-27813
X16231Y-79934
X70485Y-41453
X61951Y-36195
X46406Y-45491
M30