G04 EAGLE Gerber RS-274X export*
G75*
%MOMM*%
%FSLAX34Y34*%
%LPD*%
%INBottom Copper*%
%IPPOS*%
%AMOC8*
5,1,8,0,0,1.08239X$1,22.5*%
G01*
%ADD10P,1.429621X8X22.500000*%
%ADD11P,1.429621X8X202.500000*%
%ADD12C,1.320800*%
%ADD13P,1.429621X8X292.500000*%
%ADD14C,2.540000*%
%ADD15P,2.749271X8X22.500000*%
%ADD16P,1.429621X8X112.500000*%
%ADD17P,2.749271X8X202.500000*%
%ADD18C,1.320800*%
%ADD19C,1.524000*%
%ADD20C,1.879600*%
%ADD21C,0.508000*%
%ADD22C,1.016000*%
%ADD23C,0.152400*%
%ADD24C,0.756400*%
%ADD25C,2.032000*%
%ADD26C,2.095500*%


D10*
X-330200Y-254000D03*
X-279400Y-254000D03*
D11*
X574040Y-127000D03*
D12*
X594360Y-127000D03*
D13*
X482600Y-228600D03*
X482600Y-279400D03*
X770890Y-228600D03*
X770890Y-279400D03*
D14*
X-749300Y-88900D03*
D15*
X-698500Y-88900D03*
D16*
X-304800Y-726440D03*
D12*
X-304800Y-746760D03*
D16*
X-317500Y-635000D03*
X-317500Y-584200D03*
X-609600Y-635000D03*
X-609600Y-584200D03*
D14*
X749300Y-88900D03*
D17*
X698500Y-88900D03*
D16*
X304800Y-726440D03*
D12*
X304800Y-746760D03*
D16*
X595630Y-635000D03*
X595630Y-584200D03*
D10*
X-330200Y-203200D03*
X-279400Y-203200D03*
D16*
X295910Y-635000D03*
X295910Y-584200D03*
X228600Y-317500D03*
X228600Y-266700D03*
X292100Y-317500D03*
X292100Y-266700D03*
D11*
X25400Y-355600D03*
X-25400Y-355600D03*
D14*
X-749300Y88900D03*
D15*
X-698500Y88900D03*
D10*
X-574040Y-127000D03*
D12*
X-594360Y-127000D03*
D13*
X-770890Y-228600D03*
X-770890Y-279400D03*
X-482600Y-228600D03*
X-482600Y-279400D03*
D14*
X749300Y88900D03*
D17*
X698500Y88900D03*
D18*
X209804Y-177800D02*
X196596Y-177800D01*
X272796Y-177800D02*
X286004Y-177800D01*
X-510286Y-393700D02*
X-523494Y-393700D01*
X-447294Y-393700D02*
X-434086Y-393700D01*
X520446Y-393700D02*
X533654Y-393700D01*
X457454Y-393700D02*
X444246Y-393700D01*
X-511556Y-457200D02*
X-524764Y-457200D01*
X-448564Y-457200D02*
X-435356Y-457200D01*
X520446Y-457200D02*
X533654Y-457200D01*
X457454Y-457200D02*
X444246Y-457200D01*
D19*
X-487680Y-12700D02*
X-502920Y-12700D01*
X-502920Y12700D02*
X-487680Y12700D01*
X520700Y513080D02*
X520700Y528320D01*
X495300Y528320D02*
X495300Y513080D01*
X469900Y513080D02*
X469900Y528320D01*
X444500Y528320D02*
X444500Y513080D01*
X-575310Y662900D02*
X-590550Y662900D01*
X-590550Y688300D02*
X-575310Y688300D01*
X575310Y662900D02*
X590550Y662900D01*
X590550Y688300D02*
X575310Y688300D01*
X-254000Y426720D02*
X-254000Y411480D01*
X-279400Y411480D02*
X-279400Y426720D01*
X254000Y426720D02*
X254000Y411480D01*
X279400Y411480D02*
X279400Y426720D01*
X-381000Y-246380D02*
X-381000Y-261620D01*
X-406400Y-261620D02*
X-406400Y-246380D01*
X487680Y12700D02*
X502920Y12700D01*
X502920Y-12700D02*
X487680Y-12700D01*
X-715835Y-273558D02*
X-715835Y-288798D01*
X-698817Y-238252D02*
X-698817Y-223012D01*
X-681799Y-273558D02*
X-681799Y-288798D01*
X-664781Y-238252D02*
X-664781Y-223012D01*
X-647763Y-273558D02*
X-647763Y-288798D01*
X-613727Y-288798D02*
X-613727Y-273558D01*
X-579691Y-273558D02*
X-579691Y-288798D01*
X-545655Y-288798D02*
X-545655Y-273558D01*
X-630745Y-238252D02*
X-630745Y-223012D01*
X-596709Y-223012D02*
X-596709Y-238252D01*
X-562673Y-238252D02*
X-562673Y-223012D01*
X545275Y-273558D02*
X545275Y-288798D01*
X562293Y-238252D02*
X562293Y-223012D01*
X579311Y-273558D02*
X579311Y-288798D01*
X596329Y-238252D02*
X596329Y-223012D01*
X613347Y-273558D02*
X613347Y-288798D01*
X647383Y-288798D02*
X647383Y-273558D01*
X681419Y-273558D02*
X681419Y-288798D01*
X715455Y-288798D02*
X715455Y-273558D01*
X630365Y-238252D02*
X630365Y-223012D01*
X664401Y-223012D02*
X664401Y-238252D01*
X698437Y-238252D02*
X698437Y-223012D01*
X-376365Y-574802D02*
X-376365Y-590042D01*
X-393383Y-625348D02*
X-393383Y-640588D01*
X-410401Y-590042D02*
X-410401Y-574802D01*
X-427419Y-625348D02*
X-427419Y-640588D01*
X-444437Y-590042D02*
X-444437Y-574802D01*
X-478473Y-574802D02*
X-478473Y-590042D01*
X-512509Y-590042D02*
X-512509Y-574802D01*
X-546545Y-574802D02*
X-546545Y-590042D01*
X-461455Y-625348D02*
X-461455Y-640588D01*
X-495491Y-640588D02*
X-495491Y-625348D01*
X-529527Y-625348D02*
X-529527Y-640588D01*
X534225Y-590042D02*
X534225Y-574802D01*
X517207Y-625348D02*
X517207Y-640588D01*
X500189Y-590042D02*
X500189Y-574802D01*
X483171Y-625348D02*
X483171Y-640588D01*
X466153Y-590042D02*
X466153Y-574802D01*
X432117Y-574802D02*
X432117Y-590042D01*
X398081Y-590042D02*
X398081Y-574802D01*
X364045Y-574802D02*
X364045Y-590042D01*
X449135Y-625348D02*
X449135Y-640588D01*
X415099Y-640588D02*
X415099Y-625348D01*
X381063Y-625348D02*
X381063Y-640588D01*
D13*
X228600Y-381000D03*
X228600Y-482600D03*
D11*
X-613410Y-394970D03*
X-715010Y-394970D03*
D13*
X-228600Y-304800D03*
X-228600Y-406400D03*
D10*
X603250Y-393700D03*
X704850Y-393700D03*
D11*
X-612140Y-457200D03*
X-713740Y-457200D03*
D10*
X603250Y-457200D03*
X704850Y-457200D03*
D16*
X266700Y-482600D03*
X266700Y-381000D03*
D13*
X368300Y482600D03*
X368300Y381000D03*
D19*
X-520700Y513080D02*
X-520700Y528320D01*
X-495300Y528320D02*
X-495300Y513080D01*
X-469900Y513080D02*
X-469900Y528320D01*
X-444500Y528320D02*
X-444500Y513080D01*
D12*
X-228600Y-252730D03*
X-228600Y-204470D03*
D20*
X355600Y-393700D03*
X381000Y-393700D03*
X355600Y-419100D03*
X381000Y-419100D03*
X355600Y-444500D03*
X381000Y-444500D03*
D21*
X-3810Y-310896D02*
X-13716Y-310896D01*
X-3810Y-310896D02*
X19050Y-288036D01*
X201168Y-288036D01*
X203454Y-290322D01*
X381000Y-361950D02*
X381000Y-393700D01*
X381000Y-361950D02*
X312420Y-293370D01*
X291846Y-266700D02*
X203454Y-178308D01*
X203200Y-177800D01*
X291846Y-266700D02*
X292100Y-266700D01*
D22*
X-13716Y-310896D03*
X203454Y-290322D03*
X312420Y-293370D03*
D23*
X189738Y-320040D02*
X189738Y-324612D01*
X218694Y-353568D01*
X218694Y-472440D01*
X228600Y-482346D01*
X228600Y-482600D01*
D24*
X189738Y-320040D03*
D21*
X-254508Y372618D02*
X-254508Y419100D01*
X-254508Y372618D02*
X-679704Y-52578D01*
X-679704Y-211074D01*
X-698754Y-230124D01*
X-254508Y419100D02*
X-254000Y419100D01*
X-698754Y-230124D02*
X-698817Y-230632D01*
X-464058Y-210312D02*
X-464058Y49530D01*
X-464058Y-210312D02*
X-482346Y-228600D01*
X-482600Y-228600D01*
D22*
X-464058Y49530D03*
D21*
X-381000Y-254000D02*
X-381000Y-561594D01*
X-393192Y-573786D01*
X-393192Y-632460D01*
X-393383Y-632968D01*
X-531114Y-634746D02*
X-609600Y-634746D01*
X-531114Y-634746D02*
X-529590Y-633222D01*
X-609600Y-634746D02*
X-609600Y-635000D01*
X-529590Y-633222D02*
X-529527Y-632968D01*
X-406908Y-336804D02*
X-406908Y-254508D01*
X-406908Y-336804D02*
X-461772Y-391668D01*
X-461772Y-539496D01*
X-483108Y-560832D01*
X-484632Y-560832D01*
X-499872Y-576072D01*
X-499872Y-602742D01*
X-528066Y-630936D01*
X-406908Y-254508D02*
X-406400Y-254000D01*
X-528066Y-630936D02*
X-529527Y-632968D01*
X518922Y-634746D02*
X595122Y-634746D01*
X518922Y-634746D02*
X517398Y-633222D01*
X595122Y-634746D02*
X595630Y-635000D01*
X517398Y-633222D02*
X517207Y-632968D01*
X515112Y-7620D02*
X495300Y12192D01*
X515112Y-7620D02*
X515112Y-163830D01*
X506730Y-172212D01*
X506730Y-563880D01*
X515874Y-573024D01*
X515874Y-630936D01*
X495300Y12192D02*
X495300Y12700D01*
X515874Y-630936D02*
X517207Y-632968D01*
X495300Y-326136D02*
X495300Y-12700D01*
X495300Y-326136D02*
X432054Y-389382D01*
X432054Y-523494D01*
X381762Y-573786D01*
X381762Y-632460D01*
X381063Y-632968D01*
D23*
X1524Y-240030D02*
X-118110Y-240030D01*
X-139446Y-218694D01*
X-458724Y-218694D01*
X-501396Y-261366D01*
X-661416Y-261366D01*
X-681228Y-281178D01*
X-681799Y-281178D01*
D24*
X1524Y-240030D03*
D23*
X-12192Y-228600D02*
X96012Y-228600D01*
X156210Y-168402D01*
X225552Y-168402D01*
X423672Y-366522D01*
D24*
X-12192Y-228600D03*
X423672Y-366522D03*
D23*
X94488Y-254508D02*
X-8382Y-254508D01*
X94488Y-254508D02*
X98298Y-250698D01*
X102870Y-250698D01*
X137922Y-215646D01*
X192786Y-215646D01*
X282702Y-305562D01*
X282702Y-321564D01*
X355092Y-393954D01*
X355600Y-393700D01*
X-71628Y-317754D02*
X-182880Y-317754D01*
X-71628Y-317754D02*
X-8382Y-254508D01*
D24*
X-8382Y-254508D03*
X-182880Y-317754D03*
D23*
X-409956Y-347472D02*
X-409956Y-582168D01*
X-409956Y-347472D02*
X-391668Y-329184D01*
X-391668Y-242316D01*
X-384810Y-235458D01*
X-310896Y-235458D01*
X-241554Y-304800D01*
X-228600Y-304800D01*
X-409956Y-582168D02*
X-410401Y-582422D01*
X343662Y-419100D02*
X355600Y-419100D01*
X343662Y-419100D02*
X197358Y-272796D01*
X-17526Y-272796D01*
X-27432Y-282702D01*
D24*
X-27432Y-282702D03*
D23*
X-423672Y-387096D02*
X-423672Y-438912D01*
X-441960Y-457200D01*
X201168Y-212598D02*
X367284Y-378714D01*
X201168Y-212598D02*
X136398Y-212598D01*
X101346Y-247650D01*
X-29718Y-247650D01*
X-54864Y-272796D01*
D24*
X-423672Y-387096D03*
X367284Y-378714D03*
X-54864Y-272796D03*
D23*
X108204Y-225552D02*
X118872Y-225552D01*
X134874Y-209550D01*
X220980Y-209550D01*
X296418Y-284988D01*
X315468Y-284988D01*
X417576Y-387096D01*
X417576Y-415290D01*
X440436Y-497586D02*
X440436Y-534924D01*
X483108Y-577596D01*
X483108Y-632460D01*
X483171Y-632968D01*
D24*
X108204Y-225552D03*
X417576Y-415290D03*
X440436Y-497586D03*
D23*
X429768Y-352806D02*
X278892Y-201930D01*
X458724Y-381762D02*
X499872Y-422910D01*
X499872Y-582168D01*
X500189Y-582422D01*
D24*
X278892Y-201930D03*
X429768Y-352806D03*
X458724Y-381762D03*
D23*
X198120Y-263652D02*
X198120Y-256032D01*
X198120Y-263652D02*
X341376Y-406908D01*
X400050Y-406908D01*
X423672Y-430530D01*
D24*
X198120Y-256032D03*
X423672Y-430530D03*
D23*
X385572Y-192786D02*
X366522Y-192786D01*
X385572Y-192786D02*
X458724Y-119634D01*
X458724Y271272D02*
X458724Y509778D01*
X469392Y520446D01*
X469900Y520700D01*
X-467106Y520446D02*
X-469392Y520446D01*
X-467106Y520446D02*
X-441960Y495300D01*
X435864Y495300D01*
X-469392Y520446D02*
X-469900Y520700D01*
D24*
X366522Y-192786D03*
X458724Y-119634D03*
X458724Y271272D03*
X435864Y495300D03*
D21*
X332994Y-178308D02*
X279654Y-178308D01*
X332994Y-178308D02*
X339090Y-184404D01*
X386334Y-184404D01*
X444246Y-126492D01*
X444246Y503682D02*
X444246Y520446D01*
X444246Y503682D02*
X444246Y-126492D01*
X279654Y-178308D02*
X279400Y-177800D01*
X444246Y520446D02*
X444500Y520700D01*
X-442722Y520446D02*
X-444246Y520446D01*
X-442722Y520446D02*
X-425958Y503682D01*
X444246Y503682D01*
X-444246Y520446D02*
X-444500Y520700D01*
D23*
X191262Y-313944D02*
X192786Y-313944D01*
X191262Y-313944D02*
X165354Y-313944D01*
X192786Y-313944D02*
X256794Y-377952D01*
X256794Y-472440D01*
X266700Y-482346D01*
X266700Y-482600D01*
X582930Y685038D02*
X582930Y688300D01*
X582930Y685038D02*
X531114Y633222D01*
X531114Y70866D01*
X452628Y-7620D01*
X191262Y-304038D02*
X191262Y-313944D01*
D24*
X165354Y-313944D03*
X452628Y-7620D03*
X191262Y-304038D03*
D23*
X139446Y-218694D02*
X100584Y-257556D01*
X139446Y-218694D02*
X186690Y-218694D01*
X189738Y-221742D01*
X435864Y294132D02*
X435864Y313944D01*
X368808Y381000D01*
X368300Y381000D01*
D24*
X100584Y-257556D03*
X189738Y-221742D03*
X435864Y294132D03*
D21*
X-292608Y-291846D02*
X-292608Y-297180D01*
X-292608Y-291846D02*
X-329946Y-254508D01*
X-330200Y-254000D01*
X25146Y-326136D02*
X25146Y-355092D01*
X25146Y-326136D02*
X9906Y-310896D01*
X25146Y-355092D02*
X25400Y-355600D01*
X374904Y-445008D02*
X381000Y-445008D01*
X374904Y-445008D02*
X361188Y-458724D01*
X344424Y-458724D01*
X266700Y-381000D01*
X381000Y-444500D02*
X381000Y-445008D01*
X141732Y-325374D02*
X27432Y-325374D01*
X141732Y-325374D02*
X171450Y-295656D01*
X195072Y-295656D01*
X216408Y-316992D01*
X228600Y-316992D01*
X27432Y-325374D02*
X25146Y-326136D01*
X228600Y-317500D02*
X228600Y-316992D01*
X-256032Y-297942D02*
X-290322Y-297942D01*
X-256032Y-297942D02*
X-227838Y-326136D01*
X-6858Y-326136D01*
X7620Y-311658D01*
X-290322Y-297942D02*
X-292608Y-297180D01*
X7620Y-311658D02*
X9906Y-310896D01*
X-521208Y541020D02*
X-521208Y626364D01*
X-521208Y541020D02*
X-521208Y521208D01*
X-521208Y626364D02*
X-582930Y688086D01*
X-521208Y521208D02*
X-520700Y520700D01*
X-582930Y688086D02*
X-582930Y688300D01*
X500634Y541020D02*
X520446Y521208D01*
X500634Y541020D02*
X439674Y541020D01*
X409956Y511302D01*
X-422910Y511302D01*
X-432054Y520446D01*
X-432054Y533400D01*
X-439674Y541020D01*
X-521208Y541020D01*
X520446Y521208D02*
X520700Y520700D01*
X-330708Y-202692D02*
X-368046Y-202692D01*
X-445770Y-124968D01*
X-445770Y167640D01*
X-330708Y-202692D02*
X-330200Y-203200D01*
D22*
X-292608Y-297180D03*
X9906Y-310896D03*
X-445770Y167640D03*
D25*
X704850Y-329946D02*
X704850Y-393700D01*
X704850Y-329946D02*
X736854Y-297942D01*
X736854Y-230886D01*
X707136Y-201168D01*
X655320Y-201168D01*
X630936Y-225552D01*
X630936Y-230124D01*
X630365Y-230632D01*
X749046Y-156210D02*
X749046Y-89154D01*
X749046Y-156210D02*
X712470Y-192786D01*
X749046Y-89154D02*
X749300Y-88900D01*
X712470Y-192786D02*
X707136Y-201168D01*
X749046Y-79248D02*
X749046Y88392D01*
X749300Y88900D01*
X749046Y-79248D02*
X749300Y-88900D01*
D26*
X-584200Y-38100D03*
D25*
X-533400Y12700D01*
X-495300Y12700D01*
X-592836Y-418338D02*
X-506730Y-504444D01*
X-478536Y-532638D01*
X-592836Y-418338D02*
X-592836Y-306324D01*
X-613410Y-285750D01*
X-613410Y-281178D01*
X-613727Y-281178D01*
X-698754Y-192024D02*
X-698754Y-89154D01*
X-698754Y-192024D02*
X-737616Y-230886D01*
X-737616Y-297942D01*
X-725424Y-310134D01*
X-637794Y-310134D01*
X-620268Y-292608D01*
X-698754Y-89154D02*
X-698500Y-88900D01*
X-613727Y-281178D02*
X-620268Y-292608D01*
X573786Y-126492D02*
X573786Y-118110D01*
X602742Y-89154D01*
X697992Y-89154D01*
X574040Y-127000D02*
X573786Y-126492D01*
X697992Y-89154D02*
X698500Y-88900D01*
X646938Y-281178D02*
X646938Y-285750D01*
X622554Y-310134D01*
X535686Y-310134D01*
X523494Y-297942D01*
X523494Y-179070D01*
X567690Y-134874D01*
X646938Y-281178D02*
X647383Y-281178D01*
X567690Y-134874D02*
X574040Y-127000D01*
X698754Y-79248D02*
X698754Y88392D01*
X698500Y88900D01*
X698754Y-79248D02*
X698500Y-88900D01*
X-198120Y-726186D02*
X-304800Y-726186D01*
X-198120Y-726186D02*
X-196596Y-727710D01*
X295656Y-727710D01*
X297180Y-726186D01*
X304800Y-726186D01*
X-304800Y-726186D02*
X-304800Y-726440D01*
X304800Y-726186D02*
X304800Y-726440D01*
X316230Y-592074D02*
X355092Y-553212D01*
X316230Y-592074D02*
X316230Y-711708D01*
X310134Y-717804D01*
X304800Y-726186D01*
X-506730Y-504444D02*
X-589026Y-586740D01*
X-589026Y-592836D01*
X-610362Y-614172D01*
X-617982Y-614172D01*
X-630174Y-626364D01*
X-630174Y-643890D01*
X-550164Y-723900D01*
X-314706Y-723900D01*
X-304800Y-726186D01*
D26*
X-478536Y-532638D03*
X355092Y-553212D03*
D25*
X-495300Y-48260D02*
X-574040Y-127000D01*
X-495300Y-48260D02*
X-495300Y-12700D01*
M02*
