G04 EAGLE Gerber RS-274X export*
G75*
%MOMM*%
%FSLAX34Y34*%
%LPD*%
%INSoldermask Bottom*%
%IPPOS*%
%AMOC8*
5,1,8,0,0,1.08239X$1,22.5*%
G01*
%ADD10C,3.203200*%
%ADD11C,3.103200*%
%ADD12P,1.649562X8X22.500000*%
%ADD13P,1.649562X8X202.500000*%
%ADD14C,1.524000*%
%ADD15P,1.649562X8X292.500000*%
%ADD16C,2.743200*%
%ADD17P,2.969212X8X22.500000*%
%ADD18P,1.649562X8X112.500000*%
%ADD19P,2.969212X8X202.500000*%
%ADD20C,1.524000*%
%ADD21C,1.727200*%
%ADD22C,2.082800*%
%ADD23C,1.219200*%
%ADD24C,0.959600*%
%ADD25C,2.298700*%


D10*
X-621263Y707101D03*
X-565860Y627977D03*
X565854Y627977D03*
X621257Y707101D03*
X-175004Y455510D03*
X175016Y455511D03*
X-95000Y374962D03*
X95000Y374962D03*
X-95000Y249962D03*
X95000Y249962D03*
X-130815Y130815D03*
X130815Y130815D03*
X-150008Y24D03*
X150008Y24D03*
X-130815Y-130815D03*
X130815Y-130815D03*
X-150008Y-245070D03*
X150008Y-245070D03*
X-181774Y-353844D03*
X-124968Y-359326D03*
X124968Y-359326D03*
X181774Y-353844D03*
X-224968Y-551826D03*
X224968Y-551826D03*
D11*
X-93750Y-820001D03*
X93761Y-819899D03*
D10*
X-865112Y-499474D03*
X-924893Y0D03*
D11*
X-757016Y328809D03*
X-663188Y491150D03*
X663266Y491189D03*
X756955Y328779D03*
D10*
X925005Y0D03*
X865112Y-499474D03*
D12*
X-330200Y-254000D03*
X-279400Y-254000D03*
D13*
X574040Y-127000D03*
D14*
X594360Y-127000D03*
D15*
X482600Y-228600D03*
X482600Y-279400D03*
X770890Y-228600D03*
X770890Y-279400D03*
D16*
X-749300Y-88900D03*
D17*
X-698500Y-88900D03*
D18*
X-304800Y-726440D03*
D14*
X-304800Y-746760D03*
D18*
X-317500Y-635000D03*
X-317500Y-584200D03*
X-609600Y-635000D03*
X-609600Y-584200D03*
D16*
X749300Y-88900D03*
D19*
X698500Y-88900D03*
D18*
X304800Y-726440D03*
D14*
X304800Y-746760D03*
D18*
X595630Y-635000D03*
X595630Y-584200D03*
D12*
X-330200Y-203200D03*
X-279400Y-203200D03*
D18*
X295910Y-635000D03*
X295910Y-584200D03*
X228600Y-317500D03*
X228600Y-266700D03*
X292100Y-317500D03*
X292100Y-266700D03*
D13*
X25400Y-355600D03*
X-25400Y-355600D03*
D16*
X-749300Y88900D03*
D17*
X-698500Y88900D03*
D12*
X-574040Y-127000D03*
D14*
X-594360Y-127000D03*
D15*
X-770890Y-228600D03*
X-770890Y-279400D03*
X-482600Y-228600D03*
X-482600Y-279400D03*
D16*
X749300Y88900D03*
D19*
X698500Y88900D03*
D20*
X209804Y-177800D02*
X196596Y-177800D01*
X272796Y-177800D02*
X286004Y-177800D01*
X-510286Y-393700D02*
X-523494Y-393700D01*
X-447294Y-393700D02*
X-434086Y-393700D01*
X520446Y-393700D02*
X533654Y-393700D01*
X457454Y-393700D02*
X444246Y-393700D01*
X-511556Y-457200D02*
X-524764Y-457200D01*
X-448564Y-457200D02*
X-435356Y-457200D01*
X520446Y-457200D02*
X533654Y-457200D01*
X457454Y-457200D02*
X444246Y-457200D01*
D21*
X-487680Y-12700D02*
X-502920Y-12700D01*
X-502920Y12700D02*
X-487680Y12700D01*
X520700Y513080D02*
X520700Y528320D01*
X495300Y528320D02*
X495300Y513080D01*
X469900Y513080D02*
X469900Y528320D01*
X444500Y528320D02*
X444500Y513080D01*
X-575310Y662900D02*
X-590550Y662900D01*
X-590550Y688300D02*
X-575310Y688300D01*
X575310Y662900D02*
X590550Y662900D01*
X590550Y688300D02*
X575310Y688300D01*
X-254000Y426720D02*
X-254000Y411480D01*
X-279400Y411480D02*
X-279400Y426720D01*
X254000Y426720D02*
X254000Y411480D01*
X279400Y411480D02*
X279400Y426720D01*
X-381000Y-246380D02*
X-381000Y-261620D01*
X-406400Y-261620D02*
X-406400Y-246380D01*
X487680Y12700D02*
X502920Y12700D01*
X502920Y-12700D02*
X487680Y-12700D01*
X-715835Y-273558D02*
X-715835Y-288798D01*
X-698817Y-238252D02*
X-698817Y-223012D01*
X-681799Y-273558D02*
X-681799Y-288798D01*
X-664781Y-238252D02*
X-664781Y-223012D01*
X-647763Y-273558D02*
X-647763Y-288798D01*
X-613727Y-288798D02*
X-613727Y-273558D01*
X-579691Y-273558D02*
X-579691Y-288798D01*
X-545655Y-288798D02*
X-545655Y-273558D01*
X-630745Y-238252D02*
X-630745Y-223012D01*
X-596709Y-223012D02*
X-596709Y-238252D01*
X-562673Y-238252D02*
X-562673Y-223012D01*
X545275Y-273558D02*
X545275Y-288798D01*
X562293Y-238252D02*
X562293Y-223012D01*
X579311Y-273558D02*
X579311Y-288798D01*
X596329Y-238252D02*
X596329Y-223012D01*
X613347Y-273558D02*
X613347Y-288798D01*
X647383Y-288798D02*
X647383Y-273558D01*
X681419Y-273558D02*
X681419Y-288798D01*
X715455Y-288798D02*
X715455Y-273558D01*
X630365Y-238252D02*
X630365Y-223012D01*
X664401Y-223012D02*
X664401Y-238252D01*
X698437Y-238252D02*
X698437Y-223012D01*
X-376365Y-574802D02*
X-376365Y-590042D01*
X-393383Y-625348D02*
X-393383Y-640588D01*
X-410401Y-590042D02*
X-410401Y-574802D01*
X-427419Y-625348D02*
X-427419Y-640588D01*
X-444437Y-590042D02*
X-444437Y-574802D01*
X-478473Y-574802D02*
X-478473Y-590042D01*
X-512509Y-590042D02*
X-512509Y-574802D01*
X-546545Y-574802D02*
X-546545Y-590042D01*
X-461455Y-625348D02*
X-461455Y-640588D01*
X-495491Y-640588D02*
X-495491Y-625348D01*
X-529527Y-625348D02*
X-529527Y-640588D01*
X534225Y-590042D02*
X534225Y-574802D01*
X517207Y-625348D02*
X517207Y-640588D01*
X500189Y-590042D02*
X500189Y-574802D01*
X483171Y-625348D02*
X483171Y-640588D01*
X466153Y-590042D02*
X466153Y-574802D01*
X432117Y-574802D02*
X432117Y-590042D01*
X398081Y-590042D02*
X398081Y-574802D01*
X364045Y-574802D02*
X364045Y-590042D01*
X449135Y-625348D02*
X449135Y-640588D01*
X415099Y-640588D02*
X415099Y-625348D01*
X381063Y-625348D02*
X381063Y-640588D01*
D15*
X228600Y-381000D03*
X228600Y-482600D03*
D13*
X-613410Y-394970D03*
X-715010Y-394970D03*
D15*
X-228600Y-304800D03*
X-228600Y-406400D03*
D12*
X603250Y-393700D03*
X704850Y-393700D03*
D13*
X-612140Y-457200D03*
X-713740Y-457200D03*
D12*
X603250Y-457200D03*
X704850Y-457200D03*
D18*
X266700Y-482600D03*
X266700Y-381000D03*
D15*
X368300Y482600D03*
X368300Y381000D03*
D21*
X-520700Y513080D02*
X-520700Y528320D01*
X-495300Y528320D02*
X-495300Y513080D01*
X-469900Y513080D02*
X-469900Y528320D01*
X-444500Y528320D02*
X-444500Y513080D01*
D14*
X-228600Y-252730D03*
X-228600Y-204470D03*
D22*
X355600Y-393700D03*
X381000Y-393700D03*
X355600Y-419100D03*
X381000Y-419100D03*
X355600Y-444500D03*
X381000Y-444500D03*
D23*
X-13716Y-310896D03*
X203454Y-290322D03*
X312420Y-293370D03*
D24*
X189738Y-320040D03*
D23*
X-464058Y49530D03*
D24*
X1524Y-240030D03*
X-12192Y-228600D03*
X423672Y-366522D03*
X-8382Y-254508D03*
X-182880Y-317754D03*
X-27432Y-282702D03*
X-423672Y-387096D03*
X367284Y-378714D03*
X-54864Y-272796D03*
X108204Y-225552D03*
X417576Y-415290D03*
X440436Y-497586D03*
X278892Y-201930D03*
X429768Y-352806D03*
X458724Y-381762D03*
X198120Y-256032D03*
X423672Y-430530D03*
X366522Y-192786D03*
X458724Y-119634D03*
X458724Y271272D03*
X435864Y495300D03*
X165354Y-313944D03*
X452628Y-7620D03*
X191262Y-304038D03*
X100584Y-257556D03*
X189738Y-221742D03*
X435864Y294132D03*
D23*
X-292608Y-297180D03*
X9906Y-310896D03*
X-445770Y167640D03*
D25*
X-584200Y-38100D03*
X-478536Y-532638D03*
X355092Y-553212D03*
M02*
