G04 EAGLE Gerber RS-274X export*
G75*
%MOMM*%
%FSLAX34Y34*%
%LPD*%
%INTop Copper*%
%IPPOS*%
%AMOC8*
5,1,8,0,0,1.08239X$1,22.5*%
G01*
%ADD10R,0.550000X1.470000*%
%ADD11R,1.470000X0.550000*%
%ADD12R,4.000000X4.000000*%
%ADD13R,1.400000X1.400000*%
%ADD14R,1.803000X1.600000*%
%ADD15R,1.900000X1.100000*%
%ADD16R,1.600000X1.800000*%
%ADD17R,1.600000X1.803000*%
%ADD18R,1.100000X1.900000*%
%ADD19R,1.800000X1.600000*%
%ADD20R,2.540000X1.500000*%
%ADD21R,1.500000X2.540000*%
%ADD22R,3.302000X1.016000*%
%ADD23R,1.016000X3.302000*%
%ADD24C,0.304800*%
%ADD25C,0.508000*%
%ADD26C,1.016000*%
%ADD27C,0.756400*%


D10*
X585956Y-403500D03*
X593956Y-403500D03*
X601956Y-403500D03*
X609956Y-403500D03*
X617956Y-403500D03*
X625956Y-403500D03*
X633956Y-403500D03*
X641956Y-403500D03*
D11*
X655656Y-389800D03*
X655656Y-381800D03*
X655656Y-373800D03*
X655656Y-365800D03*
X655656Y-357800D03*
X655656Y-349800D03*
X655656Y-341800D03*
X655656Y-333800D03*
D10*
X641956Y-320100D03*
X633956Y-320100D03*
X625956Y-320100D03*
X617956Y-320100D03*
X609956Y-320100D03*
X601956Y-320100D03*
X593956Y-320100D03*
X585956Y-320100D03*
D11*
X572256Y-333800D03*
X572256Y-341800D03*
X572256Y-349800D03*
X572256Y-357800D03*
X572256Y-365800D03*
X572256Y-373800D03*
X572256Y-381800D03*
X572256Y-389800D03*
D12*
X444500Y-556700D03*
X444500Y-611700D03*
D13*
X685800Y44400D03*
X685800Y6400D03*
D14*
X381000Y-569980D03*
X381000Y-598420D03*
X520700Y-569980D03*
X520700Y-598420D03*
D15*
X502200Y-443300D03*
X539200Y-420300D03*
X502200Y-420300D03*
X539200Y-443300D03*
D16*
X519400Y-495300D03*
X547400Y-495300D03*
X595600Y-495300D03*
X623600Y-495300D03*
X636300Y-266700D03*
X608300Y-266700D03*
X684500Y-266700D03*
X712500Y-266700D03*
X684500Y-215900D03*
X712500Y-215900D03*
D11*
X-333500Y-162500D03*
X-333500Y-170500D03*
X-333500Y-178500D03*
X-333500Y-186500D03*
X-333500Y-194500D03*
X-333500Y-202500D03*
X-333500Y-210500D03*
X-333500Y-218500D03*
D10*
X-319800Y-232200D03*
X-311800Y-232200D03*
X-303800Y-232200D03*
X-295800Y-232200D03*
X-287800Y-232200D03*
X-279800Y-232200D03*
X-271800Y-232200D03*
X-263800Y-232200D03*
D11*
X-250100Y-218500D03*
X-250100Y-210500D03*
X-250100Y-202500D03*
X-250100Y-194500D03*
X-250100Y-186500D03*
X-250100Y-178500D03*
X-250100Y-170500D03*
X-250100Y-162500D03*
D10*
X-263800Y-148800D03*
X-271800Y-148800D03*
X-279800Y-148800D03*
X-287800Y-148800D03*
X-295800Y-148800D03*
X-303800Y-148800D03*
X-311800Y-148800D03*
X-319800Y-148800D03*
D12*
X190500Y-163000D03*
X190500Y-218000D03*
D13*
X-285800Y-38100D03*
X-323800Y-38100D03*
D17*
X-290580Y-88900D03*
X-319020Y-88900D03*
X163580Y-279400D03*
X192020Y-279400D03*
D18*
X-191700Y-209000D03*
X-214700Y-172000D03*
X-214700Y-209000D03*
X-191700Y-172000D03*
D16*
X-252700Y-292100D03*
X-280700Y-292100D03*
X-217200Y-254000D03*
X-189200Y-254000D03*
X293400Y-228600D03*
X265400Y-228600D03*
X293400Y-279400D03*
X265400Y-279400D03*
X-242600Y-88900D03*
X-214600Y-88900D03*
D10*
X-585956Y-320100D03*
X-593956Y-320100D03*
X-601956Y-320100D03*
X-609956Y-320100D03*
X-617956Y-320100D03*
X-625956Y-320100D03*
X-633956Y-320100D03*
X-641956Y-320100D03*
D11*
X-655656Y-333800D03*
X-655656Y-341800D03*
X-655656Y-349800D03*
X-655656Y-357800D03*
X-655656Y-365800D03*
X-655656Y-373800D03*
X-655656Y-381800D03*
X-655656Y-389800D03*
D10*
X-641956Y-403500D03*
X-633956Y-403500D03*
X-625956Y-403500D03*
X-617956Y-403500D03*
X-609956Y-403500D03*
X-601956Y-403500D03*
X-593956Y-403500D03*
X-585956Y-403500D03*
D11*
X-572256Y-389800D03*
X-572256Y-381800D03*
X-572256Y-373800D03*
X-572256Y-365800D03*
X-572256Y-357800D03*
X-572256Y-349800D03*
X-572256Y-341800D03*
X-572256Y-333800D03*
D12*
X-444500Y-611700D03*
X-444500Y-556700D03*
D13*
X-647700Y-146000D03*
X-647700Y-108000D03*
D14*
X-381000Y-598420D03*
X-381000Y-569980D03*
X-520700Y-569980D03*
X-520700Y-598420D03*
D18*
X-633800Y-210100D03*
X-610800Y-247100D03*
X-610800Y-210100D03*
X-633800Y-247100D03*
D19*
X-762000Y-242600D03*
X-762000Y-214600D03*
X-698500Y-242600D03*
X-698500Y-214600D03*
D16*
X-570200Y-482600D03*
X-598200Y-482600D03*
D19*
X-711200Y-113000D03*
X-711200Y-141000D03*
X-787400Y-113000D03*
X-787400Y-141000D03*
D20*
G36*
X-65681Y-538735D02*
X-62366Y-513553D01*
X-47495Y-515511D01*
X-50810Y-540693D01*
X-65681Y-538735D01*
G37*
G36*
X-90863Y-535420D02*
X-87548Y-510238D01*
X-72677Y-512196D01*
X-75992Y-537378D01*
X-90863Y-535420D01*
G37*
D21*
X15000Y-530000D03*
X-15000Y-530000D03*
D17*
G36*
X-88849Y-605805D02*
X-86760Y-589943D01*
X-68885Y-592297D01*
X-70974Y-608159D01*
X-88849Y-605805D01*
G37*
G36*
X-85136Y-577608D02*
X-83047Y-561746D01*
X-65172Y-564100D01*
X-67261Y-579962D01*
X-85136Y-577608D01*
G37*
D14*
X0Y-575780D03*
X0Y-604220D03*
D20*
G36*
X75992Y-537378D02*
X72677Y-512196D01*
X87548Y-510238D01*
X90863Y-535420D01*
X75992Y-537378D01*
G37*
G36*
X50810Y-540693D02*
X47495Y-515511D01*
X62366Y-513553D01*
X65681Y-538735D01*
X50810Y-540693D01*
G37*
G36*
X147706Y-522266D02*
X141132Y-497732D01*
X155620Y-493850D01*
X162194Y-518384D01*
X147706Y-522266D01*
G37*
G36*
X118728Y-530031D02*
X112154Y-505497D01*
X126642Y-501615D01*
X133216Y-526149D01*
X118728Y-530031D01*
G37*
D17*
G36*
X70974Y-608159D02*
X68885Y-592297D01*
X86760Y-589943D01*
X88849Y-605805D01*
X70974Y-608159D01*
G37*
G36*
X67261Y-579962D02*
X65172Y-564100D01*
X83047Y-561746D01*
X85136Y-577608D01*
X67261Y-579962D01*
G37*
G36*
X155660Y-546101D02*
X159801Y-561555D01*
X142386Y-566221D01*
X138245Y-550767D01*
X155660Y-546101D01*
G37*
G36*
X163021Y-573572D02*
X167162Y-589026D01*
X149747Y-593692D01*
X145606Y-578238D01*
X163021Y-573572D01*
G37*
D20*
G36*
X212486Y-499399D02*
X202766Y-475933D01*
X216624Y-470193D01*
X226344Y-493659D01*
X212486Y-499399D01*
G37*
G36*
X189020Y-509119D02*
X179300Y-485653D01*
X193158Y-479913D01*
X202878Y-503379D01*
X189020Y-509119D01*
G37*
G36*
X277845Y-466241D02*
X265145Y-444245D01*
X278135Y-436745D01*
X290835Y-458741D01*
X277845Y-466241D01*
G37*
G36*
X251865Y-481241D02*
X239165Y-459245D01*
X252155Y-451745D01*
X264855Y-473741D01*
X251865Y-481241D01*
G37*
D17*
G36*
X225958Y-569067D02*
X219835Y-554286D01*
X236492Y-547387D01*
X242615Y-562168D01*
X225958Y-569067D01*
G37*
G36*
X215074Y-542791D02*
X208951Y-528010D01*
X225608Y-521111D01*
X231731Y-535892D01*
X215074Y-542791D01*
G37*
G36*
X291697Y-487205D02*
X299697Y-501060D01*
X284083Y-510075D01*
X276083Y-496220D01*
X291697Y-487205D01*
G37*
G36*
X305917Y-511835D02*
X313917Y-525690D01*
X298303Y-534705D01*
X290303Y-520850D01*
X305917Y-511835D01*
G37*
D20*
G36*
X334500Y-427387D02*
X319038Y-407237D01*
X330938Y-398105D01*
X346400Y-418255D01*
X334500Y-427387D01*
G37*
G36*
X314349Y-442850D02*
X298887Y-422700D01*
X310787Y-413568D01*
X326249Y-433718D01*
X314349Y-442850D01*
G37*
G36*
X389049Y-378443D02*
X371090Y-360484D01*
X381697Y-349877D01*
X399656Y-367836D01*
X389049Y-378443D01*
G37*
G36*
X367836Y-399656D02*
X349877Y-381697D01*
X360484Y-371090D01*
X378443Y-389049D01*
X367836Y-399656D01*
G37*
D17*
G36*
X365545Y-491194D02*
X355804Y-478502D01*
X370107Y-467526D01*
X379848Y-480218D01*
X365545Y-491194D01*
G37*
G36*
X348232Y-468631D02*
X338491Y-455939D01*
X352794Y-444963D01*
X362535Y-457655D01*
X348232Y-468631D01*
G37*
G36*
X407855Y-395107D02*
X419169Y-406421D01*
X406421Y-419169D01*
X395107Y-407855D01*
X407855Y-395107D01*
G37*
G36*
X427965Y-415217D02*
X439279Y-426531D01*
X426531Y-439279D01*
X415217Y-427965D01*
X427965Y-415217D01*
G37*
D20*
G36*
X433718Y-326249D02*
X413568Y-310787D01*
X422700Y-298887D01*
X442850Y-314349D01*
X433718Y-326249D01*
G37*
G36*
X418255Y-346400D02*
X398105Y-330938D01*
X407237Y-319038D01*
X427387Y-334500D01*
X418255Y-346400D01*
G37*
G36*
X473741Y-264855D02*
X451745Y-252155D01*
X459245Y-239165D01*
X481241Y-251865D01*
X473741Y-264855D01*
G37*
G36*
X458741Y-290835D02*
X436745Y-278135D01*
X444245Y-265145D01*
X466241Y-277845D01*
X458741Y-290835D01*
G37*
D17*
G36*
X480218Y-379848D02*
X467526Y-370107D01*
X478502Y-355804D01*
X491194Y-365545D01*
X480218Y-379848D01*
G37*
G36*
X457655Y-362535D02*
X444963Y-352794D01*
X455939Y-338491D01*
X468631Y-348232D01*
X457655Y-362535D01*
G37*
G36*
X496220Y-276083D02*
X510075Y-284083D01*
X501060Y-299697D01*
X487205Y-291697D01*
X496220Y-276083D01*
G37*
G36*
X520850Y-290303D02*
X534705Y-298303D01*
X525690Y-313917D01*
X511835Y-305917D01*
X520850Y-290303D01*
G37*
D20*
G36*
X503379Y-202878D02*
X479913Y-193158D01*
X485653Y-179300D01*
X509119Y-189020D01*
X503379Y-202878D01*
G37*
G36*
X493659Y-226344D02*
X470193Y-216624D01*
X475933Y-202766D01*
X499399Y-212486D01*
X493659Y-226344D01*
G37*
G36*
X526149Y-133216D02*
X501615Y-126642D01*
X505497Y-112154D01*
X530031Y-118728D01*
X526149Y-133216D01*
G37*
G36*
X518384Y-162194D02*
X493850Y-155620D01*
X497732Y-141132D01*
X522266Y-147706D01*
X518384Y-162194D01*
G37*
D17*
G36*
X562168Y-242615D02*
X547387Y-236492D01*
X554286Y-219835D01*
X569067Y-225958D01*
X562168Y-242615D01*
G37*
G36*
X535892Y-231731D02*
X521111Y-225608D01*
X528010Y-208951D01*
X542791Y-215074D01*
X535892Y-231731D01*
G37*
G36*
X550767Y-138245D02*
X566221Y-142386D01*
X561555Y-159801D01*
X546101Y-155660D01*
X550767Y-138245D01*
G37*
G36*
X578238Y-145606D02*
X593692Y-149747D01*
X589026Y-167162D01*
X573572Y-163021D01*
X578238Y-145606D01*
G37*
D20*
G36*
X538735Y-65681D02*
X513553Y-62366D01*
X515511Y-47495D01*
X540693Y-50810D01*
X538735Y-65681D01*
G37*
G36*
X535420Y-90863D02*
X510238Y-87548D01*
X512196Y-72677D01*
X537378Y-75992D01*
X535420Y-90863D01*
G37*
X530000Y15000D03*
X530000Y-15000D03*
D17*
G36*
X605805Y-88849D02*
X589943Y-86760D01*
X592297Y-68885D01*
X608159Y-70974D01*
X605805Y-88849D01*
G37*
G36*
X577608Y-85136D02*
X561746Y-83047D01*
X564100Y-65172D01*
X579962Y-67261D01*
X577608Y-85136D01*
G37*
X575780Y0D03*
X604220Y0D03*
D20*
G36*
X537378Y75992D02*
X512196Y72677D01*
X510238Y87548D01*
X535420Y90863D01*
X537378Y75992D01*
G37*
G36*
X540693Y50810D02*
X515511Y47495D01*
X513553Y62366D01*
X538735Y65681D01*
X540693Y50810D01*
G37*
G36*
X522266Y147706D02*
X497732Y141132D01*
X493850Y155620D01*
X518384Y162194D01*
X522266Y147706D01*
G37*
G36*
X530031Y118728D02*
X505497Y112154D01*
X501615Y126642D01*
X526149Y133216D01*
X530031Y118728D01*
G37*
D17*
G36*
X608159Y70974D02*
X592297Y68885D01*
X589943Y86760D01*
X605805Y88849D01*
X608159Y70974D01*
G37*
G36*
X579962Y67261D02*
X564100Y65172D01*
X561746Y83047D01*
X577608Y85136D01*
X579962Y67261D01*
G37*
G36*
X546101Y155660D02*
X561555Y159801D01*
X566221Y142386D01*
X550767Y138245D01*
X546101Y155660D01*
G37*
G36*
X573572Y163021D02*
X589026Y167162D01*
X593692Y149747D01*
X578238Y145606D01*
X573572Y163021D01*
G37*
D20*
G36*
X397772Y170391D02*
X374306Y160671D01*
X368566Y174529D01*
X392032Y184249D01*
X397772Y170391D01*
G37*
G36*
X407492Y146925D02*
X384026Y137205D01*
X378286Y151063D01*
X401752Y160783D01*
X407492Y146925D01*
G37*
G36*
X370979Y222845D02*
X348983Y210145D01*
X341483Y223135D01*
X363479Y235835D01*
X370979Y222845D01*
G37*
G36*
X385979Y196865D02*
X363983Y184165D01*
X356483Y197155D01*
X378479Y209855D01*
X385979Y196865D01*
G37*
D17*
G36*
X308619Y137591D02*
X323400Y143714D01*
X330299Y127057D01*
X315518Y120934D01*
X308619Y137591D01*
G37*
G36*
X334894Y148475D02*
X349675Y154598D01*
X356574Y137941D01*
X341793Y131818D01*
X334894Y148475D01*
G37*
G36*
X335519Y183303D02*
X321664Y175303D01*
X312649Y190917D01*
X326504Y198917D01*
X335519Y183303D01*
G37*
G36*
X310889Y169083D02*
X297034Y161083D01*
X288019Y176697D01*
X301874Y184697D01*
X310889Y169083D01*
G37*
D20*
G36*
X340118Y267536D02*
X319968Y252074D01*
X310836Y263974D01*
X330986Y279436D01*
X340118Y267536D01*
G37*
G36*
X355581Y247385D02*
X335431Y231923D01*
X326299Y243823D01*
X346449Y259285D01*
X355581Y247385D01*
G37*
G36*
X300661Y311267D02*
X282702Y293308D01*
X272095Y303915D01*
X290054Y321874D01*
X300661Y311267D01*
G37*
G36*
X321874Y290054D02*
X303915Y272095D01*
X293308Y282702D01*
X311267Y300661D01*
X321874Y290054D01*
G37*
D17*
G36*
X262492Y212779D02*
X275184Y222520D01*
X286160Y208217D01*
X273468Y198476D01*
X262492Y212779D01*
G37*
G36*
X285055Y230092D02*
X297747Y239833D01*
X308723Y225530D01*
X296031Y215789D01*
X285055Y230092D01*
G37*
G36*
X276644Y263896D02*
X265330Y252582D01*
X252582Y265330D01*
X263896Y276644D01*
X276644Y263896D01*
G37*
G36*
X256534Y243786D02*
X245220Y232472D01*
X232472Y245220D01*
X243786Y256534D01*
X256534Y243786D01*
G37*
D20*
G36*
X259285Y346449D02*
X243823Y326299D01*
X231923Y335431D01*
X247385Y355581D01*
X259285Y346449D01*
G37*
G36*
X279436Y330986D02*
X263974Y310836D01*
X252074Y319968D01*
X267536Y340118D01*
X279436Y330986D01*
G37*
G36*
X209855Y378479D02*
X197155Y356483D01*
X184165Y363983D01*
X196865Y385979D01*
X209855Y378479D01*
G37*
G36*
X235835Y363479D02*
X223135Y341483D01*
X210145Y348983D01*
X222845Y370979D01*
X235835Y363479D01*
G37*
D17*
G36*
X198476Y273468D02*
X208217Y286160D01*
X222520Y275184D01*
X212779Y262492D01*
X198476Y273468D01*
G37*
G36*
X215789Y296031D02*
X225530Y308723D01*
X239833Y297747D01*
X230092Y285055D01*
X215789Y296031D01*
G37*
G36*
X198917Y326504D02*
X190917Y312649D01*
X175303Y321664D01*
X183303Y335519D01*
X198917Y326504D01*
G37*
G36*
X184697Y301874D02*
X176697Y288019D01*
X161083Y297034D01*
X169083Y310889D01*
X184697Y301874D01*
G37*
D20*
G36*
X160783Y401752D02*
X151063Y378286D01*
X137205Y384026D01*
X146925Y407492D01*
X160783Y401752D01*
G37*
G36*
X184249Y392032D02*
X174529Y368566D01*
X160671Y374306D01*
X170391Y397772D01*
X184249Y392032D01*
G37*
G36*
X104746Y419897D02*
X98172Y395363D01*
X83684Y399245D01*
X90258Y423779D01*
X104746Y419897D01*
G37*
G36*
X133724Y412133D02*
X127150Y387599D01*
X112662Y391481D01*
X119236Y416015D01*
X133724Y412133D01*
G37*
D17*
G36*
X120934Y315518D02*
X127057Y330299D01*
X143714Y323400D01*
X137591Y308619D01*
X120934Y315518D01*
G37*
G36*
X131818Y341793D02*
X137941Y356574D01*
X154598Y349675D01*
X148475Y334894D01*
X131818Y341793D01*
G37*
G36*
X107633Y366863D02*
X103492Y351409D01*
X86077Y356075D01*
X90218Y371529D01*
X107633Y366863D01*
G37*
G36*
X100272Y339392D02*
X96131Y323938D01*
X78716Y328604D01*
X82857Y344058D01*
X100272Y339392D01*
G37*
D20*
G36*
X51323Y429677D02*
X48008Y404495D01*
X33137Y406453D01*
X36452Y431635D01*
X51323Y429677D01*
G37*
G36*
X76505Y426361D02*
X73190Y401179D01*
X58319Y403137D01*
X61634Y428319D01*
X76505Y426361D01*
G37*
D21*
X-15000Y420000D03*
X15000Y420000D03*
D17*
G36*
X35151Y336068D02*
X37240Y351930D01*
X55115Y349576D01*
X53026Y333714D01*
X35151Y336068D01*
G37*
G36*
X38864Y364265D02*
X40953Y380127D01*
X58828Y377773D01*
X56739Y361911D01*
X38864Y364265D01*
G37*
D14*
X0Y374220D03*
X0Y345780D03*
D20*
G36*
X-61634Y428319D02*
X-58319Y403137D01*
X-73190Y401179D01*
X-76505Y426361D01*
X-61634Y428319D01*
G37*
G36*
X-36452Y431635D02*
X-33137Y406453D01*
X-48008Y404495D01*
X-51323Y429677D01*
X-36452Y431635D01*
G37*
G36*
X-119236Y416015D02*
X-112662Y391481D01*
X-127150Y387599D01*
X-133724Y412133D01*
X-119236Y416015D01*
G37*
G36*
X-90258Y423779D02*
X-83684Y399245D01*
X-98172Y395363D01*
X-104746Y419897D01*
X-90258Y423779D01*
G37*
D17*
G36*
X-53026Y333714D02*
X-55115Y349576D01*
X-37240Y351930D01*
X-35151Y336068D01*
X-53026Y333714D01*
G37*
G36*
X-56739Y361911D02*
X-58828Y377773D01*
X-40953Y380127D01*
X-38864Y364265D01*
X-56739Y361911D01*
G37*
G36*
X-90218Y371529D02*
X-86077Y356075D01*
X-103492Y351409D01*
X-107633Y366863D01*
X-90218Y371529D01*
G37*
G36*
X-82857Y344058D02*
X-78716Y328604D01*
X-96131Y323938D01*
X-100272Y339392D01*
X-82857Y344058D01*
G37*
D20*
G36*
X-170391Y397772D02*
X-160671Y374306D01*
X-174529Y368566D01*
X-184249Y392032D01*
X-170391Y397772D01*
G37*
G36*
X-146925Y407492D02*
X-137205Y384026D01*
X-151063Y378286D01*
X-160783Y401752D01*
X-146925Y407492D01*
G37*
G36*
X-222845Y370979D02*
X-210145Y348983D01*
X-223135Y341483D01*
X-235835Y363479D01*
X-222845Y370979D01*
G37*
G36*
X-196865Y385979D02*
X-184165Y363983D01*
X-197155Y356483D01*
X-209855Y378479D01*
X-196865Y385979D01*
G37*
D17*
G36*
X-137591Y308619D02*
X-143714Y323400D01*
X-127057Y330299D01*
X-120934Y315518D01*
X-137591Y308619D01*
G37*
G36*
X-148475Y334894D02*
X-154598Y349675D01*
X-137941Y356574D01*
X-131818Y341793D01*
X-148475Y334894D01*
G37*
G36*
X-183303Y335519D02*
X-175303Y321664D01*
X-190917Y312649D01*
X-198917Y326504D01*
X-183303Y335519D01*
G37*
G36*
X-169083Y310889D02*
X-161083Y297034D01*
X-176697Y288019D01*
X-184697Y301874D01*
X-169083Y310889D01*
G37*
D20*
G36*
X-267536Y340118D02*
X-252074Y319968D01*
X-263974Y310836D01*
X-279436Y330986D01*
X-267536Y340118D01*
G37*
G36*
X-247385Y355581D02*
X-231923Y335431D01*
X-243823Y326299D01*
X-259285Y346449D01*
X-247385Y355581D01*
G37*
G36*
X-311267Y300661D02*
X-293308Y282702D01*
X-303915Y272095D01*
X-321874Y290054D01*
X-311267Y300661D01*
G37*
G36*
X-290054Y321874D02*
X-272095Y303915D01*
X-282702Y293308D01*
X-300661Y311267D01*
X-290054Y321874D01*
G37*
D17*
G36*
X-212779Y262492D02*
X-222520Y275184D01*
X-208217Y286160D01*
X-198476Y273468D01*
X-212779Y262492D01*
G37*
G36*
X-230092Y285055D02*
X-239833Y297747D01*
X-225530Y308723D01*
X-215789Y296031D01*
X-230092Y285055D01*
G37*
G36*
X-263896Y276644D02*
X-252582Y265330D01*
X-265330Y252582D01*
X-276644Y263896D01*
X-263896Y276644D01*
G37*
G36*
X-243786Y256534D02*
X-232472Y245220D01*
X-245220Y232472D01*
X-256534Y243786D01*
X-243786Y256534D01*
G37*
D20*
G36*
X-433718Y326249D02*
X-413568Y310787D01*
X-422700Y298887D01*
X-442850Y314349D01*
X-433718Y326249D01*
G37*
G36*
X-418255Y346400D02*
X-398105Y330938D01*
X-407237Y319038D01*
X-427387Y334500D01*
X-418255Y346400D01*
G37*
G36*
X-473741Y264855D02*
X-451745Y252155D01*
X-459245Y239165D01*
X-481241Y251865D01*
X-473741Y264855D01*
G37*
G36*
X-458741Y290835D02*
X-436745Y278135D01*
X-444245Y265145D01*
X-466241Y277845D01*
X-458741Y290835D01*
G37*
D17*
G36*
X-480218Y379848D02*
X-467526Y370107D01*
X-478502Y355804D01*
X-491194Y365545D01*
X-480218Y379848D01*
G37*
G36*
X-457655Y362535D02*
X-444963Y352794D01*
X-455939Y338491D01*
X-468631Y348232D01*
X-457655Y362535D01*
G37*
G36*
X-496220Y276083D02*
X-510075Y284083D01*
X-501060Y299697D01*
X-487205Y291697D01*
X-496220Y276083D01*
G37*
G36*
X-520850Y290303D02*
X-534705Y298303D01*
X-525690Y313917D01*
X-511835Y305917D01*
X-520850Y290303D01*
G37*
D20*
G36*
X-503379Y202878D02*
X-479913Y193158D01*
X-485653Y179300D01*
X-509119Y189020D01*
X-503379Y202878D01*
G37*
G36*
X-493659Y226344D02*
X-470193Y216624D01*
X-475933Y202766D01*
X-499399Y212486D01*
X-493659Y226344D01*
G37*
G36*
X-526149Y133216D02*
X-501615Y126642D01*
X-505497Y112154D01*
X-530031Y118728D01*
X-526149Y133216D01*
G37*
G36*
X-518384Y162194D02*
X-493850Y155620D01*
X-497732Y141132D01*
X-522266Y147706D01*
X-518384Y162194D01*
G37*
D17*
G36*
X-562168Y242615D02*
X-547387Y236492D01*
X-554286Y219835D01*
X-569067Y225958D01*
X-562168Y242615D01*
G37*
G36*
X-535892Y231731D02*
X-521111Y225608D01*
X-528010Y208951D01*
X-542791Y215074D01*
X-535892Y231731D01*
G37*
G36*
X-550767Y138245D02*
X-566221Y142386D01*
X-561555Y159801D01*
X-546101Y155660D01*
X-550767Y138245D01*
G37*
G36*
X-578238Y145606D02*
X-593692Y149747D01*
X-589026Y167162D01*
X-573572Y163021D01*
X-578238Y145606D01*
G37*
D20*
G36*
X-538735Y65681D02*
X-513553Y62366D01*
X-515511Y47495D01*
X-540693Y50810D01*
X-538735Y65681D01*
G37*
G36*
X-535420Y90863D02*
X-510238Y87548D01*
X-512196Y72677D01*
X-537378Y75992D01*
X-535420Y90863D01*
G37*
X-530000Y-15000D03*
X-530000Y15000D03*
D17*
G36*
X-605805Y88849D02*
X-589943Y86760D01*
X-592297Y68885D01*
X-608159Y70974D01*
X-605805Y88849D01*
G37*
G36*
X-577608Y85136D02*
X-561746Y83047D01*
X-564100Y65172D01*
X-579962Y67261D01*
X-577608Y85136D01*
G37*
X-575780Y0D03*
X-604220Y0D03*
D20*
G36*
X-537378Y-75992D02*
X-512196Y-72677D01*
X-510238Y-87548D01*
X-535420Y-90863D01*
X-537378Y-75992D01*
G37*
G36*
X-540693Y-50810D02*
X-515511Y-47495D01*
X-513553Y-62366D01*
X-538735Y-65681D01*
X-540693Y-50810D01*
G37*
G36*
X-522266Y-147706D02*
X-497732Y-141132D01*
X-493850Y-155620D01*
X-518384Y-162194D01*
X-522266Y-147706D01*
G37*
G36*
X-530031Y-118728D02*
X-505497Y-112154D01*
X-501615Y-126642D01*
X-526149Y-133216D01*
X-530031Y-118728D01*
G37*
D17*
G36*
X-608159Y-70974D02*
X-592297Y-68885D01*
X-589943Y-86760D01*
X-605805Y-88849D01*
X-608159Y-70974D01*
G37*
G36*
X-579962Y-67261D02*
X-564100Y-65172D01*
X-561746Y-83047D01*
X-577608Y-85136D01*
X-579962Y-67261D01*
G37*
G36*
X-546101Y-155660D02*
X-561555Y-159801D01*
X-566221Y-142386D01*
X-550767Y-138245D01*
X-546101Y-155660D01*
G37*
G36*
X-573572Y-163021D02*
X-589026Y-167162D01*
X-593692Y-149747D01*
X-578238Y-145606D01*
X-573572Y-163021D01*
G37*
D20*
G36*
X-499399Y-212486D02*
X-475933Y-202766D01*
X-470193Y-216624D01*
X-493659Y-226344D01*
X-499399Y-212486D01*
G37*
G36*
X-509119Y-189020D02*
X-485653Y-179300D01*
X-479913Y-193158D01*
X-503379Y-202878D01*
X-509119Y-189020D01*
G37*
G36*
X-466241Y-277845D02*
X-444245Y-265145D01*
X-436745Y-278135D01*
X-458741Y-290835D01*
X-466241Y-277845D01*
G37*
G36*
X-481241Y-251865D02*
X-459245Y-239165D01*
X-451745Y-252155D01*
X-473741Y-264855D01*
X-481241Y-251865D01*
G37*
D17*
G36*
X-569067Y-225958D02*
X-554286Y-219835D01*
X-547387Y-236492D01*
X-562168Y-242615D01*
X-569067Y-225958D01*
G37*
G36*
X-542791Y-215074D02*
X-528010Y-208951D01*
X-521111Y-225608D01*
X-535892Y-231731D01*
X-542791Y-215074D01*
G37*
G36*
X-487205Y-291697D02*
X-501060Y-299697D01*
X-510075Y-284083D01*
X-496220Y-276083D01*
X-487205Y-291697D01*
G37*
G36*
X-511835Y-305917D02*
X-525690Y-313917D01*
X-534705Y-298303D01*
X-520850Y-290303D01*
X-511835Y-305917D01*
G37*
D20*
G36*
X-427387Y-334500D02*
X-407237Y-319038D01*
X-398105Y-330938D01*
X-418255Y-346400D01*
X-427387Y-334500D01*
G37*
G36*
X-442850Y-314349D02*
X-422700Y-298887D01*
X-413568Y-310787D01*
X-433718Y-326249D01*
X-442850Y-314349D01*
G37*
G36*
X-378443Y-389049D02*
X-360484Y-371090D01*
X-349877Y-381697D01*
X-367836Y-399656D01*
X-378443Y-389049D01*
G37*
G36*
X-399656Y-367836D02*
X-381697Y-349877D01*
X-371090Y-360484D01*
X-389049Y-378443D01*
X-399656Y-367836D01*
G37*
D17*
G36*
X-491194Y-365545D02*
X-478502Y-355804D01*
X-467526Y-370107D01*
X-480218Y-379848D01*
X-491194Y-365545D01*
G37*
G36*
X-468631Y-348232D02*
X-455939Y-338491D01*
X-444963Y-352794D01*
X-457655Y-362535D01*
X-468631Y-348232D01*
G37*
G36*
X-395107Y-407855D02*
X-406421Y-419169D01*
X-419169Y-406421D01*
X-407855Y-395107D01*
X-395107Y-407855D01*
G37*
G36*
X-415217Y-427965D02*
X-426531Y-439279D01*
X-439279Y-426531D01*
X-427965Y-415217D01*
X-415217Y-427965D01*
G37*
D20*
G36*
X-326249Y-433718D02*
X-310787Y-413568D01*
X-298887Y-422700D01*
X-314349Y-442850D01*
X-326249Y-433718D01*
G37*
G36*
X-346400Y-418255D02*
X-330938Y-398105D01*
X-319038Y-407237D01*
X-334500Y-427387D01*
X-346400Y-418255D01*
G37*
G36*
X-264855Y-473741D02*
X-252155Y-451745D01*
X-239165Y-459245D01*
X-251865Y-481241D01*
X-264855Y-473741D01*
G37*
G36*
X-290835Y-458741D02*
X-278135Y-436745D01*
X-265145Y-444245D01*
X-277845Y-466241D01*
X-290835Y-458741D01*
G37*
D17*
G36*
X-379848Y-480218D02*
X-370107Y-467526D01*
X-355804Y-478502D01*
X-365545Y-491194D01*
X-379848Y-480218D01*
G37*
G36*
X-362535Y-457655D02*
X-352794Y-444963D01*
X-338491Y-455939D01*
X-348232Y-468631D01*
X-362535Y-457655D01*
G37*
G36*
X-276083Y-496220D02*
X-284083Y-510075D01*
X-299697Y-501060D01*
X-291697Y-487205D01*
X-276083Y-496220D01*
G37*
G36*
X-290303Y-520850D02*
X-298303Y-534705D01*
X-313917Y-525690D01*
X-305917Y-511835D01*
X-290303Y-520850D01*
G37*
D20*
G36*
X-202878Y-503379D02*
X-193158Y-479913D01*
X-179300Y-485653D01*
X-189020Y-509119D01*
X-202878Y-503379D01*
G37*
G36*
X-226344Y-493659D02*
X-216624Y-470193D01*
X-202766Y-475933D01*
X-212486Y-499399D01*
X-226344Y-493659D01*
G37*
G36*
X-133216Y-526149D02*
X-126642Y-501615D01*
X-112154Y-505497D01*
X-118728Y-530031D01*
X-133216Y-526149D01*
G37*
G36*
X-162194Y-518384D02*
X-155620Y-493850D01*
X-141132Y-497732D01*
X-147706Y-522266D01*
X-162194Y-518384D01*
G37*
D17*
G36*
X-242615Y-562168D02*
X-236492Y-547387D01*
X-219835Y-554286D01*
X-225958Y-569067D01*
X-242615Y-562168D01*
G37*
G36*
X-231731Y-535892D02*
X-225608Y-521111D01*
X-208951Y-528010D01*
X-215074Y-542791D01*
X-231731Y-535892D01*
G37*
G36*
X-138245Y-550767D02*
X-142386Y-566221D01*
X-159801Y-561555D01*
X-155660Y-546101D01*
X-138245Y-550767D01*
G37*
G36*
X-145606Y-578238D02*
X-149747Y-593692D01*
X-167162Y-589026D01*
X-163021Y-573572D01*
X-145606Y-578238D01*
G37*
D22*
X-368300Y0D03*
X-393700Y-25400D03*
X-368300Y-50800D03*
X-393700Y-76200D03*
X-685800Y12700D03*
X-711200Y-12700D03*
X-685800Y-38100D03*
X-711200Y-63500D03*
X254000Y-711200D03*
X203200Y-711200D03*
X254000Y-685800D03*
X203200Y-685800D03*
X254000Y-660400D03*
X203200Y-660400D03*
X317500Y-76200D03*
X368300Y-76200D03*
X317500Y-101600D03*
X368300Y-101600D03*
X317500Y-127000D03*
X368300Y-127000D03*
X-254000Y-660400D03*
X-203200Y-660400D03*
X-254000Y-685800D03*
X-203200Y-685800D03*
X-254000Y-711200D03*
X-203200Y-711200D03*
D23*
X685800Y114300D03*
X711200Y88900D03*
X736600Y114300D03*
X762000Y88900D03*
D24*
X-633222Y-269748D02*
X-633222Y-320040D01*
X-633222Y-269748D02*
X-611505Y-248031D01*
X-633222Y-320040D02*
X-633956Y-320100D01*
X-611505Y-248031D02*
X-610800Y-247100D01*
X-689229Y-214884D02*
X-698373Y-214884D01*
X-689229Y-214884D02*
X-634365Y-269748D01*
X-698373Y-214884D02*
X-698500Y-214600D01*
X-634365Y-269748D02*
X-633222Y-269748D01*
X-642366Y-320040D02*
X-656082Y-320040D01*
X-745808Y-230315D02*
X-761238Y-214884D01*
X-745808Y-230315D02*
X-656082Y-320040D01*
X-642366Y-320040D02*
X-641956Y-320100D01*
X-761238Y-214884D02*
X-762000Y-214600D01*
X-682371Y-209169D02*
X-634365Y-209169D01*
X-682371Y-209169D02*
X-688086Y-203454D01*
X-718947Y-203454D01*
X-745808Y-230315D01*
X-634365Y-209169D02*
X-633800Y-210100D01*
D25*
X713232Y-216027D02*
X713232Y-266319D01*
X712500Y-266700D01*
X713232Y-216027D02*
X712500Y-215900D01*
X610362Y-357759D02*
X610362Y-403479D01*
X610362Y-357759D02*
X608076Y-355473D01*
X628650Y-334899D02*
X634365Y-329184D01*
X634365Y-321183D01*
X610362Y-403479D02*
X609956Y-403500D01*
X634365Y-321183D02*
X633956Y-320100D01*
X558927Y-264033D02*
X558927Y-232029D01*
X558227Y-231225D01*
X706374Y-268605D02*
X710946Y-268605D01*
X706374Y-268605D02*
X667512Y-307467D01*
X637794Y-307467D01*
X634365Y-310896D01*
X634365Y-317754D01*
X710946Y-268605D02*
X712500Y-266700D01*
X634365Y-317754D02*
X633956Y-320100D01*
X466344Y-251460D02*
X466344Y-219456D01*
X465201Y-218313D01*
X465201Y-193167D01*
X481203Y-177165D01*
X481203Y-176022D01*
X483489Y-173736D01*
X489204Y-173736D01*
X490347Y-174879D01*
X554355Y-174879D01*
X569214Y-160020D01*
X569214Y-149733D01*
X571500Y-147447D01*
X571500Y-140589D01*
X554355Y-123444D01*
X516636Y-123444D01*
X466344Y-251460D02*
X466493Y-252010D01*
X516636Y-123444D02*
X515823Y-122685D01*
X598932Y78867D02*
X598932Y164592D01*
X590931Y172593D01*
X529209Y172593D01*
X508635Y152019D01*
X598932Y78867D02*
X599051Y78867D01*
X508635Y152019D02*
X508058Y151663D01*
X557784Y43434D02*
X590931Y43434D01*
X685800Y43434D01*
X557784Y43434D02*
X530352Y16002D01*
X685800Y43434D02*
X685800Y44400D01*
X530352Y16002D02*
X530000Y15000D01*
X598932Y-65151D02*
X598932Y-77724D01*
X598932Y-65151D02*
X592074Y-58293D01*
X592074Y-42291D02*
X592074Y-11430D01*
X592074Y-42291D02*
X592074Y-58293D01*
X592074Y-11430D02*
X590931Y-10287D01*
X590931Y43434D01*
X598932Y-77724D02*
X599051Y-78867D01*
X536067Y130302D02*
X513207Y153162D01*
X536067Y130302D02*
X536067Y117729D01*
X510921Y92583D01*
X507492Y92583D01*
X505206Y90297D01*
X505206Y49149D01*
X532638Y21717D01*
X508058Y151663D02*
X513207Y153162D01*
X532638Y21717D02*
X530000Y15000D01*
X514350Y-99441D02*
X514350Y-121158D01*
X514350Y-99441D02*
X505206Y-90297D01*
X505206Y-50292D01*
X513207Y-42291D01*
X592074Y-42291D01*
X514350Y-121158D02*
X515823Y-122685D01*
X555498Y-177165D02*
X557784Y-179451D01*
X555498Y-177165D02*
X554355Y-174879D01*
X245745Y-557784D02*
X232029Y-557784D01*
X279464Y-524066D02*
X293751Y-509778D01*
X279464Y-524066D02*
X245745Y-557784D01*
X293751Y-509778D02*
X298323Y-509778D01*
X305181Y-502920D01*
X305181Y-478917D01*
X278892Y-452628D01*
X232029Y-557784D02*
X231225Y-558227D01*
X278892Y-452628D02*
X277990Y-451493D01*
X368046Y-464058D02*
X368046Y-478917D01*
X368046Y-464058D02*
X424053Y-408051D01*
X424053Y-402336D01*
X386334Y-364617D01*
X368046Y-478917D02*
X367826Y-479360D01*
X386334Y-364617D02*
X385373Y-364160D01*
X459486Y-368046D02*
X478917Y-368046D01*
X459486Y-368046D02*
X426339Y-401193D01*
X478917Y-368046D02*
X479360Y-367826D01*
X426339Y-401193D02*
X424053Y-402336D01*
X278892Y-435483D02*
X278892Y-449199D01*
X278892Y-435483D02*
X306324Y-408051D01*
X312039Y-408051D01*
X318897Y-414909D01*
X318897Y-416052D01*
X323469Y-420624D01*
X323469Y-421767D01*
X326898Y-425196D01*
X326898Y-426339D01*
X330327Y-429768D01*
X330327Y-430911D01*
X332613Y-433197D01*
X332613Y-460629D01*
X346329Y-474345D01*
X365760Y-474345D01*
X278892Y-449199D02*
X277990Y-451493D01*
X365760Y-474345D02*
X367826Y-479360D01*
X89154Y-600075D02*
X78867Y-600075D01*
X89154Y-600075D02*
X200025Y-710946D01*
X202311Y-710946D01*
X78867Y-600075D02*
X78867Y-599051D01*
X202311Y-710946D02*
X203200Y-711200D01*
X-18288Y-598932D02*
X-77724Y-598932D01*
X-18288Y-598932D02*
X-8001Y-588645D01*
X11430Y-588645D01*
X21717Y-578358D01*
X21717Y-536067D01*
X16002Y-530352D01*
X-77724Y-598932D02*
X-78867Y-599051D01*
X15000Y-530000D02*
X16002Y-530352D01*
X150876Y-515493D02*
X150876Y-508635D01*
X150876Y-515493D02*
X130302Y-536067D01*
X117729Y-536067D01*
X92583Y-510921D01*
X92583Y-507492D01*
X90297Y-505206D01*
X49149Y-505206D01*
X21717Y-532638D01*
X150876Y-508635D02*
X151663Y-508058D01*
X21717Y-532638D02*
X15000Y-530000D01*
X42291Y-597789D02*
X76581Y-597789D01*
X78867Y-599051D01*
X24003Y-579501D02*
X21717Y-578358D01*
X220599Y-465201D02*
X279464Y-524066D01*
X220599Y-465201D02*
X193167Y-465201D01*
X177165Y-481203D01*
X176022Y-481203D01*
X173736Y-483489D01*
X173736Y-555498D01*
X160020Y-569214D01*
X149733Y-569214D01*
X147447Y-571500D01*
X140589Y-571500D01*
X131445Y-562356D01*
X131445Y-538353D01*
X130302Y-536067D01*
X481203Y-368046D02*
X492633Y-356616D01*
X481203Y-368046D02*
X479360Y-367826D01*
D26*
X608076Y-355473D03*
X628650Y-334899D03*
X558927Y-264033D03*
X557784Y-179451D03*
X42291Y-597789D03*
X24003Y-579501D03*
X492633Y-356616D03*
D24*
X536067Y-366903D02*
X571500Y-366903D01*
X536067Y-366903D02*
X394335Y-508635D01*
X394335Y-585216D01*
X381762Y-597789D01*
X571500Y-366903D02*
X572256Y-365800D01*
X381762Y-597789D02*
X381000Y-598420D01*
X318897Y-659511D02*
X254889Y-659511D01*
X318897Y-659511D02*
X379476Y-598932D01*
X254889Y-659511D02*
X254000Y-660400D01*
X379476Y-598932D02*
X381000Y-598420D01*
X-601218Y-340614D02*
X-601218Y-321183D01*
X-713232Y-24003D02*
X-713232Y-14859D01*
X-712089Y-13716D01*
X-601956Y-320100D02*
X-601218Y-321183D01*
X-712089Y-13716D02*
X-711200Y-12700D01*
X601218Y-385191D02*
X601218Y-403479D01*
X722376Y77724D02*
X711200Y88900D01*
X601956Y-403500D02*
X601218Y-403479D01*
D27*
X-601218Y-340614D03*
X-713232Y-24003D03*
X601218Y-385191D03*
X722376Y77724D03*
D24*
X-626364Y-273177D02*
X-626364Y-320040D01*
X-696087Y-49149D02*
X-685800Y-38862D01*
X-626364Y-320040D02*
X-625956Y-320100D01*
X-685800Y-38862D02*
X-685800Y-38100D01*
X626364Y-349758D02*
X626364Y-403479D01*
X626364Y-349758D02*
X642366Y-333756D01*
X725805Y104013D02*
X736092Y114300D01*
X626364Y-403479D02*
X625956Y-403500D01*
X736092Y114300D02*
X736600Y114300D01*
D27*
X-626364Y-273177D03*
X-696087Y-49149D03*
X642366Y-333756D03*
X725805Y104013D03*
D25*
X-395478Y-598932D02*
X-430911Y-598932D01*
X-395478Y-598932D02*
X-381762Y-598932D01*
X-430911Y-598932D02*
X-443484Y-611505D01*
X-381762Y-598932D02*
X-381000Y-598420D01*
X-443484Y-611505D02*
X-444500Y-611700D01*
X-358902Y-523494D02*
X-314325Y-523494D01*
X-302895Y-523494D01*
X-358902Y-523494D02*
X-395478Y-560070D01*
X-395478Y-598932D01*
X-302895Y-523494D02*
X-302110Y-523270D01*
X-610362Y-403479D02*
X-610362Y-379476D01*
X-618363Y-371475D01*
X-618363Y-321183D01*
X-610362Y-403479D02*
X-609956Y-403500D01*
X-618363Y-321183D02*
X-617956Y-320100D01*
X-570357Y-452628D02*
X-570357Y-482346D01*
X-570357Y-452628D02*
X-610362Y-412623D01*
X-610362Y-405765D01*
X-570357Y-482346D02*
X-570200Y-482600D01*
X-610362Y-405765D02*
X-609956Y-403500D01*
X-366903Y-426339D02*
X-346329Y-426339D01*
X-366903Y-426339D02*
X-426339Y-426339D01*
X-346329Y-426339D02*
X-333756Y-413766D01*
X-426339Y-426339D02*
X-427248Y-427248D01*
X-333756Y-413766D02*
X-332719Y-412746D01*
X-405765Y-313182D02*
X-427482Y-313182D01*
X-405765Y-313182D02*
X-381762Y-337185D01*
X-427482Y-313182D02*
X-428209Y-312568D01*
X-366903Y-424053D02*
X-366903Y-426339D01*
X-242316Y-484632D02*
X-214884Y-484632D01*
X-214555Y-484796D01*
X-453771Y-451485D02*
X-568071Y-451485D01*
X-453771Y-451485D02*
X-429768Y-427482D01*
X-568071Y-451485D02*
X-570357Y-452628D01*
X-429768Y-427482D02*
X-427248Y-427248D01*
X-314325Y-512064D02*
X-314325Y-523494D01*
X-572643Y156591D02*
X-582930Y156591D01*
X-572643Y156591D02*
X-555498Y173736D01*
X-483489Y173736D01*
X-474345Y182880D01*
X-474345Y203454D01*
X-484632Y213741D01*
X-582930Y156591D02*
X-583632Y156384D01*
X-484632Y213741D02*
X-484796Y214555D01*
X-522351Y253746D02*
X-522351Y301752D01*
X-522351Y253746D02*
X-517779Y249174D01*
X-517779Y248031D01*
X-485775Y216027D01*
X-522351Y301752D02*
X-523270Y302110D01*
X-485775Y216027D02*
X-484796Y214555D01*
X-412623Y316611D02*
X-412623Y332613D01*
X-412623Y316611D02*
X-408051Y312039D01*
X-408051Y306324D01*
X-420624Y293751D01*
X-453771Y293751D01*
X-465201Y305181D01*
X-517779Y305181D01*
X-520065Y302895D01*
X-412746Y332719D02*
X-412623Y332613D01*
X-520065Y302895D02*
X-523270Y302110D01*
X-762381Y-237744D02*
X-762381Y-242316D01*
X-762381Y-237744D02*
X-776097Y-224028D01*
X-776097Y-201168D02*
X-776097Y-154305D01*
X-776097Y-201168D02*
X-776097Y-224028D01*
X-776097Y-154305D02*
X-773811Y-152019D01*
X-773811Y-125730D01*
X-786384Y-113157D01*
X-762381Y-242316D02*
X-762000Y-242600D01*
X-786384Y-113157D02*
X-787400Y-113000D01*
X-721233Y-220599D02*
X-699516Y-242316D01*
X-721233Y-220599D02*
X-721233Y-219456D01*
X-739521Y-201168D02*
X-776097Y-201168D01*
X-699516Y-242316D02*
X-698500Y-242600D01*
X-522351Y-276606D02*
X-522351Y-301752D01*
X-522351Y-276606D02*
X-465201Y-219456D01*
X-465201Y-205740D01*
X-478917Y-192024D01*
X-493776Y-192024D01*
X-522351Y-301752D02*
X-523270Y-302110D01*
X-493776Y-192024D02*
X-494516Y-191089D01*
X-712089Y-112014D02*
X-712089Y-99441D01*
X-718947Y-92583D01*
X-718947Y-70866D01*
X-712089Y-64008D01*
X-712089Y-112014D02*
X-711200Y-113000D01*
X-712089Y-64008D02*
X-711200Y-63500D01*
X-587502Y-155448D02*
X-584073Y-155448D01*
X-587502Y-155448D02*
X-622935Y-120015D01*
X-704088Y-120015D01*
X-709803Y-114300D01*
X-584073Y-155448D02*
X-583632Y-156384D01*
X-709803Y-114300D02*
X-711200Y-113000D01*
X-604647Y-60579D02*
X-604647Y-57150D01*
X-604647Y0D01*
X-604647Y-60579D02*
X-621792Y-77724D01*
X-621792Y-117729D01*
X-604647Y0D02*
X-604220Y0D01*
X-621792Y-117729D02*
X-622935Y-120015D01*
X-564642Y-57150D02*
X-528066Y-57150D01*
X-527123Y-56588D01*
X-602361Y-57150D02*
X-604647Y-57150D01*
X-531495Y81153D02*
X-524637Y81153D01*
X-531495Y81153D02*
X-546354Y66294D01*
X-524637Y81153D02*
X-523808Y81770D01*
X-514350Y-171450D02*
X-496062Y-189738D01*
X-494516Y-191089D01*
X-725805Y-124587D02*
X-771525Y-124587D01*
X-725805Y-124587D02*
X-714375Y-113157D01*
X-771525Y-124587D02*
X-773811Y-125730D01*
X-714375Y-113157D02*
X-711200Y-113000D01*
X-579501Y138303D02*
X-579501Y154305D01*
X-583632Y156384D01*
X-618363Y-277749D02*
X-618363Y-317754D01*
X-618363Y-277749D02*
X-588645Y-248031D01*
X-588645Y-157734D01*
X-618363Y-317754D02*
X-617956Y-320100D01*
X-588645Y-157734D02*
X-583632Y-156384D01*
X584073Y72009D02*
X584073Y155448D01*
X584073Y72009D02*
X585216Y70866D01*
X585216Y65151D01*
X577215Y57150D01*
X528066Y57150D01*
X584073Y155448D02*
X583632Y156384D01*
X528066Y57150D02*
X527123Y56588D01*
X745236Y88011D02*
X761238Y88011D01*
X745236Y88011D02*
X721233Y64008D01*
X698373Y64008D02*
X587502Y64008D01*
X698373Y64008D02*
X721233Y64008D01*
X761238Y88011D02*
X762000Y88900D01*
X587502Y64008D02*
X585216Y65151D01*
X518922Y-496062D02*
X505206Y-496062D01*
X444627Y-556641D01*
X518922Y-496062D02*
X519400Y-495300D01*
X444627Y-556641D02*
X444500Y-556700D01*
X571500Y-494919D02*
X595503Y-494919D01*
X571500Y-494919D02*
X530352Y-453771D01*
X528066Y-453771D01*
X516636Y-442341D01*
X516636Y-435483D01*
X514350Y-433197D01*
X490347Y-433197D01*
X488061Y-435483D01*
X488061Y-477774D01*
X504063Y-493776D01*
X595503Y-494919D02*
X595600Y-495300D01*
X505206Y-496062D02*
X504063Y-493776D01*
X582930Y-155448D02*
X582930Y-140589D01*
X572072Y-129731D02*
X524637Y-82296D01*
X572072Y-129731D02*
X582930Y-140589D01*
X582930Y-155448D02*
X583632Y-156384D01*
X524637Y-82296D02*
X523808Y-81770D01*
X604647Y-60579D02*
X604647Y0D01*
X604647Y-60579D02*
X613791Y-69723D01*
X613791Y-88011D01*
X572072Y-129731D01*
X604220Y0D02*
X604647Y0D01*
X522351Y-278892D02*
X522351Y-301752D01*
X522351Y-258318D02*
X522351Y-251460D01*
X485775Y-214884D01*
X522351Y-301752D02*
X523270Y-302110D01*
X485775Y-214884D02*
X484796Y-214555D01*
X618363Y-337185D02*
X618363Y-403479D01*
X618363Y-337185D02*
X610362Y-329184D01*
X610362Y-321183D01*
X617956Y-403500D02*
X618363Y-403479D01*
X610362Y-321183D02*
X609956Y-320100D01*
X636651Y-266319D02*
X683514Y-266319D01*
X636651Y-266319D02*
X636300Y-266700D01*
X683514Y-266319D02*
X684500Y-266700D01*
X684657Y-264033D02*
X684657Y-216027D01*
X684500Y-215900D01*
X684657Y-264033D02*
X684500Y-266700D01*
X610362Y-292608D02*
X610362Y-317754D01*
X610362Y-292608D02*
X595503Y-277749D01*
X595503Y-254889D01*
X597789Y-252603D01*
X621792Y-252603D01*
X634365Y-265176D01*
X610362Y-317754D02*
X609956Y-320100D01*
X636300Y-266700D02*
X634365Y-265176D01*
X545211Y-229743D02*
X524637Y-250317D01*
X545211Y-229743D02*
X545211Y-221742D01*
X552069Y-214884D01*
X565785Y-214884D01*
X596646Y-245745D01*
X596646Y-250317D01*
X524637Y-250317D02*
X522351Y-251460D01*
X596646Y-250317D02*
X597789Y-252603D01*
X584073Y-195453D02*
X584073Y-158877D01*
X584073Y-195453D02*
X566928Y-212598D01*
X584073Y-158877D02*
X583632Y-156384D01*
X566928Y-212598D02*
X565785Y-214884D01*
X515493Y-428625D02*
X515493Y-430911D01*
X515493Y-428625D02*
X524637Y-419481D01*
X524637Y-412623D01*
X528066Y-409194D01*
X574929Y-409194D01*
X581787Y-416052D01*
X614934Y-416052D01*
X618363Y-412623D01*
X618363Y-405765D01*
X515493Y-430911D02*
X514350Y-433197D01*
X618363Y-405765D02*
X617956Y-403500D01*
X698373Y35433D02*
X698373Y64008D01*
X698373Y35433D02*
X681228Y18288D01*
X624078Y18288D01*
X606933Y1143D01*
X604220Y0D01*
X302895Y-515493D02*
X302895Y-522351D01*
X302895Y-515493D02*
X313182Y-505206D01*
X313182Y-428625D01*
X302895Y-522351D02*
X302110Y-523270D01*
X313182Y-428625D02*
X312568Y-428209D01*
X378333Y-569214D02*
X380619Y-569214D01*
X338900Y-529781D02*
X315468Y-506349D01*
X338900Y-529781D02*
X378333Y-569214D01*
X380619Y-569214D02*
X381000Y-569980D01*
X315468Y-506349D02*
X313182Y-505206D01*
X426339Y-442341D02*
X426339Y-427482D01*
X426339Y-442341D02*
X338900Y-529781D01*
X426339Y-427482D02*
X427248Y-427248D01*
X412623Y-332613D02*
X412623Y-316611D01*
X408051Y-312039D01*
X408051Y-306324D01*
X420624Y-293751D01*
X443484Y-293751D01*
X487490Y-337757D02*
X502920Y-353187D01*
X487490Y-337757D02*
X443484Y-293751D01*
X502920Y-353187D02*
X502920Y-364617D01*
X440055Y-427482D01*
X429768Y-427482D01*
X412746Y-332719D02*
X412623Y-332613D01*
X427248Y-427248D02*
X429768Y-427482D01*
X-140589Y-582930D02*
X-155448Y-582930D01*
X-129731Y-572072D02*
X-82296Y-524637D01*
X-129731Y-572072D02*
X-140589Y-582930D01*
X-155448Y-582930D02*
X-156384Y-583632D01*
X-82296Y-524637D02*
X-81770Y-523808D01*
X-200025Y-710946D02*
X-202311Y-710946D01*
X-174308Y-685229D02*
X-157734Y-668655D01*
X-174308Y-685229D02*
X-200025Y-710946D01*
X-157734Y-668655D02*
X-157734Y-585216D01*
X-202311Y-710946D02*
X-203200Y-711200D01*
X-157734Y-585216D02*
X-156384Y-583632D01*
X0Y-603504D02*
X13716Y-603504D01*
X35433Y-581787D01*
X35433Y-569214D02*
X35433Y-548640D01*
X35433Y-569214D02*
X35433Y-581787D01*
X35433Y-548640D02*
X56007Y-528066D01*
X0Y-603504D02*
X0Y-604220D01*
X56007Y-528066D02*
X56588Y-527123D01*
X156591Y-584073D02*
X156591Y-613791D01*
X203200Y-660400D01*
X156591Y-584073D02*
X156384Y-583632D01*
X190881Y-548640D02*
X190881Y-494919D01*
X190881Y-548640D02*
X157734Y-581787D01*
X190881Y-494919D02*
X191089Y-494516D01*
X157734Y-581787D02*
X156384Y-583632D01*
X49149Y-569214D02*
X35433Y-569214D01*
X49149Y-569214D02*
X65151Y-585216D01*
X86868Y-585216D01*
X88011Y-584073D01*
X154305Y-584073D01*
X156384Y-583632D01*
X-88011Y-613791D02*
X-129731Y-572072D01*
X-88011Y-613791D02*
X-11430Y-613791D01*
X-2286Y-604647D01*
X0Y-604220D01*
X289179Y-524637D02*
X300609Y-524637D01*
X289179Y-524637D02*
X238887Y-574929D01*
X218313Y-574929D01*
X193167Y-549783D01*
X300609Y-524637D02*
X302110Y-523270D01*
X193167Y-549783D02*
X190881Y-548640D01*
X487490Y-337757D02*
X489204Y-336042D01*
X-301752Y-525780D02*
X-301752Y-577215D01*
X-225171Y-653796D01*
X-225171Y-667512D01*
X-217170Y-675513D01*
X-184023Y-675513D01*
X-174308Y-685229D01*
X-301752Y-525780D02*
X-302110Y-523270D01*
D26*
X-381762Y-337185D03*
X-366903Y-424053D03*
X-242316Y-484632D03*
X-314325Y-512064D03*
X-721233Y-219456D03*
X-739521Y-201168D03*
X-564642Y-57150D03*
X-602361Y-57150D03*
X-546354Y66294D03*
X-514350Y-171450D03*
X-579501Y138303D03*
X522351Y-278892D03*
X522351Y-258318D03*
X489204Y-336042D03*
D24*
X617220Y-320040D02*
X617220Y-275463D01*
X609219Y-267462D01*
X617220Y-320040D02*
X617956Y-320100D01*
X609219Y-267462D02*
X608300Y-266700D01*
D25*
X-648081Y-107442D02*
X-648081Y-40005D01*
X-685800Y-2286D02*
X-685800Y12700D01*
X-648081Y-107442D02*
X-647700Y-108000D01*
X685800Y6858D02*
X708660Y6858D01*
X772668Y70866D01*
X772668Y106299D01*
X742950Y136017D01*
X707517Y136017D01*
X685800Y114300D01*
X685800Y6858D02*
X685800Y6400D01*
X-684657Y14859D02*
X-684657Y182880D01*
X-354330Y513207D01*
X285750Y513207D01*
X683514Y115443D01*
X-684657Y14859D02*
X-685800Y12700D01*
X683514Y115443D02*
X685800Y114300D01*
D26*
X-648081Y-40005D03*
X-685800Y-2286D03*
D24*
X457200Y-598932D02*
X520065Y-598932D01*
X457200Y-598932D02*
X444627Y-611505D01*
X520065Y-598932D02*
X520700Y-598420D01*
X444627Y-611505D02*
X444500Y-611700D01*
D25*
X269748Y-280035D02*
X266319Y-280035D01*
X269748Y-280035D02*
X283464Y-293751D01*
X302895Y-293751D01*
X379476Y-217170D01*
X379476Y-144018D01*
X389763Y-133731D01*
X389763Y-94869D01*
X371475Y-76581D01*
X369189Y-76581D01*
X265400Y-279400D02*
X266319Y-280035D01*
X368300Y-76200D02*
X369189Y-76581D01*
X210312Y336042D02*
X210312Y341757D01*
X210312Y336042D02*
X210312Y275463D01*
X210312Y341757D02*
X197739Y354330D01*
X197739Y370332D01*
X210312Y275463D02*
X210498Y274326D01*
X197739Y370332D02*
X197010Y371231D01*
X275463Y256032D02*
X275463Y211455D01*
X275463Y256032D02*
X282321Y262890D01*
X282321Y267462D02*
X282321Y304038D01*
X282321Y267462D02*
X282321Y262890D01*
X282321Y304038D02*
X285750Y307467D01*
X275463Y211455D02*
X274326Y210498D01*
X285750Y307467D02*
X286378Y307591D01*
X356616Y241173D02*
X356616Y224028D01*
X356616Y241173D02*
X361188Y245745D01*
X361188Y256032D01*
X332613Y284607D01*
X323469Y284607D01*
X306324Y267462D01*
X282321Y267462D01*
X356616Y224028D02*
X356231Y222990D01*
X225171Y336042D02*
X210312Y336042D01*
X225171Y336042D02*
X230886Y341757D01*
X230886Y345186D01*
X242316Y356616D01*
X242316Y357759D01*
X245745Y361188D01*
X256032Y361188D01*
X284607Y332613D01*
X284607Y309753D01*
X286378Y307591D01*
X372618Y104013D02*
X372618Y-74295D01*
X372618Y104013D02*
X412623Y144018D01*
X412623Y170307D01*
X396621Y186309D01*
X396621Y198882D01*
X372618Y222885D01*
X358902Y222885D01*
X372618Y-74295D02*
X368300Y-76200D01*
X358902Y222885D02*
X356231Y222990D01*
X-45720Y342900D02*
X-53721Y342900D01*
X-88583Y377762D02*
X-112014Y401193D01*
X-88583Y377762D02*
X-53721Y342900D01*
X-112014Y401193D02*
X-122301Y401193D01*
X-45720Y342900D02*
X-45133Y342822D01*
X-122301Y401193D02*
X-123193Y401807D01*
X44577Y350901D02*
X44577Y342900D01*
X44577Y350901D02*
X13716Y381762D01*
X13716Y385191D01*
X10859Y388049D02*
X-14859Y413766D01*
X10859Y388049D02*
X13716Y385191D01*
X-14859Y413766D02*
X-14859Y419481D01*
X44577Y342900D02*
X45133Y342822D01*
X-14859Y419481D02*
X-15000Y420000D01*
X93726Y416052D02*
X93726Y410337D01*
X93726Y416052D02*
X73152Y436626D01*
X34290Y436626D01*
X27432Y429768D01*
X27432Y404622D01*
X10859Y388049D01*
X93726Y410337D02*
X94215Y409571D01*
X-77724Y388620D02*
X-88583Y377762D01*
X-77724Y388620D02*
X-77724Y400050D01*
X-78867Y401193D01*
X-78867Y409194D01*
X-82296Y412623D01*
X-82296Y427482D01*
X-73152Y436626D01*
X-33147Y436626D01*
X-17145Y420624D01*
X-15000Y420000D01*
X-250317Y-210312D02*
X-262890Y-210312D01*
X-265176Y-212598D01*
X-293751Y-184023D02*
X-322326Y-184023D01*
X-324612Y-186309D01*
X-332613Y-186309D01*
X-250317Y-210312D02*
X-250100Y-210500D01*
X-332613Y-186309D02*
X-333500Y-186500D01*
X-285750Y-38862D02*
X-264033Y-38862D01*
X-214884Y-88011D01*
X-285750Y-38862D02*
X-285800Y-38100D01*
X-214884Y-88011D02*
X-214600Y-88900D01*
X-214884Y-91440D02*
X-214884Y-134874D01*
X-214884Y-91440D02*
X-214600Y-88900D01*
X-246888Y275463D02*
X-256032Y275463D01*
X-246888Y275463D02*
X-211455Y275463D01*
X-256032Y275463D02*
X-266319Y285750D01*
X-307467Y285750D01*
X-211455Y275463D02*
X-210498Y274326D01*
X-307467Y285750D02*
X-307591Y286378D01*
X-156591Y294894D02*
X-132588Y318897D01*
X-156591Y294894D02*
X-156591Y293751D01*
X-222885Y227457D01*
X-246888Y227457D01*
X-261747Y242316D01*
X-261747Y249174D01*
X-246888Y264033D01*
X-246888Y275463D01*
X-132588Y318897D02*
X-132324Y319459D01*
X-130302Y318897D02*
X131445Y318897D01*
X132324Y319459D01*
X-130302Y318897D02*
X-132324Y319459D01*
X316611Y132588D02*
X318897Y132588D01*
X316611Y132588D02*
X132588Y316611D01*
X318897Y132588D02*
X319459Y132324D01*
X132588Y316611D02*
X132324Y319459D01*
X-224028Y356616D02*
X-241173Y356616D01*
X-245745Y361188D01*
X-256032Y361188D01*
X-284607Y332613D01*
X-284607Y323469D01*
X-267462Y306324D01*
X-267462Y288036D01*
X-224028Y356616D02*
X-222990Y356231D01*
X-267462Y288036D02*
X-266319Y285750D01*
X-262890Y210312D02*
X-262890Y-36576D01*
X-262890Y210312D02*
X-248031Y225171D01*
X-262890Y-36576D02*
X-264033Y-38862D01*
X-248031Y225171D02*
X-246888Y227457D01*
X-133731Y402336D02*
X-125730Y402336D01*
X-133731Y402336D02*
X-144018Y412623D01*
X-170307Y412623D01*
X-186309Y396621D01*
X-198882Y396621D01*
X-222885Y372618D01*
X-222885Y358902D01*
X-125730Y402336D02*
X-123193Y401807D01*
X-222885Y358902D02*
X-222990Y356231D01*
X196596Y373761D02*
X196596Y387477D01*
X172593Y411480D01*
X149733Y411480D01*
X148590Y412623D01*
X144018Y412623D01*
X137160Y405765D01*
X137160Y396621D01*
X133731Y393192D01*
X133731Y388620D01*
X132588Y387477D01*
X132588Y385191D01*
X129159Y381762D01*
X114300Y381762D01*
X96012Y400050D01*
X96012Y408051D01*
X196596Y373761D02*
X197010Y371231D01*
X96012Y408051D02*
X94215Y409571D01*
D26*
X-265176Y-212598D03*
X-293751Y-184023D03*
X-214884Y-134874D03*
D24*
X-240030Y-194310D02*
X-249174Y-194310D01*
X-240030Y-194310D02*
X-224028Y-178308D01*
X-224028Y-161163D01*
X-221742Y-158877D01*
X140589Y-158877D01*
X176022Y-194310D01*
X230886Y-194310D01*
X265176Y-228600D01*
X-249174Y-194310D02*
X-250100Y-194500D01*
X265176Y-228600D02*
X265400Y-228600D01*
X190881Y-218313D02*
X190881Y-278892D01*
X192020Y-279400D01*
X190881Y-218313D02*
X190500Y-218000D01*
D25*
X-787527Y-140589D02*
X-787527Y-137160D01*
X-801243Y-123444D01*
X-801243Y-102870D01*
X-731520Y-33147D01*
X-709803Y-33147D01*
X-699516Y-22860D01*
X-692658Y-22860D01*
X-600075Y69723D01*
X-600075Y77724D01*
X-787527Y-140589D02*
X-787400Y-141000D01*
X-600075Y77724D02*
X-599051Y78867D01*
X-558927Y204597D02*
X-558927Y230886D01*
X-558927Y204597D02*
X-598932Y164592D01*
X-598932Y81153D01*
X-558927Y230886D02*
X-558227Y231225D01*
X-598932Y81153D02*
X-599051Y78867D01*
X-556641Y290322D02*
X-480060Y366903D01*
X-556641Y245745D02*
X-556641Y233172D01*
X-556641Y245745D02*
X-556641Y290322D01*
X-480060Y366903D02*
X-479360Y367826D01*
X-556641Y233172D02*
X-558227Y231225D01*
X-507492Y251460D02*
X-467487Y251460D01*
X-528066Y245745D02*
X-556641Y245745D01*
X-467487Y251460D02*
X-466493Y252010D01*
X-366903Y-480060D02*
X-328041Y-480060D01*
X-296037Y-512064D01*
X-290322Y-512064D01*
X-286893Y-515493D01*
X-283464Y-515493D01*
X-282321Y-514350D01*
X-281178Y-514350D01*
X-278321Y-511493D02*
X-252603Y-485775D01*
X-278321Y-511493D02*
X-281178Y-514350D01*
X-252603Y-485775D02*
X-252603Y-467487D01*
X-366903Y-480060D02*
X-367826Y-479360D01*
X-252603Y-467487D02*
X-252010Y-466493D01*
X-278321Y-511493D02*
X-232029Y-557784D01*
X-231225Y-558227D01*
X-328041Y-386334D02*
X-363474Y-386334D01*
X-328041Y-386334D02*
X-293751Y-420624D01*
X-293751Y-444627D01*
X-326898Y-477774D01*
X-363474Y-386334D02*
X-364160Y-385373D01*
X-326898Y-477774D02*
X-328041Y-480060D01*
X-123444Y-516636D02*
X-123444Y-554355D01*
X-140589Y-571500D01*
X-152019Y-571500D01*
X-155448Y-568071D01*
X-203454Y-568071D02*
X-221742Y-568071D01*
X-203454Y-568071D02*
X-155448Y-568071D01*
X-221742Y-568071D02*
X-229743Y-560070D01*
X-123444Y-516636D02*
X-122685Y-515823D01*
X-229743Y-560070D02*
X-231225Y-558227D01*
X-203454Y-568071D02*
X-203454Y-659511D01*
X-203200Y-660400D01*
X-560642Y-39434D02*
X-537210Y-16002D01*
X-560642Y-39434D02*
X-598932Y-77724D01*
X-537210Y-16002D02*
X-530352Y-16002D01*
X-598932Y-77724D02*
X-599051Y-78867D01*
X-530352Y-16002D02*
X-530000Y-15000D01*
X-515493Y100584D02*
X-515493Y122301D01*
X-515493Y100584D02*
X-505206Y90297D01*
X-505206Y50292D01*
X-528066Y27432D01*
X-572643Y27432D01*
X-588645Y11430D01*
X-588645Y-11430D01*
X-560642Y-39434D01*
X-515493Y122301D02*
X-515823Y122685D01*
X-557784Y-201168D02*
X-557784Y-230886D01*
X-543497Y-186881D02*
X-508635Y-152019D01*
X-543497Y-186881D02*
X-557784Y-201168D01*
X-557784Y-230886D02*
X-558227Y-231225D01*
X-508635Y-152019D02*
X-508058Y-151663D01*
X-648081Y-145161D02*
X-707517Y-145161D01*
X-710946Y-141732D01*
X-648081Y-145161D02*
X-647700Y-146000D01*
X-710946Y-141732D02*
X-711200Y-141000D01*
X-634365Y-394335D02*
X-634365Y-403479D01*
X-634365Y-394335D02*
X-621792Y-381762D01*
X-608076Y-368046D02*
X-608076Y-346329D01*
X-610362Y-344043D01*
X-610362Y-321183D01*
X-633956Y-403500D02*
X-634365Y-403479D01*
X-610362Y-321183D02*
X-609956Y-320100D01*
X-530352Y-366903D02*
X-480060Y-366903D01*
X-479360Y-367826D01*
X-452628Y-315468D02*
X-452628Y-278892D01*
X-451493Y-277990D01*
X-609219Y-147447D02*
X-645795Y-147447D01*
X-647700Y-146000D01*
X-558927Y-233172D02*
X-558927Y-259461D01*
X-610362Y-310896D01*
X-610362Y-317754D01*
X-558927Y-233172D02*
X-558227Y-231225D01*
X-610362Y-317754D02*
X-609956Y-320100D01*
X-598932Y-117729D02*
X-598932Y-81153D01*
X-598932Y-117729D02*
X-570357Y-146304D01*
X-570357Y-156591D01*
X-566928Y-160020D01*
X-566928Y-163449D01*
X-543497Y-186881D01*
X-598932Y-81153D02*
X-599051Y-78867D01*
X-373761Y-387477D02*
X-365760Y-387477D01*
X-373761Y-387477D02*
X-380619Y-394335D01*
X-397764Y-394335D01*
X-365760Y-387477D02*
X-364160Y-385373D01*
X-526923Y134874D02*
X-526923Y140589D01*
X-526923Y134874D02*
X-516636Y124587D01*
X-515823Y122685D01*
D26*
X-507492Y251460D03*
X-528066Y245745D03*
X-621792Y-381762D03*
X-608076Y-368046D03*
X-530352Y-366903D03*
X-452628Y-315468D03*
X-609219Y-147447D03*
X-397764Y-394335D03*
X-526923Y140589D03*
D24*
X-617220Y-404622D02*
X-617220Y-464058D01*
X-598932Y-482346D01*
X-617220Y-404622D02*
X-617956Y-403500D01*
X-598932Y-482346D02*
X-598200Y-482600D01*
X-520065Y-597789D02*
X-484632Y-597789D01*
X-444627Y-557784D01*
X-520065Y-597789D02*
X-520700Y-598420D01*
X-444627Y-557784D02*
X-444500Y-556700D01*
X633222Y-485775D02*
X633222Y-422910D01*
X633222Y-404622D01*
X633222Y-485775D02*
X624078Y-494919D01*
X633222Y-404622D02*
X633956Y-403500D01*
X624078Y-494919D02*
X623600Y-495300D01*
X577215Y-420624D02*
X539496Y-420624D01*
X577215Y-420624D02*
X579501Y-422910D01*
X633222Y-422910D01*
X539496Y-420624D02*
X539200Y-420300D01*
X641223Y-404622D02*
X641223Y-499491D01*
X632079Y-508635D01*
X560070Y-508635D01*
X547497Y-496062D01*
X641223Y-404622D02*
X641956Y-403500D01*
X547400Y-495300D02*
X547497Y-496062D01*
X502920Y-449199D02*
X502920Y-443484D01*
X502920Y-449199D02*
X547497Y-493776D01*
X502920Y-443484D02*
X502200Y-443300D01*
X547497Y-493776D02*
X547400Y-495300D01*
X-333756Y-211455D02*
X-341757Y-211455D01*
X-344043Y-213741D01*
X-344043Y-250317D01*
X-289179Y-305181D01*
X-240030Y-305181D01*
X-189738Y-254889D01*
X-333756Y-211455D02*
X-333500Y-210500D01*
X-189738Y-254889D02*
X-189200Y-254000D01*
X-211455Y-172593D02*
X-213741Y-172593D01*
X-211455Y-172593D02*
X-188595Y-195453D01*
X-185166Y-195453D01*
X-182880Y-197739D01*
X-182880Y-246888D01*
X-188595Y-252603D01*
X-213741Y-172593D02*
X-214700Y-172000D01*
X-188595Y-252603D02*
X-189200Y-254000D01*
X-332613Y-240030D02*
X-332613Y-219456D01*
X-332613Y-240030D02*
X-281178Y-291465D01*
X-332613Y-219456D02*
X-333500Y-218500D01*
X-281178Y-291465D02*
X-280700Y-292100D01*
X-195453Y-209169D02*
X-192024Y-209169D01*
X-195453Y-209169D02*
X-219456Y-233172D01*
X-235458Y-233172D01*
X-286893Y-284607D01*
X-192024Y-209169D02*
X-191700Y-209000D01*
X-286893Y-284607D02*
X-280700Y-292100D01*
X-544068Y-357759D02*
X-571500Y-357759D01*
X-465201Y-318897D02*
X-441198Y-342900D01*
X-376047Y-553212D02*
X-376047Y-564642D01*
X-380619Y-569214D01*
X-571500Y-357759D02*
X-572256Y-357800D01*
X-380619Y-569214D02*
X-381000Y-569980D01*
X-254000Y-711200D02*
X-237744Y-694944D01*
X-236601Y-694944D01*
X-234315Y-692658D01*
X-234315Y-653796D01*
X-323469Y-564642D01*
X-374904Y-564642D01*
X-381000Y-569980D01*
D27*
X-544068Y-357759D03*
X-465201Y-318897D03*
X-441198Y-342900D03*
X-376047Y-553212D03*
D24*
X-296037Y-148590D02*
X-296037Y-112014D01*
X-318897Y-89154D01*
X-296037Y-148590D02*
X-295800Y-148800D01*
X-318897Y-89154D02*
X-319020Y-88900D01*
X173736Y-128016D02*
X316611Y-128016D01*
X-296037Y-155448D02*
X-309753Y-169164D01*
X-296037Y-155448D02*
X-296037Y-149733D01*
X316611Y-128016D02*
X317500Y-127000D01*
X-295800Y-148800D02*
X-296037Y-149733D01*
D27*
X173736Y-128016D03*
X-309753Y-169164D03*
D24*
X-74295Y-545211D02*
X-74295Y-570357D01*
X-74295Y-545211D02*
X-57150Y-528066D01*
X-74295Y-570357D02*
X-75154Y-570854D01*
X-57150Y-528066D02*
X-56588Y-527123D01*
X593217Y-328041D02*
X593217Y-321183D01*
X593217Y-328041D02*
X585216Y-336042D01*
X12573Y-562356D02*
X0Y-574929D01*
X593217Y-321183D02*
X593956Y-320100D01*
X0Y-574929D02*
X0Y-575780D01*
X-14859Y-533781D02*
X-14859Y-530352D01*
X-14859Y-533781D02*
X12573Y-561213D01*
X-14859Y-530352D02*
X-15000Y-530000D01*
X12573Y-561213D02*
X12573Y-562356D01*
D27*
X585216Y-336042D03*
X12573Y-562356D03*
D24*
X75438Y-570357D02*
X75438Y-530352D01*
X81153Y-524637D01*
X75438Y-570357D02*
X75154Y-570854D01*
X81153Y-524637D02*
X81770Y-523808D01*
X219456Y-531495D02*
X219456Y-490347D01*
X214884Y-485775D01*
X219456Y-531495D02*
X220341Y-531951D01*
X214884Y-485775D02*
X214555Y-484796D01*
X349758Y-456057D02*
X349758Y-429768D01*
X333756Y-413766D01*
X349758Y-456057D02*
X350513Y-456797D01*
X333756Y-413766D02*
X332719Y-412746D01*
X456057Y-349758D02*
X456057Y-340614D01*
X428625Y-313182D01*
X456057Y-349758D02*
X456797Y-350513D01*
X428625Y-313182D02*
X428209Y-312568D01*
X522351Y-219456D02*
X531495Y-219456D01*
X522351Y-219456D02*
X494919Y-192024D01*
X531495Y-219456D02*
X531951Y-220341D01*
X494919Y-192024D02*
X494516Y-191089D01*
X545211Y-74295D02*
X570357Y-74295D01*
X545211Y-74295D02*
X528066Y-57150D01*
X570357Y-74295D02*
X570854Y-75154D01*
X528066Y-57150D02*
X527123Y-56588D01*
X530352Y75438D02*
X570357Y75438D01*
X530352Y75438D02*
X524637Y81153D01*
X570357Y75438D02*
X570854Y75154D01*
X524637Y81153D02*
X523808Y81770D01*
X571500Y-321183D02*
X585216Y-321183D01*
X160020Y-541782D02*
X160020Y-545211D01*
X149733Y-555498D01*
X585216Y-321183D02*
X585956Y-320100D01*
X149733Y-555498D02*
X149023Y-556161D01*
X123444Y-515493D02*
X123444Y-509778D01*
X144018Y-489204D01*
X156591Y-489204D01*
X166878Y-499491D01*
X166878Y-533781D01*
X160020Y-540639D01*
X123444Y-515493D02*
X122685Y-515823D01*
X160020Y-540639D02*
X160020Y-541782D01*
D27*
X571500Y-321183D03*
X160020Y-541782D03*
D24*
X571500Y-333756D02*
X571500Y-331470D01*
X547497Y-307467D01*
X547497Y-291465D01*
X525780Y-269748D01*
X458343Y-269748D01*
X450342Y-261747D01*
X442341Y-261747D01*
X400050Y-304038D01*
X400050Y-322326D01*
X368046Y-354330D01*
X368046Y-356616D01*
X329184Y-395478D01*
X309753Y-395478D01*
X265176Y-440055D01*
X262890Y-440055D01*
X252603Y-450342D01*
X252603Y-466344D01*
X571500Y-333756D02*
X572256Y-333800D01*
X252603Y-466344D02*
X252010Y-466493D01*
X253746Y-465201D02*
X286893Y-498348D01*
X287890Y-498640D01*
X253746Y-465201D02*
X252010Y-466493D01*
X565785Y-341757D02*
X571500Y-341757D01*
X565785Y-341757D02*
X540639Y-316611D01*
X540639Y-296037D01*
X398907Y-416052D02*
X398907Y-419481D01*
X398907Y-416052D02*
X406908Y-408051D01*
X571500Y-341757D02*
X572256Y-341800D01*
X407138Y-407138D02*
X406908Y-408051D01*
X368046Y-386334D02*
X364617Y-386334D01*
X368046Y-386334D02*
X397764Y-416052D01*
X364617Y-386334D02*
X364160Y-385373D01*
X397764Y-416052D02*
X398907Y-419481D01*
D27*
X540639Y-296037D03*
X398907Y-419481D03*
D24*
X549783Y-349758D02*
X571500Y-349758D01*
X549783Y-349758D02*
X499491Y-299466D01*
X499491Y-288036D01*
X571500Y-349758D02*
X572256Y-349800D01*
X499491Y-288036D02*
X498640Y-287890D01*
X488061Y-278892D02*
X452628Y-278892D01*
X488061Y-278892D02*
X497205Y-288036D01*
X452628Y-278892D02*
X451493Y-277990D01*
X497205Y-288036D02*
X498640Y-287890D01*
X528066Y-357759D02*
X571500Y-357759D01*
X528066Y-357759D02*
X493776Y-323469D01*
X493776Y-165735D02*
X507492Y-152019D01*
X571500Y-357759D02*
X572256Y-357800D01*
X507492Y-152019D02*
X508058Y-151663D01*
X509778Y-149733D02*
X555498Y-149733D01*
X509778Y-149733D02*
X508635Y-150876D01*
X555498Y-149733D02*
X556161Y-149023D01*
X508635Y-150876D02*
X508058Y-151663D01*
D27*
X493776Y-323469D03*
X493776Y-165735D03*
D24*
X625221Y-281178D02*
X625221Y-320040D01*
X582930Y-14859D02*
X582930Y-6858D01*
X576072Y0D01*
X625221Y-320040D02*
X625956Y-320100D01*
X576072Y0D02*
X575780Y0D01*
X582930Y-14859D02*
X530352Y-14859D01*
X530000Y-15000D01*
D27*
X625221Y-281178D03*
X582930Y-14859D03*
D24*
X601218Y-292608D02*
X601218Y-320040D01*
X601218Y-292608D02*
X570357Y-261747D01*
X514350Y108585D02*
X514350Y121158D01*
X515493Y122301D01*
X601218Y-320040D02*
X601956Y-320100D01*
X515493Y122301D02*
X515823Y122685D01*
X542925Y136017D02*
X555498Y148590D01*
X556161Y149023D01*
D27*
X570357Y-261747D03*
X514350Y108585D03*
X542925Y136017D03*
D24*
X355473Y144018D02*
X346329Y144018D01*
X355473Y144018D02*
X382905Y171450D01*
X346329Y144018D02*
X345734Y143208D01*
X382905Y171450D02*
X383169Y172460D01*
X297180Y228600D02*
X297180Y237744D01*
X324612Y265176D01*
X297180Y228600D02*
X296889Y227811D01*
X324612Y265176D02*
X325477Y265755D01*
X228600Y297180D02*
X228600Y324612D01*
X244602Y340614D01*
X228600Y297180D02*
X227811Y296889D01*
X244602Y340614D02*
X245604Y340940D01*
X144018Y346329D02*
X144018Y387477D01*
X148590Y392049D01*
X144018Y346329D02*
X143208Y345734D01*
X148590Y392049D02*
X148994Y392889D01*
X48006Y411480D02*
X48006Y371475D01*
X48006Y411480D02*
X42291Y417195D01*
X48006Y371475D02*
X48846Y371019D01*
X42291Y417195D02*
X42230Y418065D01*
X-49149Y396621D02*
X-49149Y371475D01*
X-49149Y396621D02*
X-66294Y413766D01*
X-49149Y371475D02*
X-48846Y371019D01*
X-66294Y413766D02*
X-67412Y414749D01*
X-144018Y355473D02*
X-144018Y346329D01*
X-144018Y355473D02*
X-171450Y382905D01*
X-144018Y346329D02*
X-143208Y345734D01*
X-171450Y382905D02*
X-172460Y383169D01*
X-228600Y297180D02*
X-237744Y297180D01*
X-265176Y324612D01*
X-228600Y297180D02*
X-227811Y296889D01*
X-265176Y324612D02*
X-265755Y325477D01*
X-456057Y340614D02*
X-456057Y349758D01*
X-456057Y340614D02*
X-428625Y313182D01*
X-456057Y349758D02*
X-456797Y350513D01*
X-428625Y313182D02*
X-428209Y312568D01*
X-522351Y219456D02*
X-531495Y219456D01*
X-522351Y219456D02*
X-494919Y192024D01*
X-531495Y219456D02*
X-531951Y220341D01*
X-494919Y192024D02*
X-494516Y191089D01*
X-566928Y74295D02*
X-570357Y74295D01*
X-566928Y74295D02*
X-549783Y57150D01*
X-528066Y57150D01*
X-570357Y74295D02*
X-570854Y75154D01*
X-528066Y57150D02*
X-527123Y56588D01*
X-530352Y-75438D02*
X-570357Y-75438D01*
X-530352Y-75438D02*
X-524637Y-81153D01*
X-570357Y-75438D02*
X-570854Y-75154D01*
X-524637Y-81153D02*
X-523808Y-81770D01*
X-531495Y-219456D02*
X-490347Y-219456D01*
X-485775Y-214884D01*
X-531495Y-219456D02*
X-531951Y-220341D01*
X-485775Y-214884D02*
X-484796Y-214555D01*
X-456057Y-349758D02*
X-429768Y-349758D01*
X-413766Y-333756D01*
X-456057Y-349758D02*
X-456797Y-350513D01*
X-413766Y-333756D02*
X-412746Y-332719D01*
X-349758Y-456057D02*
X-340614Y-456057D01*
X-313182Y-428625D01*
X-349758Y-456057D02*
X-350513Y-456797D01*
X-313182Y-428625D02*
X-312568Y-428209D01*
X-219456Y-522351D02*
X-219456Y-531495D01*
X-219456Y-522351D02*
X-192024Y-494919D01*
X-219456Y-531495D02*
X-220341Y-531951D01*
X-192024Y-494919D02*
X-191089Y-494516D01*
X-250317Y-170307D02*
X-262890Y-170307D01*
X314325Y177165D02*
X323469Y186309D01*
X-250100Y-170500D02*
X-250317Y-170307D01*
X323469Y186309D02*
X324084Y187110D01*
X332613Y196596D02*
X370332Y196596D01*
X332613Y196596D02*
X324612Y188595D01*
X370332Y196596D02*
X371231Y197010D01*
X324612Y188595D02*
X324084Y187110D01*
D27*
X-262890Y-170307D03*
X314325Y177165D03*
D24*
X-249174Y-120015D02*
X-249174Y-162306D01*
X-249174Y-120015D02*
X-246888Y-117729D01*
X254889Y254889D02*
X264613Y264613D01*
X-249174Y-162306D02*
X-250100Y-162500D01*
X300609Y285750D02*
X307467Y285750D01*
X300609Y285750D02*
X291465Y276606D01*
X307467Y285750D02*
X307591Y286378D01*
D27*
X-246888Y-117729D03*
X254889Y254889D03*
X291465Y276606D03*
D24*
X-264033Y-125730D02*
X-264033Y-148590D01*
X179451Y312039D02*
X179451Y316611D01*
X186309Y323469D01*
X-263800Y-148800D02*
X-264033Y-148590D01*
X186309Y323469D02*
X187110Y324084D01*
X208026Y356616D02*
X222885Y356616D01*
X222990Y356231D01*
D27*
X-264033Y-125730D03*
X179451Y312039D03*
X208026Y356616D03*
D24*
X-270891Y-118872D02*
X-270891Y-148590D01*
X84582Y349758D02*
X96012Y361188D01*
X-270891Y-148590D02*
X-271800Y-148800D01*
X96012Y361188D02*
X96855Y361469D01*
X109728Y401193D02*
X122301Y401193D01*
X123193Y401807D01*
D27*
X-270891Y-118872D03*
X84582Y349758D03*
X109728Y401193D03*
D24*
X-278892Y-124587D02*
X-278892Y-148590D01*
X-14859Y373761D02*
X0Y373761D01*
X-278892Y-148590D02*
X-279800Y-148800D01*
X0Y373761D02*
X0Y374220D01*
X14859Y405765D02*
X14859Y419481D01*
X14859Y405765D02*
X10287Y401193D01*
X14859Y419481D02*
X15000Y420000D01*
D27*
X-278892Y-124587D03*
X-14859Y373761D03*
X10287Y401193D03*
D24*
X-286893Y-117729D02*
X-286893Y-148590D01*
X-94869Y347472D02*
X-94869Y360045D01*
X-96012Y361188D01*
X-286893Y-148590D02*
X-287800Y-148800D01*
X-96855Y361469D02*
X-96012Y361188D01*
X-93726Y395478D02*
X-93726Y409194D01*
X-93726Y395478D02*
X-89154Y390906D01*
X-93726Y409194D02*
X-94215Y409571D01*
D27*
X-286893Y-117729D03*
X-94869Y347472D03*
X-89154Y390906D03*
D24*
X-250317Y-203454D02*
X-286893Y-203454D01*
X-197739Y313182D02*
X-187452Y323469D01*
X-250100Y-202500D02*
X-250317Y-203454D01*
X-187452Y323469D02*
X-187110Y324084D01*
X-196596Y333756D02*
X-196596Y370332D01*
X-196596Y333756D02*
X-187452Y324612D01*
X-196596Y370332D02*
X-197010Y371231D01*
X-187452Y324612D02*
X-187110Y324084D01*
D27*
X-286893Y-203454D03*
X-197739Y313182D03*
D24*
X-250317Y-178308D02*
X-265176Y-178308D01*
X-269748Y-173736D01*
X-269748Y-162306D01*
X-257175Y-118872D02*
X-257175Y-86868D01*
X-261747Y-82296D01*
X-261747Y229743D02*
X-261747Y233172D01*
X-268605Y240030D01*
X-268605Y260604D01*
X-265176Y264033D01*
X-250317Y-178308D02*
X-250100Y-178500D01*
X-265176Y264033D02*
X-264613Y264613D01*
X-286893Y307467D02*
X-309753Y307467D01*
X-325755Y291465D01*
X-325755Y288036D01*
X-298323Y260604D01*
X-269748Y260604D01*
X-286378Y307591D02*
X-286893Y307467D01*
X-264613Y264613D02*
X-269748Y260604D01*
D27*
X-269748Y-162306D03*
X-257175Y-118872D03*
X-261747Y-82296D03*
X-261747Y229743D03*
D24*
X-594360Y-333756D02*
X-594360Y-403479D01*
X-498348Y270891D02*
X-498348Y286893D01*
X-593956Y-403500D02*
X-594360Y-403479D01*
X-498348Y286893D02*
X-498640Y287890D01*
X-497205Y277749D02*
X-452628Y277749D01*
X-451493Y277990D01*
X-497205Y277749D02*
X-498640Y287890D01*
D27*
X-594360Y-333756D03*
X-498348Y270891D03*
D24*
X-586359Y-404622D02*
X-586359Y-417195D01*
X-709803Y-89154D02*
X-616077Y4572D01*
X-616077Y38862D01*
X-582930Y72009D01*
X-582930Y122301D01*
X-556641Y148590D01*
X-585956Y-403500D02*
X-586359Y-404622D01*
X-556641Y148590D02*
X-556161Y149023D01*
X-554355Y150876D02*
X-508635Y150876D01*
X-554355Y150876D02*
X-555498Y149733D01*
X-508635Y150876D02*
X-508058Y151663D01*
X-555498Y149733D02*
X-556161Y149023D01*
D27*
X-586359Y-417195D03*
X-709803Y-89154D03*
D24*
X-571500Y-389763D02*
X-481203Y-389763D01*
X-462915Y-371475D01*
X-462915Y-361188D01*
X-472059Y-352044D01*
X-472059Y-277749D01*
X-448056Y-253746D01*
X-448056Y-211455D01*
X-482346Y-177165D01*
X-482346Y-152019D01*
X-493776Y-140589D01*
X-493776Y-134874D01*
X-497205Y-131445D01*
X-497205Y-69723D01*
X-509778Y-57150D01*
X-509778Y-12573D01*
X-513207Y-9144D01*
X-513207Y-1143D01*
X-529209Y14859D01*
X-571500Y-389763D02*
X-572256Y-389800D01*
X-529209Y14859D02*
X-530000Y15000D01*
X-546354Y0D02*
X-575780Y0D01*
X-546354Y0D02*
X-531495Y14859D01*
X-530000Y15000D01*
X-501777Y-381762D02*
X-571500Y-381762D01*
X-501777Y-381762D02*
X-496062Y-376047D01*
X-544068Y-161163D02*
X-555498Y-149733D01*
X-571500Y-381762D02*
X-572256Y-381800D01*
X-555498Y-149733D02*
X-556161Y-149023D01*
X-548640Y-155448D02*
X-516636Y-123444D01*
X-515823Y-122685D01*
X-548640Y-155448D02*
X-556161Y-149023D01*
D27*
X-496062Y-376047D03*
X-544068Y-161163D03*
D24*
X-549783Y-373761D02*
X-571500Y-373761D01*
X-549783Y-373761D02*
X-499491Y-323469D01*
X-499491Y-288036D01*
X-571500Y-373761D02*
X-572256Y-373800D01*
X-499491Y-288036D02*
X-498640Y-287890D01*
X-467487Y-256032D02*
X-467487Y-252603D01*
X-467487Y-256032D02*
X-498348Y-286893D01*
X-467487Y-252603D02*
X-466493Y-252010D01*
X-498348Y-286893D02*
X-498640Y-287890D01*
X-572643Y-366903D02*
X-580644Y-366903D01*
X-585216Y-371475D01*
X-585216Y-376047D01*
X-422910Y-410337D02*
X-410337Y-410337D01*
X-407138Y-407138D01*
X-572256Y-365800D02*
X-572643Y-366903D01*
X-405765Y-364617D02*
X-386334Y-364617D01*
X-405765Y-364617D02*
X-451485Y-410337D01*
X-386334Y-364617D02*
X-385373Y-364160D01*
D27*
X-585216Y-376047D03*
X-422910Y-410337D03*
X-451485Y-410337D03*
D24*
X-625221Y-404622D02*
X-625221Y-477774D01*
X-606933Y-496062D01*
X-324612Y-496062D01*
X-301752Y-493776D02*
X-292608Y-493776D01*
X-288036Y-498348D01*
X-625221Y-404622D02*
X-625956Y-403500D01*
X-288036Y-498348D02*
X-287890Y-498640D01*
X-278892Y-478917D02*
X-278892Y-452628D01*
X-278892Y-478917D02*
X-292608Y-492633D01*
X-278892Y-452628D02*
X-277990Y-451493D01*
X-292608Y-492633D02*
X-287890Y-498640D01*
D27*
X-324612Y-496062D03*
X-301752Y-493776D03*
D24*
X-601218Y-412623D02*
X-601218Y-404622D01*
X-601218Y-412623D02*
X-589788Y-424053D01*
X-454914Y-424053D01*
X-416052Y-385191D01*
X-380619Y-385191D01*
X-362331Y-366903D01*
X-356616Y-366903D01*
X-344043Y-379476D01*
X-325755Y-379476D01*
X-264033Y-441198D01*
X-259461Y-441198D01*
X-253746Y-446913D01*
X-246888Y-446913D01*
X-238887Y-454914D01*
X-204597Y-454914D01*
X-152019Y-507492D01*
X-601218Y-404622D02*
X-601956Y-403500D01*
X-152019Y-507492D02*
X-151663Y-508058D01*
X-149733Y-509778D02*
X-149733Y-555498D01*
X-149733Y-509778D02*
X-150876Y-508635D01*
X-149733Y-555498D02*
X-149023Y-556161D01*
X-150876Y-508635D02*
X-151663Y-508058D01*
D25*
X-324612Y-37719D02*
X-330327Y-37719D01*
X-368046Y0D01*
X-324612Y-37719D02*
X-323800Y-38100D01*
X-368046Y0D02*
X-368300Y0D01*
D24*
X-340614Y-178308D02*
X-333756Y-178308D01*
X-340614Y-178308D02*
X-361188Y-157734D01*
X-395478Y-36576D02*
X-395478Y-27432D01*
X-394335Y-26289D01*
X-333756Y-178308D02*
X-333500Y-178500D01*
X-394335Y-26289D02*
X-393700Y-25400D01*
D27*
X-361188Y-157734D03*
X-395478Y-36576D03*
D24*
X-341757Y-202311D02*
X-333756Y-202311D01*
X-341757Y-202311D02*
X-368046Y-176022D01*
X-368046Y-51435D01*
X-333756Y-202311D02*
X-333500Y-202500D01*
X-368046Y-51435D02*
X-368300Y-50800D01*
D25*
X-258318Y-73152D02*
X-243459Y-88011D01*
X-258318Y-73152D02*
X-275463Y-73152D01*
X-290322Y-88011D01*
X-243459Y-88011D02*
X-242600Y-88900D01*
X-290322Y-88011D02*
X-290580Y-88900D01*
X-393192Y-75438D02*
X-393192Y-46863D01*
X-387477Y-41148D01*
X-341757Y-41148D01*
X-296037Y-86868D01*
X-292608Y-86868D01*
X-393192Y-75438D02*
X-393700Y-76200D01*
X-292608Y-86868D02*
X-290580Y-88900D01*
X-252603Y-289179D02*
X-252603Y-291465D01*
X-252603Y-289179D02*
X-218313Y-254889D01*
X-252603Y-291465D02*
X-252700Y-292100D01*
X-218313Y-254889D02*
X-217200Y-254000D01*
X-267462Y-194310D02*
X-332613Y-194310D01*
X-267462Y-194310D02*
X-259461Y-186309D01*
X-250317Y-186309D01*
X-332613Y-194310D02*
X-333500Y-194500D01*
X-250317Y-186309D02*
X-250100Y-186500D01*
X-232029Y-242316D02*
X-220599Y-253746D01*
X-217200Y-254000D01*
X-265176Y-194310D02*
X-267462Y-194310D01*
X-242316Y-109728D02*
X-242316Y-91440D01*
X-242316Y-109728D02*
X-237744Y-114300D01*
X-237744Y-152019D02*
X-237744Y-182880D01*
X-237744Y-152019D02*
X-237744Y-114300D01*
X-237744Y-182880D02*
X-241173Y-186309D01*
X-248031Y-186309D01*
X-242316Y-91440D02*
X-242600Y-88900D01*
X-248031Y-186309D02*
X-250100Y-186500D01*
X293751Y-228600D02*
X293751Y-278892D01*
X293400Y-279400D01*
X293400Y-228600D02*
X293751Y-228600D01*
X368046Y-153162D02*
X368046Y-128016D01*
X368046Y-153162D02*
X294894Y-226314D01*
X368046Y-128016D02*
X368300Y-127000D01*
X294894Y-226314D02*
X293400Y-228600D01*
X230886Y-163449D02*
X190881Y-163449D01*
X230886Y-163449D02*
X292608Y-225171D01*
X190881Y-163449D02*
X190500Y-163000D01*
X292608Y-225171D02*
X293400Y-228600D01*
X299466Y193167D02*
X299466Y203454D01*
X299466Y193167D02*
X299466Y173736D01*
X299466Y203454D02*
X340614Y244602D01*
X299466Y173736D02*
X299454Y172890D01*
X340614Y244602D02*
X340940Y245604D01*
X244602Y243459D02*
X244602Y219456D01*
X270891Y193167D01*
X299466Y193167D01*
X244602Y243459D02*
X244503Y244503D01*
X374904Y148590D02*
X392049Y148590D01*
X374904Y148590D02*
X352044Y125730D01*
X346329Y125730D02*
X340614Y125730D01*
X346329Y125730D02*
X352044Y125730D01*
X340614Y125730D02*
X332613Y133731D01*
X332613Y141732D01*
X301752Y172593D01*
X392049Y148590D02*
X392889Y148994D01*
X301752Y172593D02*
X299454Y172890D01*
X265176Y284607D02*
X265176Y324612D01*
X265176Y284607D02*
X244602Y264033D01*
X244602Y257175D02*
X244602Y246888D01*
X244602Y257175D02*
X244602Y264033D01*
X265176Y324612D02*
X265755Y325477D01*
X244602Y246888D02*
X244503Y244503D01*
X-90297Y334899D02*
X-94869Y334899D01*
X-112586Y352616D02*
X-148590Y388620D01*
X-112586Y352616D02*
X-94869Y334899D01*
X-148590Y388620D02*
X-148590Y392049D01*
X-90297Y334899D02*
X-89494Y333998D01*
X-148590Y392049D02*
X-148994Y392889D01*
X-219456Y244602D02*
X-243459Y244602D01*
X-184023Y280035D02*
X-173736Y290322D01*
X-184023Y280035D02*
X-219456Y244602D01*
X-173736Y290322D02*
X-173736Y298323D01*
X-243459Y244602D02*
X-244503Y244503D01*
X-173736Y298323D02*
X-172890Y299454D01*
X-184023Y280035D02*
X-244602Y340614D01*
X-245604Y340940D01*
X-131445Y333756D02*
X-112586Y352616D01*
X-131445Y333756D02*
X-138303Y333756D01*
X-142875Y329184D01*
X-145161Y329184D01*
X-172593Y301752D01*
X-172890Y299454D01*
X-41148Y387477D02*
X-8573Y354902D01*
X0Y346329D01*
X-41148Y387477D02*
X-41148Y417195D01*
X0Y346329D02*
X0Y345780D01*
X-41148Y417195D02*
X-42230Y418065D01*
X172593Y306324D02*
X172593Y299466D01*
X172593Y306324D02*
X170307Y308610D01*
X170307Y329184D02*
X170307Y381762D01*
X170307Y329184D02*
X170307Y308610D01*
X170307Y381762D02*
X171450Y382905D01*
X172593Y299466D02*
X172890Y299454D01*
X171450Y382905D02*
X172460Y383169D01*
X125730Y334899D02*
X90297Y334899D01*
X125730Y334899D02*
X126873Y336042D01*
X133731Y336042D01*
X139446Y330327D01*
X147447Y330327D01*
X148590Y329184D01*
X170307Y329184D01*
X90297Y334899D02*
X89494Y333998D01*
X67437Y354330D02*
X67437Y413766D01*
X74867Y346901D02*
X88011Y333756D01*
X74867Y346901D02*
X67437Y354330D01*
X67437Y413766D02*
X67412Y414749D01*
X88011Y333756D02*
X89494Y333998D01*
X18288Y345186D02*
X2286Y345186D01*
X18288Y345186D02*
X35433Y328041D01*
X56007Y328041D01*
X74867Y346901D01*
X2286Y345186D02*
X0Y345780D01*
X-59436Y332613D02*
X-88011Y332613D01*
X-59436Y332613D02*
X-54864Y328041D01*
X-35433Y328041D01*
X-8573Y354902D01*
X-88011Y332613D02*
X-89494Y333998D01*
X206883Y257175D02*
X244602Y257175D01*
X206883Y257175D02*
X173736Y290322D01*
X173736Y297180D01*
X172890Y299454D01*
X360045Y-126873D02*
X365760Y-126873D01*
X360045Y-126873D02*
X346329Y-113157D01*
X346329Y125730D01*
X365760Y-126873D02*
X368300Y-127000D01*
X178308Y-152019D02*
X-237744Y-152019D01*
X178308Y-152019D02*
X188595Y-162306D01*
X190500Y-163000D01*
D26*
X-232029Y-242316D03*
X-265176Y-194310D03*
D24*
X642366Y-321183D02*
X660654Y-321183D01*
X675513Y-336042D01*
X533781Y-556641D02*
X521208Y-569214D01*
X642366Y-321183D02*
X641956Y-320100D01*
X521208Y-569214D02*
X520700Y-569980D01*
X328041Y-685800D02*
X254000Y-685800D01*
X328041Y-685800D02*
X420624Y-593217D01*
X420624Y-590931D01*
X430911Y-580644D01*
X509778Y-580644D01*
X520065Y-570357D01*
X520700Y-569980D01*
D27*
X675513Y-336042D03*
X533781Y-556641D03*
D24*
X656082Y-334899D02*
X664083Y-334899D01*
X674370Y-345186D01*
X674370Y-373761D01*
X675513Y-374904D01*
X675513Y-472059D01*
X441198Y-706374D01*
X259461Y-706374D01*
X254889Y-710946D01*
X656082Y-334899D02*
X655656Y-333800D01*
X254889Y-710946D02*
X254000Y-711200D01*
X656082Y-342900D02*
X664083Y-342900D01*
X668655Y-347472D01*
X668655Y-378333D01*
X326898Y-676656D02*
X212598Y-676656D01*
X203454Y-685800D01*
X656082Y-342900D02*
X655656Y-341800D01*
X203454Y-685800D02*
X203200Y-685800D01*
D27*
X668655Y-378333D03*
X326898Y-676656D03*
D24*
X-226314Y-219456D02*
X-249174Y-219456D01*
X61722Y-219456D02*
X104013Y-219456D01*
X163449Y-278892D01*
X-249174Y-219456D02*
X-250100Y-218500D01*
X163449Y-278892D02*
X163580Y-279400D01*
X178308Y-101727D02*
X316611Y-101727D01*
X317500Y-101600D01*
D27*
X-226314Y-219456D03*
X61722Y-219456D03*
X178308Y-101727D03*
D24*
X-253746Y-233172D02*
X-262890Y-233172D01*
X214884Y-76581D02*
X316611Y-76581D01*
X-262890Y-233172D02*
X-263800Y-232200D01*
X316611Y-76581D02*
X317500Y-76200D01*
D27*
X-253746Y-233172D03*
X214884Y-76581D03*
D24*
X-270891Y-233172D02*
X-270891Y-257175D01*
X357759Y-112014D02*
X368046Y-101727D01*
X-270891Y-233172D02*
X-271800Y-232200D01*
X368046Y-101727D02*
X368300Y-101600D01*
D27*
X-270891Y-257175D03*
X357759Y-112014D03*
D24*
X-641223Y-404622D02*
X-641223Y-468630D01*
X-540639Y-569214D01*
X-533781Y-569214D02*
X-521208Y-569214D01*
X-533781Y-569214D02*
X-540639Y-569214D01*
X-641223Y-404622D02*
X-641956Y-403500D01*
X-521208Y-569214D02*
X-520700Y-569980D01*
X-454914Y-685800D02*
X-254000Y-685800D01*
X-454914Y-685800D02*
X-533781Y-606933D01*
X-533781Y-569214D01*
X-654939Y-398907D02*
X-654939Y-390906D01*
X-394335Y-659511D02*
X-254889Y-659511D01*
X-654939Y-390906D02*
X-655656Y-389800D01*
X-254889Y-659511D02*
X-254000Y-660400D01*
D27*
X-654939Y-398907D03*
X-394335Y-659511D03*
D24*
X-656082Y-382905D02*
X-664083Y-382905D01*
X-666369Y-385191D01*
X-666369Y-481203D01*
X-441198Y-706374D01*
X-285750Y-706374D01*
X-272034Y-720090D01*
X-236601Y-720090D01*
X-224028Y-707517D01*
X-224028Y-705231D01*
X-204597Y-685800D01*
X-203200Y-685800D01*
X-656082Y-382905D02*
X-655656Y-381800D01*
M02*
