G04 EAGLE Gerber RS-274X export*
G75*
%MOMM*%
%FSLAX34Y34*%
%LPD*%
%INSoldermask Bottom*%
%IPPOS*%
%AMOC8*
5,1,8,0,0,1.08239X$1,22.5*%
G01*
%ADD10C,3.203200*%
%ADD11C,3.303200*%
%ADD12C,5.203200*%
%ADD13C,1.219200*%
%ADD14C,0.959600*%


D10*
X-757016Y328810D03*
X-663266Y491190D03*
X663266Y491190D03*
X757016Y328810D03*
X865112Y-499473D03*
X-865112Y-499473D03*
X-93750Y-820000D03*
X93750Y-820000D03*
X-181775Y-353843D03*
X181775Y-353843D03*
D11*
X-470936Y62000D03*
X-438843Y181775D03*
X-376843Y289162D03*
X-289162Y376843D03*
X-181775Y438843D03*
X-62000Y470936D03*
X-62000Y-470936D03*
X-181775Y-438843D03*
X-289162Y-376843D03*
X-376843Y-289162D03*
X-438843Y-181775D03*
X-470936Y-62000D03*
X470936Y-62000D03*
X438843Y-181775D03*
X376843Y-289162D03*
X289162Y-376843D03*
X181775Y-438843D03*
X62000Y-470936D03*
X62000Y470936D03*
X181775Y438843D03*
X289162Y376843D03*
X376843Y289162D03*
X438843Y181775D03*
X470936Y62000D03*
D12*
X-475000Y0D03*
X-458815Y122939D03*
X-411362Y237500D03*
X-335876Y335876D03*
X-237500Y411362D03*
X-122939Y458815D03*
X0Y-475000D03*
X-122939Y-458815D03*
X-237500Y-411362D03*
X-335876Y-335876D03*
X-411362Y-237500D03*
X-458815Y-122939D03*
X475000Y0D03*
X458815Y-122939D03*
X411362Y-237500D03*
X335876Y-335876D03*
X237500Y-411362D03*
X122939Y-458815D03*
X0Y475000D03*
X122939Y458815D03*
X237500Y411362D03*
X335876Y335876D03*
X411362Y237500D03*
X458815Y122939D03*
D13*
X608076Y-355473D03*
X628650Y-334899D03*
X558927Y-264033D03*
X557784Y-179451D03*
X42291Y-597789D03*
X24003Y-579501D03*
X492633Y-356616D03*
D14*
X-601218Y-340614D03*
X-713232Y-24003D03*
X601218Y-385191D03*
X722376Y77724D03*
X-626364Y-273177D03*
X-696087Y-49149D03*
X642366Y-333756D03*
X725805Y104013D03*
D13*
X-381762Y-337185D03*
X-366903Y-424053D03*
X-242316Y-484632D03*
X-314325Y-512064D03*
X-721233Y-219456D03*
X-739521Y-201168D03*
X-564642Y-57150D03*
X-602361Y-57150D03*
X-546354Y66294D03*
X-514350Y-171450D03*
X-579501Y138303D03*
X522351Y-278892D03*
X522351Y-258318D03*
X489204Y-336042D03*
X-648081Y-40005D03*
X-685800Y-2286D03*
X-265176Y-212598D03*
X-293751Y-184023D03*
X-214884Y-134874D03*
X-507492Y251460D03*
X-528066Y245745D03*
X-621792Y-381762D03*
X-608076Y-368046D03*
X-530352Y-366903D03*
X-452628Y-315468D03*
X-609219Y-147447D03*
X-397764Y-394335D03*
X-526923Y140589D03*
D14*
X-544068Y-357759D03*
X-465201Y-318897D03*
X-441198Y-342900D03*
X-376047Y-553212D03*
X173736Y-128016D03*
X-309753Y-169164D03*
X585216Y-336042D03*
X12573Y-562356D03*
X571500Y-321183D03*
X160020Y-541782D03*
X540639Y-296037D03*
X398907Y-419481D03*
X493776Y-323469D03*
X493776Y-165735D03*
X625221Y-281178D03*
X582930Y-14859D03*
X570357Y-261747D03*
X514350Y108585D03*
X542925Y136017D03*
X-262890Y-170307D03*
X314325Y177165D03*
X-246888Y-117729D03*
X254889Y254889D03*
X291465Y276606D03*
X-264033Y-125730D03*
X179451Y312039D03*
X208026Y356616D03*
X-270891Y-118872D03*
X84582Y349758D03*
X109728Y401193D03*
X-278892Y-124587D03*
X-14859Y373761D03*
X10287Y401193D03*
X-286893Y-117729D03*
X-94869Y347472D03*
X-89154Y390906D03*
X-286893Y-203454D03*
X-197739Y313182D03*
X-269748Y-162306D03*
X-257175Y-118872D03*
X-261747Y-82296D03*
X-261747Y229743D03*
X-594360Y-333756D03*
X-498348Y270891D03*
X-586359Y-417195D03*
X-709803Y-89154D03*
X-496062Y-376047D03*
X-544068Y-161163D03*
X-585216Y-376047D03*
X-422910Y-410337D03*
X-451485Y-410337D03*
X-324612Y-496062D03*
X-301752Y-493776D03*
X-361188Y-157734D03*
X-395478Y-36576D03*
D13*
X-232029Y-242316D03*
X-265176Y-194310D03*
D14*
X675513Y-336042D03*
X533781Y-556641D03*
X668655Y-378333D03*
X326898Y-676656D03*
X-226314Y-219456D03*
X61722Y-219456D03*
X178308Y-101727D03*
X-253746Y-233172D03*
X214884Y-76581D03*
X-270891Y-257175D03*
X357759Y-112014D03*
X-654939Y-398907D03*
X-394335Y-659511D03*
M02*
