G04 EAGLE Gerber RS-274X export*
G75*
%MOMM*%
%FSLAX34Y34*%
%LPD*%
%INSolderpaste Top*%
%IPPOS*%
%AMOC8*
5,1,8,0,0,1.08239X$1,22.5*%
G01*
%ADD10R,0.550000X1.470000*%
%ADD11R,1.470000X0.550000*%
%ADD12R,2.600000X1.500000*%
%ADD13R,1.400000X1.400000*%
%ADD14R,1.803000X1.600000*%
%ADD15R,1.900000X1.100000*%
%ADD16R,1.600000X1.800000*%
%ADD17R,1.600000X1.803000*%
%ADD18R,1.100000X1.900000*%
%ADD19R,1.800000X1.600000*%
%ADD20R,2.540000X1.500000*%
%ADD21R,1.500000X2.540000*%
%ADD22R,3.302000X1.016000*%
%ADD23R,1.016000X3.302000*%


D10*
X585956Y-403500D03*
X593956Y-403500D03*
X601956Y-403500D03*
X609956Y-403500D03*
X617956Y-403500D03*
X625956Y-403500D03*
X633956Y-403500D03*
X641956Y-403500D03*
D11*
X655656Y-389800D03*
X655656Y-381800D03*
X655656Y-373800D03*
X655656Y-365800D03*
X655656Y-357800D03*
X655656Y-349800D03*
X655656Y-341800D03*
X655656Y-333800D03*
D10*
X641956Y-320100D03*
X633956Y-320100D03*
X625956Y-320100D03*
X617956Y-320100D03*
X609956Y-320100D03*
X601956Y-320100D03*
X593956Y-320100D03*
X585956Y-320100D03*
D11*
X572256Y-333800D03*
X572256Y-341800D03*
X572256Y-349800D03*
X572256Y-357800D03*
X572256Y-365800D03*
X572256Y-373800D03*
X572256Y-381800D03*
X572256Y-389800D03*
D12*
X444500Y-569200D03*
X444500Y-599200D03*
D13*
X685800Y44400D03*
X685800Y6400D03*
D14*
X381000Y-569980D03*
X381000Y-598420D03*
X520700Y-569980D03*
X520700Y-598420D03*
D15*
X502200Y-443300D03*
X539200Y-420300D03*
X502200Y-420300D03*
X539200Y-443300D03*
D16*
X519400Y-495300D03*
X547400Y-495300D03*
X595600Y-495300D03*
X623600Y-495300D03*
X636300Y-266700D03*
X608300Y-266700D03*
X684500Y-266700D03*
X712500Y-266700D03*
X684500Y-215900D03*
X712500Y-215900D03*
D11*
X-333500Y-162500D03*
X-333500Y-170500D03*
X-333500Y-178500D03*
X-333500Y-186500D03*
X-333500Y-194500D03*
X-333500Y-202500D03*
X-333500Y-210500D03*
X-333500Y-218500D03*
D10*
X-319800Y-232200D03*
X-311800Y-232200D03*
X-303800Y-232200D03*
X-295800Y-232200D03*
X-287800Y-232200D03*
X-279800Y-232200D03*
X-271800Y-232200D03*
X-263800Y-232200D03*
D11*
X-250100Y-218500D03*
X-250100Y-210500D03*
X-250100Y-202500D03*
X-250100Y-194500D03*
X-250100Y-186500D03*
X-250100Y-178500D03*
X-250100Y-170500D03*
X-250100Y-162500D03*
D10*
X-263800Y-148800D03*
X-271800Y-148800D03*
X-279800Y-148800D03*
X-287800Y-148800D03*
X-295800Y-148800D03*
X-303800Y-148800D03*
X-311800Y-148800D03*
X-319800Y-148800D03*
D12*
X190500Y-175500D03*
X190500Y-205500D03*
D13*
X-285800Y-38100D03*
X-323800Y-38100D03*
D17*
X-290580Y-88900D03*
X-319020Y-88900D03*
X163580Y-279400D03*
X192020Y-279400D03*
D18*
X-191700Y-209000D03*
X-214700Y-172000D03*
X-214700Y-209000D03*
X-191700Y-172000D03*
D16*
X-252700Y-292100D03*
X-280700Y-292100D03*
X-217200Y-254000D03*
X-189200Y-254000D03*
X293400Y-228600D03*
X265400Y-228600D03*
X293400Y-279400D03*
X265400Y-279400D03*
X-242600Y-88900D03*
X-214600Y-88900D03*
D10*
X-585956Y-320100D03*
X-593956Y-320100D03*
X-601956Y-320100D03*
X-609956Y-320100D03*
X-617956Y-320100D03*
X-625956Y-320100D03*
X-633956Y-320100D03*
X-641956Y-320100D03*
D11*
X-655656Y-333800D03*
X-655656Y-341800D03*
X-655656Y-349800D03*
X-655656Y-357800D03*
X-655656Y-365800D03*
X-655656Y-373800D03*
X-655656Y-381800D03*
X-655656Y-389800D03*
D10*
X-641956Y-403500D03*
X-633956Y-403500D03*
X-625956Y-403500D03*
X-617956Y-403500D03*
X-609956Y-403500D03*
X-601956Y-403500D03*
X-593956Y-403500D03*
X-585956Y-403500D03*
D11*
X-572256Y-389800D03*
X-572256Y-381800D03*
X-572256Y-373800D03*
X-572256Y-365800D03*
X-572256Y-357800D03*
X-572256Y-349800D03*
X-572256Y-341800D03*
X-572256Y-333800D03*
D12*
X-444500Y-599200D03*
X-444500Y-569200D03*
D13*
X-647700Y-146000D03*
X-647700Y-108000D03*
D14*
X-381000Y-598420D03*
X-381000Y-569980D03*
X-520700Y-569980D03*
X-520700Y-598420D03*
D18*
X-633800Y-210100D03*
X-610800Y-247100D03*
X-610800Y-210100D03*
X-633800Y-247100D03*
D19*
X-762000Y-242600D03*
X-762000Y-214600D03*
X-698500Y-242600D03*
X-698500Y-214600D03*
D16*
X-570200Y-482600D03*
X-598200Y-482600D03*
D19*
X-711200Y-113000D03*
X-711200Y-141000D03*
X-787400Y-113000D03*
X-787400Y-141000D03*
D20*
G36*
X-65681Y-538735D02*
X-62366Y-513553D01*
X-47495Y-515511D01*
X-50810Y-540693D01*
X-65681Y-538735D01*
G37*
G36*
X-90863Y-535420D02*
X-87548Y-510238D01*
X-72677Y-512196D01*
X-75992Y-537378D01*
X-90863Y-535420D01*
G37*
D21*
X15000Y-530000D03*
X-15000Y-530000D03*
D17*
G36*
X-88849Y-605805D02*
X-86760Y-589943D01*
X-68885Y-592297D01*
X-70974Y-608159D01*
X-88849Y-605805D01*
G37*
G36*
X-85136Y-577608D02*
X-83047Y-561746D01*
X-65172Y-564100D01*
X-67261Y-579962D01*
X-85136Y-577608D01*
G37*
D14*
X0Y-575780D03*
X0Y-604220D03*
D20*
G36*
X75992Y-537378D02*
X72677Y-512196D01*
X87548Y-510238D01*
X90863Y-535420D01*
X75992Y-537378D01*
G37*
G36*
X50810Y-540693D02*
X47495Y-515511D01*
X62366Y-513553D01*
X65681Y-538735D01*
X50810Y-540693D01*
G37*
G36*
X147706Y-522266D02*
X141132Y-497732D01*
X155620Y-493850D01*
X162194Y-518384D01*
X147706Y-522266D01*
G37*
G36*
X118728Y-530031D02*
X112154Y-505497D01*
X126642Y-501615D01*
X133216Y-526149D01*
X118728Y-530031D01*
G37*
D17*
G36*
X70974Y-608159D02*
X68885Y-592297D01*
X86760Y-589943D01*
X88849Y-605805D01*
X70974Y-608159D01*
G37*
G36*
X67261Y-579962D02*
X65172Y-564100D01*
X83047Y-561746D01*
X85136Y-577608D01*
X67261Y-579962D01*
G37*
G36*
X155660Y-546101D02*
X159801Y-561555D01*
X142386Y-566221D01*
X138245Y-550767D01*
X155660Y-546101D01*
G37*
G36*
X163021Y-573572D02*
X167162Y-589026D01*
X149747Y-593692D01*
X145606Y-578238D01*
X163021Y-573572D01*
G37*
D20*
G36*
X212486Y-499399D02*
X202766Y-475933D01*
X216624Y-470193D01*
X226344Y-493659D01*
X212486Y-499399D01*
G37*
G36*
X189020Y-509119D02*
X179300Y-485653D01*
X193158Y-479913D01*
X202878Y-503379D01*
X189020Y-509119D01*
G37*
G36*
X277845Y-466241D02*
X265145Y-444245D01*
X278135Y-436745D01*
X290835Y-458741D01*
X277845Y-466241D01*
G37*
G36*
X251865Y-481241D02*
X239165Y-459245D01*
X252155Y-451745D01*
X264855Y-473741D01*
X251865Y-481241D01*
G37*
D17*
G36*
X225958Y-569067D02*
X219835Y-554286D01*
X236492Y-547387D01*
X242615Y-562168D01*
X225958Y-569067D01*
G37*
G36*
X215074Y-542791D02*
X208951Y-528010D01*
X225608Y-521111D01*
X231731Y-535892D01*
X215074Y-542791D01*
G37*
G36*
X291697Y-487205D02*
X299697Y-501060D01*
X284083Y-510075D01*
X276083Y-496220D01*
X291697Y-487205D01*
G37*
G36*
X305917Y-511835D02*
X313917Y-525690D01*
X298303Y-534705D01*
X290303Y-520850D01*
X305917Y-511835D01*
G37*
D20*
G36*
X334500Y-427387D02*
X319038Y-407237D01*
X330938Y-398105D01*
X346400Y-418255D01*
X334500Y-427387D01*
G37*
G36*
X314349Y-442850D02*
X298887Y-422700D01*
X310787Y-413568D01*
X326249Y-433718D01*
X314349Y-442850D01*
G37*
G36*
X389049Y-378443D02*
X371090Y-360484D01*
X381697Y-349877D01*
X399656Y-367836D01*
X389049Y-378443D01*
G37*
G36*
X367836Y-399656D02*
X349877Y-381697D01*
X360484Y-371090D01*
X378443Y-389049D01*
X367836Y-399656D01*
G37*
D17*
G36*
X365545Y-491194D02*
X355804Y-478502D01*
X370107Y-467526D01*
X379848Y-480218D01*
X365545Y-491194D01*
G37*
G36*
X348232Y-468631D02*
X338491Y-455939D01*
X352794Y-444963D01*
X362535Y-457655D01*
X348232Y-468631D01*
G37*
G36*
X407855Y-395107D02*
X419169Y-406421D01*
X406421Y-419169D01*
X395107Y-407855D01*
X407855Y-395107D01*
G37*
G36*
X427965Y-415217D02*
X439279Y-426531D01*
X426531Y-439279D01*
X415217Y-427965D01*
X427965Y-415217D01*
G37*
D20*
G36*
X433718Y-326249D02*
X413568Y-310787D01*
X422700Y-298887D01*
X442850Y-314349D01*
X433718Y-326249D01*
G37*
G36*
X418255Y-346400D02*
X398105Y-330938D01*
X407237Y-319038D01*
X427387Y-334500D01*
X418255Y-346400D01*
G37*
G36*
X473741Y-264855D02*
X451745Y-252155D01*
X459245Y-239165D01*
X481241Y-251865D01*
X473741Y-264855D01*
G37*
G36*
X458741Y-290835D02*
X436745Y-278135D01*
X444245Y-265145D01*
X466241Y-277845D01*
X458741Y-290835D01*
G37*
D17*
G36*
X480218Y-379848D02*
X467526Y-370107D01*
X478502Y-355804D01*
X491194Y-365545D01*
X480218Y-379848D01*
G37*
G36*
X457655Y-362535D02*
X444963Y-352794D01*
X455939Y-338491D01*
X468631Y-348232D01*
X457655Y-362535D01*
G37*
G36*
X496220Y-276083D02*
X510075Y-284083D01*
X501060Y-299697D01*
X487205Y-291697D01*
X496220Y-276083D01*
G37*
G36*
X520850Y-290303D02*
X534705Y-298303D01*
X525690Y-313917D01*
X511835Y-305917D01*
X520850Y-290303D01*
G37*
D20*
G36*
X503379Y-202878D02*
X479913Y-193158D01*
X485653Y-179300D01*
X509119Y-189020D01*
X503379Y-202878D01*
G37*
G36*
X493659Y-226344D02*
X470193Y-216624D01*
X475933Y-202766D01*
X499399Y-212486D01*
X493659Y-226344D01*
G37*
G36*
X526149Y-133216D02*
X501615Y-126642D01*
X505497Y-112154D01*
X530031Y-118728D01*
X526149Y-133216D01*
G37*
G36*
X518384Y-162194D02*
X493850Y-155620D01*
X497732Y-141132D01*
X522266Y-147706D01*
X518384Y-162194D01*
G37*
D17*
G36*
X562168Y-242615D02*
X547387Y-236492D01*
X554286Y-219835D01*
X569067Y-225958D01*
X562168Y-242615D01*
G37*
G36*
X535892Y-231731D02*
X521111Y-225608D01*
X528010Y-208951D01*
X542791Y-215074D01*
X535892Y-231731D01*
G37*
G36*
X550767Y-138245D02*
X566221Y-142386D01*
X561555Y-159801D01*
X546101Y-155660D01*
X550767Y-138245D01*
G37*
G36*
X578238Y-145606D02*
X593692Y-149747D01*
X589026Y-167162D01*
X573572Y-163021D01*
X578238Y-145606D01*
G37*
D20*
G36*
X538735Y-65681D02*
X513553Y-62366D01*
X515511Y-47495D01*
X540693Y-50810D01*
X538735Y-65681D01*
G37*
G36*
X535420Y-90863D02*
X510238Y-87548D01*
X512196Y-72677D01*
X537378Y-75992D01*
X535420Y-90863D01*
G37*
X530000Y15000D03*
X530000Y-15000D03*
D17*
G36*
X605805Y-88849D02*
X589943Y-86760D01*
X592297Y-68885D01*
X608159Y-70974D01*
X605805Y-88849D01*
G37*
G36*
X577608Y-85136D02*
X561746Y-83047D01*
X564100Y-65172D01*
X579962Y-67261D01*
X577608Y-85136D01*
G37*
X575780Y0D03*
X604220Y0D03*
D20*
G36*
X537378Y75992D02*
X512196Y72677D01*
X510238Y87548D01*
X535420Y90863D01*
X537378Y75992D01*
G37*
G36*
X540693Y50810D02*
X515511Y47495D01*
X513553Y62366D01*
X538735Y65681D01*
X540693Y50810D01*
G37*
G36*
X522266Y147706D02*
X497732Y141132D01*
X493850Y155620D01*
X518384Y162194D01*
X522266Y147706D01*
G37*
G36*
X530031Y118728D02*
X505497Y112154D01*
X501615Y126642D01*
X526149Y133216D01*
X530031Y118728D01*
G37*
D17*
G36*
X608159Y70974D02*
X592297Y68885D01*
X589943Y86760D01*
X605805Y88849D01*
X608159Y70974D01*
G37*
G36*
X579962Y67261D02*
X564100Y65172D01*
X561746Y83047D01*
X577608Y85136D01*
X579962Y67261D01*
G37*
G36*
X546101Y155660D02*
X561555Y159801D01*
X566221Y142386D01*
X550767Y138245D01*
X546101Y155660D01*
G37*
G36*
X573572Y163021D02*
X589026Y167162D01*
X593692Y149747D01*
X578238Y145606D01*
X573572Y163021D01*
G37*
D20*
G36*
X397772Y170391D02*
X374306Y160671D01*
X368566Y174529D01*
X392032Y184249D01*
X397772Y170391D01*
G37*
G36*
X407492Y146925D02*
X384026Y137205D01*
X378286Y151063D01*
X401752Y160783D01*
X407492Y146925D01*
G37*
G36*
X370979Y222845D02*
X348983Y210145D01*
X341483Y223135D01*
X363479Y235835D01*
X370979Y222845D01*
G37*
G36*
X385979Y196865D02*
X363983Y184165D01*
X356483Y197155D01*
X378479Y209855D01*
X385979Y196865D01*
G37*
D17*
G36*
X308619Y137591D02*
X323400Y143714D01*
X330299Y127057D01*
X315518Y120934D01*
X308619Y137591D01*
G37*
G36*
X334894Y148475D02*
X349675Y154598D01*
X356574Y137941D01*
X341793Y131818D01*
X334894Y148475D01*
G37*
G36*
X335519Y183303D02*
X321664Y175303D01*
X312649Y190917D01*
X326504Y198917D01*
X335519Y183303D01*
G37*
G36*
X310889Y169083D02*
X297034Y161083D01*
X288019Y176697D01*
X301874Y184697D01*
X310889Y169083D01*
G37*
D20*
G36*
X340118Y267536D02*
X319968Y252074D01*
X310836Y263974D01*
X330986Y279436D01*
X340118Y267536D01*
G37*
G36*
X355581Y247385D02*
X335431Y231923D01*
X326299Y243823D01*
X346449Y259285D01*
X355581Y247385D01*
G37*
G36*
X300661Y311267D02*
X282702Y293308D01*
X272095Y303915D01*
X290054Y321874D01*
X300661Y311267D01*
G37*
G36*
X321874Y290054D02*
X303915Y272095D01*
X293308Y282702D01*
X311267Y300661D01*
X321874Y290054D01*
G37*
D17*
G36*
X262492Y212779D02*
X275184Y222520D01*
X286160Y208217D01*
X273468Y198476D01*
X262492Y212779D01*
G37*
G36*
X285055Y230092D02*
X297747Y239833D01*
X308723Y225530D01*
X296031Y215789D01*
X285055Y230092D01*
G37*
G36*
X276644Y263896D02*
X265330Y252582D01*
X252582Y265330D01*
X263896Y276644D01*
X276644Y263896D01*
G37*
G36*
X256534Y243786D02*
X245220Y232472D01*
X232472Y245220D01*
X243786Y256534D01*
X256534Y243786D01*
G37*
D20*
G36*
X259285Y346449D02*
X243823Y326299D01*
X231923Y335431D01*
X247385Y355581D01*
X259285Y346449D01*
G37*
G36*
X279436Y330986D02*
X263974Y310836D01*
X252074Y319968D01*
X267536Y340118D01*
X279436Y330986D01*
G37*
G36*
X209855Y378479D02*
X197155Y356483D01*
X184165Y363983D01*
X196865Y385979D01*
X209855Y378479D01*
G37*
G36*
X235835Y363479D02*
X223135Y341483D01*
X210145Y348983D01*
X222845Y370979D01*
X235835Y363479D01*
G37*
D17*
G36*
X198476Y273468D02*
X208217Y286160D01*
X222520Y275184D01*
X212779Y262492D01*
X198476Y273468D01*
G37*
G36*
X215789Y296031D02*
X225530Y308723D01*
X239833Y297747D01*
X230092Y285055D01*
X215789Y296031D01*
G37*
G36*
X198917Y326504D02*
X190917Y312649D01*
X175303Y321664D01*
X183303Y335519D01*
X198917Y326504D01*
G37*
G36*
X184697Y301874D02*
X176697Y288019D01*
X161083Y297034D01*
X169083Y310889D01*
X184697Y301874D01*
G37*
D20*
G36*
X160783Y401752D02*
X151063Y378286D01*
X137205Y384026D01*
X146925Y407492D01*
X160783Y401752D01*
G37*
G36*
X184249Y392032D02*
X174529Y368566D01*
X160671Y374306D01*
X170391Y397772D01*
X184249Y392032D01*
G37*
G36*
X104746Y419897D02*
X98172Y395363D01*
X83684Y399245D01*
X90258Y423779D01*
X104746Y419897D01*
G37*
G36*
X133724Y412133D02*
X127150Y387599D01*
X112662Y391481D01*
X119236Y416015D01*
X133724Y412133D01*
G37*
D17*
G36*
X120934Y315518D02*
X127057Y330299D01*
X143714Y323400D01*
X137591Y308619D01*
X120934Y315518D01*
G37*
G36*
X131818Y341793D02*
X137941Y356574D01*
X154598Y349675D01*
X148475Y334894D01*
X131818Y341793D01*
G37*
G36*
X107633Y366863D02*
X103492Y351409D01*
X86077Y356075D01*
X90218Y371529D01*
X107633Y366863D01*
G37*
G36*
X100272Y339392D02*
X96131Y323938D01*
X78716Y328604D01*
X82857Y344058D01*
X100272Y339392D01*
G37*
D20*
G36*
X51323Y429677D02*
X48008Y404495D01*
X33137Y406453D01*
X36452Y431635D01*
X51323Y429677D01*
G37*
G36*
X76505Y426361D02*
X73190Y401179D01*
X58319Y403137D01*
X61634Y428319D01*
X76505Y426361D01*
G37*
D21*
X-15000Y420000D03*
X15000Y420000D03*
D17*
G36*
X35151Y336068D02*
X37240Y351930D01*
X55115Y349576D01*
X53026Y333714D01*
X35151Y336068D01*
G37*
G36*
X38864Y364265D02*
X40953Y380127D01*
X58828Y377773D01*
X56739Y361911D01*
X38864Y364265D01*
G37*
D14*
X0Y374220D03*
X0Y345780D03*
D20*
G36*
X-61634Y428319D02*
X-58319Y403137D01*
X-73190Y401179D01*
X-76505Y426361D01*
X-61634Y428319D01*
G37*
G36*
X-36452Y431635D02*
X-33137Y406453D01*
X-48008Y404495D01*
X-51323Y429677D01*
X-36452Y431635D01*
G37*
G36*
X-119236Y416015D02*
X-112662Y391481D01*
X-127150Y387599D01*
X-133724Y412133D01*
X-119236Y416015D01*
G37*
G36*
X-90258Y423779D02*
X-83684Y399245D01*
X-98172Y395363D01*
X-104746Y419897D01*
X-90258Y423779D01*
G37*
D17*
G36*
X-53026Y333714D02*
X-55115Y349576D01*
X-37240Y351930D01*
X-35151Y336068D01*
X-53026Y333714D01*
G37*
G36*
X-56739Y361911D02*
X-58828Y377773D01*
X-40953Y380127D01*
X-38864Y364265D01*
X-56739Y361911D01*
G37*
G36*
X-90218Y371529D02*
X-86077Y356075D01*
X-103492Y351409D01*
X-107633Y366863D01*
X-90218Y371529D01*
G37*
G36*
X-82857Y344058D02*
X-78716Y328604D01*
X-96131Y323938D01*
X-100272Y339392D01*
X-82857Y344058D01*
G37*
D20*
G36*
X-170391Y397772D02*
X-160671Y374306D01*
X-174529Y368566D01*
X-184249Y392032D01*
X-170391Y397772D01*
G37*
G36*
X-146925Y407492D02*
X-137205Y384026D01*
X-151063Y378286D01*
X-160783Y401752D01*
X-146925Y407492D01*
G37*
G36*
X-222845Y370979D02*
X-210145Y348983D01*
X-223135Y341483D01*
X-235835Y363479D01*
X-222845Y370979D01*
G37*
G36*
X-196865Y385979D02*
X-184165Y363983D01*
X-197155Y356483D01*
X-209855Y378479D01*
X-196865Y385979D01*
G37*
D17*
G36*
X-137591Y308619D02*
X-143714Y323400D01*
X-127057Y330299D01*
X-120934Y315518D01*
X-137591Y308619D01*
G37*
G36*
X-148475Y334894D02*
X-154598Y349675D01*
X-137941Y356574D01*
X-131818Y341793D01*
X-148475Y334894D01*
G37*
G36*
X-183303Y335519D02*
X-175303Y321664D01*
X-190917Y312649D01*
X-198917Y326504D01*
X-183303Y335519D01*
G37*
G36*
X-169083Y310889D02*
X-161083Y297034D01*
X-176697Y288019D01*
X-184697Y301874D01*
X-169083Y310889D01*
G37*
D20*
G36*
X-267536Y340118D02*
X-252074Y319968D01*
X-263974Y310836D01*
X-279436Y330986D01*
X-267536Y340118D01*
G37*
G36*
X-247385Y355581D02*
X-231923Y335431D01*
X-243823Y326299D01*
X-259285Y346449D01*
X-247385Y355581D01*
G37*
G36*
X-311267Y300661D02*
X-293308Y282702D01*
X-303915Y272095D01*
X-321874Y290054D01*
X-311267Y300661D01*
G37*
G36*
X-290054Y321874D02*
X-272095Y303915D01*
X-282702Y293308D01*
X-300661Y311267D01*
X-290054Y321874D01*
G37*
D17*
G36*
X-212779Y262492D02*
X-222520Y275184D01*
X-208217Y286160D01*
X-198476Y273468D01*
X-212779Y262492D01*
G37*
G36*
X-230092Y285055D02*
X-239833Y297747D01*
X-225530Y308723D01*
X-215789Y296031D01*
X-230092Y285055D01*
G37*
G36*
X-263896Y276644D02*
X-252582Y265330D01*
X-265330Y252582D01*
X-276644Y263896D01*
X-263896Y276644D01*
G37*
G36*
X-243786Y256534D02*
X-232472Y245220D01*
X-245220Y232472D01*
X-256534Y243786D01*
X-243786Y256534D01*
G37*
D20*
G36*
X-433718Y326249D02*
X-413568Y310787D01*
X-422700Y298887D01*
X-442850Y314349D01*
X-433718Y326249D01*
G37*
G36*
X-418255Y346400D02*
X-398105Y330938D01*
X-407237Y319038D01*
X-427387Y334500D01*
X-418255Y346400D01*
G37*
G36*
X-473741Y264855D02*
X-451745Y252155D01*
X-459245Y239165D01*
X-481241Y251865D01*
X-473741Y264855D01*
G37*
G36*
X-458741Y290835D02*
X-436745Y278135D01*
X-444245Y265145D01*
X-466241Y277845D01*
X-458741Y290835D01*
G37*
D17*
G36*
X-480218Y379848D02*
X-467526Y370107D01*
X-478502Y355804D01*
X-491194Y365545D01*
X-480218Y379848D01*
G37*
G36*
X-457655Y362535D02*
X-444963Y352794D01*
X-455939Y338491D01*
X-468631Y348232D01*
X-457655Y362535D01*
G37*
G36*
X-496220Y276083D02*
X-510075Y284083D01*
X-501060Y299697D01*
X-487205Y291697D01*
X-496220Y276083D01*
G37*
G36*
X-520850Y290303D02*
X-534705Y298303D01*
X-525690Y313917D01*
X-511835Y305917D01*
X-520850Y290303D01*
G37*
D20*
G36*
X-503379Y202878D02*
X-479913Y193158D01*
X-485653Y179300D01*
X-509119Y189020D01*
X-503379Y202878D01*
G37*
G36*
X-493659Y226344D02*
X-470193Y216624D01*
X-475933Y202766D01*
X-499399Y212486D01*
X-493659Y226344D01*
G37*
G36*
X-526149Y133216D02*
X-501615Y126642D01*
X-505497Y112154D01*
X-530031Y118728D01*
X-526149Y133216D01*
G37*
G36*
X-518384Y162194D02*
X-493850Y155620D01*
X-497732Y141132D01*
X-522266Y147706D01*
X-518384Y162194D01*
G37*
D17*
G36*
X-562168Y242615D02*
X-547387Y236492D01*
X-554286Y219835D01*
X-569067Y225958D01*
X-562168Y242615D01*
G37*
G36*
X-535892Y231731D02*
X-521111Y225608D01*
X-528010Y208951D01*
X-542791Y215074D01*
X-535892Y231731D01*
G37*
G36*
X-550767Y138245D02*
X-566221Y142386D01*
X-561555Y159801D01*
X-546101Y155660D01*
X-550767Y138245D01*
G37*
G36*
X-578238Y145606D02*
X-593692Y149747D01*
X-589026Y167162D01*
X-573572Y163021D01*
X-578238Y145606D01*
G37*
D20*
G36*
X-538735Y65681D02*
X-513553Y62366D01*
X-515511Y47495D01*
X-540693Y50810D01*
X-538735Y65681D01*
G37*
G36*
X-535420Y90863D02*
X-510238Y87548D01*
X-512196Y72677D01*
X-537378Y75992D01*
X-535420Y90863D01*
G37*
X-530000Y-15000D03*
X-530000Y15000D03*
D17*
G36*
X-605805Y88849D02*
X-589943Y86760D01*
X-592297Y68885D01*
X-608159Y70974D01*
X-605805Y88849D01*
G37*
G36*
X-577608Y85136D02*
X-561746Y83047D01*
X-564100Y65172D01*
X-579962Y67261D01*
X-577608Y85136D01*
G37*
X-575780Y0D03*
X-604220Y0D03*
D20*
G36*
X-537378Y-75992D02*
X-512196Y-72677D01*
X-510238Y-87548D01*
X-535420Y-90863D01*
X-537378Y-75992D01*
G37*
G36*
X-540693Y-50810D02*
X-515511Y-47495D01*
X-513553Y-62366D01*
X-538735Y-65681D01*
X-540693Y-50810D01*
G37*
G36*
X-522266Y-147706D02*
X-497732Y-141132D01*
X-493850Y-155620D01*
X-518384Y-162194D01*
X-522266Y-147706D01*
G37*
G36*
X-530031Y-118728D02*
X-505497Y-112154D01*
X-501615Y-126642D01*
X-526149Y-133216D01*
X-530031Y-118728D01*
G37*
D17*
G36*
X-608159Y-70974D02*
X-592297Y-68885D01*
X-589943Y-86760D01*
X-605805Y-88849D01*
X-608159Y-70974D01*
G37*
G36*
X-579962Y-67261D02*
X-564100Y-65172D01*
X-561746Y-83047D01*
X-577608Y-85136D01*
X-579962Y-67261D01*
G37*
G36*
X-546101Y-155660D02*
X-561555Y-159801D01*
X-566221Y-142386D01*
X-550767Y-138245D01*
X-546101Y-155660D01*
G37*
G36*
X-573572Y-163021D02*
X-589026Y-167162D01*
X-593692Y-149747D01*
X-578238Y-145606D01*
X-573572Y-163021D01*
G37*
D20*
G36*
X-499399Y-212486D02*
X-475933Y-202766D01*
X-470193Y-216624D01*
X-493659Y-226344D01*
X-499399Y-212486D01*
G37*
G36*
X-509119Y-189020D02*
X-485653Y-179300D01*
X-479913Y-193158D01*
X-503379Y-202878D01*
X-509119Y-189020D01*
G37*
G36*
X-466241Y-277845D02*
X-444245Y-265145D01*
X-436745Y-278135D01*
X-458741Y-290835D01*
X-466241Y-277845D01*
G37*
G36*
X-481241Y-251865D02*
X-459245Y-239165D01*
X-451745Y-252155D01*
X-473741Y-264855D01*
X-481241Y-251865D01*
G37*
D17*
G36*
X-569067Y-225958D02*
X-554286Y-219835D01*
X-547387Y-236492D01*
X-562168Y-242615D01*
X-569067Y-225958D01*
G37*
G36*
X-542791Y-215074D02*
X-528010Y-208951D01*
X-521111Y-225608D01*
X-535892Y-231731D01*
X-542791Y-215074D01*
G37*
G36*
X-487205Y-291697D02*
X-501060Y-299697D01*
X-510075Y-284083D01*
X-496220Y-276083D01*
X-487205Y-291697D01*
G37*
G36*
X-511835Y-305917D02*
X-525690Y-313917D01*
X-534705Y-298303D01*
X-520850Y-290303D01*
X-511835Y-305917D01*
G37*
D20*
G36*
X-427387Y-334500D02*
X-407237Y-319038D01*
X-398105Y-330938D01*
X-418255Y-346400D01*
X-427387Y-334500D01*
G37*
G36*
X-442850Y-314349D02*
X-422700Y-298887D01*
X-413568Y-310787D01*
X-433718Y-326249D01*
X-442850Y-314349D01*
G37*
G36*
X-378443Y-389049D02*
X-360484Y-371090D01*
X-349877Y-381697D01*
X-367836Y-399656D01*
X-378443Y-389049D01*
G37*
G36*
X-399656Y-367836D02*
X-381697Y-349877D01*
X-371090Y-360484D01*
X-389049Y-378443D01*
X-399656Y-367836D01*
G37*
D17*
G36*
X-491194Y-365545D02*
X-478502Y-355804D01*
X-467526Y-370107D01*
X-480218Y-379848D01*
X-491194Y-365545D01*
G37*
G36*
X-468631Y-348232D02*
X-455939Y-338491D01*
X-444963Y-352794D01*
X-457655Y-362535D01*
X-468631Y-348232D01*
G37*
G36*
X-395107Y-407855D02*
X-406421Y-419169D01*
X-419169Y-406421D01*
X-407855Y-395107D01*
X-395107Y-407855D01*
G37*
G36*
X-415217Y-427965D02*
X-426531Y-439279D01*
X-439279Y-426531D01*
X-427965Y-415217D01*
X-415217Y-427965D01*
G37*
D20*
G36*
X-326249Y-433718D02*
X-310787Y-413568D01*
X-298887Y-422700D01*
X-314349Y-442850D01*
X-326249Y-433718D01*
G37*
G36*
X-346400Y-418255D02*
X-330938Y-398105D01*
X-319038Y-407237D01*
X-334500Y-427387D01*
X-346400Y-418255D01*
G37*
G36*
X-264855Y-473741D02*
X-252155Y-451745D01*
X-239165Y-459245D01*
X-251865Y-481241D01*
X-264855Y-473741D01*
G37*
G36*
X-290835Y-458741D02*
X-278135Y-436745D01*
X-265145Y-444245D01*
X-277845Y-466241D01*
X-290835Y-458741D01*
G37*
D17*
G36*
X-379848Y-480218D02*
X-370107Y-467526D01*
X-355804Y-478502D01*
X-365545Y-491194D01*
X-379848Y-480218D01*
G37*
G36*
X-362535Y-457655D02*
X-352794Y-444963D01*
X-338491Y-455939D01*
X-348232Y-468631D01*
X-362535Y-457655D01*
G37*
G36*
X-276083Y-496220D02*
X-284083Y-510075D01*
X-299697Y-501060D01*
X-291697Y-487205D01*
X-276083Y-496220D01*
G37*
G36*
X-290303Y-520850D02*
X-298303Y-534705D01*
X-313917Y-525690D01*
X-305917Y-511835D01*
X-290303Y-520850D01*
G37*
D20*
G36*
X-202878Y-503379D02*
X-193158Y-479913D01*
X-179300Y-485653D01*
X-189020Y-509119D01*
X-202878Y-503379D01*
G37*
G36*
X-226344Y-493659D02*
X-216624Y-470193D01*
X-202766Y-475933D01*
X-212486Y-499399D01*
X-226344Y-493659D01*
G37*
G36*
X-133216Y-526149D02*
X-126642Y-501615D01*
X-112154Y-505497D01*
X-118728Y-530031D01*
X-133216Y-526149D01*
G37*
G36*
X-162194Y-518384D02*
X-155620Y-493850D01*
X-141132Y-497732D01*
X-147706Y-522266D01*
X-162194Y-518384D01*
G37*
D17*
G36*
X-242615Y-562168D02*
X-236492Y-547387D01*
X-219835Y-554286D01*
X-225958Y-569067D01*
X-242615Y-562168D01*
G37*
G36*
X-231731Y-535892D02*
X-225608Y-521111D01*
X-208951Y-528010D01*
X-215074Y-542791D01*
X-231731Y-535892D01*
G37*
G36*
X-138245Y-550767D02*
X-142386Y-566221D01*
X-159801Y-561555D01*
X-155660Y-546101D01*
X-138245Y-550767D01*
G37*
G36*
X-145606Y-578238D02*
X-149747Y-593692D01*
X-167162Y-589026D01*
X-163021Y-573572D01*
X-145606Y-578238D01*
G37*
D22*
X-368300Y0D03*
X-393700Y-25400D03*
X-368300Y-50800D03*
X-393700Y-76200D03*
X-685800Y12700D03*
X-711200Y-12700D03*
X-685800Y-38100D03*
X-711200Y-63500D03*
X254000Y-711200D03*
X203200Y-711200D03*
X254000Y-685800D03*
X203200Y-685800D03*
X254000Y-660400D03*
X203200Y-660400D03*
X317500Y-76200D03*
X368300Y-76200D03*
X317500Y-101600D03*
X368300Y-101600D03*
X317500Y-127000D03*
X368300Y-127000D03*
X-254000Y-660400D03*
X-203200Y-660400D03*
X-254000Y-685800D03*
X-203200Y-685800D03*
X-254000Y-711200D03*
X-203200Y-711200D03*
D23*
X685800Y114300D03*
X711200Y88900D03*
X736600Y114300D03*
X762000Y88900D03*
M02*
