G04 EAGLE Gerber RS-274X export*
G75*
%MOMM*%
%FSLAX34Y34*%
%LPD*%
%INTop Copper*%
%IPPOS*%
%AMOC8*
5,1,8,0,0,1.08239X$1,22.5*%
G01*
%ADD10P,1.429621X8X22.500000*%
%ADD11C,1.320800*%
%ADD12P,1.429621X8X202.500000*%
%ADD13C,1.524000*%
%ADD14C,2.250000*%
%ADD15R,5.516000X5.516000*%
%ADD16C,3.116000*%
%ADD17C,1.473200*%
%ADD18R,4.000000X4.000000*%
%ADD19P,1.814519X8X292.500000*%
%ADD20P,1.429621X8X112.500000*%
%ADD21P,1.814519X8X202.500000*%
%ADD22C,1.320800*%
%ADD23C,2.032000*%
%ADD24C,2.095500*%
%ADD25C,0.508000*%
%ADD26C,1.016000*%
%ADD27C,0.304800*%
%ADD28C,0.756400*%
%ADD29C,3.366000*%


D10*
X645160Y-63500D03*
D11*
X624840Y-63500D03*
D10*
X645160Y63500D03*
D11*
X624840Y63500D03*
D12*
X-645160Y63500D03*
D11*
X-624840Y63500D03*
D12*
X-645160Y-63500D03*
D11*
X-624840Y-63500D03*
D13*
X525780Y-25400D02*
X541020Y-25400D01*
X541020Y0D02*
X525780Y0D01*
X525780Y25400D02*
X541020Y25400D01*
X-525780Y25400D02*
X-541020Y25400D01*
X-541020Y0D02*
X-525780Y0D01*
X-525780Y-25400D02*
X-541020Y-25400D01*
D14*
X106100Y255450D02*
X106100Y277950D01*
X351100Y277950D02*
X351100Y255450D01*
D15*
X269800Y139700D03*
X339800Y139700D03*
D16*
X452220Y-374600D02*
X483380Y-374600D01*
X483380Y-421600D02*
X452220Y-421600D01*
D13*
X-254000Y17780D02*
X-254000Y33020D01*
X-279400Y33020D02*
X-279400Y17780D01*
X-304800Y17780D02*
X-304800Y33020D01*
X-330200Y33020D02*
X-330200Y17780D01*
X177800Y144780D02*
X177800Y160020D01*
X152400Y160020D02*
X152400Y144780D01*
X127000Y144780D02*
X127000Y160020D01*
X101600Y160020D02*
X101600Y144780D01*
X-153670Y-349260D02*
X-168910Y-349260D01*
X-168910Y-323860D02*
X-153670Y-323860D01*
X-153670Y-298460D02*
X-168910Y-298460D01*
X-168910Y-273060D02*
X-153670Y-273060D01*
X-153670Y-247660D02*
X-168910Y-247660D01*
X-168910Y-222260D02*
X-153670Y-222260D01*
X-153670Y-196860D02*
X-168910Y-196860D01*
X-168910Y-171460D02*
X-153670Y-171460D01*
X153670Y-349260D02*
X168910Y-349260D01*
X168910Y-323860D02*
X153670Y-323860D01*
X153670Y-298460D02*
X168910Y-298460D01*
X168910Y-273060D02*
X153670Y-273060D01*
X153670Y-247660D02*
X168910Y-247660D01*
X168910Y-222260D02*
X153670Y-222260D01*
X153670Y-196860D02*
X168910Y-196860D01*
X168910Y-171460D02*
X153670Y-171460D01*
D17*
X-571500Y241300D03*
X-546100Y241300D03*
X-520700Y241300D03*
X-495300Y241300D03*
X-469900Y241300D03*
X-444500Y241300D03*
X-419100Y241300D03*
X-393700Y241300D03*
X-368300Y241300D03*
X-342900Y241300D03*
X-317500Y241300D03*
X-292100Y241300D03*
X-266700Y241300D03*
X-241300Y241300D03*
X-190500Y241300D03*
X-165100Y241300D03*
X-139700Y241300D03*
X-114300Y241300D03*
X-114300Y368300D03*
X-241300Y393700D03*
X-266700Y393700D03*
X-292100Y393700D03*
X-317500Y393700D03*
X-342900Y393700D03*
X-368300Y393700D03*
X-393700Y393700D03*
X-419100Y393700D03*
X-444500Y393700D03*
X-469900Y393700D03*
X-495300Y393700D03*
X-520700Y393700D03*
X-546100Y393700D03*
X-571500Y393700D03*
X-546100Y368300D03*
X-495300Y368300D03*
X-469900Y368300D03*
X-444500Y368300D03*
X-406400Y273050D03*
X-215900Y241300D03*
X-457200Y273050D03*
X-508000Y273050D03*
X-431800Y273050D03*
X-482600Y273050D03*
X-114300Y266700D03*
X-114300Y393700D03*
X-139700Y393700D03*
X-165100Y393700D03*
X-190500Y393700D03*
X-215900Y393700D03*
X-114300Y292100D03*
X-114300Y317500D03*
X-114300Y342900D03*
X-88900Y241300D03*
X-63500Y241300D03*
X-38100Y241300D03*
X-12700Y241300D03*
X12700Y241300D03*
X12700Y393700D03*
X-88900Y393700D03*
X-63500Y393700D03*
X-38100Y393700D03*
X-12700Y393700D03*
D18*
X-192600Y457200D03*
X-137600Y457200D03*
D12*
X25400Y457200D03*
X-76200Y457200D03*
D13*
X-292100Y-55880D02*
X-292100Y-71120D01*
X-317500Y-71120D02*
X-317500Y-55880D01*
X-342900Y-55880D02*
X-342900Y-71120D01*
X-266700Y-71120D02*
X-266700Y-55880D01*
X-241300Y-55880D02*
X-241300Y-71120D01*
X461680Y304800D02*
X476920Y304800D01*
X476920Y330200D02*
X461680Y330200D01*
X461680Y355600D02*
X476920Y355600D01*
X476920Y381000D02*
X461680Y381000D01*
D19*
X-419100Y-271780D03*
X-419100Y-363220D03*
X-457200Y-271780D03*
X-457200Y-363220D03*
X-419100Y-398780D03*
X-419100Y-490220D03*
X-457200Y-398780D03*
X-457200Y-490220D03*
D13*
X-370332Y-294894D02*
X-355092Y-294894D01*
X-355092Y-340106D02*
X-370332Y-340106D01*
X-305308Y-294894D02*
X-290068Y-294894D01*
X-290068Y-340106D02*
X-305308Y-340106D01*
X-355092Y-371094D02*
X-370332Y-371094D01*
X-370332Y-416306D02*
X-355092Y-416306D01*
X-305308Y-371094D02*
X-290068Y-371094D01*
X-290068Y-416306D02*
X-305308Y-416306D01*
X-355092Y-447294D02*
X-370332Y-447294D01*
X-370332Y-492506D02*
X-355092Y-492506D01*
X-305308Y-447294D02*
X-290068Y-447294D01*
X-290068Y-492506D02*
X-305308Y-492506D01*
X-355092Y-523494D02*
X-370332Y-523494D01*
X-370332Y-568706D02*
X-355092Y-568706D01*
X-305308Y-523494D02*
X-290068Y-523494D01*
X-290068Y-568706D02*
X-305308Y-568706D01*
D18*
X624400Y-228600D03*
X569400Y-228600D03*
D20*
X469900Y-304800D03*
X469900Y-203200D03*
D18*
X-624400Y-228600D03*
X-569400Y-228600D03*
D10*
X-508000Y-228600D03*
X-406400Y-228600D03*
D13*
X-304800Y-185420D02*
X-304800Y-170180D01*
X-279400Y-170180D02*
X-279400Y-185420D01*
X-101600Y144780D02*
X-101600Y160020D01*
X-127000Y160020D02*
X-127000Y144780D01*
X-152400Y144780D02*
X-152400Y160020D01*
X-177800Y160020D02*
X-177800Y144780D01*
D21*
X-246380Y177800D03*
X-337820Y177800D03*
X-246380Y127000D03*
X-337820Y127000D03*
D13*
X-12700Y144780D02*
X-12700Y160020D01*
X12700Y160020D02*
X12700Y144780D01*
D21*
X-259080Y457200D03*
X-350520Y457200D03*
D13*
X-469392Y492506D02*
X-484632Y492506D01*
X-484632Y447294D02*
X-469392Y447294D01*
X-419608Y492506D02*
X-404368Y492506D01*
X-404368Y447294D02*
X-419608Y447294D01*
D22*
X348996Y368300D02*
X362204Y368300D01*
X286004Y368300D02*
X272796Y368300D01*
X348996Y431800D02*
X362204Y431800D01*
X286004Y431800D02*
X272796Y431800D01*
D23*
X-375000Y120000D02*
X-375000Y-70000D01*
X-295000Y-150000D01*
X-280000Y-150000D01*
X-280000Y-175000D01*
X-279400Y-177800D01*
D24*
X-375000Y120000D03*
D23*
X355000Y265000D02*
X415000Y205000D01*
X415000Y-380000D01*
X455000Y-420000D01*
X465000Y-420000D01*
X355000Y265000D02*
X351100Y266700D01*
X465000Y-420000D02*
X467800Y-421600D01*
D25*
X470000Y-200000D02*
X595000Y-200000D01*
X595000Y-30000D01*
X565000Y0D02*
X535000Y30000D01*
X565000Y0D02*
X595000Y-30000D01*
X470000Y-200000D02*
X469900Y-203200D01*
X533400Y25400D02*
X535000Y30000D01*
X565000Y5000D02*
X620000Y60000D01*
X565000Y5000D02*
X565000Y0D01*
X620000Y60000D02*
X624840Y63500D01*
X-275000Y-500000D02*
X-295000Y-520000D01*
X-275000Y-500000D02*
X-275000Y-470000D01*
X-295000Y-450000D01*
X-295000Y-520000D02*
X-297688Y-523494D01*
X-295000Y-450000D02*
X-297688Y-447294D01*
X-295000Y-370000D02*
X-275000Y-350000D01*
X-275000Y-315000D01*
X-295000Y-295000D01*
X-295000Y-370000D02*
X-297688Y-371094D01*
X-295000Y-295000D02*
X-297688Y-294894D01*
X100000Y155000D02*
X70000Y185000D01*
X100000Y155000D02*
X101600Y152400D01*
X-245000Y130000D02*
X-245000Y175000D01*
X-245000Y130000D02*
X-246380Y127000D01*
X-245000Y175000D02*
X-246380Y177800D01*
X-225000Y-155000D02*
X-295000Y-225000D01*
X-225000Y-155000D02*
X-225000Y105000D01*
X-245000Y125000D01*
X-246380Y127000D01*
X105000Y10000D02*
X175000Y-60000D01*
X105000Y10000D02*
X105000Y150000D01*
X101600Y152400D01*
D26*
X70000Y185000D03*
X-295000Y-225000D03*
X175000Y-60000D03*
D25*
X435000Y300000D02*
X465000Y330000D01*
X435000Y300000D02*
X435000Y-270000D01*
X465000Y330000D02*
X469300Y330200D01*
D26*
X435000Y-270000D03*
D27*
X-305000Y30000D02*
X-335000Y60000D01*
X-335000Y125000D01*
X-305000Y30000D02*
X-304800Y25400D01*
X-335000Y125000D02*
X-337820Y127000D01*
X-370000Y390000D02*
X-380000Y390000D01*
X-390000Y380000D01*
X-405000Y380000D01*
X-405000Y400000D01*
X-395000Y410000D01*
X-255000Y410000D01*
X-255000Y375000D01*
X-125000Y245000D01*
X-125000Y240000D01*
X-150000Y215000D01*
X-150000Y155000D01*
X-370000Y390000D02*
X-368300Y393700D01*
X-150000Y155000D02*
X-152400Y152400D01*
X-390000Y395000D02*
X-380000Y405000D01*
X-355000Y405000D01*
X-355000Y195000D01*
X-340000Y180000D01*
X-393700Y393700D02*
X-390000Y395000D01*
X-340000Y180000D02*
X-337820Y177800D01*
X-325000Y75000D02*
X-280000Y30000D01*
X-325000Y75000D02*
X-325000Y165000D01*
X-335000Y175000D01*
X-280000Y30000D02*
X-279400Y25400D01*
X-335000Y175000D02*
X-337820Y177800D01*
X-30000Y225000D02*
X-15000Y240000D01*
X-30000Y225000D02*
X-30000Y-140000D01*
X-160000Y-270000D01*
X-15000Y240000D02*
X-12700Y241300D01*
X-160000Y-270000D02*
X-161290Y-273060D01*
X25000Y230000D02*
X15000Y240000D01*
X25000Y230000D02*
X25000Y-110000D01*
X-160000Y-295000D01*
X15000Y240000D02*
X12700Y241300D01*
X-160000Y-295000D02*
X-161290Y-298460D01*
X-135000Y460000D02*
X-80000Y460000D01*
X-76200Y457200D01*
X-135000Y460000D02*
X-137600Y457200D01*
X-560000Y380000D02*
X-570000Y390000D01*
X-560000Y380000D02*
X-560000Y365000D01*
X-510000Y315000D01*
X-380000Y315000D01*
X-380000Y200000D01*
X-390000Y190000D01*
X-390000Y160000D01*
X-355000Y125000D01*
X-355000Y-50000D01*
X-345000Y-60000D01*
X-570000Y390000D02*
X-571500Y393700D01*
X-345000Y-60000D02*
X-342900Y-63500D01*
X-350000Y160000D02*
X-380000Y190000D01*
X-350000Y160000D02*
X-350000Y-5000D01*
X-295000Y-60000D01*
X-292100Y-63500D01*
D28*
X-380000Y190000D03*
D27*
X-290000Y240000D02*
X-260000Y210000D01*
X-260000Y70000D01*
X-235000Y45000D01*
X-235000Y-30000D01*
X-265000Y-60000D01*
X-290000Y240000D02*
X-292100Y241300D01*
X-265000Y-60000D02*
X-266700Y-63500D01*
X-270000Y245000D02*
X-280000Y245000D01*
X-290000Y255000D01*
X-305000Y255000D01*
X-305000Y140000D01*
X-265000Y100000D01*
X-265000Y65000D01*
X-240000Y40000D01*
X-240000Y-10000D01*
X-280000Y-50000D01*
X-280000Y-75000D01*
X-270000Y-85000D01*
X-245000Y-85000D01*
X-245000Y-65000D01*
X-266700Y241300D02*
X-270000Y245000D01*
X-241300Y-63500D02*
X-245000Y-65000D01*
X-215000Y220000D02*
X-195000Y240000D01*
X-215000Y220000D02*
X-215000Y-200000D01*
X-295000Y-280000D01*
X-340000Y-280000D01*
X-340000Y-320000D01*
X-360000Y-340000D01*
X-195000Y240000D02*
X-190500Y241300D01*
X-360000Y-340000D02*
X-362712Y-340106D01*
X-210000Y200000D02*
X-170000Y240000D01*
X-210000Y200000D02*
X-210000Y-310000D01*
X-305000Y-405000D01*
X-360000Y-405000D01*
X-360000Y-415000D01*
X-170000Y240000D02*
X-165100Y241300D01*
X-360000Y-415000D02*
X-362712Y-416306D01*
X-200000Y180000D02*
X-140000Y240000D01*
X-200000Y180000D02*
X-200000Y-345000D01*
X-290000Y-435000D01*
X-340000Y-435000D01*
X-340000Y-470000D01*
X-360000Y-490000D01*
X-140000Y240000D02*
X-139700Y241300D01*
X-360000Y-490000D02*
X-362712Y-492506D01*
X-365000Y-490000D02*
X-415000Y-490000D01*
X-419100Y-490220D01*
X-365000Y-490000D02*
X-362712Y-492506D01*
X-140000Y215000D02*
X-115000Y240000D01*
X-140000Y215000D02*
X-140000Y-125000D01*
X-185000Y-170000D01*
X-185000Y-380000D01*
X-265000Y-460000D01*
X-265000Y-515000D01*
X-305000Y-555000D01*
X-360000Y-555000D01*
X-360000Y-565000D01*
X-115000Y240000D02*
X-114300Y241300D01*
X-360000Y-565000D02*
X-362712Y-568706D01*
D25*
X-510000Y-225000D02*
X-565000Y-225000D01*
X-510000Y-225000D02*
X-508000Y-228600D01*
X-565000Y-225000D02*
X-569400Y-228600D01*
X470000Y-300000D02*
X540000Y-230000D01*
X565000Y-230000D01*
X470000Y-300000D02*
X469900Y-304800D01*
X565000Y-230000D02*
X569400Y-228600D01*
D27*
X-40000Y195000D02*
X-85000Y240000D01*
X-40000Y195000D02*
X-40000Y165000D01*
X-85000Y240000D02*
X-88900Y241300D01*
D28*
X-40000Y165000D03*
D27*
X-50000Y245000D02*
X-60000Y245000D01*
X-50000Y245000D02*
X-40000Y255000D01*
X0Y255000D01*
X0Y165000D01*
X10000Y155000D01*
X-63500Y241300D02*
X-60000Y245000D01*
X10000Y155000D02*
X12700Y152400D01*
D29*
X498000Y-136500D03*
X498000Y136500D03*
X-498000Y136500D03*
X-498000Y-136500D03*
D23*
X355000Y370000D02*
X355000Y430000D01*
X355000Y370000D02*
X355600Y368300D01*
X355000Y430000D02*
X355600Y431800D01*
X350000Y360000D02*
X325000Y335000D01*
X325000Y150000D01*
X335000Y140000D01*
X350000Y360000D02*
X355600Y368300D01*
X339800Y139700D02*
X335000Y140000D01*
X-650000Y60000D02*
X-650000Y0D01*
X-650000Y-60000D01*
X-645160Y-63500D01*
X-650000Y60000D02*
X-645160Y63500D01*
X-650000Y0D02*
X-533400Y0D01*
X-645000Y-205000D02*
X-625000Y-225000D01*
X-645000Y-185000D02*
X-645000Y-70000D01*
X-645000Y-185000D02*
X-645000Y-205000D01*
X-625000Y-225000D02*
X-624400Y-228600D01*
X-645000Y-70000D02*
X-645160Y-63500D01*
X180000Y335000D02*
X275000Y430000D01*
X180000Y335000D02*
X180000Y155000D01*
X275000Y430000D02*
X279400Y431800D01*
X180000Y155000D02*
X177800Y152400D01*
X165000Y-350000D02*
X195000Y-350000D01*
X195000Y130000D01*
X180000Y145000D01*
X161290Y-349260D02*
X165000Y-350000D01*
X180000Y145000D02*
X177800Y152400D01*
X-50000Y100000D02*
X-100000Y150000D01*
X-101600Y152400D01*
X470000Y305000D02*
X500000Y305000D01*
X500000Y390000D01*
X470000Y420000D01*
X385000Y420000D01*
X385000Y440000D01*
X365000Y460000D01*
X285000Y460000D01*
X285000Y440000D01*
X469300Y304800D02*
X470000Y305000D01*
X279400Y431800D02*
X285000Y440000D01*
X-455000Y-185000D02*
X-645000Y-185000D01*
D24*
X-50000Y100000D03*
X-455000Y-185000D03*
D23*
X-455000Y-400000D02*
X-420000Y-400000D01*
X-455000Y-400000D02*
X-457200Y-398780D01*
X-420000Y-400000D02*
X-419100Y-398780D01*
X-420000Y-270000D02*
X-430000Y-270000D01*
X-455000Y-270000D01*
X-457200Y-271780D01*
X-420000Y-270000D02*
X-419100Y-271780D01*
X-480000Y-380000D02*
X-465000Y-395000D01*
X-480000Y-380000D02*
X-480000Y-300000D01*
X-460000Y-280000D01*
X-465000Y-395000D02*
X-457200Y-398780D01*
X-460000Y-280000D02*
X-457200Y-271780D01*
X-570000Y245000D02*
X-570000Y250000D01*
X-525000Y295000D01*
X-435000Y295000D01*
X-435000Y275000D01*
X-570000Y245000D02*
X-571500Y241300D01*
X-435000Y275000D02*
X-431800Y273050D01*
X-425000Y275000D02*
X-410000Y275000D01*
X-406400Y273050D01*
X-425000Y275000D02*
X-431800Y273050D01*
X-430000Y-175000D02*
X-430000Y-270000D01*
X-430000Y-175000D02*
X-425000Y-170000D01*
X-425000Y170000D01*
X-475000Y220000D01*
X-570000Y220000D01*
X-570000Y235000D01*
X-571500Y241300D01*
X650000Y60000D02*
X650000Y-60000D01*
X645160Y-63500D01*
X650000Y60000D02*
X645160Y63500D01*
X645000Y-205000D02*
X625000Y-225000D01*
X645000Y-205000D02*
X645000Y-70000D01*
X625000Y-225000D02*
X624400Y-228600D01*
X645000Y-70000D02*
X645160Y-63500D01*
X-215000Y425000D02*
X-215000Y435000D01*
X-215000Y425000D02*
X-215000Y395000D01*
X-215000Y435000D02*
X-195000Y455000D01*
X-215000Y395000D02*
X-215900Y393700D01*
X-195000Y455000D02*
X-192600Y457200D01*
X-225000Y425000D02*
X-255000Y455000D01*
X-259080Y457200D01*
X-225000Y425000D02*
X-215000Y425000D01*
X-215000Y385000D02*
X-150000Y320000D01*
X-115000Y320000D01*
X-215000Y385000D02*
X-215000Y395000D01*
X-115000Y320000D02*
X-114300Y317500D01*
M02*
