G04 EAGLE Gerber RS-274X export*
G75*
%MOMM*%
%FSLAX34Y34*%
%LPD*%
%INSilkscreen Bottom*%
%IPPOS*%
%AMOC8*
5,1,8,0,0,1.08239X$1,22.5*%
G01*
%ADD10C,0.127000*%
%ADD11C,0.254000*%
%ADD12C,0.177800*%
%ADD13R,0.508000X0.508000*%
%ADD14C,0.101600*%
%ADD15C,0.076200*%


D10*
X177800Y177800D02*
X177800Y181610D01*
D11*
X190500Y181610D02*
X190500Y152400D01*
X190500Y181610D02*
X177800Y181610D01*
D10*
X175260Y181610D01*
D11*
X177800Y181610D02*
X165100Y181610D01*
X88900Y181610D02*
X88900Y152400D01*
X88900Y181610D02*
X165100Y181610D01*
X190500Y152400D02*
X190500Y123190D01*
D10*
X166370Y123190D01*
D11*
X88900Y123190D02*
X88900Y152400D01*
X88900Y123190D02*
X166370Y123190D01*
X184150Y123190D02*
X187960Y123190D01*
X184150Y123190D02*
X184150Y129540D01*
X171450Y129540D01*
X171450Y123190D01*
X158750Y123190D02*
X158750Y129540D01*
X146050Y129540D01*
X146050Y123190D01*
X184150Y123190D01*
X171450Y123190D02*
X158750Y123190D01*
X146050Y123190D02*
X133350Y123190D01*
X133350Y129540D01*
X120650Y129540D01*
X120650Y123190D01*
X107950Y123190D01*
X107950Y129540D01*
X95250Y129540D01*
X95250Y123190D01*
X88900Y123190D01*
X177800Y171450D02*
X177800Y181610D01*
X177800Y171450D02*
X175260Y171450D01*
X104140Y171450D01*
X101600Y171450D01*
X101600Y181610D01*
X175260Y166370D02*
X177800Y171450D01*
X175260Y171450D02*
X175260Y181610D01*
X175260Y166370D02*
X104140Y166370D01*
X101600Y171450D01*
X104140Y171450D02*
X104140Y181610D01*
D12*
X81930Y154403D02*
X78896Y156830D01*
X78896Y145908D01*
X81930Y145908D02*
X75862Y145908D01*
X198883Y157338D02*
X201310Y148843D01*
X195242Y148843D01*
X197063Y151270D02*
X197063Y146416D01*
D13*
X177800Y152400D03*
X152400Y152400D03*
X127000Y152400D03*
X101600Y152400D03*
D14*
X186675Y187691D02*
X186675Y194803D01*
X186675Y187691D02*
X186677Y187602D01*
X186683Y187514D01*
X186692Y187426D01*
X186706Y187338D01*
X186723Y187251D01*
X186744Y187165D01*
X186769Y187080D01*
X186798Y186996D01*
X186830Y186913D01*
X186865Y186832D01*
X186905Y186753D01*
X186947Y186675D01*
X186993Y186599D01*
X187042Y186525D01*
X187095Y186454D01*
X187150Y186385D01*
X187209Y186318D01*
X187270Y186254D01*
X187334Y186193D01*
X187401Y186134D01*
X187470Y186079D01*
X187541Y186026D01*
X187615Y185977D01*
X187691Y185931D01*
X187769Y185889D01*
X187848Y185849D01*
X187929Y185814D01*
X188012Y185782D01*
X188096Y185753D01*
X188181Y185728D01*
X188267Y185707D01*
X188354Y185690D01*
X188442Y185676D01*
X188530Y185667D01*
X188618Y185661D01*
X188707Y185659D01*
X189723Y185659D01*
X179554Y194803D02*
X179460Y194801D01*
X179365Y194795D01*
X179271Y194785D01*
X179178Y194772D01*
X179085Y194754D01*
X178993Y194733D01*
X178902Y194708D01*
X178812Y194679D01*
X178723Y194647D01*
X178636Y194610D01*
X178550Y194571D01*
X178466Y194527D01*
X178384Y194481D01*
X178304Y194431D01*
X178226Y194377D01*
X178150Y194321D01*
X178077Y194261D01*
X178006Y194199D01*
X177938Y194133D01*
X177872Y194065D01*
X177810Y193994D01*
X177750Y193921D01*
X177694Y193845D01*
X177640Y193767D01*
X177590Y193687D01*
X177544Y193605D01*
X177500Y193521D01*
X177461Y193435D01*
X177424Y193348D01*
X177392Y193259D01*
X177363Y193169D01*
X177338Y193078D01*
X177317Y192986D01*
X177299Y192893D01*
X177286Y192800D01*
X177276Y192706D01*
X177270Y192611D01*
X177268Y192517D01*
X179554Y194803D02*
X179660Y194801D01*
X179765Y194795D01*
X179870Y194786D01*
X179975Y194773D01*
X180079Y194756D01*
X180182Y194735D01*
X180285Y194711D01*
X180387Y194682D01*
X180487Y194651D01*
X180587Y194615D01*
X180685Y194577D01*
X180781Y194534D01*
X180877Y194488D01*
X180970Y194439D01*
X181061Y194387D01*
X181151Y194331D01*
X181239Y194272D01*
X181324Y194210D01*
X181407Y194145D01*
X181488Y194077D01*
X181566Y194006D01*
X181641Y193932D01*
X181714Y193856D01*
X181784Y193777D01*
X181851Y193696D01*
X181916Y193612D01*
X181977Y193526D01*
X182035Y193438D01*
X182090Y193348D01*
X182141Y193256D01*
X182190Y193162D01*
X182235Y193066D01*
X182276Y192969D01*
X182314Y192871D01*
X182348Y192771D01*
X178030Y190739D02*
X177963Y190806D01*
X177898Y190875D01*
X177836Y190947D01*
X177777Y191020D01*
X177721Y191097D01*
X177667Y191175D01*
X177617Y191255D01*
X177570Y191337D01*
X177526Y191421D01*
X177486Y191507D01*
X177448Y191594D01*
X177414Y191682D01*
X177384Y191772D01*
X177357Y191862D01*
X177333Y191954D01*
X177313Y192047D01*
X177297Y192140D01*
X177284Y192234D01*
X177275Y192328D01*
X177270Y192422D01*
X177268Y192517D01*
X178030Y190739D02*
X182348Y185659D01*
X177268Y185659D01*
D15*
X189032Y114158D02*
X189032Y106792D01*
X189850Y106792D02*
X188213Y106792D01*
X188213Y114158D02*
X189850Y114158D01*
X182975Y114159D02*
X182890Y114157D01*
X182805Y114151D01*
X182721Y114141D01*
X182637Y114128D01*
X182553Y114110D01*
X182471Y114089D01*
X182390Y114064D01*
X182310Y114035D01*
X182231Y114002D01*
X182154Y113966D01*
X182079Y113926D01*
X182005Y113883D01*
X181934Y113837D01*
X181865Y113787D01*
X181798Y113734D01*
X181734Y113678D01*
X181673Y113619D01*
X181614Y113558D01*
X181558Y113494D01*
X181505Y113427D01*
X181455Y113358D01*
X181409Y113287D01*
X181366Y113213D01*
X181326Y113138D01*
X181290Y113061D01*
X181257Y112982D01*
X181228Y112902D01*
X181203Y112821D01*
X181182Y112739D01*
X181164Y112655D01*
X181151Y112571D01*
X181141Y112487D01*
X181135Y112402D01*
X181133Y112317D01*
X182975Y114158D02*
X183071Y114156D01*
X183167Y114150D01*
X183262Y114140D01*
X183357Y114127D01*
X183452Y114109D01*
X183545Y114088D01*
X183638Y114063D01*
X183729Y114034D01*
X183820Y114002D01*
X183909Y113966D01*
X183996Y113926D01*
X184082Y113883D01*
X184166Y113837D01*
X184248Y113787D01*
X184328Y113733D01*
X184405Y113677D01*
X184480Y113617D01*
X184553Y113555D01*
X184623Y113489D01*
X184691Y113421D01*
X184756Y113350D01*
X184817Y113277D01*
X184876Y113201D01*
X184932Y113122D01*
X184984Y113042D01*
X185033Y112959D01*
X185079Y112875D01*
X185121Y112789D01*
X185159Y112701D01*
X185194Y112612D01*
X185226Y112521D01*
X181747Y110885D02*
X181687Y110944D01*
X181630Y111006D01*
X181575Y111070D01*
X181524Y111137D01*
X181475Y111206D01*
X181429Y111276D01*
X181386Y111349D01*
X181346Y111423D01*
X181310Y111499D01*
X181277Y111577D01*
X181247Y111656D01*
X181220Y111736D01*
X181197Y111817D01*
X181178Y111899D01*
X181162Y111981D01*
X181149Y112065D01*
X181140Y112149D01*
X181135Y112233D01*
X181133Y112317D01*
X181747Y110884D02*
X185226Y106792D01*
X181133Y106792D01*
X176297Y106792D02*
X174660Y106792D01*
X176297Y106792D02*
X176375Y106794D01*
X176453Y106799D01*
X176530Y106809D01*
X176607Y106822D01*
X176683Y106838D01*
X176758Y106858D01*
X176832Y106882D01*
X176905Y106909D01*
X176977Y106940D01*
X177047Y106974D01*
X177116Y107011D01*
X177182Y107052D01*
X177247Y107096D01*
X177309Y107142D01*
X177369Y107192D01*
X177427Y107244D01*
X177482Y107299D01*
X177534Y107357D01*
X177584Y107417D01*
X177630Y107479D01*
X177674Y107544D01*
X177715Y107611D01*
X177752Y107679D01*
X177786Y107749D01*
X177817Y107821D01*
X177844Y107894D01*
X177868Y107968D01*
X177888Y108043D01*
X177904Y108119D01*
X177917Y108196D01*
X177927Y108273D01*
X177932Y108351D01*
X177934Y108429D01*
X177933Y108429D02*
X177933Y112521D01*
X177934Y112521D02*
X177932Y112599D01*
X177927Y112677D01*
X177917Y112754D01*
X177904Y112831D01*
X177888Y112907D01*
X177868Y112982D01*
X177844Y113056D01*
X177817Y113129D01*
X177786Y113201D01*
X177752Y113271D01*
X177715Y113340D01*
X177674Y113406D01*
X177630Y113471D01*
X177584Y113533D01*
X177534Y113593D01*
X177482Y113651D01*
X177427Y113706D01*
X177369Y113758D01*
X177309Y113808D01*
X177247Y113854D01*
X177182Y113898D01*
X177116Y113939D01*
X177047Y113976D01*
X176977Y114010D01*
X176905Y114041D01*
X176832Y114068D01*
X176758Y114092D01*
X176683Y114112D01*
X176607Y114128D01*
X176530Y114141D01*
X176453Y114151D01*
X176375Y114156D01*
X176297Y114158D01*
X174660Y114158D01*
X172137Y105974D02*
X168863Y105974D01*
X165718Y106792D02*
X165718Y114158D01*
X163672Y114158D01*
X163583Y114156D01*
X163494Y114150D01*
X163405Y114140D01*
X163317Y114127D01*
X163229Y114110D01*
X163142Y114088D01*
X163057Y114063D01*
X162972Y114035D01*
X162889Y114002D01*
X162807Y113966D01*
X162727Y113927D01*
X162649Y113884D01*
X162573Y113838D01*
X162498Y113788D01*
X162426Y113735D01*
X162357Y113679D01*
X162290Y113620D01*
X162225Y113559D01*
X162164Y113494D01*
X162105Y113427D01*
X162049Y113358D01*
X161996Y113286D01*
X161946Y113211D01*
X161900Y113135D01*
X161857Y113057D01*
X161818Y112977D01*
X161782Y112895D01*
X161749Y112812D01*
X161721Y112727D01*
X161696Y112642D01*
X161674Y112555D01*
X161657Y112467D01*
X161644Y112379D01*
X161634Y112290D01*
X161628Y112201D01*
X161626Y112112D01*
X161626Y108838D01*
X161628Y108749D01*
X161634Y108660D01*
X161644Y108571D01*
X161657Y108483D01*
X161674Y108395D01*
X161696Y108308D01*
X161721Y108223D01*
X161749Y108138D01*
X161782Y108055D01*
X161818Y107973D01*
X161857Y107893D01*
X161900Y107815D01*
X161946Y107739D01*
X161996Y107664D01*
X162049Y107592D01*
X162105Y107523D01*
X162164Y107456D01*
X162225Y107391D01*
X162290Y107330D01*
X162357Y107271D01*
X162426Y107215D01*
X162498Y107162D01*
X162573Y107112D01*
X162649Y107066D01*
X162727Y107023D01*
X162807Y106984D01*
X162889Y106948D01*
X162972Y106915D01*
X163057Y106887D01*
X163142Y106862D01*
X163229Y106840D01*
X163317Y106823D01*
X163405Y106810D01*
X163494Y106800D01*
X163583Y106794D01*
X163672Y106792D01*
X165718Y106792D01*
X158569Y106792D02*
X156113Y114158D01*
X153658Y106792D01*
X154272Y108634D02*
X157955Y108634D01*
X149286Y106792D02*
X149286Y114158D01*
X151332Y114158D02*
X147240Y114158D01*
X142458Y114158D02*
X144914Y106792D01*
X140003Y106792D02*
X142458Y114158D01*
X140617Y108634D02*
X144300Y108634D01*
X137512Y105974D02*
X134238Y105974D01*
X130976Y110884D02*
X128929Y110884D01*
X128840Y110882D01*
X128751Y110876D01*
X128662Y110866D01*
X128574Y110853D01*
X128486Y110836D01*
X128399Y110814D01*
X128314Y110789D01*
X128229Y110761D01*
X128146Y110728D01*
X128064Y110692D01*
X127984Y110653D01*
X127906Y110610D01*
X127830Y110564D01*
X127755Y110514D01*
X127683Y110461D01*
X127614Y110405D01*
X127547Y110346D01*
X127482Y110285D01*
X127421Y110220D01*
X127362Y110153D01*
X127306Y110084D01*
X127253Y110012D01*
X127203Y109937D01*
X127157Y109861D01*
X127114Y109783D01*
X127075Y109703D01*
X127039Y109621D01*
X127006Y109538D01*
X126978Y109453D01*
X126953Y109368D01*
X126931Y109281D01*
X126914Y109193D01*
X126901Y109105D01*
X126891Y109016D01*
X126885Y108927D01*
X126883Y108838D01*
X126885Y108749D01*
X126891Y108660D01*
X126901Y108571D01*
X126914Y108483D01*
X126931Y108395D01*
X126953Y108308D01*
X126978Y108223D01*
X127006Y108138D01*
X127039Y108055D01*
X127075Y107973D01*
X127114Y107893D01*
X127157Y107815D01*
X127203Y107739D01*
X127253Y107664D01*
X127306Y107592D01*
X127362Y107523D01*
X127421Y107456D01*
X127482Y107391D01*
X127547Y107330D01*
X127614Y107271D01*
X127683Y107215D01*
X127755Y107162D01*
X127830Y107112D01*
X127906Y107066D01*
X127984Y107023D01*
X128064Y106984D01*
X128146Y106948D01*
X128229Y106915D01*
X128314Y106887D01*
X128399Y106862D01*
X128486Y106840D01*
X128574Y106823D01*
X128662Y106810D01*
X128751Y106800D01*
X128840Y106794D01*
X128929Y106792D01*
X130976Y106792D01*
X130976Y114158D01*
X128929Y114158D01*
X128850Y114156D01*
X128771Y114150D01*
X128692Y114141D01*
X128614Y114128D01*
X128537Y114110D01*
X128461Y114090D01*
X128386Y114065D01*
X128312Y114037D01*
X128239Y114006D01*
X128168Y113970D01*
X128099Y113932D01*
X128032Y113890D01*
X127967Y113845D01*
X127904Y113797D01*
X127843Y113746D01*
X127786Y113692D01*
X127730Y113636D01*
X127678Y113577D01*
X127628Y113515D01*
X127582Y113451D01*
X127538Y113385D01*
X127498Y113317D01*
X127462Y113247D01*
X127428Y113175D01*
X127398Y113101D01*
X127372Y113027D01*
X127349Y112951D01*
X127331Y112874D01*
X127315Y112797D01*
X127304Y112718D01*
X127296Y112640D01*
X127292Y112561D01*
X127292Y112481D01*
X127296Y112402D01*
X127304Y112324D01*
X127315Y112245D01*
X127331Y112168D01*
X127349Y112091D01*
X127372Y112015D01*
X127398Y111941D01*
X127428Y111867D01*
X127462Y111795D01*
X127498Y111725D01*
X127538Y111657D01*
X127582Y111591D01*
X127628Y111527D01*
X127678Y111465D01*
X127730Y111406D01*
X127786Y111350D01*
X127843Y111296D01*
X127904Y111245D01*
X127967Y111197D01*
X128032Y111152D01*
X128099Y111110D01*
X128168Y111072D01*
X128239Y111036D01*
X128312Y111005D01*
X128386Y110977D01*
X128461Y110952D01*
X128537Y110932D01*
X128614Y110914D01*
X128692Y110901D01*
X128771Y110892D01*
X128850Y110886D01*
X128929Y110884D01*
X124022Y106792D02*
X121976Y106792D01*
X121887Y106794D01*
X121798Y106800D01*
X121709Y106810D01*
X121621Y106823D01*
X121533Y106840D01*
X121446Y106862D01*
X121361Y106887D01*
X121276Y106915D01*
X121193Y106948D01*
X121111Y106984D01*
X121031Y107023D01*
X120953Y107066D01*
X120877Y107112D01*
X120802Y107162D01*
X120730Y107215D01*
X120661Y107271D01*
X120594Y107330D01*
X120529Y107391D01*
X120468Y107456D01*
X120409Y107523D01*
X120353Y107592D01*
X120300Y107664D01*
X120250Y107739D01*
X120204Y107815D01*
X120161Y107893D01*
X120122Y107973D01*
X120086Y108055D01*
X120053Y108138D01*
X120025Y108223D01*
X120000Y108308D01*
X119978Y108395D01*
X119961Y108483D01*
X119948Y108571D01*
X119938Y108660D01*
X119932Y108749D01*
X119930Y108838D01*
X119932Y108927D01*
X119938Y109016D01*
X119948Y109105D01*
X119961Y109193D01*
X119978Y109281D01*
X120000Y109368D01*
X120025Y109453D01*
X120053Y109538D01*
X120086Y109621D01*
X120122Y109703D01*
X120161Y109783D01*
X120204Y109861D01*
X120250Y109937D01*
X120300Y110012D01*
X120353Y110084D01*
X120409Y110153D01*
X120468Y110220D01*
X120529Y110285D01*
X120594Y110346D01*
X120661Y110405D01*
X120730Y110461D01*
X120802Y110514D01*
X120877Y110564D01*
X120953Y110610D01*
X121031Y110653D01*
X121111Y110692D01*
X121193Y110728D01*
X121276Y110761D01*
X121361Y110789D01*
X121446Y110814D01*
X121533Y110836D01*
X121621Y110853D01*
X121709Y110866D01*
X121798Y110876D01*
X121887Y110882D01*
X121976Y110884D01*
X121567Y114158D02*
X124022Y114158D01*
X121567Y114158D02*
X121488Y114156D01*
X121409Y114150D01*
X121330Y114141D01*
X121252Y114128D01*
X121175Y114110D01*
X121099Y114090D01*
X121024Y114065D01*
X120950Y114037D01*
X120877Y114006D01*
X120806Y113970D01*
X120737Y113932D01*
X120670Y113890D01*
X120605Y113845D01*
X120542Y113797D01*
X120481Y113746D01*
X120424Y113692D01*
X120368Y113636D01*
X120316Y113577D01*
X120266Y113515D01*
X120220Y113451D01*
X120176Y113385D01*
X120136Y113317D01*
X120100Y113247D01*
X120066Y113175D01*
X120036Y113101D01*
X120010Y113027D01*
X119987Y112951D01*
X119969Y112874D01*
X119953Y112797D01*
X119942Y112718D01*
X119934Y112640D01*
X119930Y112561D01*
X119930Y112481D01*
X119934Y112402D01*
X119942Y112324D01*
X119953Y112245D01*
X119969Y112168D01*
X119987Y112091D01*
X120010Y112015D01*
X120036Y111941D01*
X120066Y111867D01*
X120100Y111795D01*
X120136Y111725D01*
X120176Y111657D01*
X120220Y111591D01*
X120266Y111527D01*
X120316Y111465D01*
X120368Y111406D01*
X120424Y111350D01*
X120481Y111296D01*
X120542Y111245D01*
X120605Y111197D01*
X120670Y111152D01*
X120737Y111110D01*
X120806Y111072D01*
X120877Y111036D01*
X120950Y111005D01*
X121024Y110977D01*
X121099Y110952D01*
X121175Y110932D01*
X121252Y110914D01*
X121330Y110901D01*
X121409Y110892D01*
X121488Y110886D01*
X121567Y110884D01*
X123203Y110884D01*
X117029Y105974D02*
X113755Y105974D01*
X110493Y110884D02*
X108447Y110884D01*
X108358Y110882D01*
X108269Y110876D01*
X108180Y110866D01*
X108092Y110853D01*
X108004Y110836D01*
X107917Y110814D01*
X107832Y110789D01*
X107747Y110761D01*
X107664Y110728D01*
X107582Y110692D01*
X107502Y110653D01*
X107424Y110610D01*
X107348Y110564D01*
X107273Y110514D01*
X107201Y110461D01*
X107132Y110405D01*
X107065Y110346D01*
X107000Y110285D01*
X106939Y110220D01*
X106880Y110153D01*
X106824Y110084D01*
X106771Y110012D01*
X106721Y109937D01*
X106675Y109861D01*
X106632Y109783D01*
X106593Y109703D01*
X106557Y109621D01*
X106524Y109538D01*
X106496Y109453D01*
X106471Y109368D01*
X106449Y109281D01*
X106432Y109193D01*
X106419Y109105D01*
X106409Y109016D01*
X106403Y108927D01*
X106401Y108838D01*
X106403Y108749D01*
X106409Y108660D01*
X106419Y108571D01*
X106432Y108483D01*
X106449Y108395D01*
X106471Y108308D01*
X106496Y108223D01*
X106524Y108138D01*
X106557Y108055D01*
X106593Y107973D01*
X106632Y107893D01*
X106675Y107815D01*
X106721Y107739D01*
X106771Y107664D01*
X106824Y107592D01*
X106880Y107523D01*
X106939Y107456D01*
X107000Y107391D01*
X107065Y107330D01*
X107132Y107271D01*
X107201Y107215D01*
X107273Y107162D01*
X107348Y107112D01*
X107424Y107066D01*
X107502Y107023D01*
X107582Y106984D01*
X107664Y106948D01*
X107747Y106915D01*
X107832Y106887D01*
X107917Y106862D01*
X108004Y106840D01*
X108092Y106823D01*
X108180Y106810D01*
X108269Y106800D01*
X108358Y106794D01*
X108447Y106792D01*
X110493Y106792D01*
X110493Y114158D01*
X108447Y114158D01*
X108368Y114156D01*
X108289Y114150D01*
X108210Y114141D01*
X108132Y114128D01*
X108055Y114110D01*
X107979Y114090D01*
X107904Y114065D01*
X107830Y114037D01*
X107757Y114006D01*
X107686Y113970D01*
X107617Y113932D01*
X107550Y113890D01*
X107485Y113845D01*
X107422Y113797D01*
X107361Y113746D01*
X107304Y113692D01*
X107248Y113636D01*
X107196Y113577D01*
X107146Y113515D01*
X107100Y113451D01*
X107056Y113385D01*
X107016Y113317D01*
X106980Y113247D01*
X106946Y113175D01*
X106916Y113101D01*
X106890Y113027D01*
X106867Y112951D01*
X106849Y112874D01*
X106833Y112797D01*
X106822Y112718D01*
X106814Y112640D01*
X106810Y112561D01*
X106810Y112481D01*
X106814Y112402D01*
X106822Y112324D01*
X106833Y112245D01*
X106849Y112168D01*
X106867Y112091D01*
X106890Y112015D01*
X106916Y111941D01*
X106946Y111867D01*
X106980Y111795D01*
X107016Y111725D01*
X107056Y111657D01*
X107100Y111591D01*
X107146Y111527D01*
X107196Y111465D01*
X107248Y111406D01*
X107304Y111350D01*
X107361Y111296D01*
X107422Y111245D01*
X107485Y111197D01*
X107550Y111152D01*
X107617Y111110D01*
X107686Y111072D01*
X107757Y111036D01*
X107830Y111005D01*
X107904Y110977D01*
X107979Y110952D01*
X108055Y110932D01*
X108132Y110914D01*
X108210Y110901D01*
X108289Y110892D01*
X108368Y110886D01*
X108447Y110884D01*
X101289Y114159D02*
X101204Y114157D01*
X101119Y114151D01*
X101035Y114141D01*
X100951Y114128D01*
X100867Y114110D01*
X100785Y114089D01*
X100704Y114064D01*
X100624Y114035D01*
X100545Y114002D01*
X100468Y113966D01*
X100393Y113926D01*
X100319Y113883D01*
X100248Y113837D01*
X100179Y113787D01*
X100112Y113734D01*
X100048Y113678D01*
X99987Y113619D01*
X99928Y113558D01*
X99872Y113494D01*
X99819Y113427D01*
X99769Y113358D01*
X99723Y113287D01*
X99680Y113213D01*
X99640Y113138D01*
X99604Y113061D01*
X99571Y112982D01*
X99542Y112902D01*
X99517Y112821D01*
X99496Y112739D01*
X99478Y112655D01*
X99465Y112571D01*
X99455Y112487D01*
X99449Y112402D01*
X99447Y112317D01*
X101289Y114158D02*
X101385Y114156D01*
X101481Y114150D01*
X101576Y114140D01*
X101671Y114127D01*
X101766Y114109D01*
X101859Y114088D01*
X101952Y114063D01*
X102043Y114034D01*
X102134Y114002D01*
X102223Y113966D01*
X102310Y113926D01*
X102396Y113883D01*
X102480Y113837D01*
X102562Y113787D01*
X102642Y113733D01*
X102719Y113677D01*
X102794Y113617D01*
X102867Y113555D01*
X102937Y113489D01*
X103005Y113421D01*
X103070Y113350D01*
X103131Y113277D01*
X103190Y113201D01*
X103246Y113122D01*
X103298Y113042D01*
X103347Y112959D01*
X103393Y112875D01*
X103435Y112789D01*
X103473Y112701D01*
X103508Y112612D01*
X103540Y112521D01*
X100061Y110885D02*
X100001Y110944D01*
X99944Y111006D01*
X99889Y111070D01*
X99838Y111137D01*
X99789Y111206D01*
X99743Y111276D01*
X99700Y111349D01*
X99660Y111423D01*
X99624Y111499D01*
X99591Y111577D01*
X99561Y111656D01*
X99534Y111736D01*
X99511Y111817D01*
X99492Y111899D01*
X99476Y111981D01*
X99463Y112065D01*
X99454Y112149D01*
X99449Y112233D01*
X99447Y112317D01*
X100061Y110884D02*
X103539Y106792D01*
X99447Y106792D01*
D10*
X-304800Y-203200D02*
X-304800Y-207010D01*
D11*
X-317500Y-207010D02*
X-317500Y-177800D01*
X-317500Y-207010D02*
X-304800Y-207010D01*
D10*
X-302260Y-207010D01*
D11*
X-304800Y-207010D02*
X-292100Y-207010D01*
X-266700Y-207010D02*
X-266700Y-177800D01*
D10*
X-266700Y-207010D02*
X-292100Y-207010D01*
D11*
X-317500Y-177800D02*
X-317500Y-148590D01*
X-292100Y-148590D01*
X-266700Y-148590D02*
X-266700Y-177800D01*
D10*
X-266700Y-148590D02*
X-273050Y-148590D01*
D11*
X-285750Y-148590D01*
D10*
X-292100Y-148590D01*
X-311150Y-148590D02*
X-314960Y-148590D01*
D11*
X-317500Y-148590D02*
X-311150Y-148590D01*
X-311150Y-154940D01*
X-298450Y-154940D01*
X-298450Y-148590D01*
X-285750Y-148590D01*
X-285750Y-154940D01*
X-273050Y-154940D01*
X-273050Y-148590D01*
X-266700Y-148590D01*
X-304800Y-196850D02*
X-304800Y-207010D01*
X-304800Y-196850D02*
X-302260Y-196850D01*
X-281940Y-196850D01*
X-279400Y-196850D01*
X-279400Y-207010D01*
X-304800Y-196850D02*
X-302260Y-191770D01*
X-302260Y-196850D02*
X-302260Y-207010D01*
X-302260Y-191770D02*
X-281940Y-191770D01*
X-279400Y-196850D01*
X-281940Y-196850D02*
X-281940Y-207010D01*
D12*
X-255426Y-172578D02*
X-252392Y-175005D01*
X-255426Y-172578D02*
X-255426Y-183500D01*
X-252392Y-183500D02*
X-258460Y-183500D01*
X-325580Y-171816D02*
X-325682Y-171818D01*
X-325784Y-171824D01*
X-325886Y-171833D01*
X-325987Y-171847D01*
X-326088Y-171864D01*
X-326188Y-171884D01*
X-326287Y-171909D01*
X-326385Y-171937D01*
X-326482Y-171969D01*
X-326578Y-172005D01*
X-326672Y-172044D01*
X-326765Y-172086D01*
X-326856Y-172132D01*
X-326946Y-172182D01*
X-327033Y-172235D01*
X-327118Y-172291D01*
X-327202Y-172350D01*
X-327283Y-172412D01*
X-327361Y-172477D01*
X-327438Y-172545D01*
X-327511Y-172616D01*
X-327582Y-172689D01*
X-327650Y-172766D01*
X-327715Y-172844D01*
X-327777Y-172925D01*
X-327836Y-173009D01*
X-327892Y-173094D01*
X-327945Y-173182D01*
X-327995Y-173271D01*
X-328041Y-173362D01*
X-328083Y-173455D01*
X-328122Y-173549D01*
X-328158Y-173645D01*
X-328190Y-173742D01*
X-328218Y-173840D01*
X-328243Y-173939D01*
X-328263Y-174039D01*
X-328280Y-174140D01*
X-328294Y-174241D01*
X-328303Y-174343D01*
X-328309Y-174445D01*
X-328311Y-174547D01*
X-325580Y-171816D02*
X-325464Y-171818D01*
X-325348Y-171824D01*
X-325232Y-171833D01*
X-325117Y-171847D01*
X-325002Y-171864D01*
X-324888Y-171885D01*
X-324775Y-171910D01*
X-324662Y-171938D01*
X-324551Y-171970D01*
X-324440Y-172006D01*
X-324331Y-172046D01*
X-324223Y-172089D01*
X-324117Y-172136D01*
X-324012Y-172186D01*
X-323909Y-172239D01*
X-323808Y-172296D01*
X-323709Y-172357D01*
X-323612Y-172420D01*
X-323517Y-172487D01*
X-323424Y-172557D01*
X-323334Y-172630D01*
X-323246Y-172705D01*
X-323160Y-172784D01*
X-323078Y-172866D01*
X-322998Y-172950D01*
X-322920Y-173036D01*
X-322846Y-173126D01*
X-322775Y-173217D01*
X-322707Y-173311D01*
X-322642Y-173408D01*
X-322580Y-173506D01*
X-322521Y-173606D01*
X-322466Y-173708D01*
X-322414Y-173812D01*
X-322366Y-173918D01*
X-322321Y-174025D01*
X-322280Y-174133D01*
X-322243Y-174243D01*
X-327400Y-176671D02*
X-327473Y-176598D01*
X-327544Y-176523D01*
X-327612Y-176446D01*
X-327678Y-176366D01*
X-327740Y-176284D01*
X-327800Y-176200D01*
X-327857Y-176113D01*
X-327910Y-176025D01*
X-327961Y-175935D01*
X-328008Y-175843D01*
X-328052Y-175750D01*
X-328093Y-175655D01*
X-328130Y-175558D01*
X-328164Y-175461D01*
X-328194Y-175362D01*
X-328221Y-175263D01*
X-328245Y-175162D01*
X-328265Y-175061D01*
X-328281Y-174959D01*
X-328294Y-174856D01*
X-328303Y-174753D01*
X-328308Y-174650D01*
X-328310Y-174547D01*
X-327400Y-176670D02*
X-322242Y-182738D01*
X-328310Y-182738D01*
D13*
X-304800Y-177800D03*
X-279400Y-177800D03*
D14*
X-307316Y-211059D02*
X-307316Y-218171D01*
X-307314Y-218260D01*
X-307308Y-218348D01*
X-307299Y-218436D01*
X-307285Y-218524D01*
X-307268Y-218611D01*
X-307247Y-218697D01*
X-307222Y-218782D01*
X-307193Y-218866D01*
X-307161Y-218949D01*
X-307126Y-219030D01*
X-307086Y-219109D01*
X-307044Y-219187D01*
X-306998Y-219263D01*
X-306949Y-219337D01*
X-306896Y-219408D01*
X-306841Y-219477D01*
X-306782Y-219544D01*
X-306721Y-219608D01*
X-306657Y-219669D01*
X-306590Y-219728D01*
X-306521Y-219783D01*
X-306450Y-219836D01*
X-306376Y-219885D01*
X-306300Y-219931D01*
X-306222Y-219973D01*
X-306143Y-220013D01*
X-306062Y-220048D01*
X-305979Y-220080D01*
X-305895Y-220109D01*
X-305810Y-220134D01*
X-305724Y-220155D01*
X-305637Y-220172D01*
X-305549Y-220186D01*
X-305461Y-220195D01*
X-305373Y-220201D01*
X-305284Y-220203D01*
X-304268Y-220203D01*
X-311643Y-218171D02*
X-313675Y-211059D01*
X-311643Y-218171D02*
X-316723Y-218171D01*
X-315199Y-216139D02*
X-315199Y-220203D01*
D15*
X-254429Y-133829D02*
X-256475Y-132192D01*
X-256475Y-139558D01*
X-254429Y-139558D02*
X-258521Y-139558D01*
X-265837Y-134034D02*
X-265835Y-133949D01*
X-265829Y-133864D01*
X-265819Y-133780D01*
X-265806Y-133696D01*
X-265788Y-133612D01*
X-265767Y-133530D01*
X-265742Y-133449D01*
X-265713Y-133369D01*
X-265680Y-133290D01*
X-265644Y-133213D01*
X-265604Y-133138D01*
X-265561Y-133064D01*
X-265515Y-132993D01*
X-265465Y-132924D01*
X-265412Y-132857D01*
X-265356Y-132793D01*
X-265297Y-132732D01*
X-265236Y-132673D01*
X-265172Y-132617D01*
X-265105Y-132564D01*
X-265036Y-132514D01*
X-264965Y-132468D01*
X-264891Y-132425D01*
X-264816Y-132385D01*
X-264739Y-132349D01*
X-264660Y-132316D01*
X-264580Y-132287D01*
X-264499Y-132262D01*
X-264417Y-132241D01*
X-264333Y-132223D01*
X-264249Y-132210D01*
X-264165Y-132200D01*
X-264080Y-132194D01*
X-263995Y-132192D01*
X-263899Y-132194D01*
X-263803Y-132200D01*
X-263708Y-132210D01*
X-263613Y-132223D01*
X-263518Y-132241D01*
X-263425Y-132262D01*
X-263332Y-132287D01*
X-263241Y-132316D01*
X-263150Y-132348D01*
X-263061Y-132384D01*
X-262974Y-132424D01*
X-262888Y-132467D01*
X-262804Y-132513D01*
X-262722Y-132563D01*
X-262642Y-132617D01*
X-262565Y-132673D01*
X-262490Y-132733D01*
X-262417Y-132795D01*
X-262347Y-132861D01*
X-262279Y-132929D01*
X-262214Y-133000D01*
X-262153Y-133073D01*
X-262094Y-133149D01*
X-262038Y-133228D01*
X-261986Y-133308D01*
X-261937Y-133391D01*
X-261891Y-133475D01*
X-261849Y-133561D01*
X-261811Y-133649D01*
X-261776Y-133738D01*
X-261744Y-133829D01*
X-265223Y-135466D02*
X-265283Y-135407D01*
X-265340Y-135345D01*
X-265395Y-135281D01*
X-265446Y-135214D01*
X-265495Y-135145D01*
X-265541Y-135075D01*
X-265584Y-135002D01*
X-265624Y-134928D01*
X-265660Y-134852D01*
X-265693Y-134774D01*
X-265723Y-134695D01*
X-265750Y-134615D01*
X-265773Y-134534D01*
X-265792Y-134452D01*
X-265808Y-134370D01*
X-265821Y-134286D01*
X-265830Y-134202D01*
X-265835Y-134118D01*
X-265837Y-134034D01*
X-265223Y-135466D02*
X-261744Y-139558D01*
X-265836Y-139558D01*
X-271105Y-139558D02*
X-268650Y-132192D01*
X-273561Y-132192D02*
X-271105Y-139558D01*
X-276052Y-140376D02*
X-279326Y-140376D01*
X-282588Y-139558D02*
X-282588Y-132192D01*
X-284634Y-132192D01*
X-284723Y-132194D01*
X-284812Y-132200D01*
X-284901Y-132210D01*
X-284989Y-132223D01*
X-285077Y-132240D01*
X-285164Y-132262D01*
X-285249Y-132287D01*
X-285334Y-132315D01*
X-285417Y-132348D01*
X-285499Y-132384D01*
X-285579Y-132423D01*
X-285657Y-132466D01*
X-285733Y-132512D01*
X-285808Y-132562D01*
X-285880Y-132615D01*
X-285949Y-132671D01*
X-286016Y-132730D01*
X-286081Y-132791D01*
X-286142Y-132856D01*
X-286201Y-132923D01*
X-286257Y-132992D01*
X-286310Y-133064D01*
X-286360Y-133139D01*
X-286406Y-133215D01*
X-286449Y-133293D01*
X-286488Y-133373D01*
X-286524Y-133455D01*
X-286557Y-133538D01*
X-286585Y-133623D01*
X-286610Y-133708D01*
X-286632Y-133795D01*
X-286649Y-133883D01*
X-286662Y-133971D01*
X-286672Y-134060D01*
X-286678Y-134149D01*
X-286680Y-134238D01*
X-286678Y-134327D01*
X-286672Y-134416D01*
X-286662Y-134505D01*
X-286649Y-134593D01*
X-286632Y-134681D01*
X-286610Y-134768D01*
X-286585Y-134853D01*
X-286557Y-134938D01*
X-286524Y-135021D01*
X-286488Y-135103D01*
X-286449Y-135183D01*
X-286406Y-135261D01*
X-286360Y-135337D01*
X-286310Y-135412D01*
X-286257Y-135484D01*
X-286201Y-135553D01*
X-286142Y-135620D01*
X-286081Y-135685D01*
X-286016Y-135746D01*
X-285949Y-135805D01*
X-285880Y-135861D01*
X-285808Y-135914D01*
X-285733Y-135964D01*
X-285657Y-136010D01*
X-285579Y-136053D01*
X-285499Y-136092D01*
X-285417Y-136128D01*
X-285334Y-136161D01*
X-285249Y-136189D01*
X-285164Y-136214D01*
X-285077Y-136236D01*
X-284989Y-136253D01*
X-284901Y-136266D01*
X-284812Y-136276D01*
X-284723Y-136282D01*
X-284634Y-136284D01*
X-282588Y-136284D01*
X-289542Y-137512D02*
X-289542Y-134238D01*
X-289544Y-134149D01*
X-289550Y-134060D01*
X-289560Y-133971D01*
X-289573Y-133883D01*
X-289590Y-133795D01*
X-289612Y-133708D01*
X-289637Y-133623D01*
X-289665Y-133538D01*
X-289698Y-133455D01*
X-289734Y-133373D01*
X-289773Y-133293D01*
X-289816Y-133215D01*
X-289862Y-133139D01*
X-289912Y-133064D01*
X-289965Y-132992D01*
X-290021Y-132923D01*
X-290080Y-132856D01*
X-290141Y-132791D01*
X-290206Y-132730D01*
X-290273Y-132671D01*
X-290342Y-132615D01*
X-290414Y-132562D01*
X-290489Y-132512D01*
X-290565Y-132466D01*
X-290643Y-132423D01*
X-290723Y-132384D01*
X-290805Y-132348D01*
X-290888Y-132315D01*
X-290973Y-132287D01*
X-291058Y-132262D01*
X-291145Y-132240D01*
X-291233Y-132223D01*
X-291321Y-132210D01*
X-291410Y-132200D01*
X-291499Y-132194D01*
X-291588Y-132192D01*
X-291677Y-132194D01*
X-291766Y-132200D01*
X-291855Y-132210D01*
X-291943Y-132223D01*
X-292031Y-132240D01*
X-292118Y-132262D01*
X-292203Y-132287D01*
X-292288Y-132315D01*
X-292371Y-132348D01*
X-292453Y-132384D01*
X-292533Y-132423D01*
X-292611Y-132466D01*
X-292687Y-132512D01*
X-292762Y-132562D01*
X-292834Y-132615D01*
X-292903Y-132671D01*
X-292970Y-132730D01*
X-293035Y-132791D01*
X-293096Y-132856D01*
X-293155Y-132923D01*
X-293211Y-132992D01*
X-293264Y-133064D01*
X-293314Y-133139D01*
X-293360Y-133215D01*
X-293403Y-133293D01*
X-293442Y-133373D01*
X-293478Y-133455D01*
X-293511Y-133538D01*
X-293539Y-133623D01*
X-293564Y-133708D01*
X-293586Y-133795D01*
X-293603Y-133883D01*
X-293616Y-133971D01*
X-293626Y-134060D01*
X-293632Y-134149D01*
X-293634Y-134238D01*
X-293634Y-137512D01*
X-293632Y-137601D01*
X-293626Y-137690D01*
X-293616Y-137779D01*
X-293603Y-137867D01*
X-293586Y-137955D01*
X-293564Y-138042D01*
X-293539Y-138127D01*
X-293511Y-138212D01*
X-293478Y-138295D01*
X-293442Y-138377D01*
X-293403Y-138457D01*
X-293360Y-138535D01*
X-293314Y-138611D01*
X-293264Y-138686D01*
X-293211Y-138758D01*
X-293155Y-138827D01*
X-293096Y-138894D01*
X-293035Y-138959D01*
X-292970Y-139020D01*
X-292903Y-139079D01*
X-292834Y-139135D01*
X-292762Y-139188D01*
X-292687Y-139238D01*
X-292611Y-139284D01*
X-292533Y-139327D01*
X-292453Y-139366D01*
X-292371Y-139402D01*
X-292288Y-139435D01*
X-292203Y-139463D01*
X-292118Y-139488D01*
X-292031Y-139510D01*
X-291943Y-139527D01*
X-291855Y-139540D01*
X-291766Y-139550D01*
X-291677Y-139556D01*
X-291588Y-139558D01*
X-291499Y-139556D01*
X-291410Y-139550D01*
X-291321Y-139540D01*
X-291233Y-139527D01*
X-291145Y-139510D01*
X-291058Y-139488D01*
X-290973Y-139463D01*
X-290888Y-139435D01*
X-290805Y-139402D01*
X-290723Y-139366D01*
X-290643Y-139327D01*
X-290565Y-139284D01*
X-290489Y-139238D01*
X-290414Y-139188D01*
X-290342Y-139135D01*
X-290273Y-139079D01*
X-290206Y-139020D01*
X-290141Y-138959D01*
X-290080Y-138894D01*
X-290021Y-138827D01*
X-289965Y-138758D01*
X-289912Y-138686D01*
X-289862Y-138611D01*
X-289816Y-138535D01*
X-289773Y-138457D01*
X-289734Y-138377D01*
X-289698Y-138295D01*
X-289665Y-138212D01*
X-289637Y-138127D01*
X-289612Y-138042D01*
X-289590Y-137955D01*
X-289573Y-137867D01*
X-289560Y-137779D01*
X-289550Y-137690D01*
X-289544Y-137601D01*
X-289542Y-137512D01*
X-296605Y-132192D02*
X-298242Y-139558D01*
X-299879Y-134647D01*
X-301515Y-139558D01*
X-303152Y-132192D01*
X-306383Y-139558D02*
X-309656Y-139558D01*
X-306383Y-139558D02*
X-306383Y-132192D01*
X-309656Y-132192D01*
X-308838Y-135466D02*
X-306383Y-135466D01*
X-312758Y-132192D02*
X-312758Y-139558D01*
X-312758Y-132192D02*
X-314804Y-132192D01*
X-314893Y-132194D01*
X-314982Y-132200D01*
X-315071Y-132210D01*
X-315159Y-132223D01*
X-315247Y-132240D01*
X-315334Y-132262D01*
X-315419Y-132287D01*
X-315504Y-132315D01*
X-315587Y-132348D01*
X-315669Y-132384D01*
X-315749Y-132423D01*
X-315827Y-132466D01*
X-315903Y-132512D01*
X-315978Y-132562D01*
X-316050Y-132615D01*
X-316119Y-132671D01*
X-316186Y-132730D01*
X-316251Y-132791D01*
X-316312Y-132856D01*
X-316371Y-132923D01*
X-316427Y-132992D01*
X-316480Y-133064D01*
X-316530Y-133139D01*
X-316576Y-133215D01*
X-316619Y-133293D01*
X-316658Y-133373D01*
X-316694Y-133455D01*
X-316727Y-133538D01*
X-316755Y-133623D01*
X-316780Y-133708D01*
X-316802Y-133795D01*
X-316819Y-133883D01*
X-316832Y-133971D01*
X-316842Y-134060D01*
X-316848Y-134149D01*
X-316850Y-134238D01*
X-316848Y-134327D01*
X-316842Y-134416D01*
X-316832Y-134505D01*
X-316819Y-134593D01*
X-316802Y-134681D01*
X-316780Y-134768D01*
X-316755Y-134853D01*
X-316727Y-134938D01*
X-316694Y-135021D01*
X-316658Y-135103D01*
X-316619Y-135183D01*
X-316576Y-135261D01*
X-316530Y-135337D01*
X-316480Y-135412D01*
X-316427Y-135484D01*
X-316371Y-135553D01*
X-316312Y-135620D01*
X-316251Y-135685D01*
X-316186Y-135746D01*
X-316119Y-135805D01*
X-316050Y-135861D01*
X-315978Y-135914D01*
X-315903Y-135964D01*
X-315827Y-136010D01*
X-315749Y-136053D01*
X-315669Y-136092D01*
X-315587Y-136128D01*
X-315504Y-136161D01*
X-315419Y-136189D01*
X-315334Y-136214D01*
X-315247Y-136236D01*
X-315159Y-136253D01*
X-315071Y-136266D01*
X-314982Y-136276D01*
X-314893Y-136282D01*
X-314804Y-136284D01*
X-312758Y-136284D01*
X-315213Y-136284D02*
X-316850Y-139558D01*
D10*
X-101600Y177800D02*
X-101600Y181610D01*
D11*
X-88900Y181610D02*
X-88900Y152400D01*
X-88900Y181610D02*
X-101600Y181610D01*
D10*
X-104140Y181610D01*
D11*
X-101600Y181610D02*
X-114300Y181610D01*
X-190500Y181610D02*
X-190500Y152400D01*
X-190500Y181610D02*
X-114300Y181610D01*
X-88900Y152400D02*
X-88900Y123190D01*
D10*
X-113030Y123190D01*
D11*
X-190500Y123190D02*
X-190500Y152400D01*
X-190500Y123190D02*
X-113030Y123190D01*
X-95250Y123190D02*
X-91440Y123190D01*
X-95250Y123190D02*
X-95250Y129540D01*
X-107950Y129540D01*
X-107950Y123190D01*
X-120650Y123190D02*
X-120650Y129540D01*
X-133350Y129540D01*
X-133350Y123190D01*
X-95250Y123190D01*
X-107950Y123190D02*
X-120650Y123190D01*
X-133350Y123190D02*
X-146050Y123190D01*
X-146050Y129540D01*
X-158750Y129540D01*
X-158750Y123190D01*
X-171450Y123190D01*
X-171450Y129540D01*
X-184150Y129540D01*
X-184150Y123190D01*
X-190500Y123190D01*
X-101600Y171450D02*
X-101600Y181610D01*
X-101600Y171450D02*
X-104140Y171450D01*
X-175260Y171450D01*
X-177800Y171450D01*
X-177800Y181610D01*
X-104140Y166370D02*
X-101600Y171450D01*
X-104140Y171450D02*
X-104140Y181610D01*
X-104140Y166370D02*
X-175260Y166370D01*
X-177800Y171450D01*
X-175260Y171450D02*
X-175260Y181610D01*
D12*
X-197470Y154403D02*
X-200504Y156830D01*
X-200504Y145908D01*
X-197470Y145908D02*
X-203538Y145908D01*
X-80517Y157338D02*
X-78090Y148843D01*
X-84158Y148843D01*
X-82337Y151270D02*
X-82337Y146416D01*
D13*
X-101600Y152400D03*
X-127000Y152400D03*
X-152400Y152400D03*
X-177800Y152400D03*
D14*
X-92725Y187691D02*
X-92725Y194803D01*
X-92725Y187691D02*
X-92723Y187602D01*
X-92717Y187514D01*
X-92708Y187426D01*
X-92694Y187338D01*
X-92677Y187251D01*
X-92656Y187165D01*
X-92631Y187080D01*
X-92602Y186996D01*
X-92570Y186913D01*
X-92535Y186832D01*
X-92495Y186753D01*
X-92453Y186675D01*
X-92407Y186599D01*
X-92358Y186525D01*
X-92305Y186454D01*
X-92250Y186385D01*
X-92191Y186318D01*
X-92130Y186254D01*
X-92066Y186193D01*
X-91999Y186134D01*
X-91930Y186079D01*
X-91859Y186026D01*
X-91785Y185977D01*
X-91709Y185931D01*
X-91631Y185889D01*
X-91552Y185849D01*
X-91471Y185814D01*
X-91388Y185782D01*
X-91304Y185753D01*
X-91219Y185728D01*
X-91133Y185707D01*
X-91046Y185690D01*
X-90958Y185676D01*
X-90870Y185667D01*
X-90782Y185661D01*
X-90693Y185659D01*
X-89677Y185659D01*
X-97052Y185659D02*
X-100100Y185659D01*
X-100189Y185661D01*
X-100277Y185667D01*
X-100365Y185676D01*
X-100453Y185690D01*
X-100540Y185707D01*
X-100626Y185728D01*
X-100711Y185753D01*
X-100795Y185782D01*
X-100878Y185814D01*
X-100959Y185849D01*
X-101038Y185889D01*
X-101116Y185931D01*
X-101192Y185977D01*
X-101266Y186026D01*
X-101337Y186079D01*
X-101406Y186134D01*
X-101473Y186193D01*
X-101537Y186254D01*
X-101598Y186318D01*
X-101657Y186385D01*
X-101712Y186454D01*
X-101765Y186525D01*
X-101814Y186599D01*
X-101860Y186675D01*
X-101902Y186753D01*
X-101942Y186832D01*
X-101977Y186913D01*
X-102009Y186996D01*
X-102038Y187080D01*
X-102063Y187165D01*
X-102084Y187251D01*
X-102101Y187338D01*
X-102115Y187426D01*
X-102124Y187514D01*
X-102130Y187602D01*
X-102132Y187691D01*
X-102132Y188707D01*
X-102130Y188796D01*
X-102124Y188884D01*
X-102115Y188972D01*
X-102101Y189060D01*
X-102084Y189147D01*
X-102063Y189233D01*
X-102038Y189318D01*
X-102009Y189402D01*
X-101977Y189485D01*
X-101942Y189566D01*
X-101902Y189645D01*
X-101860Y189723D01*
X-101814Y189799D01*
X-101765Y189873D01*
X-101712Y189944D01*
X-101657Y190013D01*
X-101598Y190080D01*
X-101537Y190144D01*
X-101473Y190205D01*
X-101406Y190264D01*
X-101337Y190319D01*
X-101266Y190372D01*
X-101192Y190421D01*
X-101116Y190467D01*
X-101038Y190509D01*
X-100959Y190549D01*
X-100878Y190584D01*
X-100795Y190616D01*
X-100711Y190645D01*
X-100626Y190670D01*
X-100540Y190691D01*
X-100453Y190708D01*
X-100365Y190722D01*
X-100277Y190731D01*
X-100189Y190737D01*
X-100100Y190739D01*
X-97052Y190739D01*
X-97052Y194803D01*
X-102132Y194803D01*
D15*
X-89550Y114158D02*
X-89550Y106792D01*
X-92824Y106792D01*
X-96213Y106792D02*
X-96213Y114158D01*
X-95395Y106792D02*
X-97032Y106792D01*
X-97032Y114158D02*
X-95395Y114158D01*
X-100263Y114158D02*
X-100263Y106792D01*
X-100263Y114158D02*
X-102309Y114158D01*
X-102398Y114156D01*
X-102487Y114150D01*
X-102576Y114140D01*
X-102664Y114127D01*
X-102752Y114110D01*
X-102839Y114088D01*
X-102924Y114063D01*
X-103009Y114035D01*
X-103092Y114002D01*
X-103174Y113966D01*
X-103254Y113927D01*
X-103332Y113884D01*
X-103408Y113838D01*
X-103483Y113788D01*
X-103555Y113735D01*
X-103624Y113679D01*
X-103691Y113620D01*
X-103756Y113559D01*
X-103817Y113494D01*
X-103876Y113427D01*
X-103932Y113358D01*
X-103985Y113286D01*
X-104035Y113211D01*
X-104081Y113135D01*
X-104124Y113057D01*
X-104163Y112977D01*
X-104199Y112895D01*
X-104232Y112812D01*
X-104260Y112727D01*
X-104285Y112642D01*
X-104307Y112555D01*
X-104324Y112467D01*
X-104337Y112379D01*
X-104347Y112290D01*
X-104353Y112201D01*
X-104355Y112112D01*
X-104355Y108838D01*
X-104353Y108749D01*
X-104347Y108660D01*
X-104337Y108571D01*
X-104324Y108483D01*
X-104307Y108395D01*
X-104285Y108308D01*
X-104260Y108223D01*
X-104232Y108138D01*
X-104199Y108055D01*
X-104163Y107973D01*
X-104124Y107893D01*
X-104081Y107815D01*
X-104035Y107739D01*
X-103985Y107664D01*
X-103932Y107592D01*
X-103876Y107523D01*
X-103817Y107456D01*
X-103756Y107391D01*
X-103691Y107330D01*
X-103624Y107271D01*
X-103555Y107215D01*
X-103483Y107162D01*
X-103408Y107112D01*
X-103332Y107066D01*
X-103254Y107023D01*
X-103174Y106984D01*
X-103092Y106948D01*
X-103009Y106915D01*
X-102924Y106887D01*
X-102839Y106862D01*
X-102752Y106840D01*
X-102664Y106823D01*
X-102576Y106810D01*
X-102487Y106800D01*
X-102398Y106794D01*
X-102309Y106792D01*
X-100263Y106792D01*
X-107413Y106792D02*
X-109868Y114158D01*
X-112324Y106792D01*
X-111710Y108634D02*
X-108027Y108634D01*
X-115432Y106792D02*
X-115432Y114158D01*
X-117479Y114158D01*
X-117568Y114156D01*
X-117657Y114150D01*
X-117746Y114140D01*
X-117834Y114127D01*
X-117922Y114110D01*
X-118009Y114088D01*
X-118094Y114063D01*
X-118179Y114035D01*
X-118262Y114002D01*
X-118344Y113966D01*
X-118424Y113927D01*
X-118502Y113884D01*
X-118578Y113838D01*
X-118653Y113788D01*
X-118725Y113735D01*
X-118794Y113679D01*
X-118861Y113620D01*
X-118926Y113559D01*
X-118987Y113494D01*
X-119046Y113427D01*
X-119102Y113358D01*
X-119155Y113286D01*
X-119205Y113211D01*
X-119251Y113135D01*
X-119294Y113057D01*
X-119333Y112977D01*
X-119369Y112895D01*
X-119402Y112812D01*
X-119430Y112727D01*
X-119455Y112642D01*
X-119477Y112555D01*
X-119494Y112467D01*
X-119507Y112379D01*
X-119517Y112290D01*
X-119523Y112201D01*
X-119525Y112112D01*
X-119523Y112023D01*
X-119517Y111934D01*
X-119507Y111845D01*
X-119494Y111757D01*
X-119477Y111669D01*
X-119455Y111582D01*
X-119430Y111497D01*
X-119402Y111412D01*
X-119369Y111329D01*
X-119333Y111247D01*
X-119294Y111167D01*
X-119251Y111089D01*
X-119205Y111013D01*
X-119155Y110938D01*
X-119102Y110866D01*
X-119046Y110797D01*
X-118987Y110730D01*
X-118926Y110665D01*
X-118861Y110604D01*
X-118794Y110545D01*
X-118725Y110489D01*
X-118653Y110436D01*
X-118578Y110386D01*
X-118502Y110340D01*
X-118424Y110297D01*
X-118344Y110258D01*
X-118262Y110222D01*
X-118179Y110189D01*
X-118094Y110161D01*
X-118009Y110136D01*
X-117922Y110114D01*
X-117834Y110097D01*
X-117746Y110084D01*
X-117657Y110074D01*
X-117568Y110068D01*
X-117479Y110066D01*
X-115432Y110066D01*
X-117888Y110066D02*
X-119525Y106792D01*
D10*
X-12700Y123190D02*
X-12700Y127000D01*
D11*
X-25400Y123190D02*
X-25400Y152400D01*
X-25400Y123190D02*
X-12700Y123190D01*
D10*
X-10160Y123190D01*
D11*
X-12700Y123190D02*
X0Y123190D01*
X25400Y123190D02*
X25400Y152400D01*
D10*
X25400Y123190D02*
X0Y123190D01*
D11*
X-25400Y152400D02*
X-25400Y181610D01*
X0Y181610D01*
X25400Y181610D02*
X25400Y152400D01*
D10*
X25400Y181610D02*
X19050Y181610D01*
D11*
X6350Y181610D01*
D10*
X0Y181610D01*
X-19050Y181610D02*
X-22860Y181610D01*
D11*
X-25400Y181610D02*
X-19050Y181610D01*
X-19050Y175260D01*
X-6350Y175260D01*
X-6350Y181610D01*
X6350Y181610D01*
X6350Y175260D01*
X19050Y175260D01*
X19050Y181610D01*
X25400Y181610D01*
X-12700Y133350D02*
X-12700Y123190D01*
X-12700Y133350D02*
X-10160Y133350D01*
X10160Y133350D01*
X12700Y133350D01*
X12700Y123190D01*
X-12700Y133350D02*
X-10160Y138430D01*
X-10160Y133350D02*
X-10160Y123190D01*
X-10160Y138430D02*
X10160Y138430D01*
X12700Y133350D01*
X10160Y133350D02*
X10160Y123190D01*
D12*
X36674Y157622D02*
X39708Y155195D01*
X36674Y157622D02*
X36674Y146700D01*
X39708Y146700D02*
X33640Y146700D01*
X-33480Y158385D02*
X-33582Y158383D01*
X-33684Y158377D01*
X-33786Y158368D01*
X-33887Y158354D01*
X-33988Y158337D01*
X-34088Y158317D01*
X-34187Y158292D01*
X-34285Y158264D01*
X-34382Y158232D01*
X-34478Y158196D01*
X-34572Y158157D01*
X-34665Y158115D01*
X-34756Y158069D01*
X-34846Y158019D01*
X-34933Y157966D01*
X-35018Y157910D01*
X-35102Y157851D01*
X-35183Y157789D01*
X-35261Y157724D01*
X-35338Y157656D01*
X-35411Y157585D01*
X-35482Y157512D01*
X-35550Y157435D01*
X-35615Y157357D01*
X-35677Y157276D01*
X-35736Y157192D01*
X-35792Y157107D01*
X-35845Y157020D01*
X-35895Y156930D01*
X-35941Y156839D01*
X-35983Y156746D01*
X-36022Y156652D01*
X-36058Y156556D01*
X-36090Y156459D01*
X-36118Y156361D01*
X-36143Y156262D01*
X-36163Y156162D01*
X-36180Y156061D01*
X-36194Y155960D01*
X-36203Y155858D01*
X-36209Y155756D01*
X-36211Y155654D01*
X-33480Y158384D02*
X-33364Y158382D01*
X-33248Y158376D01*
X-33132Y158367D01*
X-33017Y158353D01*
X-32902Y158336D01*
X-32788Y158315D01*
X-32675Y158290D01*
X-32562Y158262D01*
X-32451Y158230D01*
X-32340Y158194D01*
X-32231Y158154D01*
X-32123Y158111D01*
X-32017Y158064D01*
X-31912Y158014D01*
X-31809Y157961D01*
X-31708Y157904D01*
X-31609Y157843D01*
X-31512Y157780D01*
X-31417Y157713D01*
X-31324Y157643D01*
X-31234Y157570D01*
X-31146Y157495D01*
X-31060Y157416D01*
X-30978Y157334D01*
X-30898Y157250D01*
X-30820Y157164D01*
X-30746Y157074D01*
X-30675Y156983D01*
X-30607Y156889D01*
X-30542Y156792D01*
X-30480Y156694D01*
X-30421Y156594D01*
X-30366Y156492D01*
X-30314Y156388D01*
X-30266Y156282D01*
X-30221Y156175D01*
X-30180Y156067D01*
X-30143Y155957D01*
X-35300Y153530D02*
X-35373Y153603D01*
X-35444Y153678D01*
X-35512Y153755D01*
X-35578Y153835D01*
X-35640Y153917D01*
X-35700Y154001D01*
X-35757Y154088D01*
X-35810Y154176D01*
X-35861Y154266D01*
X-35908Y154358D01*
X-35952Y154451D01*
X-35993Y154546D01*
X-36030Y154643D01*
X-36064Y154740D01*
X-36094Y154839D01*
X-36121Y154938D01*
X-36145Y155039D01*
X-36165Y155140D01*
X-36181Y155242D01*
X-36194Y155345D01*
X-36203Y155448D01*
X-36208Y155551D01*
X-36210Y155654D01*
X-35300Y153530D02*
X-30142Y147462D01*
X-36210Y147462D01*
D13*
X-12700Y152400D03*
X12700Y152400D03*
D14*
X-15216Y119141D02*
X-15216Y112029D01*
X-15214Y111940D01*
X-15208Y111852D01*
X-15199Y111764D01*
X-15185Y111676D01*
X-15168Y111589D01*
X-15147Y111503D01*
X-15122Y111418D01*
X-15093Y111334D01*
X-15061Y111251D01*
X-15026Y111170D01*
X-14986Y111091D01*
X-14944Y111013D01*
X-14898Y110937D01*
X-14849Y110863D01*
X-14796Y110792D01*
X-14741Y110723D01*
X-14682Y110656D01*
X-14621Y110592D01*
X-14557Y110531D01*
X-14490Y110472D01*
X-14421Y110417D01*
X-14350Y110364D01*
X-14276Y110315D01*
X-14200Y110269D01*
X-14122Y110227D01*
X-14043Y110187D01*
X-13962Y110152D01*
X-13879Y110120D01*
X-13795Y110091D01*
X-13710Y110066D01*
X-13624Y110045D01*
X-13537Y110028D01*
X-13449Y110014D01*
X-13361Y110005D01*
X-13273Y109999D01*
X-13184Y109997D01*
X-12168Y109997D01*
X-19543Y115077D02*
X-22591Y115077D01*
X-22680Y115075D01*
X-22768Y115069D01*
X-22856Y115060D01*
X-22944Y115046D01*
X-23031Y115029D01*
X-23117Y115008D01*
X-23202Y114983D01*
X-23286Y114954D01*
X-23369Y114922D01*
X-23450Y114887D01*
X-23529Y114847D01*
X-23607Y114805D01*
X-23683Y114759D01*
X-23757Y114710D01*
X-23828Y114657D01*
X-23897Y114602D01*
X-23964Y114543D01*
X-24028Y114482D01*
X-24089Y114418D01*
X-24148Y114351D01*
X-24203Y114282D01*
X-24256Y114211D01*
X-24305Y114137D01*
X-24351Y114061D01*
X-24393Y113983D01*
X-24433Y113904D01*
X-24468Y113823D01*
X-24500Y113740D01*
X-24529Y113656D01*
X-24554Y113571D01*
X-24575Y113485D01*
X-24592Y113398D01*
X-24606Y113310D01*
X-24615Y113222D01*
X-24621Y113134D01*
X-24623Y113045D01*
X-24623Y112537D01*
X-24621Y112437D01*
X-24615Y112338D01*
X-24605Y112238D01*
X-24592Y112140D01*
X-24574Y112041D01*
X-24553Y111944D01*
X-24528Y111848D01*
X-24499Y111752D01*
X-24466Y111658D01*
X-24430Y111565D01*
X-24390Y111474D01*
X-24346Y111384D01*
X-24299Y111296D01*
X-24249Y111210D01*
X-24195Y111126D01*
X-24138Y111044D01*
X-24078Y110965D01*
X-24014Y110887D01*
X-23948Y110813D01*
X-23879Y110741D01*
X-23807Y110672D01*
X-23733Y110606D01*
X-23655Y110542D01*
X-23576Y110482D01*
X-23494Y110425D01*
X-23410Y110371D01*
X-23324Y110321D01*
X-23236Y110274D01*
X-23146Y110230D01*
X-23055Y110190D01*
X-22962Y110154D01*
X-22868Y110121D01*
X-22772Y110092D01*
X-22676Y110067D01*
X-22579Y110046D01*
X-22480Y110028D01*
X-22382Y110015D01*
X-22282Y110005D01*
X-22183Y109999D01*
X-22083Y109997D01*
X-21983Y109999D01*
X-21884Y110005D01*
X-21784Y110015D01*
X-21686Y110028D01*
X-21587Y110046D01*
X-21490Y110067D01*
X-21394Y110092D01*
X-21298Y110121D01*
X-21204Y110154D01*
X-21111Y110190D01*
X-21020Y110230D01*
X-20930Y110274D01*
X-20842Y110321D01*
X-20756Y110371D01*
X-20672Y110425D01*
X-20590Y110482D01*
X-20511Y110542D01*
X-20433Y110606D01*
X-20359Y110672D01*
X-20287Y110741D01*
X-20218Y110813D01*
X-20152Y110887D01*
X-20088Y110965D01*
X-20028Y111044D01*
X-19971Y111126D01*
X-19917Y111210D01*
X-19867Y111296D01*
X-19820Y111384D01*
X-19776Y111474D01*
X-19736Y111565D01*
X-19700Y111658D01*
X-19667Y111752D01*
X-19638Y111848D01*
X-19613Y111944D01*
X-19592Y112041D01*
X-19574Y112140D01*
X-19561Y112238D01*
X-19551Y112338D01*
X-19545Y112437D01*
X-19543Y112537D01*
X-19543Y115077D01*
X-19545Y115202D01*
X-19551Y115327D01*
X-19560Y115452D01*
X-19574Y115576D01*
X-19591Y115700D01*
X-19612Y115824D01*
X-19637Y115946D01*
X-19666Y116068D01*
X-19698Y116189D01*
X-19734Y116309D01*
X-19774Y116428D01*
X-19817Y116545D01*
X-19864Y116661D01*
X-19915Y116776D01*
X-19969Y116888D01*
X-20027Y117000D01*
X-20087Y117109D01*
X-20152Y117216D01*
X-20219Y117322D01*
X-20290Y117425D01*
X-20364Y117526D01*
X-20441Y117625D01*
X-20521Y117721D01*
X-20604Y117815D01*
X-20689Y117906D01*
X-20778Y117995D01*
X-20869Y118080D01*
X-20963Y118163D01*
X-21059Y118243D01*
X-21158Y118320D01*
X-21259Y118394D01*
X-21362Y118465D01*
X-21468Y118532D01*
X-21575Y118597D01*
X-21684Y118657D01*
X-21796Y118715D01*
X-21908Y118769D01*
X-22023Y118820D01*
X-22139Y118867D01*
X-22256Y118910D01*
X-22375Y118950D01*
X-22495Y118986D01*
X-22616Y119018D01*
X-22738Y119047D01*
X-22860Y119072D01*
X-22984Y119093D01*
X-23108Y119110D01*
X-23232Y119124D01*
X-23357Y119133D01*
X-23482Y119139D01*
X-23607Y119141D01*
D15*
X65839Y190642D02*
X65839Y198008D01*
X61746Y198008D02*
X65839Y193507D01*
X64202Y195143D02*
X61746Y190642D01*
X58302Y190642D02*
X58302Y198008D01*
X59120Y190642D02*
X57483Y190642D01*
X57483Y198008D02*
X59120Y198008D01*
X52882Y190642D02*
X51245Y190642D01*
X52882Y190642D02*
X52960Y190644D01*
X53038Y190649D01*
X53115Y190659D01*
X53192Y190672D01*
X53268Y190688D01*
X53343Y190708D01*
X53417Y190732D01*
X53490Y190759D01*
X53562Y190790D01*
X53632Y190824D01*
X53701Y190861D01*
X53767Y190902D01*
X53832Y190946D01*
X53894Y190992D01*
X53954Y191042D01*
X54012Y191094D01*
X54067Y191149D01*
X54119Y191207D01*
X54169Y191267D01*
X54215Y191329D01*
X54259Y191394D01*
X54300Y191461D01*
X54337Y191529D01*
X54371Y191599D01*
X54402Y191671D01*
X54429Y191744D01*
X54453Y191818D01*
X54473Y191893D01*
X54489Y191969D01*
X54502Y192046D01*
X54512Y192123D01*
X54517Y192201D01*
X54519Y192279D01*
X54519Y196371D01*
X54517Y196449D01*
X54512Y196527D01*
X54502Y196604D01*
X54489Y196681D01*
X54473Y196757D01*
X54453Y196832D01*
X54429Y196906D01*
X54402Y196979D01*
X54371Y197051D01*
X54337Y197121D01*
X54300Y197190D01*
X54259Y197256D01*
X54215Y197321D01*
X54169Y197383D01*
X54119Y197443D01*
X54067Y197501D01*
X54012Y197556D01*
X53954Y197608D01*
X53894Y197658D01*
X53832Y197704D01*
X53767Y197748D01*
X53701Y197789D01*
X53632Y197826D01*
X53562Y197860D01*
X53490Y197891D01*
X53417Y197918D01*
X53343Y197942D01*
X53268Y197962D01*
X53192Y197978D01*
X53115Y197991D01*
X53038Y198001D01*
X52960Y198006D01*
X52882Y198008D01*
X51245Y198008D01*
X48038Y198008D02*
X48038Y190642D01*
X48038Y193507D02*
X43946Y198008D01*
X46402Y195143D02*
X43946Y190642D01*
X40825Y190642D02*
X37551Y190642D01*
X40825Y190642D02*
X40825Y198008D01*
X37551Y198008D01*
X38370Y194734D02*
X40825Y194734D01*
X34450Y198008D02*
X34450Y190642D01*
X34450Y198008D02*
X32404Y198008D01*
X32315Y198006D01*
X32226Y198000D01*
X32137Y197990D01*
X32049Y197977D01*
X31961Y197960D01*
X31874Y197938D01*
X31789Y197913D01*
X31704Y197885D01*
X31621Y197852D01*
X31539Y197816D01*
X31459Y197777D01*
X31381Y197734D01*
X31305Y197688D01*
X31230Y197638D01*
X31158Y197585D01*
X31089Y197529D01*
X31022Y197470D01*
X30957Y197409D01*
X30896Y197344D01*
X30837Y197277D01*
X30781Y197208D01*
X30728Y197136D01*
X30678Y197061D01*
X30632Y196985D01*
X30589Y196907D01*
X30550Y196827D01*
X30514Y196745D01*
X30481Y196662D01*
X30453Y196577D01*
X30428Y196492D01*
X30406Y196405D01*
X30389Y196317D01*
X30376Y196229D01*
X30366Y196140D01*
X30360Y196051D01*
X30358Y195962D01*
X30360Y195873D01*
X30366Y195784D01*
X30376Y195695D01*
X30389Y195607D01*
X30406Y195519D01*
X30428Y195432D01*
X30453Y195347D01*
X30481Y195262D01*
X30514Y195179D01*
X30550Y195097D01*
X30589Y195017D01*
X30632Y194939D01*
X30678Y194863D01*
X30728Y194788D01*
X30781Y194716D01*
X30837Y194647D01*
X30896Y194580D01*
X30957Y194515D01*
X31022Y194454D01*
X31089Y194395D01*
X31158Y194339D01*
X31230Y194286D01*
X31305Y194236D01*
X31381Y194190D01*
X31459Y194147D01*
X31539Y194108D01*
X31621Y194072D01*
X31704Y194039D01*
X31789Y194011D01*
X31874Y193986D01*
X31961Y193964D01*
X32049Y193947D01*
X32137Y193934D01*
X32226Y193924D01*
X32315Y193918D01*
X32404Y193916D01*
X34450Y193916D01*
X31995Y193916D02*
X30358Y190642D01*
X27508Y189824D02*
X24234Y189824D01*
X21074Y190642D02*
X17800Y190642D01*
X21074Y190642D02*
X21074Y198008D01*
X17800Y198008D01*
X18619Y194734D02*
X21074Y194734D01*
X14750Y198008D02*
X14750Y190642D01*
X10658Y190642D02*
X14750Y198008D01*
X10658Y198008D02*
X10658Y190642D01*
X5577Y190642D02*
X3940Y190642D01*
X5577Y190642D02*
X5655Y190644D01*
X5733Y190649D01*
X5810Y190659D01*
X5887Y190672D01*
X5963Y190688D01*
X6038Y190708D01*
X6112Y190732D01*
X6185Y190759D01*
X6257Y190790D01*
X6327Y190824D01*
X6396Y190861D01*
X6462Y190902D01*
X6527Y190946D01*
X6589Y190992D01*
X6649Y191042D01*
X6707Y191094D01*
X6762Y191149D01*
X6814Y191207D01*
X6864Y191267D01*
X6910Y191329D01*
X6954Y191394D01*
X6995Y191461D01*
X7032Y191529D01*
X7066Y191599D01*
X7097Y191671D01*
X7124Y191744D01*
X7148Y191818D01*
X7168Y191893D01*
X7184Y191969D01*
X7197Y192046D01*
X7207Y192123D01*
X7212Y192201D01*
X7214Y192279D01*
X7214Y196371D01*
X7212Y196449D01*
X7207Y196527D01*
X7197Y196604D01*
X7184Y196681D01*
X7168Y196757D01*
X7148Y196832D01*
X7124Y196906D01*
X7097Y196979D01*
X7066Y197051D01*
X7032Y197121D01*
X6995Y197190D01*
X6954Y197256D01*
X6910Y197321D01*
X6864Y197383D01*
X6814Y197443D01*
X6762Y197501D01*
X6707Y197556D01*
X6649Y197608D01*
X6589Y197658D01*
X6527Y197704D01*
X6462Y197748D01*
X6396Y197789D01*
X6327Y197826D01*
X6257Y197860D01*
X6185Y197891D01*
X6112Y197918D01*
X6038Y197942D01*
X5963Y197962D01*
X5887Y197978D01*
X5810Y197991D01*
X5733Y198001D01*
X5655Y198006D01*
X5577Y198008D01*
X3940Y198008D01*
X1095Y195962D02*
X1095Y192688D01*
X1095Y195962D02*
X1093Y196051D01*
X1087Y196140D01*
X1077Y196229D01*
X1064Y196317D01*
X1047Y196405D01*
X1025Y196492D01*
X1000Y196577D01*
X972Y196662D01*
X939Y196745D01*
X903Y196827D01*
X864Y196907D01*
X821Y196985D01*
X775Y197061D01*
X725Y197136D01*
X672Y197208D01*
X616Y197277D01*
X557Y197344D01*
X496Y197409D01*
X431Y197470D01*
X364Y197529D01*
X295Y197585D01*
X223Y197638D01*
X148Y197688D01*
X72Y197734D01*
X-6Y197777D01*
X-86Y197816D01*
X-168Y197852D01*
X-251Y197885D01*
X-336Y197913D01*
X-421Y197938D01*
X-508Y197960D01*
X-596Y197977D01*
X-684Y197990D01*
X-773Y198000D01*
X-862Y198006D01*
X-951Y198008D01*
X-1040Y198006D01*
X-1129Y198000D01*
X-1218Y197990D01*
X-1306Y197977D01*
X-1394Y197960D01*
X-1481Y197938D01*
X-1566Y197913D01*
X-1651Y197885D01*
X-1734Y197852D01*
X-1816Y197816D01*
X-1896Y197777D01*
X-1974Y197734D01*
X-2050Y197688D01*
X-2125Y197638D01*
X-2197Y197585D01*
X-2266Y197529D01*
X-2333Y197470D01*
X-2398Y197409D01*
X-2459Y197344D01*
X-2518Y197277D01*
X-2574Y197208D01*
X-2627Y197136D01*
X-2677Y197061D01*
X-2723Y196985D01*
X-2766Y196907D01*
X-2805Y196827D01*
X-2841Y196745D01*
X-2874Y196662D01*
X-2902Y196577D01*
X-2927Y196492D01*
X-2949Y196405D01*
X-2966Y196317D01*
X-2979Y196229D01*
X-2989Y196140D01*
X-2995Y196051D01*
X-2997Y195962D01*
X-2997Y192688D01*
X-2995Y192599D01*
X-2989Y192510D01*
X-2979Y192421D01*
X-2966Y192333D01*
X-2949Y192245D01*
X-2927Y192158D01*
X-2902Y192073D01*
X-2874Y191988D01*
X-2841Y191905D01*
X-2805Y191823D01*
X-2766Y191743D01*
X-2723Y191665D01*
X-2677Y191589D01*
X-2627Y191514D01*
X-2574Y191442D01*
X-2518Y191373D01*
X-2459Y191306D01*
X-2398Y191241D01*
X-2333Y191180D01*
X-2266Y191121D01*
X-2197Y191065D01*
X-2125Y191012D01*
X-2050Y190962D01*
X-1974Y190916D01*
X-1896Y190873D01*
X-1816Y190834D01*
X-1734Y190798D01*
X-1651Y190765D01*
X-1566Y190737D01*
X-1481Y190712D01*
X-1394Y190690D01*
X-1306Y190673D01*
X-1218Y190660D01*
X-1129Y190650D01*
X-1040Y190644D01*
X-951Y190642D01*
X-862Y190644D01*
X-773Y190650D01*
X-684Y190660D01*
X-596Y190673D01*
X-508Y190690D01*
X-421Y190712D01*
X-336Y190737D01*
X-251Y190765D01*
X-168Y190798D01*
X-86Y190834D01*
X-6Y190873D01*
X72Y190916D01*
X148Y190962D01*
X223Y191012D01*
X295Y191065D01*
X364Y191121D01*
X431Y191180D01*
X496Y191241D01*
X557Y191306D01*
X616Y191373D01*
X672Y191442D01*
X725Y191514D01*
X775Y191589D01*
X821Y191665D01*
X864Y191743D01*
X903Y191823D01*
X939Y191905D01*
X972Y191988D01*
X1000Y192073D01*
X1025Y192158D01*
X1047Y192245D01*
X1064Y192333D01*
X1077Y192421D01*
X1087Y192510D01*
X1093Y192599D01*
X1095Y192688D01*
X-6464Y190642D02*
X-6464Y198008D01*
X-8510Y198008D01*
X-8599Y198006D01*
X-8688Y198000D01*
X-8777Y197990D01*
X-8865Y197977D01*
X-8953Y197960D01*
X-9040Y197938D01*
X-9125Y197913D01*
X-9210Y197885D01*
X-9293Y197852D01*
X-9375Y197816D01*
X-9455Y197777D01*
X-9533Y197734D01*
X-9609Y197688D01*
X-9684Y197638D01*
X-9756Y197585D01*
X-9825Y197529D01*
X-9892Y197470D01*
X-9957Y197409D01*
X-10018Y197344D01*
X-10077Y197277D01*
X-10133Y197208D01*
X-10186Y197136D01*
X-10236Y197061D01*
X-10282Y196985D01*
X-10325Y196907D01*
X-10364Y196827D01*
X-10400Y196745D01*
X-10433Y196662D01*
X-10461Y196577D01*
X-10486Y196492D01*
X-10508Y196405D01*
X-10525Y196317D01*
X-10538Y196229D01*
X-10548Y196140D01*
X-10554Y196051D01*
X-10556Y195962D01*
X-10556Y192688D01*
X-10554Y192599D01*
X-10548Y192510D01*
X-10538Y192421D01*
X-10525Y192333D01*
X-10508Y192245D01*
X-10486Y192158D01*
X-10461Y192073D01*
X-10433Y191988D01*
X-10400Y191905D01*
X-10364Y191823D01*
X-10325Y191743D01*
X-10282Y191665D01*
X-10236Y191589D01*
X-10186Y191514D01*
X-10133Y191442D01*
X-10077Y191373D01*
X-10018Y191306D01*
X-9957Y191241D01*
X-9892Y191180D01*
X-9825Y191121D01*
X-9756Y191065D01*
X-9684Y191012D01*
X-9609Y190962D01*
X-9533Y190916D01*
X-9455Y190873D01*
X-9375Y190834D01*
X-9293Y190798D01*
X-9210Y190765D01*
X-9125Y190737D01*
X-9040Y190712D01*
X-8953Y190690D01*
X-8865Y190673D01*
X-8777Y190660D01*
X-8688Y190650D01*
X-8599Y190644D01*
X-8510Y190642D01*
X-6464Y190642D01*
X-14283Y190642D02*
X-17556Y190642D01*
X-14283Y190642D02*
X-14283Y198008D01*
X-17556Y198008D01*
X-16738Y194734D02*
X-14283Y194734D01*
X-20658Y198008D02*
X-20658Y190642D01*
X-20658Y198008D02*
X-22704Y198008D01*
X-22793Y198006D01*
X-22882Y198000D01*
X-22971Y197990D01*
X-23059Y197977D01*
X-23147Y197960D01*
X-23234Y197938D01*
X-23319Y197913D01*
X-23404Y197885D01*
X-23487Y197852D01*
X-23569Y197816D01*
X-23649Y197777D01*
X-23727Y197734D01*
X-23803Y197688D01*
X-23878Y197638D01*
X-23950Y197585D01*
X-24019Y197529D01*
X-24086Y197470D01*
X-24151Y197409D01*
X-24212Y197344D01*
X-24271Y197277D01*
X-24327Y197208D01*
X-24380Y197136D01*
X-24430Y197061D01*
X-24476Y196985D01*
X-24519Y196907D01*
X-24558Y196827D01*
X-24594Y196745D01*
X-24627Y196662D01*
X-24655Y196577D01*
X-24680Y196492D01*
X-24702Y196405D01*
X-24719Y196317D01*
X-24732Y196229D01*
X-24742Y196140D01*
X-24748Y196051D01*
X-24750Y195962D01*
X-24748Y195873D01*
X-24742Y195784D01*
X-24732Y195695D01*
X-24719Y195607D01*
X-24702Y195519D01*
X-24680Y195432D01*
X-24655Y195347D01*
X-24627Y195262D01*
X-24594Y195179D01*
X-24558Y195097D01*
X-24519Y195017D01*
X-24476Y194939D01*
X-24430Y194863D01*
X-24380Y194788D01*
X-24327Y194716D01*
X-24271Y194647D01*
X-24212Y194580D01*
X-24151Y194515D01*
X-24086Y194454D01*
X-24019Y194395D01*
X-23950Y194339D01*
X-23878Y194286D01*
X-23803Y194236D01*
X-23727Y194190D01*
X-23649Y194147D01*
X-23569Y194108D01*
X-23487Y194072D01*
X-23404Y194039D01*
X-23319Y194011D01*
X-23234Y193986D01*
X-23147Y193964D01*
X-23059Y193947D01*
X-22971Y193934D01*
X-22882Y193924D01*
X-22793Y193918D01*
X-22704Y193916D01*
X-20658Y193916D01*
X-23113Y193916D02*
X-24750Y190642D01*
M02*
