G04 EAGLE Gerber RS-274X export*
G75*
%MOMM*%
%FSLAX34Y34*%
%LPD*%
%INSoldermask Top*%
%IPPOS*%
%AMOC8*
5,1,8,0,0,1.08239X$1,22.5*%
G01*
%ADD10C,3.203200*%
%ADD11P,1.649562X8X22.500000*%
%ADD12C,1.524000*%
%ADD13P,1.649562X8X202.500000*%
%ADD14C,1.727200*%
%ADD15C,2.453200*%
%ADD16R,5.719200X5.719200*%
%ADD17C,3.319200*%
%ADD18C,1.676400*%
%ADD19R,1.700000X2.800000*%
%ADD20C,3.505200*%
%ADD21P,2.034460X8X292.500000*%
%ADD22P,1.649562X8X112.500000*%
%ADD23P,2.034460X8X202.500000*%
%ADD24C,1.524000*%
%ADD25C,2.298700*%
%ADD26C,1.219200*%
%ADD27C,0.959600*%
%ADD28C,3.569200*%


D10*
X-876849Y506254D03*
X-708591Y594581D03*
X708591Y594581D03*
X876849Y506254D03*
X74999Y0D03*
X-74999Y0D03*
X-518179Y-299156D03*
X-876853Y-506246D03*
X-708591Y-594576D03*
X0Y-924998D03*
X708591Y-594576D03*
X876853Y-506246D03*
X518179Y-299156D03*
D11*
X645160Y-63500D03*
D12*
X624840Y-63500D03*
D11*
X645160Y63500D03*
D12*
X624840Y63500D03*
D13*
X-645160Y63500D03*
D12*
X-624840Y63500D03*
D13*
X-645160Y-63500D03*
D12*
X-624840Y-63500D03*
D14*
X525780Y-25400D02*
X541020Y-25400D01*
X541020Y0D02*
X525780Y0D01*
X525780Y25400D02*
X541020Y25400D01*
X-525780Y25400D02*
X-541020Y25400D01*
X-541020Y0D02*
X-525780Y0D01*
X-525780Y-25400D02*
X-541020Y-25400D01*
D15*
X106100Y255450D02*
X106100Y277950D01*
X351100Y277950D02*
X351100Y255450D01*
D16*
X269800Y139700D03*
X339800Y139700D03*
D17*
X452220Y-374600D02*
X483380Y-374600D01*
X483380Y-421600D02*
X452220Y-421600D01*
D14*
X-254000Y17780D02*
X-254000Y33020D01*
X-279400Y33020D02*
X-279400Y17780D01*
X-304800Y17780D02*
X-304800Y33020D01*
X-330200Y33020D02*
X-330200Y17780D01*
X177800Y144780D02*
X177800Y160020D01*
X152400Y160020D02*
X152400Y144780D01*
X127000Y144780D02*
X127000Y160020D01*
X101600Y160020D02*
X101600Y144780D01*
X-153670Y-349260D02*
X-168910Y-349260D01*
X-168910Y-323860D02*
X-153670Y-323860D01*
X-153670Y-298460D02*
X-168910Y-298460D01*
X-168910Y-273060D02*
X-153670Y-273060D01*
X-153670Y-247660D02*
X-168910Y-247660D01*
X-168910Y-222260D02*
X-153670Y-222260D01*
X-153670Y-196860D02*
X-168910Y-196860D01*
X-168910Y-171460D02*
X-153670Y-171460D01*
X153670Y-349260D02*
X168910Y-349260D01*
X168910Y-323860D02*
X153670Y-323860D01*
X153670Y-298460D02*
X168910Y-298460D01*
X168910Y-273060D02*
X153670Y-273060D01*
X153670Y-247660D02*
X168910Y-247660D01*
X168910Y-222260D02*
X153670Y-222260D01*
X153670Y-196860D02*
X168910Y-196860D01*
X168910Y-171460D02*
X153670Y-171460D01*
D18*
X-571500Y241300D03*
X-546100Y241300D03*
X-520700Y241300D03*
X-495300Y241300D03*
X-469900Y241300D03*
X-444500Y241300D03*
X-419100Y241300D03*
X-393700Y241300D03*
X-368300Y241300D03*
X-342900Y241300D03*
X-317500Y241300D03*
X-292100Y241300D03*
X-266700Y241300D03*
X-241300Y241300D03*
X-190500Y241300D03*
X-165100Y241300D03*
X-139700Y241300D03*
X-114300Y241300D03*
X-114300Y368300D03*
X-241300Y393700D03*
X-266700Y393700D03*
X-292100Y393700D03*
X-317500Y393700D03*
X-342900Y393700D03*
X-368300Y393700D03*
X-393700Y393700D03*
X-419100Y393700D03*
X-444500Y393700D03*
X-469900Y393700D03*
X-495300Y393700D03*
X-520700Y393700D03*
X-546100Y393700D03*
X-571500Y393700D03*
X-546100Y368300D03*
X-495300Y368300D03*
X-469900Y368300D03*
X-444500Y368300D03*
X-406400Y273050D03*
X-215900Y241300D03*
X-457200Y273050D03*
X-508000Y273050D03*
X-431800Y273050D03*
X-482600Y273050D03*
X-114300Y266700D03*
X-114300Y393700D03*
X-139700Y393700D03*
X-165100Y393700D03*
X-190500Y393700D03*
X-215900Y393700D03*
X-114300Y292100D03*
X-114300Y317500D03*
X-114300Y342900D03*
X-88900Y241300D03*
X-63500Y241300D03*
X-38100Y241300D03*
X-12700Y241300D03*
X12700Y241300D03*
X12700Y393700D03*
X-88900Y393700D03*
X-63500Y393700D03*
X-38100Y393700D03*
X-12700Y393700D03*
D19*
X-150100Y457200D03*
X-180100Y457200D03*
D13*
X25400Y457200D03*
X-76200Y457200D03*
D14*
X-292100Y-55880D02*
X-292100Y-71120D01*
X-317500Y-71120D02*
X-317500Y-55880D01*
X-342900Y-55880D02*
X-342900Y-71120D01*
X-266700Y-71120D02*
X-266700Y-55880D01*
X-241300Y-55880D02*
X-241300Y-71120D01*
X461680Y304800D02*
X476920Y304800D01*
X476920Y330200D02*
X461680Y330200D01*
X461680Y355600D02*
X476920Y355600D01*
X476920Y381000D02*
X461680Y381000D01*
D20*
X482000Y457200D03*
X482000Y228600D03*
D21*
X-419100Y-271780D03*
X-419100Y-363220D03*
X-457200Y-271780D03*
X-457200Y-363220D03*
X-419100Y-398780D03*
X-419100Y-490220D03*
X-457200Y-398780D03*
X-457200Y-490220D03*
D14*
X-370332Y-294894D02*
X-355092Y-294894D01*
X-355092Y-340106D02*
X-370332Y-340106D01*
X-305308Y-294894D02*
X-290068Y-294894D01*
X-290068Y-340106D02*
X-305308Y-340106D01*
X-355092Y-371094D02*
X-370332Y-371094D01*
X-370332Y-416306D02*
X-355092Y-416306D01*
X-305308Y-371094D02*
X-290068Y-371094D01*
X-290068Y-416306D02*
X-305308Y-416306D01*
X-355092Y-447294D02*
X-370332Y-447294D01*
X-370332Y-492506D02*
X-355092Y-492506D01*
X-305308Y-447294D02*
X-290068Y-447294D01*
X-290068Y-492506D02*
X-305308Y-492506D01*
X-355092Y-523494D02*
X-370332Y-523494D01*
X-370332Y-568706D02*
X-355092Y-568706D01*
X-305308Y-523494D02*
X-290068Y-523494D01*
X-290068Y-568706D02*
X-305308Y-568706D01*
D19*
X581900Y-228600D03*
X611900Y-228600D03*
D22*
X469900Y-304800D03*
X469900Y-203200D03*
D19*
X-581900Y-228600D03*
X-611900Y-228600D03*
D11*
X-508000Y-228600D03*
X-406400Y-228600D03*
D14*
X-304800Y-185420D02*
X-304800Y-170180D01*
X-279400Y-170180D02*
X-279400Y-185420D01*
X-101600Y144780D02*
X-101600Y160020D01*
X-127000Y160020D02*
X-127000Y144780D01*
X-152400Y144780D02*
X-152400Y160020D01*
X-177800Y160020D02*
X-177800Y144780D01*
D23*
X-246380Y177800D03*
X-337820Y177800D03*
X-246380Y127000D03*
X-337820Y127000D03*
D14*
X-12700Y144780D02*
X-12700Y160020D01*
X12700Y160020D02*
X12700Y144780D01*
D23*
X-259080Y457200D03*
X-350520Y457200D03*
D14*
X-469392Y492506D02*
X-484632Y492506D01*
X-484632Y447294D02*
X-469392Y447294D01*
X-419608Y492506D02*
X-404368Y492506D01*
X-404368Y447294D02*
X-419608Y447294D01*
D24*
X348996Y368300D02*
X362204Y368300D01*
X286004Y368300D02*
X272796Y368300D01*
X348996Y431800D02*
X362204Y431800D01*
X286004Y431800D02*
X272796Y431800D01*
D25*
X-375000Y120000D03*
D26*
X70000Y185000D03*
X-295000Y-225000D03*
X175000Y-60000D03*
X435000Y-270000D03*
D27*
X-380000Y190000D03*
X-40000Y165000D03*
D28*
X498000Y-136500D03*
X498000Y136500D03*
X-498000Y136500D03*
X-498000Y-136500D03*
D25*
X-50000Y100000D03*
X-455000Y-185000D03*
M02*
