G04 EAGLE Gerber RS-274X export*
G75*
%MOMM*%
%FSLAX34Y34*%
%LPD*%
%INBottom Copper*%
%IPPOS*%
%AMOC8*
5,1,8,0,0,1.08239X$1,22.5*%
G01*
%ADD10P,1.429621X8X22.500000*%
%ADD11C,1.320800*%
%ADD12P,1.429621X8X202.500000*%
%ADD13P,1.429621X8X292.500000*%
%ADD14P,1.429621X8X112.500000*%
%ADD15C,1.320800*%
%ADD16C,1.524000*%
%ADD17P,1.429621X8X157.500000*%
%ADD18P,1.429621X8X172.500000*%
%ADD19P,1.429621X8X187.500000*%
%ADD20P,1.429621X8X217.500000*%
%ADD21P,1.429621X8X232.500000*%
%ADD22P,1.429621X8X247.500000*%
%ADD23P,1.429621X8X262.500000*%
%ADD24P,1.429621X8X277.500000*%
%ADD25P,1.429621X8X37.500000*%
%ADD26P,1.429621X8X307.500000*%
%ADD27P,1.429621X8X322.500000*%
%ADD28P,1.429621X8X337.500000*%
%ADD29P,1.429621X8X352.500000*%
%ADD30P,1.429621X8X367.500000*%
%ADD31P,1.429621X8X52.500000*%
%ADD32P,1.429621X8X67.500000*%
%ADD33P,1.429621X8X82.500000*%
%ADD34P,1.429621X8X97.500000*%
%ADD35P,1.429621X8X127.500000*%
%ADD36P,1.429621X8X142.500000*%
%ADD37C,1.575000*%
%ADD38C,1.879600*%
%ADD39C,0.508000*%
%ADD40C,1.016000*%
%ADD41C,0.152400*%
%ADD42C,0.756400*%


D10*
X-66040Y-939800D03*
D11*
X-86360Y-939800D03*
D10*
X607060Y622300D03*
D11*
X586740Y622300D03*
D10*
X429260Y520700D03*
D11*
X408940Y520700D03*
D10*
X276860Y419100D03*
D11*
X256540Y419100D03*
D10*
X99060Y495300D03*
D11*
X78740Y495300D03*
D10*
X-256540Y419100D03*
D11*
X-276860Y419100D03*
D10*
X-408940Y520700D03*
D11*
X-429260Y520700D03*
D10*
X-586740Y622300D03*
D11*
X-607060Y622300D03*
D10*
X-802640Y571500D03*
D11*
X-822960Y571500D03*
D10*
X-916940Y342900D03*
D11*
X-937260Y342900D03*
D12*
X-949960Y-63500D03*
D11*
X-929640Y-63500D03*
D10*
X353060Y-927100D03*
D11*
X332740Y-927100D03*
D10*
X-967740Y-177800D03*
D11*
X-988060Y-177800D03*
D10*
X-891540Y-419100D03*
D11*
X-911860Y-419100D03*
D10*
X-764540Y-635000D03*
D11*
X-784860Y-635000D03*
D10*
X-561340Y-812800D03*
D11*
X-581660Y-812800D03*
D12*
X-353060Y-927100D03*
D11*
X-332740Y-927100D03*
D10*
X63500Y-279400D03*
X114300Y-279400D03*
X63500Y-330200D03*
X114300Y-330200D03*
D12*
X76200Y-165100D03*
X25400Y-165100D03*
D10*
X-76200Y-165100D03*
X-25400Y-165100D03*
D12*
X-63500Y-330200D03*
X-114300Y-330200D03*
D10*
X581660Y-812800D03*
D11*
X561340Y-812800D03*
D12*
X-63500Y-279400D03*
X-114300Y-279400D03*
D13*
X266700Y-165100D03*
X266700Y-215900D03*
D12*
X152400Y368300D03*
X101600Y368300D03*
D13*
X-419100Y-254000D03*
X-419100Y-304800D03*
X203200Y-165100D03*
X203200Y-215900D03*
X139700Y-165100D03*
X139700Y-215900D03*
D12*
X152400Y317500D03*
X101600Y317500D03*
X764540Y-635000D03*
D11*
X784860Y-635000D03*
D12*
X152400Y266700D03*
X101600Y266700D03*
D14*
X-203200Y-215900D03*
X-203200Y-165100D03*
X-139700Y-215900D03*
X-139700Y-165100D03*
D12*
X891540Y-419100D03*
D11*
X911860Y-419100D03*
D12*
X967740Y-177800D03*
D11*
X988060Y-177800D03*
D10*
X949960Y-63500D03*
D11*
X929640Y-63500D03*
D12*
X916940Y342900D03*
D11*
X937260Y342900D03*
D12*
X802640Y571500D03*
D11*
X822960Y571500D03*
D15*
X400304Y-406400D02*
X387096Y-406400D01*
X463296Y-406400D02*
X476504Y-406400D01*
X127000Y209296D02*
X127000Y222504D01*
X127000Y146304D02*
X127000Y133096D01*
X-387096Y-355600D02*
X-400304Y-355600D01*
X-463296Y-355600D02*
X-476504Y-355600D01*
D16*
X584200Y-7620D02*
X584200Y7620D01*
X558800Y7620D02*
X558800Y-7620D01*
X533400Y-7620D02*
X533400Y7620D01*
X508000Y7620D02*
X508000Y-7620D01*
X-508000Y-7620D02*
X-508000Y7620D01*
X-533400Y7620D02*
X-533400Y-7620D01*
X-558800Y-7620D02*
X-558800Y7620D01*
X-584200Y7620D02*
X-584200Y-7620D01*
D12*
X139700Y-942300D03*
X38100Y-942300D03*
D17*
X707672Y635830D03*
X635830Y707672D03*
D18*
X518994Y556024D03*
X431006Y606824D03*
D19*
X294947Y472682D03*
X196809Y498978D03*
D12*
X50800Y454700D03*
X-50800Y454700D03*
D20*
X-196809Y498978D03*
X-294947Y472682D03*
D21*
X-431006Y606824D03*
X-518994Y556024D03*
D22*
X-635830Y707672D03*
X-707672Y635830D03*
D23*
X-797324Y518994D03*
X-848124Y431006D03*
D24*
X-904482Y294947D03*
X-930778Y196809D03*
D10*
X-990600Y66000D03*
X-889000Y66000D03*
D25*
X196809Y-930778D03*
X294947Y-904482D03*
D26*
X-930778Y-196809D03*
X-904482Y-294947D03*
D27*
X-848124Y-431006D03*
X-797324Y-518994D03*
D28*
X-707672Y-635830D03*
X-635830Y-707672D03*
D29*
X-518994Y-797324D03*
X-431006Y-848124D03*
D30*
X-294947Y-904482D03*
X-196809Y-930778D03*
D12*
X358100Y-482600D03*
X256500Y-482600D03*
X76200Y241300D03*
X-25400Y241300D03*
D10*
X-355600Y-482600D03*
X-254000Y-482600D03*
D12*
X419100Y-215900D03*
X317500Y-215900D03*
D13*
X-127000Y469900D03*
X-127000Y368300D03*
D31*
X431006Y-848124D03*
X518994Y-797324D03*
D10*
X-419100Y-215900D03*
X-317500Y-215900D03*
D32*
X635830Y-707672D03*
X707672Y-635830D03*
D33*
X797324Y-518994D03*
X848124Y-431006D03*
D34*
X904482Y-294947D03*
X930778Y-196809D03*
D12*
X990600Y61000D03*
X889000Y61000D03*
D35*
X930778Y196809D03*
X904482Y294947D03*
D36*
X848124Y431006D03*
X797324Y518994D03*
D37*
X-25400Y-982225D02*
X-25400Y-997975D01*
X0Y-997975D02*
X0Y-982225D01*
X25400Y-982225D02*
X25400Y-997975D01*
X712499Y676577D02*
X723635Y687714D01*
X705675Y705675D02*
X694538Y694538D01*
X676578Y712498D02*
X687714Y723635D01*
X520985Y610272D02*
X513110Y596632D01*
X491113Y609332D02*
X498988Y622972D01*
X476990Y635672D02*
X469115Y622032D01*
X282829Y525596D02*
X278753Y510382D01*
X254219Y516956D02*
X258295Y532170D01*
X233760Y538744D02*
X229684Y523530D01*
X25400Y502675D02*
X25400Y486925D01*
X0Y486925D02*
X0Y502675D01*
X-25400Y502675D02*
X-25400Y486925D01*
X-229684Y523530D02*
X-233760Y538744D01*
X-258295Y532170D02*
X-254219Y516956D01*
X-278753Y510382D02*
X-282829Y525596D01*
X-469116Y622032D02*
X-476990Y635672D01*
X-498987Y622972D02*
X-491113Y609332D01*
X-513110Y596632D02*
X-520985Y610272D01*
X-676578Y712498D02*
X-687714Y723635D01*
X-705675Y705675D02*
X-694538Y694538D01*
X-712499Y676577D02*
X-723635Y687714D01*
X-837932Y513110D02*
X-851572Y520985D01*
X-864272Y498987D02*
X-850632Y491113D01*
X-863332Y469115D02*
X-876972Y476990D01*
X-942183Y278753D02*
X-957396Y282829D01*
X-963970Y258295D02*
X-948757Y254219D01*
X-955331Y229684D02*
X-970544Y233760D01*
X-982225Y25400D02*
X-997975Y25400D01*
X-997975Y0D02*
X-982225Y0D01*
X-982225Y-25400D02*
X-997975Y-25400D01*
X229684Y-955330D02*
X233760Y-970544D01*
X258295Y-963970D02*
X254219Y-948756D01*
X278753Y-942182D02*
X282829Y-957396D01*
X-955331Y-229684D02*
X-970544Y-233760D01*
X-963970Y-258295D02*
X-948757Y-254219D01*
X-942183Y-278753D02*
X-957396Y-282829D01*
X-863332Y-469115D02*
X-876972Y-476990D01*
X-864272Y-498988D02*
X-850632Y-491113D01*
X-837932Y-513110D02*
X-851572Y-520985D01*
X-712499Y-676577D02*
X-723635Y-687714D01*
X-705675Y-705675D02*
X-694538Y-694538D01*
X-676578Y-712498D02*
X-687714Y-723635D01*
X-513110Y-837932D02*
X-520985Y-851572D01*
X-498988Y-864272D02*
X-491113Y-850632D01*
X-469115Y-863332D02*
X-476990Y-876972D01*
X-278753Y-942182D02*
X-282829Y-957396D01*
X-258295Y-963970D02*
X-254219Y-948756D01*
X-229684Y-955330D02*
X-233760Y-970544D01*
X469115Y-863332D02*
X476990Y-876972D01*
X498988Y-864272D02*
X491113Y-850632D01*
X513110Y-837932D02*
X520985Y-851572D01*
X676578Y-712498D02*
X687714Y-723635D01*
X705675Y-705675D02*
X694538Y-694538D01*
X712499Y-676577D02*
X723635Y-687714D01*
X837932Y-513110D02*
X851572Y-520985D01*
X864272Y-498988D02*
X850632Y-491113D01*
X863332Y-469115D02*
X876972Y-476990D01*
X942183Y-278753D02*
X957396Y-282829D01*
X963970Y-258295D02*
X948757Y-254219D01*
X955331Y-229684D02*
X970544Y-233760D01*
X982225Y-25400D02*
X997975Y-25400D01*
X997975Y0D02*
X982225Y0D01*
X982225Y25400D02*
X997975Y25400D01*
X955331Y229684D02*
X970544Y233760D01*
X963970Y258295D02*
X948757Y254219D01*
X942183Y278753D02*
X957396Y282829D01*
X863332Y469115D02*
X876972Y476990D01*
X864272Y498987D02*
X850632Y491113D01*
X837932Y513110D02*
X851572Y520985D01*
D11*
X177800Y-280670D03*
X177800Y-328930D03*
X24130Y-241300D03*
X-24130Y-241300D03*
X-177800Y-328930D03*
X-177800Y-280670D03*
D38*
X127000Y-787400D03*
X152400Y-787400D03*
X127000Y-812800D03*
X152400Y-812800D03*
X127000Y-838200D03*
X152400Y-838200D03*
X-114300Y279400D03*
X-88900Y279400D03*
X-114300Y254000D03*
X-88900Y254000D03*
X-114300Y228600D03*
X-88900Y228600D03*
X-127000Y-838200D03*
X-152400Y-838200D03*
X-127000Y-812800D03*
X-152400Y-812800D03*
X-127000Y-787400D03*
X-152400Y-787400D03*
D39*
X152400Y-838200D02*
X152400Y-852678D01*
X256032Y-956310D01*
X256257Y-956363D01*
X967740Y-198120D02*
X967740Y-177800D01*
X967740Y-198120D02*
X941832Y-224028D01*
X941832Y-241554D01*
X956310Y-256032D01*
X956363Y-256257D01*
X966216Y-176022D02*
X966216Y-80010D01*
X950214Y-64008D01*
X966216Y-176022D02*
X967740Y-177800D01*
X950214Y-64008D02*
X949960Y-63500D01*
X891540Y-419100D02*
X891540Y-421386D01*
X849630Y-463296D01*
X849630Y-486918D01*
X857250Y-494538D01*
X857452Y-495050D01*
X847344Y-487680D02*
X844296Y-487680D01*
X806958Y-525018D01*
X806958Y-592836D01*
X765048Y-634746D01*
X857452Y-495050D02*
X847344Y-487680D01*
X765048Y-634746D02*
X764540Y-635000D01*
X916686Y-284988D02*
X949452Y-252222D01*
X916686Y-284988D02*
X916686Y-392430D01*
X892302Y-416814D01*
X956363Y-256257D02*
X949452Y-252222D01*
X892302Y-416814D02*
X891540Y-419100D01*
X386334Y-926592D02*
X353568Y-926592D01*
X386334Y-926592D02*
X463296Y-849630D01*
X486918Y-849630D01*
X494538Y-857250D01*
X353568Y-926592D02*
X353060Y-927100D01*
X494538Y-857250D02*
X495050Y-857452D01*
X-152400Y-792480D02*
X-152400Y-787400D01*
X-152400Y-792480D02*
X-166878Y-806958D01*
X-166878Y-843534D01*
X-154686Y-855726D02*
X-82296Y-928116D01*
X-154686Y-855726D02*
X-166878Y-843534D01*
X-82296Y-928116D02*
X-77724Y-928116D01*
X-66040Y-939800D01*
X-482346Y-857250D02*
X-494538Y-857250D01*
X-482346Y-857250D02*
X-474726Y-849630D01*
X-446532Y-849630D01*
X-369570Y-926592D01*
X-353568Y-926592D01*
X-494538Y-857250D02*
X-495050Y-857452D01*
X-353568Y-926592D02*
X-353060Y-927100D01*
X-256032Y-957072D02*
X-154686Y-855726D01*
X-256257Y-956363D02*
X-256032Y-957072D01*
X-944880Y-256794D02*
X-956310Y-256794D01*
X-944880Y-256794D02*
X-916686Y-284988D01*
X-916686Y-393954D01*
X-891540Y-419100D01*
X-956310Y-256794D02*
X-956363Y-256257D01*
X-561594Y-809244D02*
X-561594Y-812292D01*
X-561594Y-809244D02*
X-671322Y-699516D01*
X-699516Y-699516D01*
X-561594Y-812292D02*
X-561340Y-812800D01*
X-699516Y-699516D02*
X-700106Y-700106D01*
X-419100Y-253746D02*
X-355092Y-253746D01*
X-324612Y-223266D02*
X-317754Y-216408D01*
X-324612Y-223266D02*
X-355092Y-253746D01*
X-419100Y-253746D02*
X-419100Y-254000D01*
X-317754Y-216408D02*
X-317500Y-215900D01*
X-307086Y-282702D02*
X-307086Y-290322D01*
X-307086Y-282702D02*
X-290322Y-265938D01*
X-290322Y-257556D01*
X-293370Y-254508D02*
X-324612Y-223266D01*
X-293370Y-254508D02*
X-290322Y-257556D01*
X-64008Y-278892D02*
X-64008Y-177546D01*
X-76200Y-165354D01*
X-64008Y-278892D02*
X-63500Y-279400D01*
X-76200Y-165354D02*
X-76200Y-165100D01*
X63246Y-279654D02*
X63246Y-329946D01*
X63500Y-330200D01*
X63246Y-279654D02*
X63500Y-279400D01*
X76200Y-165354D02*
X89154Y-165354D01*
X133731Y-209931D02*
X139700Y-215900D01*
X133731Y-209931D02*
X89154Y-165354D01*
X76200Y-165354D02*
X76200Y-165100D01*
X133731Y-209931D02*
X65532Y-278130D01*
X63500Y-279400D01*
X60960Y-278892D02*
X-61722Y-278892D01*
X-63500Y-279400D01*
X60960Y-278892D02*
X63500Y-279400D01*
X329946Y-305562D02*
X329946Y-228600D01*
X317754Y-216408D01*
X317500Y-215900D01*
X332232Y-361950D02*
X332232Y-393954D01*
X332232Y-361950D02*
X320040Y-349758D01*
X320040Y-316992D01*
X329184Y-307848D01*
X329946Y-305562D01*
X-203454Y-164592D02*
X-293370Y-254508D01*
X-203200Y-165100D02*
X-203454Y-164592D01*
X-256794Y496824D02*
X-256794Y524256D01*
X-256794Y496824D02*
X-256794Y419100D01*
X-256540Y419100D01*
X-256794Y524256D02*
X-256257Y524563D01*
X-94488Y228600D02*
X-88900Y228600D01*
X-94488Y228600D02*
X-108966Y214122D01*
X-119634Y214122D01*
X-131826Y226314D01*
X-131826Y363474D01*
X-127000Y368300D01*
X-409194Y521208D02*
X-409194Y530352D01*
X-494538Y615696D01*
X-409194Y521208D02*
X-408940Y520700D01*
X-494538Y615696D02*
X-495050Y616152D01*
X-663702Y699516D02*
X-699516Y699516D01*
X-663702Y699516D02*
X-586740Y622554D01*
X-699516Y699516D02*
X-700106Y700106D01*
X-586740Y622554D02*
X-586740Y622300D01*
X-799338Y571500D02*
X-802640Y571500D01*
X-799338Y571500D02*
X-699516Y671322D01*
X-699516Y697230D01*
X-700106Y700106D01*
X-384810Y496824D02*
X-256794Y496824D01*
X-384810Y496824D02*
X-406908Y518922D01*
X-408940Y520700D01*
X917448Y342900D02*
X917448Y284226D01*
X944880Y256794D01*
X956310Y256794D01*
X917448Y342900D02*
X916940Y342900D01*
X956310Y256794D02*
X956363Y256257D01*
X803148Y530352D02*
X803148Y571500D01*
X803148Y530352D02*
X827532Y505968D01*
X827532Y504444D01*
X836676Y495300D01*
X857250Y495300D01*
X803148Y571500D02*
X802640Y571500D01*
X857250Y495300D02*
X857452Y495050D01*
X915924Y397002D02*
X915924Y345186D01*
X915924Y397002D02*
X849630Y463296D01*
X849630Y493014D01*
X915924Y345186D02*
X916940Y342900D01*
X857452Y495050D02*
X849630Y493014D01*
X429768Y539496D02*
X429768Y550926D01*
X429768Y539496D02*
X429768Y521208D01*
X429768Y550926D02*
X494538Y615696D01*
X429768Y521208D02*
X429260Y520700D01*
X494538Y615696D02*
X495050Y616152D01*
X602742Y622554D02*
X606552Y622554D01*
X602742Y622554D02*
X591312Y633984D01*
X515112Y633984D01*
X497586Y616458D01*
X606552Y622554D02*
X607060Y622300D01*
X497586Y616458D02*
X495050Y616152D01*
X684276Y699516D02*
X699516Y699516D01*
X684276Y699516D02*
X607060Y622300D01*
X699516Y699516D02*
X700106Y700106D01*
X276606Y493014D02*
X276606Y419100D01*
X276606Y493014D02*
X256794Y512826D01*
X256794Y524256D01*
X276606Y419100D02*
X276860Y419100D01*
X256794Y524256D02*
X256257Y524563D01*
X99060Y495300D02*
X95250Y495300D01*
X74676Y515874D01*
X20574Y515874D01*
X0Y495300D01*
X0Y494800D01*
X99822Y493014D02*
X99822Y421386D01*
X152400Y368808D01*
X99822Y493014D02*
X99060Y495300D01*
X152400Y368808D02*
X152400Y368300D01*
X272034Y418338D02*
X274320Y418338D01*
X272034Y418338D02*
X226314Y372618D01*
X157734Y372618D01*
X154686Y369570D01*
X274320Y418338D02*
X276860Y419100D01*
X154686Y369570D02*
X152400Y368300D01*
X273558Y539496D02*
X429768Y539496D01*
X273558Y539496D02*
X259080Y525018D01*
X256257Y524563D01*
X797814Y573024D02*
X800862Y573024D01*
X797814Y573024D02*
X699516Y671322D01*
X699516Y697230D01*
X800862Y573024D02*
X802640Y571500D01*
X699516Y697230D02*
X700106Y700106D01*
X943356Y46482D02*
X989838Y0D01*
X943356Y46482D02*
X943356Y225552D01*
X941832Y227076D01*
X941832Y252222D01*
X944118Y254508D01*
X989838Y0D02*
X990100Y0D01*
X956363Y256257D02*
X944118Y254508D01*
D40*
X-307086Y-290322D03*
X329946Y-305562D03*
X332232Y-393954D03*
D41*
X-22860Y-989838D02*
X-25146Y-989838D01*
X-22860Y-989838D02*
X3810Y-963168D01*
X231648Y-963168D01*
X-25146Y-989838D02*
X-25400Y-990100D01*
X231648Y-963168D02*
X231722Y-962937D01*
X950214Y-280416D02*
X958596Y-280416D01*
X981456Y-257556D01*
X981456Y-184404D01*
X979170Y-182118D01*
X979170Y-36576D01*
X989838Y-25908D01*
X950214Y-280416D02*
X949789Y-280791D01*
X989838Y-25908D02*
X990100Y-25400D01*
X963168Y74676D02*
X963168Y231648D01*
X963168Y74676D02*
X1008888Y28956D01*
X1008888Y-6858D01*
X990600Y-25146D01*
X963168Y231648D02*
X962937Y231722D01*
X990600Y-25146D02*
X990100Y-25400D01*
X388620Y-228600D02*
X348234Y-268986D01*
X388620Y-228600D02*
X392430Y-228600D01*
X582930Y-302514D02*
X582930Y-311658D01*
X679704Y-408432D01*
X736092Y-408432D01*
X823722Y-496062D01*
X949452Y-421386D02*
X949452Y-281178D01*
X949452Y-421386D02*
X876300Y-494538D01*
X876300Y-503682D01*
X863346Y-516636D01*
X845058Y-516636D01*
X949452Y-281178D02*
X949789Y-280791D01*
X845058Y-516636D02*
X844752Y-517047D01*
X714756Y-717804D02*
X682752Y-717804D01*
X714756Y-717804D02*
X844296Y-588264D01*
X844296Y-517398D01*
X682752Y-717804D02*
X682146Y-718067D01*
X844296Y-517398D02*
X844752Y-517047D01*
D42*
X348234Y-268986D03*
X392430Y-228600D03*
X582930Y-302514D03*
X823722Y-496062D03*
D41*
X-848106Y431292D02*
X-848106Y440436D01*
X-822960Y465582D01*
X-822960Y571500D01*
X-848106Y431292D02*
X-848124Y431006D01*
X-163068Y-359664D02*
X136398Y-359664D01*
X-163068Y-359664D02*
X-195834Y-392430D01*
X-203454Y-392430D01*
D42*
X136398Y-359664D03*
X-203454Y-392430D03*
D41*
X636270Y-707136D02*
X666750Y-707136D01*
X691134Y-682752D01*
X717804Y-682752D01*
X636270Y-707136D02*
X635830Y-707672D01*
X717804Y-682752D02*
X718067Y-682146D01*
X374142Y-391668D02*
X328422Y-345948D01*
X477774Y-391668D02*
X477774Y-105918D01*
X518922Y-64770D01*
X518922Y-23622D01*
D42*
X328422Y-345948D03*
X374142Y-391668D03*
X477774Y-391668D03*
X518922Y-23622D03*
D41*
X498348Y-355854D02*
X498348Y-357378D01*
X498348Y-355854D02*
X544830Y-309372D01*
X544830Y378714D01*
X513588Y409956D01*
X513588Y444246D01*
X602742Y533400D01*
X642366Y533400D01*
X898398Y277368D01*
X898398Y-164592D01*
X930402Y-196596D01*
X930778Y-196809D01*
D42*
X498348Y-357378D03*
D41*
X54102Y371094D02*
X54102Y408432D01*
D42*
X54102Y371094D03*
X54102Y408432D03*
D41*
X36576Y355092D02*
X762Y355092D01*
X-201930Y557784D01*
X-420624Y557784D01*
X-487680Y624840D01*
X-487680Y627888D01*
X-494538Y634746D01*
X-560832Y634746D01*
X-582930Y612648D01*
X-597408Y612648D01*
X-607060Y622300D01*
D42*
X36576Y355092D03*
D41*
X281178Y517398D02*
X399288Y517398D01*
X405384Y511302D01*
X433578Y511302D01*
X516636Y594360D01*
X516636Y602742D01*
X281178Y517398D02*
X280791Y517989D01*
X516636Y602742D02*
X517047Y603452D01*
X13716Y323088D02*
X13716Y313944D01*
X13716Y323088D02*
X42672Y352044D01*
X42672Y449580D01*
X25908Y466344D01*
X25908Y494538D01*
X25400Y494800D01*
D42*
X13716Y313944D03*
D41*
X363474Y-262890D02*
X367284Y-262890D01*
X399288Y-230886D01*
X399288Y-222504D01*
D42*
X363474Y-262890D03*
X399288Y-222504D03*
D41*
X-298704Y-262128D02*
X-309372Y-262128D01*
X-326898Y-279654D01*
X-381000Y-279654D01*
X-430530Y-329184D01*
X-432054Y-329184D01*
X-704850Y-477774D02*
X-356616Y-826008D01*
X19812Y-942594D02*
X38100Y-942594D01*
X19812Y-942594D02*
X11430Y-950976D01*
X-75438Y-950976D01*
X-86106Y-940308D01*
X38100Y-942300D02*
X38100Y-942594D01*
X-86106Y-940308D02*
X-86360Y-939800D01*
D42*
X-298704Y-262128D03*
X-432054Y-329184D03*
X-704850Y-477774D03*
X-356616Y-826008D03*
D41*
X227076Y-516636D02*
X251460Y-541020D01*
X251460Y-578358D01*
X201930Y-627888D01*
X201930Y-723900D01*
X181356Y-744474D01*
X209550Y-818388D02*
X294894Y-903732D01*
X294947Y-904482D01*
D42*
X227076Y-516636D03*
X181356Y-744474D03*
X209550Y-818388D03*
D41*
X-499110Y-108966D02*
X-499110Y-107442D01*
X-595122Y-11430D01*
X-595122Y293370D01*
X-513588Y374904D01*
X-513588Y444246D01*
X-602742Y533400D01*
X-731520Y533400D01*
X-912114Y352806D01*
X-927354Y352806D01*
X-937260Y342900D01*
X-931164Y337566D02*
X-931164Y197358D01*
X-931164Y337566D02*
X-936498Y342900D01*
X-931164Y197358D02*
X-930778Y196809D01*
X-936498Y342900D02*
X-937260Y342900D01*
D42*
X-499110Y-108966D03*
D41*
X-379476Y-285750D02*
X-364236Y-285750D01*
X-379476Y-285750D02*
X-458724Y-364998D01*
X-553974Y-364998D01*
X-564642Y-354330D01*
X-641604Y-354330D01*
X-681228Y-393954D01*
X-731520Y-393954D01*
X-920496Y-204978D01*
X-920496Y-73152D01*
X-929640Y-64008D01*
X-929640Y-63500D01*
D42*
X-364236Y-285750D03*
D41*
X-382524Y-297942D02*
X-333756Y-297942D01*
X-382524Y-297942D02*
X-430530Y-345948D01*
X-987552Y-181356D02*
X-987552Y-178308D01*
X-987552Y-181356D02*
X-904494Y-264414D01*
X-904494Y-294894D01*
X-987552Y-178308D02*
X-988060Y-177800D01*
X-904494Y-294894D02*
X-904482Y-294947D01*
D42*
X-333756Y-297942D03*
X-430530Y-345948D03*
D41*
X-359664Y-341376D02*
X-359664Y-304800D01*
X-359664Y-341376D02*
X-367284Y-348996D01*
X-905256Y-419100D02*
X-911860Y-419100D01*
X-905256Y-419100D02*
X-866394Y-457962D01*
X-858774Y-457962D01*
X-797814Y-518922D01*
X-797324Y-518994D01*
D42*
X-359664Y-304800D03*
X-367284Y-348996D03*
D41*
X-323088Y-313182D02*
X-301752Y-313182D01*
X-264414Y-275844D01*
X-264414Y-263652D01*
X-207264Y-206502D01*
X-198882Y-206502D01*
X-193548Y-211836D01*
X-193548Y-381000D01*
X-196596Y-767334D02*
X-206502Y-777240D01*
X-778002Y-635508D02*
X-784860Y-635508D01*
X-778002Y-635508D02*
X-747522Y-665988D01*
X-677418Y-665988D01*
X-636270Y-707136D01*
X-784860Y-635508D02*
X-784860Y-635000D01*
X-636270Y-707136D02*
X-635830Y-707672D01*
D42*
X-323088Y-313182D03*
X-193548Y-381000D03*
X-196596Y-767334D03*
X-206502Y-777240D03*
D41*
X-210312Y-800100D02*
X-170688Y-760476D01*
X-210312Y-800100D02*
X-210312Y-833628D01*
X-313182Y-936498D01*
X-336042Y-936498D01*
X-343662Y-928878D01*
X-343662Y-922782D01*
X-417576Y-848868D01*
X-430530Y-848868D01*
X-431006Y-848124D01*
X-574548Y-813054D02*
X-581406Y-813054D01*
X-574548Y-813054D02*
X-560832Y-826770D01*
X-452628Y-826770D01*
X-431292Y-848106D01*
X-581406Y-813054D02*
X-581660Y-812800D01*
X-431292Y-848106D02*
X-431006Y-848124D01*
D42*
X-170688Y-760476D03*
D41*
X-213360Y-637032D02*
X-288036Y-562356D01*
X-213360Y-637032D02*
X-213360Y-807720D01*
X-332740Y-927100D01*
D42*
X-288036Y-562356D03*
D41*
X-989838Y25908D02*
X-989838Y54102D01*
X-981456Y62484D01*
X-981456Y257556D01*
X-958596Y280416D01*
X-950214Y280416D01*
X-989838Y25908D02*
X-990100Y25400D01*
X-950214Y280416D02*
X-949789Y280791D01*
X-963168Y-215646D02*
X-963168Y-231648D01*
X-963168Y-215646D02*
X-1008888Y-169926D01*
X-1008888Y6858D01*
X-990600Y25146D01*
X-963168Y-231648D02*
X-962937Y-231722D01*
X-990600Y25146D02*
X-990100Y25400D01*
X-844296Y501396D02*
X-844296Y516636D01*
X-844296Y501396D02*
X-838962Y496062D01*
X-838962Y454152D01*
X-949452Y343662D01*
X-949452Y281178D01*
X-844296Y516636D02*
X-844752Y517047D01*
X-949452Y281178D02*
X-949789Y280791D01*
X-238506Y-348234D02*
X-238506Y-519684D01*
X-204978Y-614172D02*
X-204978Y-631698D01*
X-196596Y-640080D01*
X-196596Y-710946D01*
X-173736Y-733806D01*
X-176784Y-775716D02*
X-176784Y-845820D01*
X-280416Y-949452D01*
X-280791Y-949789D01*
X-717804Y-708660D02*
X-717804Y-682752D01*
X-717804Y-708660D02*
X-582168Y-844296D01*
X-517398Y-844296D01*
X-717804Y-682752D02*
X-718067Y-682146D01*
X-517398Y-844296D02*
X-517047Y-844752D01*
X-421386Y-949452D02*
X-281178Y-949452D01*
X-421386Y-949452D02*
X-494538Y-876300D01*
X-503682Y-876300D01*
X-516636Y-863346D01*
X-516636Y-845058D01*
X-281178Y-949452D02*
X-280791Y-949789D01*
X-516636Y-845058D02*
X-517047Y-844752D01*
D42*
X-238506Y-348234D03*
X-238506Y-519684D03*
X-204978Y-614172D03*
X-173736Y-733806D03*
X-176784Y-775716D03*
D41*
X-33528Y246126D02*
X-33528Y297942D01*
X-33528Y246126D02*
X-136398Y143256D01*
X-136398Y-56388D01*
X-52578Y-140208D01*
X-36576Y-140208D01*
D42*
X-33528Y297942D03*
X-36576Y-140208D03*
D41*
X-47244Y246126D02*
X-47244Y297942D01*
X-47244Y246126D02*
X-136398Y156972D01*
D42*
X-47244Y297942D03*
X-136398Y156972D03*
D41*
X-319278Y-262890D02*
X-377190Y-262890D01*
X-419100Y-304800D01*
D42*
X-319278Y-262890D03*
D39*
X-88392Y279654D02*
X-77724Y279654D01*
X-12954Y344424D01*
X-1524Y344424D01*
X-88392Y279654D02*
X-88900Y279400D01*
X117348Y316992D02*
X152400Y316992D01*
X117348Y316992D02*
X105918Y305562D01*
X9906Y305562D01*
X5334Y310134D01*
X5334Y336042D01*
X-762Y342138D01*
X152400Y317500D02*
X152400Y316992D01*
X-762Y342138D02*
X-1524Y344424D01*
D40*
X-1524Y344424D03*
D39*
X-470154Y-113538D02*
X-470154Y-184404D01*
X-470154Y-355092D01*
X-470154Y-113538D02*
X-583692Y0D01*
X-470154Y-355092D02*
X-469900Y-355600D01*
X-583692Y0D02*
X-584200Y0D01*
X127254Y54102D02*
X127254Y139446D01*
X127254Y54102D02*
X141732Y39624D01*
X141732Y-56388D01*
X281940Y-196596D01*
X348234Y-196596D01*
X352806Y-201168D01*
X365760Y-201168D01*
X390906Y-176022D01*
X394716Y-176022D01*
X506730Y-64008D01*
X506730Y-762D01*
X507492Y0D01*
X127254Y139446D02*
X127000Y139700D01*
X507492Y0D02*
X508000Y0D01*
X469392Y-249936D02*
X469392Y-406146D01*
X469392Y-249936D02*
X423672Y-204216D01*
X387096Y-204216D01*
X377952Y-213360D01*
X370332Y-213360D01*
X365760Y-208788D01*
X365760Y-201168D01*
X469392Y-406146D02*
X469900Y-406400D01*
X-243840Y-184404D02*
X-470154Y-184404D01*
X-243840Y-184404D02*
X-208026Y-148590D01*
X48006Y-148590D01*
X139446Y-57150D01*
X141732Y-56388D01*
X229362Y-191262D02*
X229362Y-204216D01*
X229362Y-272796D01*
X229362Y-191262D02*
X203200Y-165100D01*
X201168Y-164592D02*
X140208Y-164592D01*
X139700Y-165100D01*
X201168Y-164592D02*
X203200Y-165100D01*
X383286Y-348996D02*
X383286Y-396240D01*
X393192Y-406146D01*
X393700Y-406400D01*
X152400Y-785622D02*
X152400Y-787400D01*
X152400Y-785622D02*
X211836Y-726186D01*
X211836Y-625602D01*
X346710Y-490728D01*
X346710Y-454152D01*
X392430Y-408432D01*
X393700Y-406400D01*
X345186Y-204216D02*
X229362Y-204216D01*
X345186Y-204216D02*
X361950Y-220980D01*
X387858Y-220980D01*
X394716Y-214122D01*
X403098Y-214122D01*
X407670Y-218694D01*
X407670Y-323088D01*
X384048Y-346710D01*
X383286Y-348996D01*
D40*
X229362Y-272796D03*
X383286Y-348996D03*
D41*
X127254Y-829818D02*
X127254Y-838200D01*
X127254Y-829818D02*
X140208Y-816864D01*
X140208Y-766572D01*
X198882Y-707898D01*
X198882Y-513588D01*
X323850Y-388620D01*
X323850Y-371856D01*
X127254Y-838200D02*
X127000Y-838200D01*
D42*
X323850Y-371856D03*
D41*
X-114300Y228600D02*
X-114300Y236982D01*
X-126492Y249174D01*
X-126492Y355092D01*
X-117348Y364236D01*
X-117348Y460248D01*
X-127000Y469900D01*
X301752Y-390906D02*
X312420Y-390906D01*
X301752Y-390906D02*
X297942Y-394716D01*
X275844Y-394716D01*
X151638Y-365760D02*
X125730Y-339852D01*
X-29718Y-339852D01*
X-193548Y-176022D01*
X-193548Y-160782D01*
X-198882Y-155448D01*
X-207264Y-155448D01*
X-258318Y-206502D01*
X-409956Y-206502D01*
X-419100Y-215646D01*
X-419100Y-215900D01*
D42*
X312420Y-390906D03*
X275844Y-394716D03*
X151638Y-365760D03*
D39*
X-314706Y-344424D02*
X-350520Y-344424D01*
X-363474Y-357378D01*
X-391668Y-357378D01*
X-393192Y-355854D01*
X-393700Y-355600D01*
X-313944Y-342138D02*
X-293370Y-321564D01*
X-313944Y-342138D02*
X-314706Y-344424D01*
X-203454Y-218694D02*
X-203454Y-216408D01*
X-203454Y-218694D02*
X-259080Y-274320D01*
X-259080Y-285750D01*
X-292608Y-319278D01*
X-203454Y-216408D02*
X-203200Y-215900D01*
X-292608Y-319278D02*
X-293370Y-321564D01*
D40*
X-314706Y-344424D03*
X-293370Y-321564D03*
D41*
X332994Y-322326D02*
X332994Y-313944D01*
X374142Y-272796D01*
X374142Y-204978D02*
X512064Y-67056D01*
X512064Y-21336D01*
X533400Y0D01*
X-347472Y-369570D02*
X-357378Y-369570D01*
X-361188Y-365760D01*
X-183642Y351282D02*
X-163068Y351282D01*
X-183642Y351282D02*
X-199644Y367284D01*
X-257556Y367284D01*
X-558546Y66294D01*
X-558546Y0D01*
X-558800Y0D01*
X532638Y0D02*
X532638Y92202D01*
X257556Y367284D01*
X165354Y367284D01*
X147066Y348996D01*
X50292Y348996D01*
X532638Y0D02*
X533400Y0D01*
D42*
X332994Y-322326D03*
X374142Y-272796D03*
X374142Y-204978D03*
X-347472Y-369570D03*
X-361188Y-365760D03*
X-163068Y351282D03*
X50292Y348996D03*
D41*
X-303276Y-305562D02*
X-316992Y-305562D01*
X-330708Y-291846D01*
X-376428Y-291846D01*
X-140208Y330708D02*
X-140208Y337566D01*
X-172974Y370332D01*
X-263652Y370332D01*
X-503682Y130302D01*
X352044Y-192786D02*
X356616Y-192786D01*
X352044Y-192786D02*
X337566Y-178308D01*
X293370Y-178308D01*
X233934Y-118872D01*
X211836Y-118872D01*
X147066Y-54102D01*
X147066Y157734D01*
X-3048Y307848D01*
X-3048Y323850D01*
D42*
X-303276Y-305562D03*
X-376428Y-291846D03*
X-140208Y330708D03*
X-503682Y130302D03*
X356616Y-192786D03*
X-3048Y323850D03*
D41*
X262890Y-281178D02*
X262890Y-389382D01*
X246888Y-405384D01*
X126492Y-803910D02*
X126492Y-812292D01*
X126492Y-803910D02*
X115062Y-792480D01*
X115062Y-782574D01*
X173736Y-723900D01*
X126492Y-812292D02*
X127000Y-812800D01*
D42*
X262890Y-281178D03*
X246888Y-405384D03*
X173736Y-723900D03*
D41*
X277368Y-374904D02*
X277368Y-336042D01*
X464058Y-454914D02*
X564642Y-354330D01*
X611886Y-354330D01*
X619506Y-361950D01*
X704850Y-414528D02*
X704850Y-477774D01*
X383286Y-799338D01*
X162306Y-799338D01*
D42*
X277368Y-336042D03*
X277368Y-374904D03*
X464058Y-454914D03*
X619506Y-361950D03*
X704850Y-414528D03*
X162306Y-799338D03*
D41*
X344424Y-278130D02*
X359664Y-278130D01*
X371094Y-266700D01*
X377190Y-266700D01*
X380238Y-269748D01*
X380238Y-340614D01*
X374904Y-345948D01*
X374904Y-371094D01*
X526542Y-351282D02*
X617982Y-351282D01*
X630174Y-363474D01*
X630174Y-368046D01*
X703326Y-483870D02*
X707898Y-483870D01*
X703326Y-483870D02*
X384810Y-802386D01*
X180594Y-802386D01*
X170688Y-812292D01*
X152400Y-812292D01*
X152400Y-812800D01*
D42*
X344424Y-278130D03*
X374904Y-371094D03*
X526542Y-351282D03*
X630174Y-368046D03*
X707898Y-483870D03*
D41*
X-247650Y-304038D02*
X-247650Y-275082D01*
X-247650Y-304038D02*
X-355092Y-411480D01*
X-355092Y-482346D01*
X-355600Y-482600D01*
X-127254Y-803910D02*
X-127254Y-812292D01*
X-127254Y-803910D02*
X-140208Y-790956D01*
X-140208Y-781812D01*
X-174498Y-747522D01*
X-182880Y-747522D01*
X-210312Y-720090D01*
X-210312Y-635508D01*
X-281940Y-563880D01*
X-281940Y-556260D01*
X-355600Y-482600D01*
X-127254Y-812292D02*
X-127000Y-812800D01*
D42*
X-247650Y-275082D03*
D41*
X-209550Y-336042D02*
X-209550Y-530352D01*
X-198882Y-541020D01*
X-198882Y-593598D01*
X-211074Y-605790D01*
X-211074Y-621030D01*
X-185928Y-730758D02*
X-175260Y-741426D01*
X-151638Y-741426D01*
X-112014Y-781050D01*
X-112014Y-823722D01*
X-126492Y-838200D01*
X-127000Y-838200D01*
D42*
X-209550Y-336042D03*
X-211074Y-621030D03*
X-185928Y-730758D03*
D41*
X-244602Y-534162D02*
X-244602Y-310134D01*
X-244602Y-534162D02*
X-251460Y-541020D01*
X-251460Y-589788D01*
X-199644Y-641604D01*
X-199644Y-726186D01*
X-181356Y-744474D01*
X-153162Y-744474D01*
X-115062Y-782574D01*
X-115062Y-817626D01*
X-121920Y-824484D01*
X-140970Y-824484D01*
X-152400Y-813054D01*
X-152400Y-812800D01*
D42*
X-244602Y-310134D03*
M02*
