G04 EAGLE Gerber RS-274X export*
G75*
%MOMM*%
%FSLAX34Y34*%
%LPD*%
%INTop Copper*%
%IPPOS*%
%AMOC8*
5,1,8,0,0,1.08239X$1,22.5*%
G01*
%ADD10P,1.429621X8X22.500000*%
%ADD11C,1.320800*%
%ADD12P,1.429621X8X202.500000*%
%ADD13P,1.429621X8X292.500000*%
%ADD14P,1.429621X8X112.500000*%
%ADD15C,1.320800*%
%ADD16R,1.470000X0.550000*%
%ADD17R,0.550000X1.470000*%
%ADD18C,1.524000*%
%ADD19R,4.000000X4.000000*%
%ADD20P,1.429621X8X157.500000*%
%ADD21P,1.429621X8X172.500000*%
%ADD22P,1.429621X8X187.500000*%
%ADD23P,1.429621X8X217.500000*%
%ADD24P,1.429621X8X232.500000*%
%ADD25P,1.429621X8X247.500000*%
%ADD26P,1.429621X8X262.500000*%
%ADD27P,1.429621X8X277.500000*%
%ADD28P,1.429621X8X37.500000*%
%ADD29P,1.429621X8X307.500000*%
%ADD30P,1.429621X8X322.500000*%
%ADD31P,1.429621X8X337.500000*%
%ADD32P,1.429621X8X352.500000*%
%ADD33P,1.429621X8X367.500000*%
%ADD34P,1.429621X8X52.500000*%
%ADD35P,1.429621X8X67.500000*%
%ADD36P,1.429621X8X82.500000*%
%ADD37P,1.429621X8X97.500000*%
%ADD38P,1.429621X8X127.500000*%
%ADD39P,1.429621X8X142.500000*%
%ADD40C,1.575000*%
%ADD41C,1.879600*%
%ADD42C,0.152400*%
%ADD43C,0.508000*%
%ADD44C,1.016000*%
%ADD45C,0.756400*%


D10*
X-66040Y-939800D03*
D11*
X-86360Y-939800D03*
D10*
X607060Y622300D03*
D11*
X586740Y622300D03*
D10*
X429260Y520700D03*
D11*
X408940Y520700D03*
D10*
X276860Y419100D03*
D11*
X256540Y419100D03*
D10*
X99060Y495300D03*
D11*
X78740Y495300D03*
D10*
X-256540Y419100D03*
D11*
X-276860Y419100D03*
D10*
X-408940Y520700D03*
D11*
X-429260Y520700D03*
D10*
X-586740Y622300D03*
D11*
X-607060Y622300D03*
D10*
X-802640Y571500D03*
D11*
X-822960Y571500D03*
D10*
X-916940Y342900D03*
D11*
X-937260Y342900D03*
D12*
X-949960Y-63500D03*
D11*
X-929640Y-63500D03*
D10*
X353060Y-927100D03*
D11*
X332740Y-927100D03*
D10*
X-967740Y-177800D03*
D11*
X-988060Y-177800D03*
D10*
X-891540Y-419100D03*
D11*
X-911860Y-419100D03*
D10*
X-764540Y-635000D03*
D11*
X-784860Y-635000D03*
D10*
X-561340Y-812800D03*
D11*
X-581660Y-812800D03*
D12*
X-353060Y-927100D03*
D11*
X-332740Y-927100D03*
D10*
X63500Y-279400D03*
X114300Y-279400D03*
X63500Y-330200D03*
X114300Y-330200D03*
D12*
X76200Y-165100D03*
X25400Y-165100D03*
D10*
X-76200Y-165100D03*
X-25400Y-165100D03*
D12*
X-63500Y-330200D03*
X-114300Y-330200D03*
D10*
X581660Y-812800D03*
D11*
X561340Y-812800D03*
D12*
X-63500Y-279400D03*
X-114300Y-279400D03*
D13*
X266700Y-165100D03*
X266700Y-215900D03*
D12*
X152400Y368300D03*
X101600Y368300D03*
D13*
X-419100Y-254000D03*
X-419100Y-304800D03*
X203200Y-165100D03*
X203200Y-215900D03*
X139700Y-165100D03*
X139700Y-215900D03*
D12*
X152400Y317500D03*
X101600Y317500D03*
X764540Y-635000D03*
D11*
X784860Y-635000D03*
D12*
X152400Y266700D03*
X101600Y266700D03*
D14*
X-203200Y-215900D03*
X-203200Y-165100D03*
X-139700Y-215900D03*
X-139700Y-165100D03*
D12*
X891540Y-419100D03*
D11*
X911860Y-419100D03*
D12*
X967740Y-177800D03*
D11*
X988060Y-177800D03*
D10*
X949960Y-63500D03*
D11*
X929640Y-63500D03*
D12*
X916940Y342900D03*
D11*
X937260Y342900D03*
D12*
X802640Y571500D03*
D11*
X822960Y571500D03*
D15*
X400304Y-406400D02*
X387096Y-406400D01*
X463296Y-406400D02*
X476504Y-406400D01*
X127000Y209296D02*
X127000Y222504D01*
X127000Y146304D02*
X127000Y133096D01*
X-387096Y-355600D02*
X-400304Y-355600D01*
X-463296Y-355600D02*
X-476504Y-355600D01*
D16*
X346500Y-345500D03*
X346500Y-337500D03*
X346500Y-329500D03*
X346500Y-321500D03*
X346500Y-313500D03*
X346500Y-305500D03*
X346500Y-297500D03*
X346500Y-289500D03*
D17*
X332800Y-275800D03*
X324800Y-275800D03*
X316800Y-275800D03*
X308800Y-275800D03*
X300800Y-275800D03*
X292800Y-275800D03*
X284800Y-275800D03*
X276800Y-275800D03*
D16*
X263100Y-289500D03*
X263100Y-297500D03*
X263100Y-305500D03*
X263100Y-313500D03*
X263100Y-321500D03*
X263100Y-329500D03*
X263100Y-337500D03*
X263100Y-345500D03*
D17*
X276800Y-359200D03*
X284800Y-359200D03*
X292800Y-359200D03*
X300800Y-359200D03*
X308800Y-359200D03*
X316800Y-359200D03*
X324800Y-359200D03*
X332800Y-359200D03*
D16*
X-16300Y370900D03*
X-16300Y362900D03*
X-16300Y354900D03*
X-16300Y346900D03*
X-16300Y338900D03*
X-16300Y330900D03*
X-16300Y322900D03*
X-16300Y314900D03*
D17*
X-2600Y301200D03*
X5400Y301200D03*
X13400Y301200D03*
X21400Y301200D03*
X29400Y301200D03*
X37400Y301200D03*
X45400Y301200D03*
X53400Y301200D03*
D16*
X67100Y314900D03*
X67100Y322900D03*
X67100Y330900D03*
X67100Y338900D03*
X67100Y346900D03*
X67100Y354900D03*
X67100Y362900D03*
X67100Y370900D03*
D17*
X53400Y384600D03*
X45400Y384600D03*
X37400Y384600D03*
X29400Y384600D03*
X21400Y384600D03*
X13400Y384600D03*
X5400Y384600D03*
X-2600Y384600D03*
X-332800Y-359200D03*
X-324800Y-359200D03*
X-316800Y-359200D03*
X-308800Y-359200D03*
X-300800Y-359200D03*
X-292800Y-359200D03*
X-284800Y-359200D03*
X-276800Y-359200D03*
D16*
X-263100Y-345500D03*
X-263100Y-337500D03*
X-263100Y-329500D03*
X-263100Y-321500D03*
X-263100Y-313500D03*
X-263100Y-305500D03*
X-263100Y-297500D03*
X-263100Y-289500D03*
D17*
X-276800Y-275800D03*
X-284800Y-275800D03*
X-292800Y-275800D03*
X-300800Y-275800D03*
X-308800Y-275800D03*
X-316800Y-275800D03*
X-324800Y-275800D03*
X-332800Y-275800D03*
D16*
X-346500Y-289500D03*
X-346500Y-297500D03*
X-346500Y-305500D03*
X-346500Y-313500D03*
X-346500Y-321500D03*
X-346500Y-329500D03*
X-346500Y-337500D03*
X-346500Y-345500D03*
D18*
X584200Y-7620D02*
X584200Y7620D01*
X558800Y7620D02*
X558800Y-7620D01*
X533400Y-7620D02*
X533400Y7620D01*
X508000Y7620D02*
X508000Y-7620D01*
X-508000Y-7620D02*
X-508000Y7620D01*
X-533400Y7620D02*
X-533400Y-7620D01*
X-558800Y-7620D02*
X-558800Y7620D01*
X-584200Y7620D02*
X-584200Y-7620D01*
D19*
X332300Y-431800D03*
X277300Y-431800D03*
X65600Y177800D03*
X10600Y177800D03*
X-332300Y-431800D03*
X-277300Y-431800D03*
D12*
X139700Y-942300D03*
X38100Y-942300D03*
D20*
X707672Y635830D03*
X635830Y707672D03*
D21*
X518994Y556024D03*
X431006Y606824D03*
D22*
X294947Y472682D03*
X196809Y498978D03*
D12*
X50800Y454700D03*
X-50800Y454700D03*
D23*
X-196809Y498978D03*
X-294947Y472682D03*
D24*
X-431006Y606824D03*
X-518994Y556024D03*
D25*
X-635830Y707672D03*
X-707672Y635830D03*
D26*
X-797324Y518994D03*
X-848124Y431006D03*
D27*
X-904482Y294947D03*
X-930778Y196809D03*
D10*
X-990600Y66000D03*
X-889000Y66000D03*
D28*
X196809Y-930778D03*
X294947Y-904482D03*
D29*
X-930778Y-196809D03*
X-904482Y-294947D03*
D30*
X-848124Y-431006D03*
X-797324Y-518994D03*
D31*
X-707672Y-635830D03*
X-635830Y-707672D03*
D32*
X-518994Y-797324D03*
X-431006Y-848124D03*
D33*
X-294947Y-904482D03*
X-196809Y-930778D03*
D12*
X358100Y-482600D03*
X256500Y-482600D03*
X76200Y241300D03*
X-25400Y241300D03*
D10*
X-355600Y-482600D03*
X-254000Y-482600D03*
D12*
X419100Y-215900D03*
X317500Y-215900D03*
D13*
X-127000Y469900D03*
X-127000Y368300D03*
D34*
X431006Y-848124D03*
X518994Y-797324D03*
D10*
X-419100Y-215900D03*
X-317500Y-215900D03*
D35*
X635830Y-707672D03*
X707672Y-635830D03*
D36*
X797324Y-518994D03*
X848124Y-431006D03*
D37*
X904482Y-294947D03*
X930778Y-196809D03*
D12*
X990600Y61000D03*
X889000Y61000D03*
D38*
X930778Y196809D03*
X904482Y294947D03*
D39*
X848124Y431006D03*
X797324Y518994D03*
D40*
X-25400Y-982225D02*
X-25400Y-997975D01*
X0Y-997975D02*
X0Y-982225D01*
X25400Y-982225D02*
X25400Y-997975D01*
X712499Y676577D02*
X723635Y687714D01*
X705675Y705675D02*
X694538Y694538D01*
X676578Y712498D02*
X687714Y723635D01*
X520985Y610272D02*
X513110Y596632D01*
X491113Y609332D02*
X498988Y622972D01*
X476990Y635672D02*
X469115Y622032D01*
X282829Y525596D02*
X278753Y510382D01*
X254219Y516956D02*
X258295Y532170D01*
X233760Y538744D02*
X229684Y523530D01*
X25400Y502675D02*
X25400Y486925D01*
X0Y486925D02*
X0Y502675D01*
X-25400Y502675D02*
X-25400Y486925D01*
X-229684Y523530D02*
X-233760Y538744D01*
X-258295Y532170D02*
X-254219Y516956D01*
X-278753Y510382D02*
X-282829Y525596D01*
X-469116Y622032D02*
X-476990Y635672D01*
X-498987Y622972D02*
X-491113Y609332D01*
X-513110Y596632D02*
X-520985Y610272D01*
X-676578Y712498D02*
X-687714Y723635D01*
X-705675Y705675D02*
X-694538Y694538D01*
X-712499Y676577D02*
X-723635Y687714D01*
X-837932Y513110D02*
X-851572Y520985D01*
X-864272Y498987D02*
X-850632Y491113D01*
X-863332Y469115D02*
X-876972Y476990D01*
X-942183Y278753D02*
X-957396Y282829D01*
X-963970Y258295D02*
X-948757Y254219D01*
X-955331Y229684D02*
X-970544Y233760D01*
X-982225Y25400D02*
X-997975Y25400D01*
X-997975Y0D02*
X-982225Y0D01*
X-982225Y-25400D02*
X-997975Y-25400D01*
X229684Y-955330D02*
X233760Y-970544D01*
X258295Y-963970D02*
X254219Y-948756D01*
X278753Y-942182D02*
X282829Y-957396D01*
X-955331Y-229684D02*
X-970544Y-233760D01*
X-963970Y-258295D02*
X-948757Y-254219D01*
X-942183Y-278753D02*
X-957396Y-282829D01*
X-863332Y-469115D02*
X-876972Y-476990D01*
X-864272Y-498988D02*
X-850632Y-491113D01*
X-837932Y-513110D02*
X-851572Y-520985D01*
X-712499Y-676577D02*
X-723635Y-687714D01*
X-705675Y-705675D02*
X-694538Y-694538D01*
X-676578Y-712498D02*
X-687714Y-723635D01*
X-513110Y-837932D02*
X-520985Y-851572D01*
X-498988Y-864272D02*
X-491113Y-850632D01*
X-469115Y-863332D02*
X-476990Y-876972D01*
X-278753Y-942182D02*
X-282829Y-957396D01*
X-258295Y-963970D02*
X-254219Y-948756D01*
X-229684Y-955330D02*
X-233760Y-970544D01*
X469115Y-863332D02*
X476990Y-876972D01*
X498988Y-864272D02*
X491113Y-850632D01*
X513110Y-837932D02*
X520985Y-851572D01*
X676578Y-712498D02*
X687714Y-723635D01*
X705675Y-705675D02*
X694538Y-694538D01*
X712499Y-676577D02*
X723635Y-687714D01*
X837932Y-513110D02*
X851572Y-520985D01*
X864272Y-498988D02*
X850632Y-491113D01*
X863332Y-469115D02*
X876972Y-476990D01*
X942183Y-278753D02*
X957396Y-282829D01*
X963970Y-258295D02*
X948757Y-254219D01*
X955331Y-229684D02*
X970544Y-233760D01*
X982225Y-25400D02*
X997975Y-25400D01*
X997975Y0D02*
X982225Y0D01*
X982225Y25400D02*
X997975Y25400D01*
X955331Y229684D02*
X970544Y233760D01*
X963970Y258295D02*
X948757Y254219D01*
X942183Y278753D02*
X957396Y282829D01*
X863332Y469115D02*
X876972Y476990D01*
X864272Y498987D02*
X850632Y491113D01*
X837932Y513110D02*
X851572Y520985D01*
D11*
X177800Y-280670D03*
X177800Y-328930D03*
X24130Y-241300D03*
X-24130Y-241300D03*
X-177800Y-328930D03*
X-177800Y-280670D03*
D41*
X127000Y-787400D03*
X152400Y-787400D03*
X127000Y-812800D03*
X152400Y-812800D03*
X127000Y-838200D03*
X152400Y-838200D03*
X-114300Y279400D03*
X-88900Y279400D03*
X-114300Y254000D03*
X-88900Y254000D03*
X-114300Y228600D03*
X-88900Y228600D03*
X-127000Y-838200D03*
X-152400Y-838200D03*
X-127000Y-812800D03*
X-152400Y-812800D03*
X-127000Y-787400D03*
X-152400Y-787400D03*
D42*
X73152Y-942594D02*
X139446Y-942594D01*
X73152Y-942594D02*
X25908Y-989838D01*
X139446Y-942594D02*
X139700Y-942300D01*
X25908Y-989838D02*
X25400Y-990100D01*
D43*
X348996Y-927354D02*
X352806Y-927354D01*
X348996Y-927354D02*
X305562Y-970788D01*
X270510Y-970788D01*
X256794Y-957072D01*
X352806Y-927354D02*
X353060Y-927100D01*
X256794Y-957072D02*
X256257Y-956363D01*
X950214Y-63246D02*
X950214Y-39624D01*
X989838Y0D01*
X950214Y-63246D02*
X949960Y-63500D01*
X989838Y0D02*
X990100Y0D01*
X581660Y-812800D02*
X528828Y-865632D01*
X502920Y-865632D01*
X495300Y-858012D01*
X495050Y-857452D01*
X764286Y-665226D02*
X764286Y-635508D01*
X764286Y-665226D02*
X729234Y-700278D01*
X700278Y-700278D01*
X764286Y-635508D02*
X764540Y-635000D01*
X700106Y-700106D02*
X700278Y-700278D01*
X582930Y-787908D02*
X582930Y-810768D01*
X582930Y-787908D02*
X671322Y-699516D01*
X697992Y-699516D01*
X582930Y-810768D02*
X581660Y-812800D01*
X697992Y-699516D02*
X700106Y-700106D01*
X-49530Y-940308D02*
X-65532Y-940308D01*
X-49530Y-940308D02*
X0Y-989838D01*
X-65532Y-940308D02*
X-66040Y-939800D01*
X0Y-989838D02*
X0Y-990100D01*
X-518922Y-813054D02*
X-560832Y-813054D01*
X-518922Y-813054D02*
X-495300Y-836676D01*
X-495300Y-857250D01*
X-560832Y-813054D02*
X-561340Y-812800D01*
X-495300Y-857250D02*
X-495050Y-857452D01*
X-352806Y-927354D02*
X-348996Y-927354D01*
X-305562Y-970788D01*
X-270510Y-970788D01*
X-256794Y-957072D01*
X-352806Y-927354D02*
X-353060Y-927100D01*
X-256794Y-957072D02*
X-256257Y-956363D01*
X-967740Y-198120D02*
X-967740Y-177800D01*
X-967740Y-198120D02*
X-941832Y-224028D01*
X-941832Y-241554D01*
X-956310Y-256032D01*
X-956363Y-256257D01*
X-950214Y-63246D02*
X-950214Y-39624D01*
X-989838Y0D01*
X-950214Y-63246D02*
X-949960Y-63500D01*
X-989838Y0D02*
X-990100Y0D01*
X-966216Y-80772D02*
X-966216Y-176022D01*
X-966216Y-80772D02*
X-950976Y-65532D01*
X-966216Y-176022D02*
X-967740Y-177800D01*
X-950976Y-65532D02*
X-949960Y-63500D01*
X-891540Y-419100D02*
X-891540Y-421386D01*
X-849630Y-463296D01*
X-849630Y-486918D01*
X-857250Y-494538D01*
X-857452Y-495050D01*
X-764286Y-635508D02*
X-735330Y-635508D01*
X-699516Y-671322D01*
X-699516Y-699516D01*
X-764286Y-635508D02*
X-764540Y-635000D01*
X-699516Y-699516D02*
X-700106Y-700106D01*
X-857250Y-507492D02*
X-857250Y-497586D01*
X-857250Y-507492D02*
X-865632Y-515874D01*
X-865632Y-531876D01*
X-765048Y-632460D01*
X-857250Y-497586D02*
X-857452Y-495050D01*
X-765048Y-632460D02*
X-764540Y-635000D01*
X152400Y-838200D02*
X152400Y-844296D01*
X27432Y-969264D01*
X20574Y-969264D01*
X1524Y-988314D01*
X0Y-990100D01*
X-300990Y-400050D02*
X-300990Y-359664D01*
X-300990Y-400050D02*
X-332232Y-431292D01*
X-300990Y-359664D02*
X-300800Y-359200D01*
X-332232Y-431292D02*
X-332300Y-431800D01*
X-309372Y-299466D02*
X-309372Y-290322D01*
X-309372Y-275844D01*
X-309372Y-299466D02*
X-311658Y-301752D01*
X-311658Y-333756D01*
X-300990Y-344424D01*
X-300990Y-356616D01*
X-308800Y-275800D02*
X-309372Y-275844D01*
X-300990Y-356616D02*
X-300800Y-359200D01*
X-507492Y-165354D02*
X-507492Y0D01*
X-507492Y-165354D02*
X-419100Y-253746D01*
X-507492Y0D02*
X-508000Y0D01*
X-419100Y-253746D02*
X-419100Y-254000D01*
X-309372Y-290322D02*
X-307086Y-290322D01*
X-63246Y-279654D02*
X-63246Y-329946D01*
X-63500Y-330200D01*
X-63246Y-279654D02*
X-63500Y-279400D01*
X-140208Y-164592D02*
X-202692Y-164592D01*
X-203200Y-165100D01*
X-140208Y-164592D02*
X-139700Y-165100D01*
X-137922Y-164592D02*
X-76200Y-164592D01*
X-76200Y-165100D01*
X-137922Y-164592D02*
X-139700Y-165100D01*
X200406Y-321564D02*
X262890Y-321564D01*
X200406Y-321564D02*
X169926Y-291084D01*
X109728Y-291084D01*
X102870Y-284226D01*
X102870Y-252984D01*
X139446Y-216408D01*
X262890Y-321564D02*
X263100Y-321500D01*
X139446Y-216408D02*
X139700Y-215900D01*
X141732Y-215646D02*
X202692Y-215646D01*
X203200Y-215900D01*
X141732Y-215646D02*
X139700Y-215900D01*
X337566Y-313182D02*
X345948Y-313182D01*
X337566Y-313182D02*
X329946Y-305562D01*
X345948Y-313182D02*
X346500Y-313500D01*
X316992Y-215646D02*
X266700Y-165354D01*
X266700Y-165100D01*
X316992Y-215646D02*
X317500Y-215900D01*
X399288Y-184404D02*
X583692Y0D01*
X399288Y-184404D02*
X348996Y-184404D01*
X317500Y-215900D01*
X583692Y0D02*
X584200Y0D01*
X332232Y-393954D02*
X332232Y-431292D01*
X332300Y-431800D01*
X214884Y-215646D02*
X205740Y-215646D01*
X214884Y-215646D02*
X264414Y-166116D01*
X205740Y-215646D02*
X203200Y-215900D01*
X264414Y-166116D02*
X266700Y-165100D01*
X-16764Y339090D02*
X-163068Y339090D01*
X-171450Y347472D01*
X-171450Y355092D01*
X-158496Y368046D01*
X-127254Y368046D01*
X-16764Y339090D02*
X-16300Y338900D01*
X-127000Y368300D02*
X-127254Y368046D01*
X-236982Y419100D02*
X-256540Y419100D01*
X-236982Y419100D02*
X-173736Y355854D01*
X-171450Y355092D01*
X-917448Y342900D02*
X-917448Y284226D01*
X-944880Y256794D01*
X-956310Y256794D01*
X-917448Y342900D02*
X-916940Y342900D01*
X-956310Y256794D02*
X-956363Y256257D01*
X-803148Y530352D02*
X-803148Y571500D01*
X-803148Y530352D02*
X-827532Y505968D01*
X-827532Y504444D01*
X-836676Y495300D01*
X-857250Y495300D01*
X-803148Y571500D02*
X-802640Y571500D01*
X-857250Y495300D02*
X-857452Y495050D01*
X-915924Y457200D02*
X-915924Y345186D01*
X-915924Y457200D02*
X-879348Y493776D01*
X-859536Y493776D01*
X-915924Y345186D02*
X-916940Y342900D01*
X-859536Y493776D02*
X-857452Y495050D01*
X-586740Y622554D02*
X-525018Y622554D01*
X-523494Y624078D01*
X-502920Y624078D01*
X-495300Y616458D01*
X-586740Y622300D02*
X-586740Y622554D01*
X-495300Y616458D02*
X-495050Y616152D01*
X67818Y347472D02*
X76962Y347472D01*
X89916Y360426D01*
X89916Y372618D01*
X96774Y379476D01*
X112776Y379476D02*
X141732Y379476D01*
X112776Y379476D02*
X96774Y379476D01*
X141732Y379476D02*
X152400Y368808D01*
X67818Y347472D02*
X67100Y346900D01*
X152400Y368300D02*
X152400Y368808D01*
X101346Y316992D02*
X101346Y266700D01*
X101600Y266700D01*
X101346Y316992D02*
X101600Y317500D01*
X66294Y211074D02*
X66294Y178308D01*
X66294Y211074D02*
X100584Y245364D01*
X100584Y264414D01*
X66294Y178308D02*
X65600Y177800D01*
X100584Y264414D02*
X101600Y266700D01*
X112776Y328422D02*
X112776Y379476D01*
X112776Y328422D02*
X103632Y319278D01*
X101600Y317500D01*
X-249936Y524256D02*
X-256032Y524256D01*
X-249936Y524256D02*
X-235458Y509778D01*
X-200406Y509778D01*
X-194310Y515874D01*
X-20574Y515874D01*
X0Y495300D01*
X-256032Y524256D02*
X-256257Y524563D01*
X0Y495300D02*
X0Y494800D01*
X76200Y-118872D02*
X76200Y-165100D01*
X76200Y-118872D02*
X137922Y-57150D01*
X137922Y103632D01*
X66294Y175260D01*
X65600Y177800D01*
D44*
X-307086Y-290322D03*
X329946Y-305562D03*
X332232Y-393954D03*
D42*
X473202Y-870204D02*
X488442Y-870204D01*
X494538Y-876300D01*
X531876Y-876300D01*
X681990Y-726186D01*
X681990Y-718566D01*
X473202Y-870204D02*
X473053Y-870152D01*
X681990Y-718566D02*
X682146Y-718067D01*
X240792Y-963168D02*
X232410Y-963168D01*
X240792Y-963168D02*
X253746Y-976122D01*
X355092Y-976122D01*
X461010Y-870204D01*
X472440Y-870204D01*
X232410Y-963168D02*
X231722Y-962937D01*
X472440Y-870204D02*
X473053Y-870152D01*
X316992Y-275082D02*
X316992Y-269748D01*
X320802Y-265938D01*
X345186Y-265938D01*
X348234Y-268986D01*
X392430Y-228600D02*
X392430Y-220218D01*
X409194Y-203454D01*
X483870Y-203454D01*
X582930Y-302514D01*
X823722Y-496062D02*
X844296Y-516636D01*
X316800Y-275800D02*
X316992Y-275082D01*
X844296Y-516636D02*
X844752Y-517047D01*
D45*
X348234Y-268986D03*
X392430Y-228600D03*
X582930Y-302514D03*
X823722Y-496062D03*
D42*
X262128Y-931164D02*
X197358Y-931164D01*
X262128Y-931164D02*
X280416Y-949452D01*
X197358Y-931164D02*
X196809Y-930778D01*
X280416Y-949452D02*
X280791Y-949789D01*
X293370Y-365760D02*
X293370Y-359664D01*
X293370Y-365760D02*
X308610Y-381000D01*
X505968Y-381000D01*
X535686Y-351282D01*
X617982Y-351282D01*
X625602Y-358902D01*
X642366Y-358902D01*
X669036Y-385572D01*
X688848Y-385572D01*
X733806Y-430530D01*
X848106Y-430530D01*
X293370Y-359664D02*
X292800Y-359200D01*
X848106Y-430530D02*
X848124Y-431006D01*
X905256Y-419100D02*
X911860Y-419100D01*
X905256Y-419100D02*
X893826Y-430530D01*
X848868Y-430530D01*
X848124Y-431006D01*
X-325374Y-275082D02*
X-325374Y-243078D01*
X-497586Y-70866D01*
X-497586Y438150D01*
X-627888Y568452D01*
X-785622Y568452D01*
X-798576Y581406D01*
X-813054Y581406D01*
X-822960Y571500D01*
X-325374Y-275082D02*
X-324800Y-275800D01*
X431292Y-848106D02*
X477012Y-848106D01*
X486156Y-838962D01*
X511302Y-838962D01*
X516636Y-844296D01*
X431292Y-848106D02*
X431006Y-848124D01*
X516636Y-844296D02*
X517047Y-844752D01*
X276606Y-359664D02*
X136398Y-359664D01*
X-203454Y-392430D02*
X-203454Y-475488D01*
X-254508Y-526542D01*
X-254508Y-591312D01*
X-202692Y-643128D01*
X-202692Y-770382D01*
X-191262Y-781812D01*
X-164592Y-781812D01*
X-121158Y-738378D01*
X184404Y-738378D01*
X213360Y-767334D01*
X213360Y-779526D01*
X231648Y-797814D01*
X518922Y-797814D01*
X276606Y-359664D02*
X276800Y-359200D01*
X518994Y-797324D02*
X518922Y-797814D01*
X534162Y-812292D02*
X560832Y-812292D01*
X534162Y-812292D02*
X519684Y-797814D01*
X560832Y-812292D02*
X561340Y-812800D01*
X519684Y-797814D02*
X518994Y-797324D01*
D45*
X136398Y-359664D03*
X-203454Y-392430D03*
D42*
X284988Y-358902D02*
X284988Y-353568D01*
X292608Y-345948D01*
X328422Y-345948D01*
X374142Y-391668D02*
X477774Y-391668D01*
X518922Y-23622D02*
X518922Y413766D01*
X513588Y419100D01*
X513588Y444246D01*
X602742Y533400D01*
X642366Y533400D01*
X898398Y277368D01*
X898398Y-19050D01*
X940308Y-60960D01*
X940308Y-117348D01*
X997458Y-174498D01*
X997458Y-289560D01*
X921258Y-365760D01*
X921258Y-480060D01*
X784860Y-616458D01*
X784860Y-625602D02*
X784860Y-635000D01*
X784860Y-625602D02*
X784860Y-616458D01*
X284988Y-358902D02*
X284800Y-359200D01*
X707898Y-635508D02*
X750570Y-635508D01*
X760476Y-625602D01*
X784860Y-625602D01*
X707898Y-635508D02*
X707672Y-635830D01*
D45*
X328422Y-345948D03*
X374142Y-391668D03*
X477774Y-391668D03*
X518922Y-23622D03*
D42*
X797814Y-512826D02*
X797814Y-518922D01*
X797814Y-512826D02*
X837438Y-473202D01*
X869442Y-473202D01*
X797814Y-518922D02*
X797324Y-518994D01*
X869442Y-473202D02*
X870152Y-473053D01*
X904494Y-294894D02*
X904494Y-281940D01*
X954024Y-232410D01*
X962406Y-232410D01*
X904494Y-294894D02*
X904482Y-294947D01*
X962406Y-232410D02*
X962937Y-231722D01*
X262890Y-329184D02*
X200406Y-329184D01*
X167640Y-296418D01*
X107442Y-296418D01*
X97536Y-286512D01*
X97536Y-105156D01*
X160020Y-42672D01*
X160020Y260604D01*
X163830Y264414D01*
X163830Y332232D01*
X234696Y403098D01*
X467868Y403098D01*
X601218Y536448D01*
X662940Y536448D01*
X896874Y302514D02*
X903732Y295656D01*
X896874Y302514D02*
X662940Y536448D01*
X262890Y-329184D02*
X263100Y-329500D01*
X903732Y295656D02*
X904482Y294947D01*
X896874Y302514D02*
X937260Y342900D01*
X990600Y61000D02*
X990600Y25908D01*
X990100Y25400D01*
X931164Y197358D02*
X931164Y262128D01*
X949452Y280416D01*
X931164Y197358D02*
X930778Y196809D01*
X949452Y280416D02*
X949789Y280791D01*
X300990Y-359664D02*
X300990Y-364998D01*
X313944Y-377952D01*
X477774Y-377952D01*
X498348Y-357378D01*
X300990Y-359664D02*
X300800Y-359200D01*
X980694Y-178308D02*
X987552Y-178308D01*
X980694Y-178308D02*
X962406Y-196596D01*
X931164Y-196596D01*
X987552Y-178308D02*
X988060Y-177800D01*
X931164Y-196596D02*
X930778Y-196809D01*
D45*
X498348Y-357378D03*
D42*
X848106Y431292D02*
X848106Y477012D01*
X838962Y486156D01*
X838962Y511302D01*
X844296Y516636D01*
X848106Y431292D02*
X848124Y431006D01*
X844296Y516636D02*
X844752Y517047D01*
X707136Y636270D02*
X707136Y666750D01*
X682752Y691134D01*
X682752Y717804D01*
X707136Y636270D02*
X707672Y635830D01*
X682752Y717804D02*
X682146Y718067D01*
X518922Y564642D02*
X518922Y556260D01*
X518922Y564642D02*
X473202Y610362D01*
X473202Y628650D01*
X518922Y556260D02*
X518994Y556024D01*
X473202Y628650D02*
X473053Y628852D01*
X294894Y473202D02*
X281178Y473202D01*
X232410Y521970D01*
X232410Y531114D01*
X294894Y473202D02*
X294947Y472682D01*
X232410Y531114D02*
X231722Y531137D01*
X50292Y454914D02*
X14478Y454914D01*
X-25146Y494538D01*
X50292Y454914D02*
X50800Y454700D01*
X-25146Y494538D02*
X-25400Y494800D01*
X-197358Y499110D02*
X-262128Y499110D01*
X-280416Y517398D01*
X-197358Y499110D02*
X-196809Y498978D01*
X-280416Y517398D02*
X-280791Y517989D01*
X-431292Y606552D02*
X-477012Y606552D01*
X-486156Y597408D01*
X-511302Y597408D01*
X-516636Y602742D01*
X-431292Y606552D02*
X-431006Y606824D01*
X-516636Y602742D02*
X-517047Y603452D01*
X-636270Y707136D02*
X-666750Y707136D01*
X-691134Y682752D01*
X-717804Y682752D01*
X-636270Y707136D02*
X-635830Y707672D01*
X-717804Y682752D02*
X-718067Y682146D01*
X67818Y363474D02*
X73152Y363474D01*
X115824Y406146D01*
X466344Y406146D01*
X603504Y543306D01*
X773430Y543306D01*
X784098Y532638D02*
X797052Y519684D01*
X784098Y532638D02*
X773430Y543306D01*
X67818Y363474D02*
X67100Y362900D01*
X797052Y519684D02*
X797324Y518994D01*
X784098Y532638D02*
X822960Y571500D01*
X67056Y371094D02*
X54102Y371094D01*
X54102Y408432D02*
X58674Y408432D01*
X159258Y509016D01*
X240792Y509016D01*
X287274Y462534D01*
X298704Y462534D01*
X421386Y585216D01*
X421386Y611124D01*
X448818Y638556D01*
X464058Y638556D01*
X472440Y646938D01*
X562356Y646938D01*
X568833Y640461D02*
X586740Y622554D01*
X568833Y640461D02*
X562356Y646938D01*
X67056Y371094D02*
X67100Y370900D01*
X586740Y622300D02*
X586740Y622554D01*
X568833Y640461D02*
X635508Y707136D01*
X635830Y707672D01*
D45*
X54102Y371094D03*
X54102Y408432D03*
D42*
X54102Y384810D02*
X80010Y384810D01*
X104394Y409194D01*
X297180Y409194D01*
X408432Y520446D01*
X54102Y384810D02*
X53400Y384600D01*
X408432Y520446D02*
X408940Y520700D01*
X430530Y542544D02*
X430530Y606552D01*
X430530Y542544D02*
X409194Y521208D01*
X430530Y606552D02*
X431006Y606824D01*
X409194Y521208D02*
X408940Y520700D01*
X45720Y390906D02*
X45720Y384810D01*
X45720Y390906D02*
X153162Y498348D01*
X196596Y498348D01*
X45720Y384810D02*
X45400Y384600D01*
X196596Y498348D02*
X196809Y498978D01*
X256032Y438150D02*
X256032Y419100D01*
X256032Y438150D02*
X196596Y497586D01*
X256032Y419100D02*
X256540Y419100D01*
X196596Y497586D02*
X196809Y498978D01*
X37338Y390144D02*
X37338Y384810D01*
X18669Y408813D02*
X-26670Y454152D01*
X18669Y408813D02*
X37338Y390144D01*
X-26670Y454152D02*
X-50292Y454152D01*
X37338Y384810D02*
X37400Y384600D01*
X-50292Y454152D02*
X-50800Y454700D01*
X78486Y468630D02*
X78486Y495300D01*
X78486Y468630D02*
X18669Y408813D01*
X78486Y495300D02*
X78740Y495300D01*
X28956Y390906D02*
X28956Y384810D01*
X28956Y390906D02*
X-25908Y445770D01*
X-73152Y445770D01*
X-108966Y481584D01*
X-276606Y481584D02*
X-286512Y481584D01*
X-276606Y481584D02*
X-108966Y481584D01*
X-286512Y481584D02*
X-294894Y473202D01*
X28956Y384810D02*
X29400Y384600D01*
X-294947Y472682D02*
X-294894Y473202D01*
X-276606Y481584D02*
X-276606Y419100D01*
X-276860Y419100D01*
X67818Y330708D02*
X73914Y330708D01*
X85344Y319278D01*
X85344Y237744D01*
X48768Y201168D01*
X44958Y201168D01*
X33528Y189738D01*
X33528Y156972D01*
X32004Y155448D01*
X-33528Y155448D01*
X-102108Y224028D01*
X-102108Y233172D01*
X-111252Y242316D01*
X-119634Y242316D01*
X-163830Y286512D01*
X-163830Y332232D01*
X-240792Y409194D01*
X-317754Y409194D01*
X-429260Y520700D01*
X67100Y330900D02*
X67818Y330708D01*
X-464058Y555498D02*
X-518922Y555498D01*
X-464058Y555498D02*
X-429260Y520700D01*
X-518922Y555498D02*
X-518994Y556024D01*
X36576Y355092D02*
X67056Y355092D01*
X67100Y354900D01*
X-620268Y635508D02*
X-707136Y635508D01*
X-620268Y635508D02*
X-607060Y622300D01*
X-707136Y635508D02*
X-707672Y635830D01*
D45*
X36576Y355092D03*
D42*
X717804Y633222D02*
X717804Y681990D01*
X717423Y632841D02*
X705612Y621030D01*
X717423Y632841D02*
X717804Y633222D01*
X705612Y621030D02*
X619506Y621030D01*
X601980Y603504D01*
X517398Y603504D01*
X717804Y681990D02*
X718067Y682146D01*
X517398Y603504D02*
X517047Y603452D01*
X870204Y488442D02*
X870204Y473202D01*
X870204Y488442D02*
X876300Y494538D01*
X876300Y531114D01*
X774954Y632460D01*
X717804Y632460D01*
X870204Y473202D02*
X870152Y473053D01*
X717804Y632460D02*
X717423Y632841D01*
X-569976Y717804D02*
X-681990Y717804D01*
X-569976Y717804D02*
X-481584Y629412D01*
X-473202Y629412D01*
X-681990Y717804D02*
X-682146Y718067D01*
X-473202Y629412D02*
X-473053Y628852D01*
X13716Y313944D02*
X13716Y301752D01*
X13400Y301200D01*
X-10668Y531114D02*
X-231648Y531114D01*
X-10668Y531114D02*
X25146Y495300D01*
X-231648Y531114D02*
X-231722Y531137D01*
X25146Y495300D02*
X25400Y494800D01*
X-428244Y628650D02*
X-472440Y628650D01*
X-428244Y628650D02*
X-343662Y544068D01*
X-244602Y544068D01*
X-232410Y531876D01*
X-472440Y628650D02*
X-473053Y628852D01*
X-232410Y531876D02*
X-231722Y531137D01*
X280416Y526542D02*
X280416Y518160D01*
X280416Y526542D02*
X256794Y550164D01*
X154686Y550164D01*
X109728Y505206D01*
X35814Y505206D01*
X25908Y495300D01*
X280416Y518160D02*
X280791Y517989D01*
X25908Y495300D02*
X25400Y494800D01*
D45*
X13716Y313944D03*
D42*
X-797814Y518922D02*
X-805434Y518922D01*
X-851154Y473202D01*
X-869442Y473202D01*
X-797814Y518922D02*
X-797324Y518994D01*
X-869442Y473202D02*
X-870152Y473053D01*
X-904494Y294894D02*
X-904494Y281940D01*
X-954024Y232410D01*
X-962406Y232410D01*
X-904494Y294894D02*
X-904482Y294947D01*
X-962406Y232410D02*
X-962937Y231722D01*
X-990600Y66000D02*
X-990600Y47244D01*
X-1008888Y28956D01*
X-1008888Y-6858D01*
X-990600Y-25146D01*
X-990100Y-25400D01*
X-931164Y-197358D02*
X-931164Y-262128D01*
X-949452Y-280416D01*
X-931164Y-197358D02*
X-930778Y-196809D01*
X-949452Y-280416D02*
X-949789Y-280791D01*
X-848106Y-431292D02*
X-848106Y-457200D01*
X-838962Y-466344D01*
X-838962Y-511302D01*
X-844296Y-516636D01*
X-848106Y-431292D02*
X-848124Y-431006D01*
X-844296Y-516636D02*
X-844752Y-517047D01*
X-707136Y-636270D02*
X-707136Y-656082D01*
X-682752Y-680466D01*
X-682752Y-717804D01*
X-707136Y-636270D02*
X-707672Y-635830D01*
X-682752Y-717804D02*
X-682146Y-718067D01*
X-518922Y-797814D02*
X-518922Y-805434D01*
X-473202Y-851154D01*
X-473202Y-869442D01*
X-518922Y-797814D02*
X-518994Y-797324D01*
X-473202Y-869442D02*
X-473053Y-870152D01*
X-294894Y-904494D02*
X-281940Y-904494D01*
X-232410Y-954024D01*
X-232410Y-962406D01*
X-294894Y-904494D02*
X-294947Y-904482D01*
X-232410Y-962406D02*
X-231722Y-962937D01*
X263652Y-304800D02*
X270510Y-304800D01*
X273558Y-301752D01*
X273558Y-286512D01*
X271272Y-284226D01*
X271272Y-267462D01*
X275844Y-262890D01*
X363474Y-262890D01*
X399288Y-222504D02*
X415290Y-206502D01*
X477774Y-206502D01*
X627126Y-355854D01*
X643890Y-355854D01*
X670560Y-382524D01*
X690372Y-382524D01*
X701802Y-393954D01*
X731520Y-393954D01*
X920496Y-204978D01*
X920496Y-73152D01*
X929640Y-64008D01*
X263652Y-304800D02*
X263100Y-305500D01*
X929640Y-64008D02*
X929640Y-63500D01*
X889254Y-22860D02*
X889254Y60960D01*
X889254Y-22860D02*
X929640Y-63246D01*
X889254Y60960D02*
X889000Y61000D01*
X929640Y-63246D02*
X929640Y-63500D01*
D45*
X363474Y-262890D03*
X399288Y-222504D03*
D42*
X262890Y-336804D02*
X203454Y-336804D01*
X168402Y-301752D01*
X69342Y-301752D01*
X29718Y-262128D01*
X-298704Y-262128D01*
X-432054Y-329184D02*
X-432054Y-335280D01*
X-424434Y-342900D01*
X-424434Y-348996D01*
X-440436Y-364998D01*
X-553974Y-364998D01*
X-564642Y-354330D01*
X-630936Y-354330D01*
X-704850Y-428244D01*
X-704850Y-477774D01*
X-356616Y-826008D02*
X-147066Y-826008D01*
X-138684Y-834390D01*
X-138684Y-887730D01*
X-86868Y-939546D01*
X263100Y-337500D02*
X262890Y-336804D01*
X-86360Y-939800D02*
X-86868Y-939546D01*
D45*
X-298704Y-262128D03*
X-432054Y-329184D03*
X-704850Y-477774D03*
X-356616Y-826008D03*
D42*
X207264Y-345186D02*
X262890Y-345186D01*
X207264Y-345186D02*
X182118Y-320040D01*
X111252Y-320040D01*
X105156Y-326136D01*
X105156Y-337566D01*
X152400Y-384810D01*
X191262Y-384810D01*
X227076Y-420624D01*
X227076Y-516636D01*
X181356Y-744474D02*
X181356Y-790194D01*
X209550Y-818388D01*
X263100Y-345500D02*
X262890Y-345186D01*
X317754Y-926592D02*
X332232Y-926592D01*
X317754Y-926592D02*
X295656Y-904494D01*
X332232Y-926592D02*
X332740Y-927100D01*
X295656Y-904494D02*
X294947Y-904482D01*
D45*
X227076Y-516636D03*
X181356Y-744474D03*
X209550Y-818388D03*
D42*
X-332994Y-275082D02*
X-499110Y-108966D01*
X-332994Y-275082D02*
X-332800Y-275800D01*
D45*
X-499110Y-108966D03*
D42*
X-361188Y-288798D02*
X-346710Y-288798D01*
X-361188Y-288798D02*
X-364236Y-285750D01*
X-346710Y-288798D02*
X-346500Y-289500D01*
X-889254Y-22860D02*
X-889254Y65532D01*
X-889254Y-22860D02*
X-929640Y-63246D01*
X-889254Y65532D02*
X-889000Y66000D01*
X-929640Y-63246D02*
X-929640Y-63500D01*
D45*
X-364236Y-285750D03*
D42*
X-345948Y-297942D02*
X-333756Y-297942D01*
X-430530Y-345948D02*
X-627126Y-345948D01*
X-675132Y-393954D01*
X-805434Y-393954D01*
X-903732Y-295656D01*
X-346500Y-297500D02*
X-345948Y-297942D01*
X-903732Y-295656D02*
X-904482Y-294947D01*
D45*
X-333756Y-297942D03*
X-430530Y-345948D03*
D42*
X-359664Y-304800D02*
X-346710Y-304800D01*
X-367284Y-348996D02*
X-367284Y-492252D01*
X-241554Y-617982D01*
X-232410Y-617982D01*
X-213360Y-637032D01*
X-213360Y-779526D01*
X-231648Y-797814D01*
X-468630Y-797814D01*
X-746760Y-519684D01*
X-797052Y-519684D01*
X-346500Y-305500D02*
X-346710Y-304800D01*
X-797324Y-518994D02*
X-797052Y-519684D01*
D45*
X-359664Y-304800D03*
X-367284Y-348996D03*
D42*
X-345948Y-313182D02*
X-323088Y-313182D01*
X-193548Y-381000D02*
X-193548Y-392430D01*
X-196596Y-395478D01*
X-196596Y-710946D01*
X-179832Y-727710D01*
X-179832Y-750570D01*
X-196596Y-767334D01*
X-206502Y-777240D02*
X-230124Y-800862D01*
X-501396Y-800862D01*
X-594360Y-707898D01*
X-635508Y-707898D01*
X-346500Y-313500D02*
X-345948Y-313182D01*
X-635508Y-707898D02*
X-635830Y-707672D01*
D45*
X-323088Y-313182D03*
X-193548Y-381000D03*
X-196596Y-767334D03*
X-206502Y-777240D03*
D42*
X-292608Y-275082D02*
X-292608Y-268986D01*
X-288798Y-265176D01*
X28194Y-265176D01*
X150876Y-387858D01*
X189738Y-387858D01*
X196596Y-394716D01*
X196596Y-708660D01*
X187452Y-717804D01*
X-128016Y-717804D01*
X-170688Y-760476D01*
X-292800Y-275800D02*
X-292608Y-275082D01*
D45*
X-170688Y-760476D03*
D42*
X-316992Y-329946D02*
X-316992Y-275844D01*
X-316992Y-329946D02*
X-355092Y-368046D01*
X-355092Y-409956D01*
X-355854Y-410718D01*
X-355854Y-469392D01*
X-288036Y-537210D01*
X-288036Y-562356D01*
X-316992Y-275844D02*
X-316800Y-275800D01*
X-251460Y-930402D02*
X-197358Y-930402D01*
X-251460Y-930402D02*
X-287274Y-894588D01*
X-300228Y-894588D01*
X-332740Y-927100D01*
X-197358Y-930402D02*
X-196809Y-930778D01*
D45*
X-288036Y-562356D03*
D42*
X-262890Y-329946D02*
X-256794Y-329946D01*
X-238506Y-348234D01*
X-238506Y-519684D02*
X-238506Y-528066D01*
X-251460Y-541020D01*
X-251460Y-567690D01*
X-204978Y-614172D01*
X-173736Y-733806D02*
X-173736Y-754380D01*
X-176784Y-757428D01*
X-176784Y-775716D01*
X-262890Y-329946D02*
X-263100Y-329500D01*
X-870204Y-473202D02*
X-870204Y-488442D01*
X-876300Y-494538D01*
X-876300Y-530352D01*
X-774192Y-632460D01*
X-774192Y-639318D01*
X-731520Y-681990D01*
X-718566Y-681990D01*
X-870204Y-473202D02*
X-870152Y-473053D01*
X-718566Y-681990D02*
X-718067Y-682146D01*
X-963168Y-240792D02*
X-963168Y-232410D01*
X-963168Y-240792D02*
X-976122Y-253746D01*
X-976122Y-342138D01*
X-901446Y-416814D01*
X-901446Y-441198D01*
X-870204Y-472440D01*
X-963168Y-232410D02*
X-962937Y-231722D01*
X-870204Y-472440D02*
X-870152Y-473053D01*
D45*
X-238506Y-348234D03*
X-238506Y-519684D03*
X-204978Y-614172D03*
X-173736Y-733806D03*
X-176784Y-775716D03*
D42*
X346710Y-288798D02*
X369570Y-265938D01*
X369570Y-259842D01*
X335280Y-225552D01*
X289560Y-225552D01*
X270510Y-206502D01*
X252222Y-206502D01*
X178308Y-280416D01*
X346500Y-289500D02*
X346710Y-288798D01*
X178308Y-280416D02*
X177800Y-280670D01*
X178308Y-279654D02*
X114300Y-279654D01*
X114300Y-279400D01*
X177800Y-280670D02*
X178308Y-279654D01*
X325374Y-297180D02*
X345948Y-297180D01*
X325374Y-297180D02*
X271272Y-351282D01*
X200406Y-351282D01*
X178308Y-329184D01*
X345948Y-297180D02*
X346500Y-297500D01*
X178308Y-329184D02*
X177800Y-328930D01*
X178308Y-329946D02*
X114300Y-329946D01*
X114300Y-330200D01*
X177800Y-328930D02*
X178308Y-329946D01*
X-33528Y297942D02*
X-16764Y314706D01*
X762Y-140208D02*
X-36576Y-140208D01*
X762Y-140208D02*
X25146Y-164592D01*
X-16764Y314706D02*
X-16300Y314900D01*
X25146Y-164592D02*
X25400Y-165100D01*
X24384Y-164592D02*
X24384Y-240792D01*
X24130Y-241300D01*
X25400Y-165100D02*
X24384Y-164592D01*
D45*
X-33528Y297942D03*
X-36576Y-140208D03*
D42*
X-22860Y322326D02*
X-16764Y322326D01*
X-22860Y322326D02*
X-47244Y297942D01*
X-136398Y156972D02*
X-136398Y-56388D01*
X-28194Y-164592D01*
X-25908Y-164592D01*
X-16764Y322326D02*
X-16300Y322900D01*
X-25908Y-164592D02*
X-25400Y-165100D01*
X-24384Y-166116D02*
X-24384Y-240792D01*
X-24384Y-166116D02*
X-25400Y-165100D01*
X-24384Y-240792D02*
X-24130Y-241300D01*
D45*
X-47244Y297942D03*
X-136398Y156972D03*
D42*
X-208026Y-358902D02*
X-276606Y-358902D01*
X-208026Y-358902D02*
X-178308Y-329184D01*
X-276606Y-358902D02*
X-276800Y-359200D01*
X-178308Y-329184D02*
X-177800Y-328930D01*
X-178308Y-329946D02*
X-114300Y-329946D01*
X-114300Y-330200D01*
X-177800Y-328930D02*
X-178308Y-329946D01*
X-284226Y-303276D02*
X-284226Y-358902D01*
X-284226Y-303276D02*
X-272796Y-291846D01*
X-272796Y-285750D01*
X-268224Y-281178D01*
X-178308Y-281178D01*
X-284226Y-358902D02*
X-284800Y-359200D01*
X-178308Y-281178D02*
X-177800Y-280670D01*
X-176784Y-279654D02*
X-114300Y-279654D01*
X-176784Y-279654D02*
X-177800Y-280670D01*
X-114300Y-279654D02*
X-114300Y-279400D01*
X256794Y-451866D02*
X256794Y-482346D01*
X256794Y-451866D02*
X276606Y-432054D01*
X256794Y-482346D02*
X256500Y-482600D01*
X276606Y-432054D02*
X277300Y-431800D01*
X-25146Y213360D02*
X-25146Y240792D01*
X-25146Y213360D02*
X9906Y178308D01*
X-25146Y240792D02*
X-25400Y241300D01*
X9906Y178308D02*
X10600Y177800D01*
X-254508Y-454152D02*
X-254508Y-482346D01*
X-254508Y-454152D02*
X-276606Y-432054D01*
X-254508Y-482346D02*
X-254000Y-482600D01*
X-276606Y-432054D02*
X-277300Y-431800D01*
X256794Y-313182D02*
X262890Y-313182D01*
X256794Y-313182D02*
X220980Y-277368D01*
X220980Y-262128D01*
X266700Y-216408D01*
X262890Y-313182D02*
X263100Y-313500D01*
X266700Y-216408D02*
X266700Y-215900D01*
X76200Y339090D02*
X67818Y339090D01*
X76200Y339090D02*
X101346Y364236D01*
X101346Y368046D01*
X67818Y339090D02*
X67100Y338900D01*
X101346Y368046D02*
X101600Y368300D01*
X-300990Y-268986D02*
X-300990Y-275082D01*
X-300990Y-268986D02*
X-307086Y-262890D01*
X-319278Y-262890D01*
X-300990Y-275082D02*
X-300800Y-275800D01*
D45*
X-319278Y-262890D03*
D43*
X127254Y216408D02*
X127254Y241554D01*
X152400Y266700D01*
X127254Y216408D02*
X127000Y215900D01*
X152400Y266700D02*
X152400Y317500D01*
X67056Y323088D02*
X44958Y323088D01*
X21336Y346710D01*
X-1524Y346710D02*
X-16002Y346710D01*
X-1524Y346710D02*
X21336Y346710D01*
X67056Y323088D02*
X67100Y322900D01*
X-16002Y346710D02*
X-16300Y346900D01*
X-1524Y346710D02*
X-1524Y344424D01*
D44*
X-1524Y344424D03*
D43*
X253746Y-297180D02*
X262890Y-297180D01*
X253746Y-297180D02*
X229362Y-272796D01*
X262890Y-297180D02*
X263100Y-297500D01*
X346710Y-321564D02*
X355854Y-321564D01*
X383286Y-348996D01*
X346710Y-321564D02*
X346500Y-321500D01*
D44*
X229362Y-272796D03*
X383286Y-348996D03*
D42*
X309372Y-359664D02*
X309372Y-365760D01*
X313182Y-369570D01*
X323850Y-369570D02*
X367284Y-369570D01*
X323850Y-369570D02*
X313182Y-369570D01*
X367284Y-369570D02*
X379476Y-357378D01*
X386334Y-357378D01*
X419100Y-324612D01*
X419100Y-215900D01*
X308800Y-359200D02*
X309372Y-359664D01*
X323850Y-369570D02*
X323850Y-371856D01*
D45*
X323850Y-371856D03*
D42*
X21336Y378714D02*
X21336Y384048D01*
X21336Y378714D02*
X17526Y374904D01*
X-6858Y374904D01*
X-101346Y469392D01*
X-126492Y469392D01*
X21400Y384600D02*
X21336Y384048D01*
X-126492Y469392D02*
X-127000Y469900D01*
X-346710Y-320802D02*
X-352806Y-320802D01*
X-370332Y-303276D01*
X-370332Y-265176D01*
X-419100Y-216408D01*
X-346710Y-320802D02*
X-346500Y-321500D01*
X-419100Y-216408D02*
X-419100Y-215900D01*
X-126492Y-787908D02*
X85344Y-787908D01*
X121920Y-824484D01*
X562356Y-824484D01*
X572262Y-814578D01*
X572262Y-610362D01*
X704850Y-477774D01*
X704850Y-428244D01*
X671322Y-394716D01*
X656082Y-394716D01*
X635508Y-374142D01*
X620268Y-374142D01*
X600456Y-354330D01*
X537210Y-354330D01*
X505968Y-385572D01*
X317754Y-385572D01*
X312420Y-390906D01*
X275844Y-394716D02*
X205740Y-394716D01*
X176784Y-365760D01*
X151638Y-365760D01*
X-127000Y-787400D02*
X-126492Y-787908D01*
D45*
X312420Y-390906D03*
X275844Y-394716D03*
X151638Y-365760D03*
D43*
X-140208Y-215646D02*
X-202692Y-215646D01*
X-203200Y-215900D01*
X-140208Y-215646D02*
X-139700Y-215900D01*
X-309372Y-349758D02*
X-309372Y-358902D01*
X-309372Y-349758D02*
X-314706Y-344424D01*
X-309372Y-358902D02*
X-308800Y-359200D01*
X-284988Y-296418D02*
X-284988Y-275844D01*
X-284988Y-296418D02*
X-293370Y-304800D01*
X-293370Y-321564D01*
X-284988Y-275844D02*
X-284800Y-275800D01*
X-403860Y-838200D02*
X-152400Y-838200D01*
X-403860Y-838200D02*
X-456438Y-890778D01*
X-519684Y-890778D01*
X-663702Y-746760D01*
X-663702Y-663702D01*
X-704850Y-622554D01*
X-720090Y-622554D01*
X-824484Y-518160D01*
X-824484Y-392430D01*
X-916686Y-300228D01*
X-916686Y-57912D01*
X-838200Y20574D01*
X-838200Y339852D01*
X-643128Y534924D01*
X-601980Y534924D01*
X-512064Y445008D01*
X-512064Y71628D01*
X-571500Y12192D01*
X-571500Y-177546D01*
X-393954Y-355092D01*
X-393700Y-355600D01*
D44*
X-314706Y-344424D03*
X-293370Y-321564D03*
D42*
X339852Y-329184D02*
X345948Y-329184D01*
X339852Y-329184D02*
X332994Y-322326D01*
X374142Y-272796D02*
X374142Y-204978D01*
X345948Y-329184D02*
X346500Y-329500D01*
X-316992Y-359664D02*
X-316992Y-364998D01*
X-321564Y-369570D01*
X-347472Y-369570D01*
X-361188Y-365760D02*
X-361188Y-329946D01*
X-558546Y-132588D01*
X-558546Y0D01*
X-316800Y-359200D02*
X-316992Y-359664D01*
X-558546Y0D02*
X-558800Y0D01*
X-160020Y354330D02*
X-16764Y354330D01*
X-160020Y354330D02*
X-163068Y351282D01*
X-16764Y354330D02*
X-16300Y354900D01*
X33528Y348996D02*
X50292Y348996D01*
X33528Y348996D02*
X28194Y354330D01*
X-16002Y354330D01*
X-16300Y354900D01*
D45*
X332994Y-322326D03*
X374142Y-272796D03*
X374142Y-204978D03*
X-347472Y-369570D03*
X-361188Y-365760D03*
X-163068Y351282D03*
X50292Y348996D03*
D42*
X346710Y-304800D02*
X352806Y-304800D01*
X386334Y-271272D01*
X386334Y-220218D01*
X392811Y-213741D02*
X595122Y-11430D01*
X392811Y-213741D02*
X386334Y-220218D01*
X595122Y-11430D02*
X595122Y11430D01*
X588264Y18288D01*
X577596Y18288D01*
X559308Y0D01*
X346710Y-304800D02*
X346500Y-305500D01*
X558800Y0D02*
X559308Y0D01*
X-293370Y-332994D02*
X-293370Y-358902D01*
X-293370Y-332994D02*
X-303276Y-323088D01*
X-303276Y-305562D01*
X-376428Y-291846D02*
X-394716Y-291846D01*
X-451104Y-235458D01*
X-451104Y-229362D01*
X-518922Y-161544D01*
X-518922Y-14478D01*
X-533400Y0D01*
X-293370Y-358902D02*
X-292800Y-359200D01*
X-140208Y330708D02*
X-16764Y330708D01*
X-503682Y130302D02*
X-503682Y28956D01*
X-532638Y0D01*
X-16764Y330708D02*
X-16300Y330900D01*
X-532638Y0D02*
X-533400Y0D01*
X371856Y-192786D02*
X392811Y-213741D01*
X371856Y-192786D02*
X356616Y-192786D01*
X-3048Y323850D02*
X-9906Y330708D01*
X-16002Y330708D01*
X-16300Y330900D01*
D45*
X-303276Y-305562D03*
X-376428Y-291846D03*
X-140208Y330708D03*
X-503682Y130302D03*
X356616Y-192786D03*
X-3048Y323850D03*
D42*
X262890Y-281178D02*
X262890Y-288798D01*
X246888Y-405384D02*
X246888Y-486156D01*
X251841Y-491109D02*
X252222Y-491490D01*
X251841Y-491109D02*
X246888Y-486156D01*
X252222Y-491490D02*
X348996Y-491490D01*
X357378Y-483108D01*
X263100Y-289500D02*
X262890Y-288798D01*
X358100Y-482600D02*
X357378Y-483108D01*
X185928Y-723900D02*
X173736Y-723900D01*
X185928Y-723900D02*
X213360Y-696468D01*
X213360Y-600456D01*
X251460Y-562356D01*
X251460Y-491490D01*
X251841Y-491109D01*
D45*
X262890Y-281178D03*
X246888Y-405384D03*
X173736Y-723900D03*
D42*
X277368Y-336042D02*
X277368Y-275844D01*
X277368Y-374904D02*
X277368Y-387096D01*
X309372Y-419100D01*
X309372Y-453390D01*
X310896Y-454914D01*
X464058Y-454914D01*
X619506Y-361950D02*
X639318Y-361950D01*
X665988Y-388620D01*
X678942Y-388620D01*
X704850Y-414528D01*
X162306Y-799338D02*
X157734Y-799338D01*
X156972Y-800100D01*
X139446Y-800100D01*
X127254Y-787908D01*
X276800Y-275800D02*
X277368Y-275844D01*
X127000Y-787400D02*
X127254Y-787908D01*
D45*
X277368Y-336042D03*
X277368Y-374904D03*
X464058Y-454914D03*
X619506Y-361950D03*
X704850Y-414528D03*
X162306Y-799338D03*
D42*
X284988Y-281940D02*
X284988Y-275844D01*
X284988Y-281940D02*
X288798Y-285750D01*
X336804Y-285750D01*
X344424Y-278130D01*
X374904Y-371094D02*
X464058Y-371094D01*
X483870Y-351282D01*
X526542Y-351282D01*
X630174Y-368046D02*
X640842Y-368046D01*
X664464Y-391668D01*
X672846Y-391668D01*
X707898Y-426720D01*
X707898Y-483870D01*
X284988Y-275844D02*
X284800Y-275800D01*
D45*
X344424Y-278130D03*
X374904Y-371094D03*
X526542Y-351282D03*
X630174Y-368046D03*
X707898Y-483870D03*
D42*
X67818Y249936D02*
X67818Y250698D01*
X67818Y314706D01*
X67818Y249936D02*
X76200Y241554D01*
X67818Y314706D02*
X67100Y314900D01*
X76200Y241554D02*
X76200Y241300D01*
X-105918Y253746D02*
X-114300Y253746D01*
X-105918Y253746D02*
X-94488Y242316D01*
X-37338Y242316D01*
X-28956Y250698D01*
X67818Y250698D01*
X-114300Y253746D02*
X-114300Y254000D01*
X53340Y301752D02*
X53340Y307086D01*
X40386Y320040D01*
X2286Y320040D01*
X-25908Y291846D01*
X-102108Y291846D01*
X-114300Y279654D01*
X53400Y301200D02*
X53340Y301752D01*
X-114300Y279654D02*
X-114300Y279400D01*
X44958Y294894D02*
X44958Y300990D01*
X44958Y294894D02*
X4572Y254508D01*
X-88392Y254508D01*
X44958Y300990D02*
X45400Y301200D01*
X-88392Y254508D02*
X-88900Y254000D01*
X-247650Y-275082D02*
X-276606Y-275082D01*
X-276800Y-275800D01*
D45*
X-247650Y-275082D03*
D42*
X-256032Y-289560D02*
X-262890Y-289560D01*
X-256032Y-289560D02*
X-209550Y-336042D01*
X-211074Y-621030D02*
X-211074Y-630174D01*
X-199644Y-641604D01*
X-199644Y-717042D01*
X-185928Y-730758D01*
X-262890Y-289560D02*
X-263100Y-289500D01*
D45*
X-209550Y-336042D03*
X-211074Y-621030D03*
X-185928Y-730758D03*
D42*
X-256794Y-297942D02*
X-262890Y-297942D01*
X-256794Y-297942D02*
X-244602Y-310134D01*
X-262890Y-297942D02*
X-263100Y-297500D01*
D45*
X-244602Y-310134D03*
M02*
