G04 EAGLE Gerber RS-274X export*
G75*
%MOMM*%
%FSLAX34Y34*%
%LPD*%
%INSolderpaste Top*%
%IPPOS*%
%AMOC8*
5,1,8,0,0,1.08239X$1,22.5*%
G01*
%ADD10R,1.470000X0.550000*%
%ADD11R,0.550000X1.470000*%
%ADD12R,1.500000X2.600000*%


D10*
X346500Y-345500D03*
X346500Y-337500D03*
X346500Y-329500D03*
X346500Y-321500D03*
X346500Y-313500D03*
X346500Y-305500D03*
X346500Y-297500D03*
X346500Y-289500D03*
D11*
X332800Y-275800D03*
X324800Y-275800D03*
X316800Y-275800D03*
X308800Y-275800D03*
X300800Y-275800D03*
X292800Y-275800D03*
X284800Y-275800D03*
X276800Y-275800D03*
D10*
X263100Y-289500D03*
X263100Y-297500D03*
X263100Y-305500D03*
X263100Y-313500D03*
X263100Y-321500D03*
X263100Y-329500D03*
X263100Y-337500D03*
X263100Y-345500D03*
D11*
X276800Y-359200D03*
X284800Y-359200D03*
X292800Y-359200D03*
X300800Y-359200D03*
X308800Y-359200D03*
X316800Y-359200D03*
X324800Y-359200D03*
X332800Y-359200D03*
D10*
X-16300Y370900D03*
X-16300Y362900D03*
X-16300Y354900D03*
X-16300Y346900D03*
X-16300Y338900D03*
X-16300Y330900D03*
X-16300Y322900D03*
X-16300Y314900D03*
D11*
X-2600Y301200D03*
X5400Y301200D03*
X13400Y301200D03*
X21400Y301200D03*
X29400Y301200D03*
X37400Y301200D03*
X45400Y301200D03*
X53400Y301200D03*
D10*
X67100Y314900D03*
X67100Y322900D03*
X67100Y330900D03*
X67100Y338900D03*
X67100Y346900D03*
X67100Y354900D03*
X67100Y362900D03*
X67100Y370900D03*
D11*
X53400Y384600D03*
X45400Y384600D03*
X37400Y384600D03*
X29400Y384600D03*
X21400Y384600D03*
X13400Y384600D03*
X5400Y384600D03*
X-2600Y384600D03*
X-332800Y-359200D03*
X-324800Y-359200D03*
X-316800Y-359200D03*
X-308800Y-359200D03*
X-300800Y-359200D03*
X-292800Y-359200D03*
X-284800Y-359200D03*
X-276800Y-359200D03*
D10*
X-263100Y-345500D03*
X-263100Y-337500D03*
X-263100Y-329500D03*
X-263100Y-321500D03*
X-263100Y-313500D03*
X-263100Y-305500D03*
X-263100Y-297500D03*
X-263100Y-289500D03*
D11*
X-276800Y-275800D03*
X-284800Y-275800D03*
X-292800Y-275800D03*
X-300800Y-275800D03*
X-308800Y-275800D03*
X-316800Y-275800D03*
X-324800Y-275800D03*
X-332800Y-275800D03*
D10*
X-346500Y-289500D03*
X-346500Y-297500D03*
X-346500Y-305500D03*
X-346500Y-313500D03*
X-346500Y-321500D03*
X-346500Y-329500D03*
X-346500Y-337500D03*
X-346500Y-345500D03*
D12*
X319800Y-431800D03*
X289800Y-431800D03*
X53100Y177800D03*
X23100Y177800D03*
X-319800Y-431800D03*
X-289800Y-431800D03*
M02*
